<?xml version="1.0" standalone="no"?>
<!DOCTYPE svg PUBLIC "-//W3C//DTD SVG 1.1//EN" "http://www.w3.org/Graphics/SVG/1.1/DTD/svg11.dtd" >
<svg>
<metadata>
Created by FontForge 20090622 at Wed Jan 11 04:13:03 2017
 By deploy user
Copyright (c) 2009 by Jos Buivenga. All rights reserved. TK-rip
</metadata>
<defs>
<font id="MuseoSlab-1000Italic" horiz-adv-x="638" >
  <font-face 
    font-family="Museo Slab 1000"
    font-weight="400"
    font-style="italic"
    font-stretch="normal"
    units-per-em="1000"
    panose-1="2 0 0 0 0 0 0 0 0 0"
    ascent="750"
    descent="-250"
    x-height="519"
    cap-height="719"
    bbox="-143 -259 1374 928"
    underline-thickness="50"
    underline-position="-50"
    unicode-range="U+0020-U+FB04"
  />
<missing-glyph horiz-adv-x="510" 
d="M-53 0v700h500v-700h-500zM197 395l170 255h-340zM397 95v510l-170 -255zM-3 95l170 255l-170 255v-510zM27 50h340l-170 255z" />
    <glyph glyph-name="f_f" unicode="ff" horiz-adv-x="797" 
d="M91 0l72 371h-63l29 148h63l4 21q11 60 44.5 101.5t79 60t83.5 25.5t78 7q25 0 49 -2l19 -3l-33 -161l-14 2q-18 2 -34 2q-58 0 -65 -37l-3 -16h176l4 21q11 60 44.5 101.5t79 60t83.5 25.5t78 7q25 0 49 -2l19 -3l-33 -161l-14 2q-18 2 -34 2q-58 0 -65 -37l-3 -16h98
l-28 -148h-99l-72 -371h-209l73 371h-175l-73 -371h-208z" />
    <glyph glyph-name="fi" unicode="fi" horiz-adv-x="757" 
d="M91 0l72 371h-63l29 148h63l4 21q11 60 44.5 101.5t79 60t83.5 25.5t78 7q25 0 49 -2l19 -3l-33 -161l-14 2q-18 2 -34 2q-58 0 -65 -37l-3 -16h374l-60 -305q-4 -12 -4 -34q0 -32 36 -32h17l-29 -148l-16 -2q-11 -1 -41 -1q-34 0 -55.5 1.5t-48.5 8.5t-42 20.5t-26 38
t-11 60.5q0 31 9 73l34 172h-165l-73 -371h-208zM579 567l29 152h201l-29 -152h-201z" />
    <glyph glyph-name="fl" unicode="fl" horiz-adv-x="768" 
d="M91 0l72 371h-63l29 148h63l3 12q23 109 115.5 160.5t228.5 51.5q102 0 191 -20q33 -7 80 -20l-91 -474q-6 -23 -6 -41q0 -15 7.5 -22t28.5 -7q3 0 7 0.5t6 0.5h7l-33 -163l-16 -2q-11 -1 -41 -1q-39 0 -68 5.5t-56.5 19.5t-42 44t-14.5 75q0 36 7 74l73 372l-21 3
q-24 2 -44 2q-49 0 -76.5 -16.5t-33.5 -40.5l-3 -13h99l-28 -148h-99l-73 -371h-208z" />
    <glyph glyph-name="f_f_i" unicode="ffi" horiz-adv-x="1140" 
d="M91 0l72 371h-63l29 148h63l4 21q11 60 44.5 101.5t79 60t83.5 25.5t78 7q25 0 49 -2l19 -3l-33 -161l-14 2q-18 2 -34 2q-58 0 -65 -37l-3 -16h176l4 21q11 60 44.5 101.5t79 60t83.5 25.5t78 7q25 0 49 -2l19 -3l-33 -161l-14 2q-18 2 -34 2q-58 0 -65 -37l-3 -16h373
l-60 -305q-4 -12 -4 -34q0 -32 36 -32h17l-29 -148l-16 -2q-11 -1 -41 -1q-34 0 -55.5 1.5t-48.5 8.5t-42 20.5t-26 38t-11 60.5q0 23 9 73l34 172h-165l-72 -371h-209l73 371h-175l-73 -371h-208zM962 567l29 152h201l-29 -152h-201z" />
    <glyph glyph-name="f_f_l" unicode="ffl" horiz-adv-x="1150" 
d="M91 0l72 371h-63l29 148h63l4 21q11 60 44.5 101.5t79 60t83.5 25.5t78 7q25 0 49 -2l19 -3l-33 -161l-14 2q-18 2 -34 2q-58 0 -65 -37l-3 -16h175l3 12q23 109 115.5 160.5t229.5 51.5q97 0 190 -20q37 -8 81 -20l-92 -474q-6 -23 -6 -41q0 -15 7.5 -22t28.5 -7
q3 0 7 0.5t6 0.5h7l-32 -163l-17 -2q-11 -1 -41 -1q-39 0 -68 5.5t-56.5 19.5t-42 44t-14.5 75q0 41 8 74l72 372l-20 3q-24 2 -45 2q-49 0 -76.5 -16.5t-33.5 -40.5l-2 -13h98l-28 -148h-99l-72 -371h-209l73 371h-175l-73 -371h-208z" />
    <glyph glyph-name="f_j" unicode="fj" horiz-adv-x="735" 
d="M91 0l72 371h-63l29 148h63l4 21q11 60 44.5 101.5t79 60t83.5 25.5t78 7q25 0 49 -2l19 -3l-33 -161l-14 2q-18 2 -34 2q-58 0 -65 -37l-3 -16h375l-100 -515q-12 -62 -46.5 -107t-79.5 -66.5t-85 -30.5t-77 -9q-38 0 -50 1l-18 2l30 158q2 -1 7 -1h15q85 0 94 45
l73 375h-166l-73 -371h-208zM580 567l29 152h201l-29 -152h-201z" />
    <glyph glyph-name=".notdef" horiz-adv-x="510" 
d="M-53 0v700h500v-700h-500zM197 395l170 255h-340zM397 95v510l-170 -255zM-3 95l170 255l-170 255v-510zM27 50h340l-170 255z" />
    <glyph glyph-name=".null" horiz-adv-x="0" 
 />
    <glyph glyph-name="nonmarkingreturn" horiz-adv-x="333" 
 />
    <glyph glyph-name="space" unicode=" " horiz-adv-x="250" 
 />
    <glyph glyph-name="exclam" unicode="!" horiz-adv-x="326" 
d="M120 234l73 485h218l-115 -485h-176zM73 0l33 174h185l-34 -174h-184z" />
    <glyph glyph-name="quotedbl" unicode="&#x22;" horiz-adv-x="451" 
d="M352 472l52 264h143l-52 -264h-143zM137 472l52 264h144l-52 -264h-144z" />
    <glyph glyph-name="numbersign" unicode="#" horiz-adv-x="707" 
d="M86 0l64 175h-82l49 142h84l23 60h-81l51 142h81l74 200h162l-74 -200h86l74 200h162l-74 -200h90l-51 -142h-89l-24 -60h87l-50 -142h-87l-64 -175h-162l63 175h-86l-63 -175h-163zM363 317h86l24 60h-86z" />
    <glyph glyph-name="dollar" unicode="$" horiz-adv-x="599" 
d="M57 108l112 136q21 -18 44 -30q56 -30 110 -30q31 0 52 10t21 29t-26.5 35.5t-64.5 33t-76 38.5t-64.5 62t-26.5 94q0 94 71.5 156.5t165.5 71.5l17 104h127l-17 -109q74 -14 129 -48q22 -14 40 -30l-103 -145q-28 17 -48 25q-58 24 -104 24q-27 0 -47.5 -9.5
t-20.5 -29.5q0 -22 27 -39.5t65 -33.5t76 -37t65 -60.5t27 -92.5q0 -92 -71 -157.5t-181 -71.5l-14 -102h-127l17 111q-80 19 -135 58q-25 18 -40 37z" />
    <glyph glyph-name="percent" unicode="%" horiz-adv-x="944" 
d="M320 363q-79 0 -129 47t-50 118q0 79 66 141t150 62q78 0 129 -49t51 -121q0 -79 -67.5 -138.5t-149.5 -59.5zM108 0l677 719h187l-677 -719h-187zM336 505q19 0 34.5 14t15.5 34q0 16 -11.5 26t-32.5 10q-20 0 -35 -13.5t-15 -35.5q0 -16 12 -25.5t32 -9.5zM548 153
q0 79 66 141t149 62q79 0 130 -48.5t51 -121.5q0 -79 -67.5 -138.5t-149.5 -59.5q-80 0 -129.5 46.5t-49.5 118.5zM699 165q0 -35 44 -35q19 0 34 14t15 34q0 16 -12 26t-32 10q-19 0 -34 -13.5t-15 -35.5z" />
    <glyph glyph-name="ampersand" unicode="&#x26;" horiz-adv-x="694" 
d="M68 193q0 67 42.5 117.5t108.5 71.5v2q-16 7 -29 23q-29 37 -29 97q0 58 26.5 104t68.5 71.5t88 38.5t92 13q41 0 83 -10q22 -5 34 -11l-76 -155l-9 2q-5 1 -19 1q-31 0 -55 -16.5t-24 -49.5q0 -22 11 -35t25 -13h66l18 90h207l-17 -90h86l-33 -167h-87l-10 -64
q-18 -109 -96.5 -167t-200.5 -58q-125 0 -198 59t-73 146zM290 222q0 -49 57 -49q32 0 56.5 18t27.5 35l9 51h-81q-23 0 -46 -12.5t-23 -42.5z" />
    <glyph glyph-name="quotesingle" unicode="'" horiz-adv-x="241" 
d="M137 472l52 264h148l-52 -264h-148z" />
    <glyph glyph-name="parenleft" unicode="(" horiz-adv-x="376" 
d="M329 -95h-162q-63 138 -63 280q0 166 51 306t167 266h174q-212 -262 -212 -577q0 -150 45 -275z" />
    <glyph glyph-name="parenright" unicode=")" horiz-adv-x="377" 
d="M184 -95h-174q212 262 212 577q0 144 -46 275h163q63 -138 63 -280q0 -339 -218 -572z" />
    <glyph glyph-name="asterisk" unicode="*" horiz-adv-x="509" 
d="M266 299l-131 108l84 74l1 2l-90 14l88 167l79 -43l6 98h181l-33 -98l97 44l24 -174l-108 -18l-1 -2l56 -67l-157 -106l-32 89h-2z" />
    <glyph glyph-name="plus" unicode="+" 
d="M239 0l40 211h-196l30 154h196l41 212h161l-41 -212h197l-30 -154h-197l-40 -211h-161z" />
    <glyph glyph-name="comma" unicode="," horiz-adv-x="321" 
d="M121 195h200l-187 -311h-152z" />
    <glyph glyph-name="hyphen" unicode="-" horiz-adv-x="450" 
d="M100 198l35 180h325l-35 -180h-325z" />
    <glyph glyph-name="period" unicode="." horiz-adv-x="301" 
d="M56 0l36 191h192l-36 -191h-192z" />
    <glyph glyph-name="slash" unicode="/" horiz-adv-x="504" 
d="M25 -42l409 795h183l-410 -795h-182z" />
    <glyph glyph-name="zero" unicode="0" horiz-adv-x="643" 
d="M102 246q0 59 10 121t35 128t61.5 118t95.5 85t131 33q250 0 250 -255q0 -58 -10.5 -120.5t-35.5 -129t-61.5 -119t-95.5 -86t-131 -33.5q-249 0 -249 258zM320 257q0 -83 36 -83q45 0 77.5 101.5t32.5 187.5q0 82 -37 82q-25 0 -47 -32.5t-35 -79.5t-20 -94t-7 -82z" />
    <glyph glyph-name="one" unicode="1" horiz-adv-x="573" 
d="M55 0l31 167h151l46 236q1 3 3.5 19t4.5 22l5 18h-2l-9 -13q-8 -11 -27 -26l-40 -30l-98 135l248 191h180l-106 -552h152l-34 -167h-505z" />
    <glyph glyph-name="two" unicode="2" horiz-adv-x="616" 
d="M571 0h-516q0 73 20.5 134t53.5 101.5t73 73t80.5 56.5l73.5 44.5t54 43.5t21 48q0 44 -48 44q-36 0 -76 -38q-19 -18 -32 -39l-139 110q32 45 72 77q92 76 206 76q94 0 169.5 -54t75.5 -148q0 -48 -25 -93t-62.5 -76.5t-81.5 -61.5t-82.5 -51t-65.5 -42.5t-30 -37.5h121
l16 81h170z" />
    <glyph glyph-name="three" unicode="3" horiz-adv-x="601" 
d="M51 77l108 148q26 -18 41 -25q50 -26 96 -26q43 0 68 19t25 44q0 22 -21 36.5t-59 14.5q-16 0 -23 -1q-4 -1 -11 -1l-24 93l131 143q13 14 27 24q4 3 12 7v2q-11 0 -17 -1q-22 -2 -34 -2h-51l-10 -58h-170l43 225h491l-28 -149l-153 -163q35 -12 60 -34q60 -48 60 -126
q0 -42 -21 -86.5t-59.5 -83.5t-100.5 -64t-136 -25q-102 0 -182 45q-39 21 -62 44z" />
    <glyph glyph-name="four" unicode="4" horiz-adv-x="645" 
d="M52 166l22 126l330 427h267l-76 -392h80l-31 -161h-80l-32 -166h-209l33 166h-304zM282 327h105l28 143q3 16 14 54q6 20 10 29h-4l-15 -24q-6 -11 -34 -51l-104 -149v-2z" />
    <glyph glyph-name="five" unicode="5" horiz-adv-x="606" 
d="M49 83l112 141q24 -17 42 -25q48 -25 96 -25q42 0 70 18t28 52q0 55 -83 55q-32 0 -66 -8l-27 -9l-108 46l106 391h442l-44 -225h-169l12 58h-102l-18 -59l-9 -26q-1 -2 -4 -11h2l21 4q12 3 39 3q98 0 163.5 -57.5t65.5 -158.5q0 -109 -94.5 -184t-229.5 -75
q-95 0 -181 48q-35 20 -64 47z" />
    <glyph glyph-name="six" unicode="6" 
d="M93 267q0 83 31.5 165.5t87 149t139.5 108t181 41.5q64 0 122 -18q26 -7 45 -18l-75 -169q-12 5 -29 10q-34 9 -76 9q-107 0 -154 -75h2l21 6q26 6 57 6q101 0 154.5 -64t53.5 -153q0 -110 -79 -193.5t-207 -83.5q-115 0 -194.5 71t-79.5 208zM302 263q0 -45 22 -67
t55 -22q30 0 47 24t17 51q0 67 -84 67q-31 0 -44 -13t-13 -40z" />
    <glyph glyph-name="seven" unicode="7" horiz-adv-x="583" 
d="M52 0l356 512q14 19 26 31l10 10v2q-10 0 -16 -1q-22 -2 -41 -2h-67l-12 -58h-179l44 225h535l-29 -147l-402 -572h-225z" />
    <glyph glyph-name="eight" unicode="8" horiz-adv-x="627" 
d="M73 190q0 54 33 99.5t106 94.5q-52 50 -52 119q0 89 71.5 158.5t194.5 69.5q105 0 176 -51.5t71 -135.5q0 -31 -10 -59.5t-31 -54.5t-32.5 -38t-34.5 -33q68 -53 68 -135q0 -90 -79.5 -163t-217.5 -73q-123 0 -193 59.5t-70 142.5zM434 424q43 43 43 91q0 46 -59 46
q-32 0 -49.5 -16t-17.5 -41q0 -43 83 -80zM267 216q0 -25 21 -42.5t54 -17.5q39 0 63.5 19t24.5 51q0 21 -25 38t-77 40q-61 -39 -61 -88z" />
    <glyph glyph-name="nine" unicode="9" horiz-adv-x="634" 
d="M681 452q0 -83 -31.5 -165.5t-87 -149t-139.5 -108t-181 -41.5q-64 0 -122 18q-26 8 -45 18l75 169l29 -9q38 -10 76 -10q112 0 160 82h-2l-24 -7q-26 -7 -60 -7q-99 0 -151 62t-52 150q0 110 77.5 193.5t203.5 83.5q115 0 194.5 -71t79.5 -208zM472 458q0 44 -22 65.5
t-55 21.5q-30 0 -47 -24t-17 -51q0 -67 84 -67q31 0 44 13.5t13 41.5z" />
    <glyph glyph-name="colon" unicode=":" horiz-adv-x="359" 
d="M148 328l37 191h192l-37 -191h-192zM83 0l38 191h192l-38 -191h-192z" />
    <glyph glyph-name="semicolon" unicode=";" horiz-adv-x="347" 
d="M177 328l38 191h184l-37 -191h-185zM11 -116l138 311h200l-186 -311h-152z" />
    <glyph glyph-name="less" unicode="&#x3c;" 
d="M91 226v126l522 230v-171l-318 -122v-2l318 -120v-172z" />
    <glyph glyph-name="equal" unicode="=" 
d="M115 335v155h520v-155h-520zM115 86v155h520v-155h-520z" />
    <glyph glyph-name="greater" unicode="&#x3e;" 
d="M137 -5v172l318 120v2l-318 122v171l522 -230v-126z" />
    <glyph glyph-name="question" unicode="?" horiz-adv-x="543" 
d="M182 234l9 51q8 46 40 84t66 58t61 43t27 43q0 15 -12.5 24.5t-30.5 9.5q-27 0 -65 -22q-15 -10 -29 -22l-96 152q27 20 65 40q80 40 160 40q91 0 159 -50t68 -140q0 -49 -20.5 -89.5t-51 -66.5t-61.5 -46.5t-55 -39.5t-28 -36l-7 -33h-199zM144 0l34 174h185l-34 -174
h-185z" />
    <glyph glyph-name="at" unicode="@" horiz-adv-x="871" 
d="M76 190q0 174 137 300.5t341 126.5q138 0 207 -59.5t69 -155.5q0 -41 -8 -73l-24 -133h75l-27 -135h-271q-108 0 -164 47.5t-56 117.5q0 75 67.5 129.5t207.5 54.5h17q4 19 -14.5 30t-37.5 13.5t-40 2.5q-53 0 -98 -16.5t-76.5 -43.5t-54.5 -61.5t-33.5 -71t-10.5 -72.5
q0 -75 49.5 -123.5t148.5 -48.5l-29 -151q-169 0 -272 87.5t-103 234.5zM531 238q0 -42 50 -42h26l17 97h-23q-70 0 -70 -55z" />
    <glyph glyph-name="A" unicode="A" horiz-adv-x="738" 
d="M11 0l29 154h54l291 565h247l71 -565h54l-29 -154h-319l30 154h56l-1 66h-153l-27 -66h56l-31 -154h-328zM400 362h87l-3 99q-1 27 -1 68q0 20 1 28h-5q-5 -13 -9 -28q-20 -56 -26 -68z" />
    <glyph glyph-name="B" unicode="B" horiz-adv-x="727" 
d="M50 0l30 154h75l80 411h-76l30 154h312q126 0 193 -45t67 -132q0 -47 -28 -92t-79 -72v-2q45 -17 65.5 -54.5t20.5 -82.5q0 -115 -89.5 -177t-216.5 -62h-384zM429 452h52q30 0 48 19t18 42q0 17 -11 28t-30 11h-59zM373 167h78q31 0 53 19.5t22 51.5q0 17 -12.5 31.5
t-35.5 14.5h-82z" />
    <glyph glyph-name="C" unicode="C" horiz-adv-x="735" 
d="M96 309q0 174 126.5 298t309.5 124q43 0 90 -7t94 -22t74 -44t20 -67l-25 -130h-189l9 50q4 17 -11 26.5t-30.5 11.5t-35.5 2q-53 0 -95 -22.5t-65.5 -58.5t-36 -75t-12.5 -76q0 -66 33.5 -108.5t104.5 -42.5q76 0 85 39l10 51h191l-21 -117q-9 -43 -39.5 -75t-73.5 -48
t-84.5 -23t-82.5 -7q-152 0 -249 89.5t-97 231.5z" />
    <glyph glyph-name="D" unicode="D" horiz-adv-x="793" 
d="M50 0l30 154h75l79 411h-75l30 154h309q160 0 249.5 -75.5t89.5 -210.5q0 -183 -118 -308t-301 -125h-368zM374 167h41q93 0 149.5 71.5t56.5 174.5q0 68 -34 103.5t-98 35.5h-42z" />
    <glyph glyph-name="E" unicode="E" horiz-adv-x="674" 
d="M50 0l30 154h75l80 411h-76l30 154h569l-45 -233h-179l13 66h-99l-20 -106h190l-33 -168h-190l-22 -111h108l13 64h179l-44 -231h-579z" />
    <glyph glyph-name="F" unicode="F" horiz-adv-x="627" 
d="M50 0l30 154h75l80 411h-76l30 154h553l-45 -232h-179l10 52h-82l-23 -118h195l-34 -167h-194l-19 -100h87l-30 -154h-378z" />
    <glyph glyph-name="G" unicode="G" horiz-adv-x="769" 
d="M94 308q0 177 130.5 300t318.5 123q32 0 67.5 -3.5t78 -13t74.5 -24.5t50.5 -40.5t11.5 -58.5l-26 -130h-189l10 52q3 13 -4.5 21.5t-23.5 11.5t-27 4t-26 1q-55 0 -99.5 -22.5t-70 -58t-39 -75.5t-13.5 -79q0 -69 32.5 -108.5t121.5 -39.5q98 0 104 35l6 28h-106l31 154
h296l-49 -248q-10 -53 -62 -88t-114 -48t-130 -13q-158 0 -255.5 89t-97.5 231z" />
    <glyph glyph-name="H" unicode="H" horiz-adv-x="887" 
d="M50 0l30 154h75l79 411h-75l30 154h368l-30 -154h-76l-24 -125h205l24 125h-76l30 154h368l-30 -154h-76l-80 -411h76l-30 -154h-368l30 154h76l23 118h-205l-23 -118h76l-30 -154h-367z" />
    <glyph glyph-name="I" unicode="I" horiz-adv-x="467" 
d="M50 0l30 154h75l79 411h-75l30 154h368l-30 -154h-77l-79 -411h76l-30 -154h-367z" />
    <glyph glyph-name="J" unicode="J" horiz-adv-x="595" 
d="M48 188q0 26 9 69q1 4 3.5 15t4.5 16h203l-6 -27q-7 -35 -7 -49q0 -38 28 -38q34 0 43 51l68 340h-90l30 154h371l-29 -154h-66l-68 -348q-21 -108 -95.5 -168.5t-170.5 -60.5q-93 0 -160.5 54t-67.5 146z" />
    <glyph glyph-name="K" unicode="K" horiz-adv-x="774" 
d="M50 0l30 154h75l79 411h-75l30 154h327l-29 -154h-37l-22 -118h41l105 118h-39l30 154h312l-30 -154h-56l-174 -195v-2q7 -4 15 -14q18 -25 23 -45l30 -106q9 -30 17.5 -40.5t31.5 -10.5q14 0 21 1q4 1 12 1l-28 -154q-24 -3 -86 -3q-138 0 -169 114l-34 135
q-10 33 -48 33h-7l-24 -125h65l-30 -154h-356z" />
    <glyph glyph-name="L" unicode="L" horiz-adv-x="649" 
d="M51 0l29 154h75l78 398h-76l32 167h368l-32 -167h-77l-74 -385h111l20 101h179l-52 -268h-581z" />
    <glyph glyph-name="M" unicode="M" horiz-adv-x="1002" 
d="M40 0l29 154h73l108 411h-73l30 154h322l21 -318q2 -15 2.5 -40t0.5 -27q1 -11 1 -29h2l11 28l29 68l142 318h336l-30 -154h-73l-52 -411h74l-30 -154h-340l30 154h59l30 210q5 26 13 58q5 18 10 32h-4l-12 -29l-26 -57l-108 -239h-179l-15 239q-2 11 -2.5 33t-0.5 23
q-1 10 -1 30h-4q-2 -20 -4 -32q-7 -47 -10 -58l-50 -210h59l-30 -154h-338z" />
    <glyph glyph-name="N" unicode="N" horiz-adv-x="869" 
d="M50 0l30 154h75l80 411h-76l30 154h289l108 -327q6 -14 13 -53q2 -9 4 -27h5l3 30q2 9 4.5 29l3.5 28l33 166h-81l29 154h373l-29 -154h-76l-110 -565h-213l-111 326q-9 30 -13 51q-2 9 -4 27h-5q0 -9 -2 -29q-1 -7 -3.5 -26.5t-4.5 -30.5l-31 -164h81l-30 -154h-372z
" />
    <glyph glyph-name="O" unicode="O" horiz-adv-x="816" 
d="M96 312q0 170 127.5 294.5t301.5 124.5q149 0 243 -89t94 -228q0 -172 -129.5 -299t-301.5 -127q-150 0 -242.5 91t-92.5 233zM313 325q0 -69 36 -110t95 -41q76 0 138 66t62 160q0 66 -36.5 105.5t-96.5 39.5q-77 0 -137.5 -64.5t-60.5 -155.5z" />
    <glyph glyph-name="P" unicode="P" horiz-adv-x="697" 
d="M48 0l30 154h76l80 411h-76l30 154h366q98 0 160 -60t62 -158q0 -118 -82.5 -202t-199.5 -84h-112l-12 -61h77l-30 -154h-369zM414 382h59q41 0 65 30.5t24 75.5q0 64 -53 64h-62z" />
    <glyph glyph-name="Q" unicode="Q" horiz-adv-x="814" 
d="M95 312q0 169 126 294t292 125q157 0 252.5 -88.5t95.5 -228.5q0 -144 -102 -262l58 -53l-132 -123l-56 64q-82 -52 -187 -52q-157 0 -252 90.5t-95 233.5zM312 325q0 -68 37 -109.5t95 -41.5q25 0 42 5l13 5l-77 83l129 120l76 -83q1 2 8 26q8 34 8 70q0 65 -37 105
t-95 40q-78 0 -138.5 -64.5t-60.5 -155.5z" />
    <glyph glyph-name="R" unicode="R" horiz-adv-x="748" 
d="M48 0l30 154h76l80 411h-76l30 154h367q92 0 153 -50t61 -150q0 -29 -6.5 -59.5t-20.5 -64t-42 -63t-67 -46.5v-3q6 -5 18 -19q19 -21 26 -47l4 -14q9 -31 17.5 -41t30.5 -10q13 0 20 1q3 1 11 1l-29 -154l-26 -2q-16 -1 -56 -1q-80 0 -117 32t-52 82l-31 104
q-6 16 -13 23t-24 7h-23l-18 -91h63l-29 -154h-357zM418 402h45q40 0 66.5 23.5t26.5 64.5q0 28 -13.5 45t-38.5 17h-57z" />
    <glyph glyph-name="S" unicode="S" horiz-adv-x="647" 
d="M89 272h192l-9 -46q-5 -30 21 -41t68 -11q41 0 61 16.5t20 38.5q0 17 -30.5 31t-74 28.5t-87.5 36.5t-74.5 65.5t-30.5 103.5q0 82 45.5 137t113.5 77.5t154 22.5q40 0 79.5 -6.5t82 -22t64.5 -49.5t12 -82l-21 -103h-191l9 45q3 19 -13 25.5t-47 6.5q-73 0 -73 -42
q0 -17 16.5 -29.5t42.5 -22t58 -19.5t64 -25.5t58 -36.5t42.5 -56t16.5 -80q0 -119 -93.5 -182.5t-231.5 -63.5q-44 0 -90 10.5t-89.5 32.5t-66.5 63t-13 94z" />
    <glyph glyph-name="T" unicode="T" horiz-adv-x="713" 
d="M171 0l30 154h76l77 398h-48l-18 -96h-179l51 263h669l-51 -263h-180l18 96h-46l-77 -398h76l-30 -154h-368z" />
    <glyph glyph-name="U" unicode="U" horiz-adv-x="832" 
d="M149 223q0 28 6 58l55 284h-76l30 154h366l-30 -154h-74l-57 -297q-2 -14 -2 -21q0 -73 83 -73q99 0 116 94l57 297h-74l29 154h366l-29 -154h-76l-58 -301q-24 -128 -111.5 -202t-220.5 -74q-129 0 -214.5 59.5t-85.5 175.5z" />
    <glyph glyph-name="V" unicode="V" horiz-adv-x="744" 
d="M262 0l-85 565h-56l30 154h330l-30 -154h-56l17 -244q2 -17 0 -59l-2 -30h4l9 29q3 6 10.5 27.5t12.5 32.5l111 244h-56l30 154h342l-30 -154h-56l-305 -565h-220z" />
    <glyph glyph-name="W" unicode="W" horiz-adv-x="1056" 
d="M208 0l-25 565h-56l29 154h342l-29 -154h-83l-3 -249q0 -41 -3 -57l-3 -28h4q5 21 7 28q11 34 21 57l171 403h163l14 -403q3 -17 0 -57l-3 -28h5l7 28q8 32 18 57l94 249h-82l29 154h354l-30 -154h-56l-245 -565h-235l-11 303q-2 36 2 60l3 30h-4l-9 -30q-18 -49 -23 -60
l-127 -303h-236z" />
    <glyph glyph-name="X" unicode="X" horiz-adv-x="741" 
d="M33 0l30 154h53l217 223l-121 188h-64l30 154h315l-30 -154h-47l34 -54q3 -3 15 -25q2 -3 5 -11h2l8 10q3 4 11 12.5t12 13.5l51 54h-42l30 154h306l-30 -154h-53l-212 -218l124 -193h60l-29 -154h-316l30 154h51l-38 57l-15 26q-5 8 -6 13h-2l-10 -12q-5 -5 -23 -27
l-52 -57h45l-30 -154h-309z" />
    <glyph glyph-name="Y" unicode="Y" horiz-adv-x="682" 
d="M157 0l29 154h76l27 136l-111 275h-58l30 154h298l-29 -154h-40l28 -90q2 -6 4.5 -15.5t3.5 -12.5q2 -8 2 -10h2q1 4 6 10q9 15 18 28l63 90h-39l29 154h315l-30 -154h-58l-218 -275l-27 -136h76l-29 -154h-368z" />
    <glyph glyph-name="Z" unicode="Z" horiz-adv-x="675" 
d="M48 0l25 131l349 388q12 13 27 25l13 9v2q-9 0 -14 -1q-18 -2 -30 -2h-81l-19 -96h-179l51 263h568l-25 -128l-351 -391q-1 -1 -27 -24l-14 -10v-2l15 2q9 1 30 1h98l20 101h179l-52 -268h-583z" />
    <glyph glyph-name="bracketleft" unicode="[" horiz-adv-x="390" 
d="M59 -95l167 852h283l-28 -142h-112l-110 -568h112l-29 -142h-283z" />
    <glyph glyph-name="backslash" unicode="\" horiz-adv-x="489" 
d="M284 -42l-104 795h164l104 -795h-164z" />
    <glyph glyph-name="bracketright" unicode="]" horiz-adv-x="389" 
d="M37 47h112l110 568h-112l29 142h283l-166 -852h-283z" />
    <glyph glyph-name="asciicircum" unicode="^" 
d="M-5 238l204 481h128l205 -481h-172l-97 276l-96 -276h-172z" />
    <glyph glyph-name="underscore" unicode="_" horiz-adv-x="600" 
d="M-12 0h623l-29 -154h-622z" />
    <glyph glyph-name="grave" unicode="`" horiz-adv-x="477" 
d="M251 925l82 -161h-149l-126 161h193z" />
    <glyph glyph-name="a" unicode="a" horiz-adv-x="594" 
d="M45 122q0 52 32.5 91.5t84.5 60.5t105.5 30.5t106.5 9.5l3 11q2 14 2 20q0 26 -51 26q-41 0 -100 -23q-30 -12 -52 -24l-40 148q36 17 73 30q85 29 161 29q28 0 54.5 -4t56.5 -15.5t52.5 -29t37 -47.5t14.5 -69q0 -32 -15 -98t-15 -88q0 -32 36 -32q1 0 4.5 0.5t5.5 0.5
h7l-29 -149l-13 -2q-11 -1 -61 -1h-20h-23t-21 1.5t-23 4.5l-20 8.5t-20 14t-15 21t-13 28.5h-2q-16 -24 -42 -42q-56 -42 -118 -42q-58 0 -100.5 35t-42.5 96zM245 159q0 -16 9 -24t22 -8q23 0 44 21.5t31 54.5l5 18h-16q-10 0 -24 -2.5t-31 -9t-28.5 -19.5t-11.5 -31z" />
    <glyph glyph-name="b" unicode="b" horiz-adv-x="661" 
d="M66 0l110 571h-63l29 148h271l-37 -187q-1 -4 -3 -16t-4 -17q-1 -3 -2.5 -7t-1.5 -6h2q48 45 123 45q95 0 149 -62.5t54 -168.5q0 -135 -86.5 -223.5t-198.5 -88.5q-94 0 -140 59h-2v-7q0 -2 -2 -16l-4 -24h-194zM315 231q0 -31 16.5 -51.5t48.5 -20.5q37 0 69.5 34.5
t32.5 90.5q0 33 -17.5 53t-47.5 20t-66 -32.5t-36 -93.5z" />
    <glyph glyph-name="c" unicode="c" horiz-adv-x="584" 
d="M66 223q0 53 22.5 107t64 99t108 73.5t145.5 28.5q39 0 78 -7.5t76.5 -23t56.5 -47t11 -73.5l-15 -79h-176l6 25q3 14 -9 23.5t-41 9.5q-55 0 -85.5 -38t-30.5 -82q0 -80 95 -80q59 0 113 28q27 13 47 27l51 -151q-31 -23 -59 -37q-78 -38 -174 -38q-137 0 -210.5 68
t-73.5 167z" />
    <glyph glyph-name="d" unicode="d" horiz-adv-x="688" 
d="M69 220q0 135 87 223t207 88q56 0 94 -22q17 -11 24 -22h2q0 5 1 8l2 13l12 63h-62l28 148h272l-98 -505l-2 -12q-2 -12 -2 -21q0 -33 34 -33q2 0 6 0.5t6 0.5h7l-28 -149l-25 -3q-30 -2 -56 -2q-130 0 -149 81h-2q-63 -88 -164 -88q-86 0 -140 63.5t-54 168.5zM280 237
q0 -36 16 -57t43 -21q35 0 71 31.5t36 87.5q0 35 -15 57t-46 22q-39 0 -72 -34t-33 -86z" />
    <glyph glyph-name="e" unicode="e" horiz-adv-x="569" 
d="M70 233q0 124 87 211t217 87q106 0 166.5 -57t60.5 -146q0 -33 -10 -71q-5 -17 -10 -29h-303q-1 -36 20.5 -52.5t58.5 -16.5q43 0 103 25q26 10 48 24l52 -153q-28 -19 -61 -33q-78 -34 -165 -34q-128 0 -196 69t-68 176zM297 318h100q0 7 1 10q1 7 1 19q0 44 -37 44
q-25 0 -41.5 -21.5t-23.5 -51.5z" />
    <glyph glyph-name="f" unicode="f" horiz-adv-x="414" 
d="M91 0l72 371h-63l29 148h63l4 21q11 60 44.5 101.5t79 60t83.5 25.5t78 7q25 0 49 -2l19 -3l-33 -161l-14 2q-18 2 -34 2q-58 0 -65 -37l-3 -16h99l-28 -148h-99l-73 -371h-208z" />
    <glyph glyph-name="g" unicode="g" horiz-adv-x="670" 
d="M45 -153l78 142q12 -8 36 -17q48 -16 108 -16q48 0 75.5 17.5t38.5 60.5q7 27 8 30l4 11h-1q-51 -56 -115 -56q-100 0 -151.5 63t-51.5 159q0 116 76 203t202 87q67 0 109 -34q17 -14 28 -35h2q0 25 20.5 41t45.5 16h181l-30 -148h-30q-21 0 -24 -18l-60 -299
q-14 -71 -47.5 -123.5t-78.5 -82.5t-94 -44t-101 -14q-106 0 -175 28q-33 12 -53 29zM284 259q0 -68 61 -68q40 0 66.5 35t26.5 74q0 35 -18 47t-49 12q-41 0 -64 -27t-23 -73z" />
    <glyph glyph-name="h" unicode="h" horiz-adv-x="690" 
d="M66 0l110 571h-63l29 148h273l-46 -229q-3 -15 -8 -31l-5 -12h2q20 24 45 42q58 42 125 42q64 0 107.5 -38t43.5 -109q0 -37 -16.5 -112.5t-16.5 -90.5q0 -33 35 -33q2 0 6 0.5t6 0.5h6l-28 -149q-1 0 -3.5 -0.5t-5.5 -1t-6 -0.5q-11 -1 -53 -1q-28 0 -48 1.5t-45 9
t-40.5 20.5t-26.5 37.5t-11 59.5q0 40 15 109t15 80q0 29 -36 29q-42 0 -70 -37t-39 -92l-42 -214h-209z" />
    <glyph glyph-name="i" unicode="i" horiz-adv-x="383" 
d="M198 567l29 152h202l-29 -152h-202zM114 126q0 31 9 73l33 172h-63l28 148h272l-59 -305q-4 -12 -4 -34q0 -32 36 -32q2 0 5 0.5t5 0.5h6l-28 -149l-17 -2q-11 -1 -41 -1q-34 0 -55 1.5t-48 8.5t-42 20.5t-26 38t-11 60.5z" />
    <glyph glyph-name="j" unicode="j" horiz-adv-x="364" 
d="M204 567l30 152h201l-29 -152h-202zM-57 -206l31 158q1 -1 6 -1h16q85 0 94 45l72 375h-64l28 148h273l-99 -515q-12 -62 -47 -107t-80 -66.5t-85 -30.5t-77 -9t-49 1z" />
    <glyph glyph-name="k" unicode="k" horiz-adv-x="632" 
d="M66 0l109 571h-63l28 148h272l-75 -391h47l46 43h-51l28 148h284l-29 -148h-44l-104 -102v-2q7 -7 10 -12q7 -9 21 -38l14 -33q16 -35 48 -35q3 0 9 0.5t9 0.5h10l-28 -150q-21 -3 -73 -3q-23 0 -42.5 3t-33 6t-25 11l-18 12.5t-13.5 16t-9.5 16t-8.5 19t-7 17.5l-20 56
q-12 29 -30 29h-19l-35 -183h-207z" />
    <glyph glyph-name="l" unicode="l" horiz-adv-x="360" 
d="M91 138q0 36 7 74l70 359h-63l29 148h271l-93 -490q-6 -23 -6 -41q0 -15 7.5 -22t28.5 -7q3 0 7 0.5t6 0.5h7l-33 -163l-16 -2q-11 -1 -41 -1q-39 0 -68 5.5t-56.5 19.5t-42 44t-14.5 75z" />
    <glyph glyph-name="m" unicode="m" horiz-adv-x="981" 
d="M91 0l68 350q5 21 -18 21h-41l28 148h186q66 0 66 -47q0 -12 -3 -23l-3 -11h2q21 27 47 47q58 46 114 46q41 0 75 -25.5t45 -75.5h2q66 101 167 101q60 0 101.5 -38t41.5 -108q0 -39 -16.5 -113t-16.5 -90q0 -34 35 -34q2 0 6 0.5t6 0.5h6l-28 -149q-1 0 -3.5 -0.5
t-5.5 -1t-6 -0.5q-11 -1 -52 -1q-28 0 -48 1.5t-45.5 8.5t-41 20t-26.5 37.5t-11 58.5q0 39 16 112t16 86q0 21 -22 21q-64 0 -91 -137l-41 -205h-209l61 306q5 17 0.5 26.5t-20.5 9.5q-38 0 -59 -40t-36 -110l-38 -192h-208z" />
    <glyph glyph-name="n" unicode="n" horiz-adv-x="715" 
d="M91 0l68 349q4 22 -18 22h-41l28 148h187q65 0 65 -49q0 -15 -3 -25q0 -2 -1.5 -6t-2.5 -7h2q16 25 44 50q57 49 131 49q67 0 110 -38t43 -112q0 -35 -16 -109t-16 -92q0 -32 36 -32q1 0 5 0.5t6 0.5h6l-29 -149q-1 0 -3.5 -0.5t-5.5 -1t-6 -0.5q-11 -1 -54 -1
q-29 0 -48.5 1.5t-44.5 9t-40.5 20.5t-26 38.5t-10.5 60.5q0 36 15 106.5t15 79.5q0 30 -36 30q-42 0 -69.5 -36.5t-38.5 -92.5l-43 -214h-208z" />
    <glyph glyph-name="o" unicode="o" 
d="M67 223q0 134 100.5 221t235.5 87q118 0 193.5 -64.5t75.5 -171.5q0 -133 -101.5 -220t-235.5 -87q-116 0 -192 64.5t-76 170.5zM278 233q0 -35 20 -54t52 -19q43 0 77 33t34 89q0 37 -20 57t-51 20q-41 0 -76.5 -35t-35.5 -91z" />
    <glyph glyph-name="p" unicode="p" horiz-adv-x="686" 
d="M54 -200l105 549q3 22 -17 22h-41l28 148h181q61 0 61 -37q0 -12 -3 -19l-3 -8h2q57 76 148 76q94 0 148.5 -62.5t54.5 -168.5q0 -135 -86.5 -223.5t-198.5 -88.5q-71 0 -127 49h-2q0 -7 -1 -12q-3 -23 -5 -32l-35 -193h-209zM341 232q0 -73 65 -73q39 0 70.5 34.5
t31.5 90.5q0 33 -17 53t-47 20q-31 0 -67 -32t-36 -93z" />
    <glyph glyph-name="q" unicode="q" horiz-adv-x="662" 
d="M69 220q0 135 87 223t205 88q65 0 104 -28q19 -13 29 -28h2q0 10 1 15q2 18 5 29h195l-111 -574h63l-28 -145h-272l38 198q1 5 2.5 11.5l2.5 11t2 8.5l3 12h-2q-15 -15 -35 -26q-48 -27 -98 -27q-85 0 -139 63.5t-54 168.5zM280 237q0 -36 16 -57t43 -21q35 0 71 31.5
t36 87.5q0 35 -15.5 57t-45.5 22q-40 0 -72.5 -33.5t-32.5 -86.5z" />
    <glyph glyph-name="r" unicode="r" horiz-adv-x="488" 
d="M92 0l67 349q6 22 -18 22h-41l30 148h185q66 0 66 -49q0 -29 -12 -65h2q28 56 77 90t107 34h15q5 0 7 -1l-40 -205l-9 2q-7 1 -33 1q-132 0 -160 -144l-34 -182h-209z" />
    <glyph glyph-name="s" unicode="s" horiz-adv-x="531" 
d="M48 138l11 53h173l-2 -12q-4 -20 10.5 -28t43.5 -8q53 0 53 22q0 14 -23.5 24.5t-57 21.5t-67 26.5t-57 46.5t-23.5 74q0 83 78 128t182 45q39 0 75.5 -7t67.5 -21t47 -41t9 -62l-11 -60h-173l2 13q2 14 -6.5 18.5t-25.5 4.5q-44 0 -44 -22q0 -15 24 -25t58 -19.5
t67.5 -23.5t57.5 -43.5t24 -71.5q0 -80 -77.5 -131.5t-190.5 -51.5q-41 0 -80 7.5t-76.5 23.5t-56.5 47t-12 72z" />
    <glyph glyph-name="t" unicode="t" horiz-adv-x="428" 
d="M154 371h-63l28 148h71l27 139h199l-27 -139h103l-28 -148h-103l-27 -142q-4 -15 -4 -32q0 -37 72 -37q14 0 19 1q3 1 8 1l-32 -164l-18 -2q-11 -1 -35 -1q-104 0 -166.5 43.5t-62.5 120.5q0 18 6 48z" />
    <glyph glyph-name="u" unicode="u" horiz-adv-x="713" 
d="M115 135q0 29 6 59l35 177h-64l30 148h272l-56 -286q-5 -13 -5 -33q0 -15 6.5 -22.5t24.5 -7.5q36 0 66.5 37.5t39.5 84.5l15 79h-64l30 148h272l-60 -305q-4 -20 -4 -35t8 -23.5t32 -8.5q1 0 4 0.5t5 0.5h4l-28 -148l-19 -1q-19 -1 -44.5 -2t-40.5 -1q-54 0 -85.5 19
t-42.5 79h-2q-70 -106 -178 -106q-67 0 -112 38t-45 109z" />
    <glyph glyph-name="v" unicode="v" horiz-adv-x="643" 
d="M197 0l-61 371h-56l30 148h283l-30 -148h-29l10 -135q2 -13 2 -52q0 -17 -1 -26h4l9 25q5 15 21 53l62 135h-29l30 148h294l-29 -148h-56l-205 -371h-249z" />
    <glyph glyph-name="w" unicode="w" horiz-adv-x="889" 
d="M155 0l-11 371h-57l30 148h290l-29 -148h-46l-7 -125l-4 -52l-2 -26h4l8 26l18 52l110 273h164v-273q0 -37 -1 -52l-2 -26h4q3 15 7 26q2 8 8 26.5t8 25.5l43 125h-46l30 148h302l-30 -148h-57l-155 -371h-243l4 201l3 52l3 25h-5l-7 -24q-10 -34 -17 -53l-74 -201h-243z
" />
    <glyph glyph-name="x" unicode="x" horiz-adv-x="581" 
d="M33 0l29 148h51l118 116l-57 90q-9 17 -36 17h-35l30 148h120q32 0 46 -7.5t26 -32.5l23 -51q2 -5 11 -31q2 -4 4 -16h2l10 15q4 5 10.5 15.5t10.5 15.5l74 92h178l-30 -148h-41l-123 -122l46 -65q17 -23 24.5 -29.5t21.5 -6.5h32l-28 -148q-23 -3 -60 -3q-66 0 -92 17
t-50 60l-8 15q-6 14 -12 31q-4 9 -5 16h-2l-9 -16q-15 -23 -22 -32l-70 -88h-187z" />
    <glyph glyph-name="y" unicode="y" horiz-adv-x="649" 
d="M-29 -164l88 142q11 -7 21 -11q24 -11 66 -11q56 0 79 26l-90 389h-55l28 148h294l-29 -148h-34l13 -140q3 -14 0 -52l-2 -25h5l10 25l22 52l64 140h-30l28 148h285l-28 -148h-49l-227 -400q-58 -102 -129 -141.5t-158 -39.5q-71 0 -127 23q-23 9 -45 23z" />
    <glyph glyph-name="z" unicode="z" horiz-adv-x="564" 
d="M40 0l24 126l261 220q4 3 12.5 10t12.5 9q4 4 10 6v2q-11 0 -16 -1q-9 -1 -29 -1h-36l-10 -53h-173l40 201h482l-25 -127l-257 -219q-14 -12 -24 -18q-1 -1 -10 -7v-2q12 0 17 1q9 1 28 1h42l10 53h173l-40 -201h-492z" />
    <glyph glyph-name="braceleft" unicode="{" horiz-adv-x="406" 
d="M307 -101q-90 0 -146.5 43.5t-39.5 131.5l15 80q3 12 3 25q0 42 -35 57q-14 6 -35 8l35 180q25 0 44 10q48 23 59 83l21 109q17 84 99.5 116t194.5 19l-28 -147q-34 9 -66 -2t-38 -36l-27 -132q-10 -52 -61 -87q-23 -15 -49 -24v-2q18 -4 33 -19q32 -32 32 -89
q0 -22 -4 -39l-19 -96q-6 -29 16.5 -37.5t72.5 -2.5l-28 -147q-10 0 -16 -1q-11 -1 -33 -1z" />
    <glyph glyph-name="bar" unicode="|" horiz-adv-x="381" 
d="M166 -168v975h171v-975h-171z" />
    <glyph glyph-name="braceright" unicode="}" horiz-adv-x="407" 
d="M12 -99l29 147q93 -14 105 45l27 131q11 52 61 86q24 16 49 23v2q-18 6 -32 20q-33 33 -33 90q0 23 12 80.5t12 62.5q0 39 -92 26l29 147q87 11 162.5 -25t75.5 -115q0 -19 -10 -68.5t-10 -63.5q0 -43 35 -58q15 -7 35 -7l-34 -180q-26 -2 -45 -11q-47 -21 -58 -83
l-23 -114q-9 -43 -37.5 -73.5t-68 -44t-89 -19t-100.5 1.5z" />
    <glyph glyph-name="asciitilde" unicode="~" horiz-adv-x="625" 
d="M249 185h-160q0 106 47 162.5t132 56.5q38 0 67.5 -11t44 -25t31.5 -25t32 -11q48 0 48 68h159q0 -107 -46 -163t-133 -56q-47 0 -80 18t-54.5 36t-40.5 18q-47 0 -47 -68z" />
    <glyph glyph-name="uni00A0" unicode="&#xa0;" horiz-adv-x="224" 
 />
    <glyph glyph-name="exclamdown" unicode="&#xa1;" horiz-adv-x="321" 
d="M134 345l33 174h185l-33 -174h-185zM14 -200l114 486h177l-74 -486h-217z" />
    <glyph glyph-name="cent" unicode="&#xa2;" horiz-adv-x="624" 
d="M252 -12l19 94q-75 28 -119.5 92.5t-44.5 155.5q0 69 26.5 127.5t68.5 96.5t87.5 61t90.5 31l16 84h128l-17 -93q80 -25 127 -104q18 -30 26 -71l-186 -67q-3 19 -10 31q-16 30 -50 30q-37 0 -68 -33t-31 -87q0 -34 18 -53t45 -19q39 0 69 30q14 16 20 29l175 -74
q-24 -48 -56 -83q-81 -84 -189 -98l-16 -80h-129z" />
    <glyph glyph-name="sterling" unicode="&#xa3;" horiz-adv-x="649" 
d="M43 0l30 161h76l26 129h-76l26 131h75l19 95q20 96 95.5 155.5t174.5 59.5q87 0 159 -50q33 -24 54 -50l-126 -127q-8 8 -26 22q-32 22 -59 22q-20 0 -37.5 -13t-22.5 -36l-15 -78h143l-26 -131h-142l-26 -129h104l18 87h179l-47 -248h-576z" />
    <glyph glyph-name="yen" unicode="&#xa5;" horiz-adv-x="682" 
d="M230 0l30 152h-163l21 111h163l5 24l-14 50h-140l22 111h87l-72 271h221l15 -107q10 -71 13 -106q4 -34 5 -51h2l22 51q19 46 49 107l51 106h240l-178 -271h89l-22 -111h-142l-32 -50l-5 -24h165l-21 -111h-165l-30 -152h-216z" />
    <glyph glyph-name="section" unicode="&#xa7;" horiz-adv-x="572" 
d="M39 33l101 117q18 -15 38 -24q50 -24 106 -24q114 0 114 120q0 19 -3 44t-6.5 43.5l-13 68l-15.5 80.5h149q37 -158 37 -249q0 -117 -68 -194t-194 -77q-97 0 -181 47q-36 20 -64 48zM662 636l-101 -117q-18 15 -38 24q-50 24 -106 24q-114 0 -114 -120q0 -19 3 -44
t6.5 -43.5l13 -68l15.5 -80.5h-149q-37 158 -37 249q0 117 68 194t194 77q97 0 181 -47q36 -20 64 -48z" />
    <glyph glyph-name="dieresis" unicode="&#xa8;" horiz-adv-x="478" 
d="M225 766l31 159h147l-31 -159h-147zM-32 766l32 159h146l-31 -159h-147z" />
    <glyph glyph-name="copyright" unicode="&#xa9;" horiz-adv-x="805" 
d="M111 358q0 153 105.5 260.5t253.5 107.5q151 0 257 -107.5t106 -260.5t-106 -261.5t-257 -108.5q-148 0 -253.5 108.5t-105.5 261.5zM224 358q0 -111 71 -189t175 -78q106 0 178.5 77.5t72.5 189.5q0 111 -72.5 188t-178.5 77q-104 0 -175 -77t-71 -188zM300 355
q0 78 51 132.5t121 54.5q83 0 130 -57q21 -26 32 -58l-100 -39q-5 15 -12 25q-18 24 -46 24q-24 0 -41.5 -23t-17.5 -59q0 -40 16 -61t43 -21t46 25q8 10 12 24l100 -39q-10 -30 -32 -57q-48 -58 -130 -58q-70 0 -121 54.5t-51 132.5z" />
    <glyph glyph-name="ordfeminine" unicode="&#xaa;" horiz-adv-x="420" 
d="M228 383q-39 0 -64.5 22.5t-25.5 58.5q0 34 15.5 59t36 37.5t49.5 20t47.5 9t38.5 1.5h15l3 14q3 13 -6 18t-26 5q-31 0 -58 -11q-14 -4 -28 -12l-29 91q14 8 44 17q54 16 109 16q133 0 133 -106q0 -15 -3 -33l-38 -199h-127l8 45h-2q-9 -15 -23 -26q-33 -27 -69 -27z
M282 471q13 0 25 10.5t15 25.5l3 17h-9q-58 0 -58 -35q0 -18 24 -18zM102 269l17 88h319l-17 -88h-319z" />
    <glyph glyph-name="guillemotleft" unicode="&#xab;" horiz-adv-x="711" 
d="M497 77l-130 204l215 207h197l-231 -214l131 -197h-182zM209 77l-131 204l191 207h193l-203 -214l131 -197h-181z" />
    <glyph glyph-name="logicalnot" unicode="&#xac;" horiz-adv-x="665" 
d="M123 335v155h519v-367h-160v212h-359z" />
    <glyph glyph-name="uni00AD" unicode="&#xad;" horiz-adv-x="450" 
d="M100 198l35 180h325l-35 -180h-325z" />
    <glyph glyph-name="registered" unicode="&#xae;" horiz-adv-x="805" 
d="M111 358q0 153 105.5 260.5t253.5 107.5q151 0 257 -107.5t106 -260.5t-106 -261.5t-257 -108.5q-148 0 -253.5 108.5t-105.5 261.5zM224 358q0 -111 71 -189t175 -78q106 0 178.5 77.5t72.5 189.5q0 111 -72.5 188t-178.5 77q-104 0 -175 -77t-71 -188zM340 187v347h163
q57 0 89.5 -31t32.5 -84q0 -37 -19.5 -59.5t-38.5 -29.5v-2l3 -4q5 -5 10 -16l63 -121h-118l-49 118h-28v-118h-108zM448 377h27q40 0 40 42q0 41 -38 41h-29v-83z" />
    <glyph glyph-name="macron" unicode="&#xaf;" horiz-adv-x="478" 
d="M32 781l26 132h285l-27 -132h-284z" />
    <glyph glyph-name="degree" unicode="&#xb0;" horiz-adv-x="434" 
d="M309 368q-80 0 -131.5 47t-51.5 119q0 78 63.5 139.5t142.5 61.5q80 0 132.5 -48t52.5 -120q0 -79 -64.5 -139t-143.5 -60zM318 509q18 0 34 13.5t16 30.5q0 19 -12.5 30t-32.5 11t-34.5 -14.5t-14.5 -32.5q0 -17 12 -27.5t32 -10.5z" />
    <glyph glyph-name="plusminus" unicode="&#xb1;" 
d="M98 211v154h197v212h161v-212h196v-154h-196v-211h-161v211h-197zM106 -58h539v-152h-539v152z" />
    <glyph glyph-name="twosuperior" unicode="&#xb2;" horiz-adv-x="425" 
d="M479 423h-360q0 56 18 100t45.5 69.5t59 46.5t59 32t45.5 24t18 26q0 18 -26 18q-27 0 -54 -20q-9 -6 -25 -20l-87 88q24 25 54 45q67 44 136 44q60 0 109 -33t49 -97q0 -38 -22.5 -69.5t-55 -51t-64.5 -35t-54.5 -28.5t-22.5 -24h97l7 39h103z" />
    <glyph glyph-name="threesuperior" unicode="&#xb3;" horiz-adv-x="406" 
d="M290 413q-74 0 -130 35q-25 16 -38 34l87 100q6 -6 20 -16q28 -17 60 -17q46 0 46 29q0 17 -45 17h-29l-6 60l79 77q6 8 18 17q1 1 10 7v4l-12 -2q-14 -2 -24 -2h-44l-9 -44h-103l30 154h326l-17 -94l-101 -92q37 -15 59 -42t22 -59q0 -62 -56 -114t-143 -52z" />
    <glyph glyph-name="acute" unicode="&#xb4;" horiz-adv-x="477" 
d="M14 764l144 161h209l-188 -161h-165z" />
    <glyph glyph-name="mu" unicode="&#xb5;" horiz-adv-x="652" 
d="M212 -113l-17 -87h-175l139 719h209l-58 -295q-1 -7 -1 -17q0 -18 7.5 -24t23.5 -6q37 0 65.5 33.5t36.5 81.5l44 227h209l-101 -519h-201l2 10q6 29 8 37q5 13 5 16h-2q-22 -34 -64 -54.5t-84 -20.5h-35h-2q0 -22 -1 -34q-2 -39 -8 -67z" />
    <glyph glyph-name="mu" unicode="&#x3bc;" horiz-adv-x="652" 
d="M212 -113l-17 -87h-175l139 719h209l-58 -295q-1 -7 -1 -17q0 -18 7.5 -24t23.5 -6q37 0 65.5 33.5t36.5 81.5l44 227h209l-101 -519h-201l2 10q6 29 8 37q5 13 5 16h-2q-22 -34 -64 -54.5t-84 -20.5h-35h-2q0 -22 -1 -34q-2 -39 -8 -67z" />
    <glyph glyph-name="paragraph" unicode="&#xb6;" horiz-adv-x="703" 
d="M246 -50l58 291q-75 0 -132.5 61.5t-57.5 151.5q0 111 84 188t212 77h384l-35 -180h-256l-115 -589h-142zM450 -50l106 543h141l-106 -543h-141z" />
    <glyph glyph-name="periodcentered" unicode="&#xb7;" horiz-adv-x="306" 
d="M99 202l37 191h184l-36 -191h-185z" />
    <glyph glyph-name="cedilla" unicode="&#xb8;" horiz-adv-x="477" 
d="M78 -107l77 139l79 -20l-2 -7l-30 -52q37 -2 61.5 -23.5t24.5 -53.5q0 -42 -29.5 -70t-67 -38t-79.5 -10q-24 0 -49 5q-16 4 -23 5l15 85q10 -4 15 -5q12 -4 36 -4q50 0 50 27q0 22 -50 22h-28z" />
    <glyph glyph-name="onesuperior" unicode="&#xb9;" horiz-adv-x="400" 
d="M123 423l22 115h97l21 110q1 4 3 11t4 11q4 5 5 11h-2l-8 -8l-14 -13l-26 -16l-67 92l170 130h127l-63 -328h99l-22 -115h-346z" />
    <glyph glyph-name="ordmasculine" unicode="&#xba;" horiz-adv-x="459" 
d="M317 386q-74 0 -121.5 40.5t-47.5 108.5q0 84 64 139t146 55q74 0 121.5 -40.5t47.5 -108.5q0 -84 -64 -139t-146 -55zM328 507q23 0 40 16t17 46q0 18 -10.5 29t-26.5 11q-22 0 -40 -18.5t-18 -46.5q0 -17 11 -27t27 -10zM106 269l18 88h350l-18 -88h-350z" />
    <glyph glyph-name="guillemotright" unicode="&#xbb;" horiz-adv-x="709" 
d="M359 77l202 214l-131 197h182l131 -204l-191 -207h-193zM42 77l231 214l-131 197h181l131 -204l-216 -207h-196z" />
    <glyph glyph-name="onequarter" unicode="&#xbc;" horiz-adv-x="1076" 
d="M844 0l17 84h-191l16 94l205 265h186l-49 -252h49l-20 -107h-49l-16 -84h-148zM813 191h68l19 96l10 35l6 18h-4l-9 -17l-20 -33l-70 -97v-2zM445 0h-148l475 719h148zM112 276l22 115h97l21 110q1 4 3 11t4 11q4 5 5 11h-2l-8 -8l-14 -13l-26 -16l-67 92l170 130h127
l-63 -328h99l-22 -115h-346z" />
    <glyph glyph-name="onehalf" unicode="&#xbd;" horiz-adv-x="1074" 
d="M1038 0h-360q0 56 18 100t45.5 69.5t59 46.5t59 32t45.5 24t18 26q0 18 -26 18q-27 0 -54 -20q-9 -6 -25 -20l-87 88q24 26 54 45q67 44 136 44q60 0 109 -33t49 -97q0 -38 -22.5 -69.5t-54.5 -51t-64.5 -35t-55 -28.5t-22.5 -24h97l7 39h103zM448 0h-148l475 719h148z
M110 276l22 115h97l21 110q1 4 3 11t4 11q4 5 5 11h-2l-8 -8l-14 -13l-26 -16l-67 92l170 130h127l-63 -328h99l-22 -115h-346z" />
    <glyph glyph-name="threequarters" unicode="&#xbe;" horiz-adv-x="1061" 
d="M835 0l17 84h-191l16 94l205 265h186l-49 -252h49l-20 -107h-49l-16 -84h-148zM804 191h68l19 96l10 35l6 18h-4l-9 -17l-20 -33l-70 -97v-2zM271 266q-74 0 -130 35q-25 16 -38 34l87 100q6 -6 20 -16q28 -17 60 -17q46 0 46 29q0 17 -45 17h-29l-6 60l79 77q6 8 18 17
q1 1 10 7v4l-12 -2q-14 -2 -24 -2h-44l-9 -44h-103l30 154h326l-17 -94l-101 -92q37 -15 59 -42t22 -59q0 -62 -56 -114t-143 -52zM436 0h-148l475 719h148z" />
    <glyph glyph-name="questiondown" unicode="&#xbf;" horiz-adv-x="544" 
d="M282 345l33 174h185l-33 -174h-185zM41 -20q0 49 21 90t52 66.5t62 46t55 39.5t27 36l5 28h200l-8 -46q-8 -46 -40.5 -84t-66.5 -58t-61 -43t-27 -43q0 -15 12.5 -24.5t30.5 -9.5q27 0 65 22q15 10 29 22l96 -152q-25 -19 -64 -40q-80 -40 -161 -40q-91 0 -159 50
t-68 140z" />
    <glyph glyph-name="Agrave" unicode="&#xc0;" horiz-adv-x="736" 
d="M10 0l29 154h54l291 565h247l71 -565h54l-29 -154h-319l30 154h56l-1 66h-153l-27 -66h56l-31 -154h-328zM399 362h87l-3 99q-1 27 -1 68q0 20 1 28h-5q-5 -13 -9 -28q-20 -56 -26 -68zM520 925l82 -161h-149l-126 161h193z" />
    <glyph glyph-name="Aacute" unicode="&#xc1;" horiz-adv-x="738" 
d="M11 0l29 154h54l291 565h247l71 -565h54l-29 -154h-319l30 154h56l-1 66h-153l-27 -66h56l-31 -154h-328zM400 362h87l-3 99q-1 27 -1 68q0 20 1 28h-5q-5 -13 -9 -28q-20 -56 -26 -68zM417 764l144 161h209l-188 -161h-165z" />
    <glyph glyph-name="Acircumflex" unicode="&#xc2;" horiz-adv-x="738" 
d="M11 0l29 154h54l291 565h247l71 -565h54l-29 -154h-319l30 154h56l-1 66h-153l-27 -66h56l-31 -154h-328zM400 362h87l-3 99q-1 27 -1 68q0 20 1 28h-5q-5 -13 -9 -28q-20 -56 -26 -68zM305 764l136 161h198l72 -161h-152l-29 83h-2l-60 -83h-163z" />
    <glyph glyph-name="Atilde" unicode="&#xc3;" horiz-adv-x="738" 
d="M11 0l29 154h54l291 565h247l71 -565h54l-29 -154h-319l30 154h56l-1 66h-153l-27 -66h56l-31 -154h-328zM400 362h87l-3 99q-1 27 -1 68q0 20 1 28h-5q-5 -13 -9 -28q-20 -56 -26 -68zM437 763h-131q15 78 55.5 121.5t100.5 43.5q25 0 44 -9t28 -19t20.5 -19t23.5 -9
q31 0 40 53h132q-14 -76 -55.5 -120.5t-98.5 -44.5q-24 0 -43.5 9t-29 19.5t-21.5 19.5t-24 9q-29 0 -41 -54z" />
    <glyph glyph-name="Adieresis" unicode="&#xc4;" horiz-adv-x="738" 
d="M11 0l29 154h54l291 565h247l71 -565h54l-29 -154h-319l30 154h56l-1 66h-153l-27 -66h56l-31 -154h-328zM400 362h87l-3 99q-1 27 -1 68q0 20 1 28h-5q-5 -13 -9 -28q-20 -56 -26 -68zM569 766l31 159h147l-31 -159h-147zM312 766l32 159h146l-31 -159h-147z" />
    <glyph glyph-name="Aring" unicode="&#xc5;" horiz-adv-x="738" 
d="M11 0l29 154h54l291 565h247l71 -565h54l-29 -154h-319l30 154h56l-1 66h-153l-27 -66h56l-31 -154h-328zM400 362h87l-3 99q-1 27 -1 68q0 20 1 28h-5q-5 -13 -9 -28q-20 -56 -26 -68zM515 751q-44 0 -76 19.5t-32 55.5q0 52 40 77t92 25q44 0 76.5 -20t32.5 -59
q0 -49 -41.5 -73.5t-91.5 -24.5zM521 804q17 0 29.5 12t12.5 30q0 28 -29 28q-18 0 -29.5 -12t-11.5 -32q0 -26 28 -26z" />
    <glyph glyph-name="AE" unicode="&#xc6;" horiz-adv-x="1034" 
d="M13 0l29 154h51l247 411h-63l30 154h811l-45 -233h-167l13 66h-103l-21 -106h184l-34 -168h-183l-22 -111h114l12 66h167l-45 -233h-574l29 154h79l25 128h-160l-72 -128h63l-29 -154h-336zM476 438h101l23 114h-58z" />
    <glyph glyph-name="Ccedilla" unicode="&#xc7;" horiz-adv-x="735" 
d="M286 -107l58 106q-112 26 -180 109.5t-68 200.5q0 174 126.5 298t309.5 124q43 0 90 -7t94 -22t74 -44t20 -67l-25 -130h-189l9 50q4 17 -11 26.5t-30.5 11.5t-35.5 2q-53 0 -95 -22.5t-65.5 -58.5t-36 -75t-12.5 -76q0 -66 33.5 -108.5t104.5 -42.5q76 0 85 39l10 51
h191l-21 -117q-9 -43 -39.5 -75t-73.5 -48t-84.5 -23t-82.5 -7h-12l-21 -35q37 -2 61.5 -23.5t24.5 -53.5q0 -42 -29 -70t-66.5 -38t-79.5 -10q-25 0 -50 5q-13 4 -22 5l15 85q7 -4 14 -5q12 -4 37 -4q50 0 50 27q0 22 -50 22h-28z" />
    <glyph glyph-name="Egrave" unicode="&#xc8;" horiz-adv-x="674" 
d="M50 0l30 154h75l80 411h-76l30 154h569l-45 -233h-179l13 66h-99l-20 -106h190l-33 -168h-190l-22 -111h108l13 64h179l-44 -231h-579zM511 925l82 -161h-149l-126 161h193z" />
    <glyph glyph-name="Eacute" unicode="&#xc9;" horiz-adv-x="674" 
d="M406 764l144 161h209l-188 -161h-165zM50 0l30 154h75l80 411h-76l30 154h569l-45 -233h-179l13 66h-99l-20 -106h190l-33 -168h-190l-22 -111h108l13 64h179l-44 -231h-579z" />
    <glyph glyph-name="Ecircumflex" unicode="&#xca;" horiz-adv-x="674" 
d="M295 764l136 161h198l72 -161h-152l-29 83h-2l-60 -83h-163zM50 0l30 154h75l80 411h-76l30 154h569l-45 -233h-179l13 66h-99l-20 -106h190l-33 -168h-190l-22 -111h108l13 64h179l-44 -231h-579z" />
    <glyph glyph-name="Edieresis" unicode="&#xcb;" horiz-adv-x="674" 
d="M559 766l31 159h147l-31 -159h-147zM302 766l32 159h146l-31 -159h-147zM50 0l30 154h75l80 411h-76l30 154h569l-45 -233h-179l13 66h-99l-20 -106h190l-33 -168h-190l-22 -111h108l13 64h179l-44 -231h-579z" />
    <glyph glyph-name="Igrave" unicode="&#xcc;" horiz-adv-x="467" 
d="M50 0l30 154h75l79 411h-75l30 154h368l-30 -154h-77l-79 -411h76l-30 -154h-367zM388 925l82 -161h-149l-126 161h193z" />
    <glyph glyph-name="Iacute" unicode="&#xcd;" horiz-adv-x="467" 
d="M50 0l30 154h75l79 411h-75l30 154h368l-30 -154h-77l-79 -411h76l-30 -154h-367zM284 764l144 161h209l-188 -161h-165z" />
    <glyph glyph-name="Icircumflex" unicode="&#xce;" horiz-adv-x="467" 
d="M50 0l30 154h75l79 411h-75l30 154h368l-30 -154h-77l-79 -411h76l-30 -154h-367zM172 764l136 161h198l72 -161h-152l-29 83h-2l-60 -83h-163z" />
    <glyph glyph-name="Idieresis" unicode="&#xcf;" horiz-adv-x="467" 
d="M50 0l30 154h75l79 411h-75l30 154h368l-30 -154h-77l-79 -411h76l-30 -154h-367zM437 766l31 159h147l-31 -159h-147zM180 766l32 159h146l-31 -159h-147z" />
    <glyph glyph-name="Eth" unicode="&#xd0;" horiz-adv-x="790" 
d="M50 0l30 154h75l23 117h-68l33 167h67l25 127h-76l30 154h306q160 0 250 -75.5t90 -210.5q0 -183 -118 -308t-302 -125h-365zM374 167h39q93 0 149 71.5t56 174.5q0 68 -34 103.5t-98 35.5h-39l-21 -114h95l-32 -167h-95z" />
    <glyph glyph-name="Ntilde" unicode="&#xd1;" horiz-adv-x="869" 
d="M50 0l30 154h75l80 411h-76l30 154h289l108 -327q6 -14 13 -53q2 -9 4 -27h5l3 30q2 9 4.5 29l3.5 28l33 166h-81l29 154h373l-29 -154h-76l-110 -565h-213l-111 326q-9 30 -13 51q-2 9 -4 27h-5q0 -9 -2 -29q-1 -7 -3.5 -26.5t-4.5 -30.5l-31 -164h81l-30 -154h-372z
M508 763h-131q15 78 55.5 121.5t100.5 43.5q25 0 44 -9t28 -19t20.5 -19t23.5 -9q31 0 40 53h132q-14 -76 -55.5 -120.5t-98.5 -44.5q-24 0 -43.5 9t-29 19.5t-21.5 19.5t-24 9q-29 0 -41 -54z" />
    <glyph glyph-name="Ograve" unicode="&#xd2;" horiz-adv-x="816" 
d="M96 312q0 170 127.5 294.5t301.5 124.5q149 0 243 -89t94 -228q0 -172 -129.5 -299t-301.5 -127q-150 0 -242.5 91t-92.5 233zM313 325q0 -69 36 -110t95 -41q76 0 138 66t62 160q0 66 -36.5 105.5t-96.5 39.5q-77 0 -137.5 -64.5t-60.5 -155.5zM563 925l82 -161h-149
l-126 161h193z" />
    <glyph glyph-name="Oacute" unicode="&#xd3;" horiz-adv-x="816" 
d="M459 764l144 161h209l-188 -161h-165zM96 312q0 170 127.5 294.5t301.5 124.5q149 0 243 -89t94 -228q0 -172 -129.5 -299t-301.5 -127q-150 0 -242.5 91t-92.5 233zM313 325q0 -69 36 -110t95 -41q76 0 138 66t62 160q0 66 -36.5 105.5t-96.5 39.5q-77 0 -137.5 -64.5
t-60.5 -155.5z" />
    <glyph glyph-name="Ocircumflex" unicode="&#xd4;" horiz-adv-x="816" 
d="M347 764l136 161h198l72 -161h-152l-29 83h-2l-60 -83h-163zM96 312q0 170 127.5 294.5t301.5 124.5q149 0 243 -89t94 -228q0 -172 -129.5 -299t-301.5 -127q-150 0 -242.5 91t-92.5 233zM313 325q0 -69 36 -110t95 -41q76 0 138 66t62 160q0 66 -36.5 105.5t-96.5 39.5
q-77 0 -137.5 -64.5t-60.5 -155.5z" />
    <glyph glyph-name="Otilde" unicode="&#xd5;" horiz-adv-x="816" 
d="M96 312q0 170 127.5 294.5t301.5 124.5q149 0 243 -89t94 -228q0 -172 -129.5 -299t-301.5 -127q-150 0 -242.5 91t-92.5 233zM313 325q0 -69 36 -110t95 -41q76 0 138 66t62 160q0 66 -36.5 105.5t-96.5 39.5q-77 0 -137.5 -64.5t-60.5 -155.5zM480 763h-131
q15 78 55.5 121.5t100.5 43.5q25 0 44 -9t28 -19t20.5 -19t23.5 -9q31 0 40 53h132q-14 -76 -55.5 -120.5t-98.5 -44.5q-24 0 -43.5 9t-29 19.5t-21.5 19.5t-24 9q-29 0 -41 -54z" />
    <glyph glyph-name="Odieresis" unicode="&#xd6;" horiz-adv-x="816" 
d="M612 766l31 159h147l-31 -159h-147zM355 766l32 159h146l-31 -159h-147zM96 312q0 170 127.5 294.5t301.5 124.5q149 0 243 -89t94 -228q0 -172 -129.5 -299t-301.5 -127q-150 0 -242.5 91t-92.5 233zM313 325q0 -69 36 -110t95 -41q76 0 138 66t62 160q0 66 -36.5 105.5
t-96.5 39.5q-77 0 -137.5 -64.5t-60.5 -155.5z" />
    <glyph glyph-name="multiply" unicode="&#xd7;" 
d="M98 109l170 179l-170 180l109 109l167 -175l168 175l110 -109l-172 -180l172 -179l-110 -109l-168 175l-167 -175z" />
    <glyph glyph-name="Oslash" unicode="&#xd8;" horiz-adv-x="816" 
d="M96 312q0 170 127.5 294.5t301.5 124.5q109 0 190 -50l60 64l63 -56l-57 -61q81 -89 81 -214q0 -172 -129.5 -299t-301.5 -127q-114 0 -196 54l-66 -71l-63 57l65 70q-75 88 -75 214zM644 400q0 37 -13 67l-256 -274q28 -19 69 -19q76 0 138 66t62 160zM313 325
q0 -38 10 -64l251 269q-27 15 -63 15q-77 0 -137.5 -64.5t-60.5 -155.5z" />
    <glyph glyph-name="Ugrave" unicode="&#xd9;" horiz-adv-x="832" 
d="M149 223q0 28 6 58l55 284h-76l30 154h366l-30 -154h-74l-57 -297q-2 -14 -2 -21q0 -73 83 -73q99 0 116 94l57 297h-74l29 154h366l-29 -154h-76l-58 -301q-24 -128 -111.5 -202t-220.5 -74q-129 0 -214.5 59.5t-85.5 175.5zM572 925l82 -161h-149l-126 161h193z" />
    <glyph glyph-name="Uacute" unicode="&#xda;" horiz-adv-x="832" 
d="M468 764l144 161h209l-188 -161h-165zM149 223q0 28 6 58l55 284h-76l30 154h366l-30 -154h-74l-57 -297q-2 -14 -2 -21q0 -73 83 -73q99 0 116 94l57 297h-74l29 154h366l-29 -154h-76l-58 -301q-24 -128 -111.5 -202t-220.5 -74q-129 0 -214.5 59.5t-85.5 175.5z" />
    <glyph glyph-name="Ucircumflex" unicode="&#xdb;" horiz-adv-x="832" 
d="M356 764l136 161h198l72 -161h-152l-29 83h-2l-60 -83h-163zM149 223q0 28 6 58l55 284h-76l30 154h366l-30 -154h-74l-57 -297q-2 -14 -2 -21q0 -73 83 -73q99 0 116 94l57 297h-74l29 154h366l-29 -154h-76l-58 -301q-24 -128 -111.5 -202t-220.5 -74
q-129 0 -214.5 59.5t-85.5 175.5z" />
    <glyph glyph-name="Udieresis" unicode="&#xdc;" horiz-adv-x="832" 
d="M621 766l31 159h147l-31 -159h-147zM364 766l32 159h146l-31 -159h-147zM149 223q0 28 6 58l55 284h-76l30 154h366l-30 -154h-74l-57 -297q-2 -14 -2 -21q0 -73 83 -73q99 0 116 94l57 297h-74l29 154h366l-29 -154h-76l-58 -301q-24 -128 -111.5 -202t-220.5 -74
q-129 0 -214.5 59.5t-85.5 175.5z" />
    <glyph glyph-name="Yacute" unicode="&#xdd;" horiz-adv-x="682" 
d="M157 0l29 154h76l27 136l-111 275h-58l30 154h298l-29 -154h-40l28 -90q2 -6 4.5 -15.5t3.5 -12.5q2 -8 2 -10h2q1 4 6 10q9 15 18 28l63 90h-39l29 154h315l-30 -154h-58l-218 -275l-27 -136h76l-29 -154h-368zM398 764l144 161h209l-188 -161h-165z" />
    <glyph glyph-name="Thorn" unicode="&#xde;" horiz-adv-x="685" 
d="M50 0l29 154h76l79 411h-76l30 154h368l-30 -154h-81l-8 -44h122q96 0 144.5 -37t48.5 -102q0 -85 -66 -136t-179 -51h-133l-8 -41h81l-30 -154h-367zM399 325h68q39 0 53.5 9.5t14.5 28.5q0 15 -11 21.5t-40 6.5h-72z" />
    <glyph glyph-name="germandbls" unicode="&#xdf;" horiz-adv-x="663" 
d="M65 0l104 536q17 93 98.5 144t183.5 51q101 0 170 -50t69 -136q0 -36 -14 -65.5t-30.5 -45t-30.5 -33.5t-14 -34q0 -18 19.5 -41.5t39 -57t19.5 -75.5q0 -86 -70 -143t-173 -57q-32 0 -79 9l-34 8l34 165q9 -1 22 -5q25 -5 48 -5q44 0 44 29q0 16 -12.5 34.5t-28 33.5
t-28 41.5t-12.5 56.5q0 40 23 74t45.5 58t22.5 39q0 28 -46 28q-53 0 -62 -48l-99 -511h-209z" />
    <glyph glyph-name="agrave" unicode="&#xe0;" horiz-adv-x="594" 
d="M45 122q0 52 32.5 91.5t84.5 60.5t105.5 30.5t106.5 9.5l3 11q2 14 2 20q0 26 -51 26q-41 0 -100 -23q-30 -12 -52 -24l-40 148q36 17 73 30q85 29 161 29q28 0 54.5 -4t56.5 -15.5t52.5 -29t37 -47.5t14.5 -69q0 -32 -15 -98t-15 -88q0 -32 36 -32q1 0 4.5 0.5t5.5 0.5
h7l-29 -149l-13 -2q-11 -1 -61 -1h-20h-23t-21 1.5t-23 4.5l-20 8.5t-20 14t-15 21t-13 28.5h-2q-16 -24 -42 -42q-56 -42 -118 -42q-58 0 -100.5 35t-42.5 96zM245 159q0 -16 9 -24t22 -8q23 0 44 21.5t31 54.5l5 18h-16q-10 0 -24 -2.5t-31 -9t-28.5 -19.5t-11.5 -31z
M398 719l82 -161h-149l-126 161h193z" />
    <glyph glyph-name="aacute" unicode="&#xe1;" horiz-adv-x="594" 
d="M45 122q0 52 32.5 91.5t84.5 60.5t105.5 30.5t106.5 9.5l3 11q2 14 2 20q0 26 -51 26q-41 0 -100 -23q-30 -12 -52 -24l-40 148q36 17 73 30q85 29 161 29q28 0 54.5 -4t56.5 -15.5t52.5 -29t37 -47.5t14.5 -69q0 -32 -15 -98t-15 -88q0 -32 36 -32q1 0 4.5 0.5t5.5 0.5
h7l-29 -149l-13 -2q-11 -1 -61 -1h-20h-23t-21 1.5t-23 4.5l-20 8.5t-20 14t-15 21t-13 28.5h-2q-16 -24 -42 -42q-56 -42 -118 -42q-58 0 -100.5 35t-42.5 96zM245 159q0 -16 9 -24t22 -8q23 0 44 21.5t31 54.5l5 18h-16q-10 0 -24 -2.5t-31 -9t-28.5 -19.5t-11.5 -31z
M293 558l144 161h209l-188 -161h-165z" />
    <glyph glyph-name="acircumflex" unicode="&#xe2;" horiz-adv-x="594" 
d="M45 122q0 52 32.5 91.5t84.5 60.5t105.5 30.5t106.5 9.5l3 11q2 14 2 20q0 26 -51 26q-41 0 -100 -23q-30 -12 -52 -24l-40 148q36 17 73 30q85 29 161 29q28 0 54.5 -4t56.5 -15.5t52.5 -29t37 -47.5t14.5 -69q0 -32 -15 -98t-15 -88q0 -32 36 -32q1 0 4.5 0.5t5.5 0.5
h7l-29 -149l-13 -2q-11 -1 -61 -1h-20h-23t-21 1.5t-23 4.5l-20 8.5t-20 14t-15 21t-13 28.5h-2q-16 -24 -42 -42q-56 -42 -118 -42q-58 0 -100.5 35t-42.5 96zM245 159q0 -16 9 -24t22 -8q23 0 44 21.5t31 54.5l5 18h-16q-10 0 -24 -2.5t-31 -9t-28.5 -19.5t-11.5 -31z
M182 558l136 161h198l72 -161h-152l-29 83h-2l-60 -83h-163z" />
    <glyph glyph-name="atilde" unicode="&#xe3;" horiz-adv-x="594" 
d="M45 122q0 52 32.5 91.5t84.5 60.5t105.5 30.5t106.5 9.5l3 11q2 14 2 20q0 26 -51 26q-41 0 -100 -23q-30 -12 -52 -24l-40 148q36 17 73 30q85 29 161 29q28 0 54.5 -4t56.5 -15.5t52.5 -29t37 -47.5t14.5 -69q0 -32 -15 -98t-15 -88q0 -32 36 -32q1 0 4.5 0.5t5.5 0.5
h7l-29 -149l-13 -2q-11 -1 -61 -1h-20h-23t-21 1.5t-23 4.5l-20 8.5t-20 14t-15 21t-13 28.5h-2q-16 -24 -42 -42q-56 -42 -118 -42q-58 0 -100.5 35t-42.5 96zM245 159q0 -16 9 -24t22 -8q23 0 44 21.5t31 54.5l5 18h-16q-10 0 -24 -2.5t-31 -9t-28.5 -19.5t-11.5 -31z
M314 557h-131q15 78 55.5 121.5t100.5 43.5q25 0 44 -9t28 -19t20.5 -19t23.5 -9q31 0 40 53h132q-14 -76 -55.5 -120.5t-98.5 -44.5q-24 0 -43.5 9t-29 19.5t-21.5 19.5t-24 9q-29 0 -41 -54z" />
    <glyph glyph-name="adieresis" unicode="&#xe4;" horiz-adv-x="594" 
d="M45 122q0 52 32.5 91.5t84.5 60.5t105.5 30.5t106.5 9.5l3 11q2 14 2 20q0 26 -51 26q-41 0 -100 -23q-30 -12 -52 -24l-40 148q36 17 73 30q85 29 161 29q28 0 54.5 -4t56.5 -15.5t52.5 -29t37 -47.5t14.5 -69q0 -32 -15 -98t-15 -88q0 -32 36 -32q1 0 4.5 0.5t5.5 0.5
h7l-29 -149l-13 -2q-11 -1 -61 -1h-20h-23t-21 1.5t-23 4.5l-20 8.5t-20 14t-15 21t-13 28.5h-2q-16 -24 -42 -42q-56 -42 -118 -42q-58 0 -100.5 35t-42.5 96zM245 159q0 -16 9 -24t22 -8q23 0 44 21.5t31 54.5l5 18h-16q-10 0 -24 -2.5t-31 -9t-28.5 -19.5t-11.5 -31z
M446 560l31 159h147l-31 -159h-147zM189 560l32 159h146l-31 -159h-147z" />
    <glyph glyph-name="aring" unicode="&#xe5;" horiz-adv-x="594" 
d="M45 122q0 52 32.5 91.5t84.5 60.5t105.5 30.5t106.5 9.5l3 11q2 14 2 20q0 26 -51 26q-41 0 -100 -23q-30 -12 -52 -24l-40 148q36 17 73 30q85 29 161 29q28 0 54.5 -4t56.5 -15.5t52.5 -29t37 -47.5t14.5 -69q0 -32 -15 -98t-15 -88q0 -32 36 -32q1 0 4.5 0.5t5.5 0.5
h7l-29 -149l-13 -2q-11 -1 -61 -1h-20h-23t-21 1.5t-23 4.5l-20 8.5t-20 14t-15 21t-13 28.5h-2q-16 -24 -42 -42q-56 -42 -118 -42q-58 0 -100.5 35t-42.5 96zM245 159q0 -16 9 -24t22 -8q23 0 44 21.5t31 54.5l5 18h-16q-10 0 -24 -2.5t-31 -9t-28.5 -19.5t-11.5 -31z
M392 545q-44 0 -76 19.5t-32 55.5q0 52 40 77t92 25q44 0 76.5 -20t32.5 -59q0 -49 -41.5 -73.5t-91.5 -24.5zM398 598q17 0 29.5 12t12.5 30q0 28 -29 28q-18 0 -29.5 -12t-11.5 -32q0 -26 28 -26z" />
    <glyph glyph-name="ae" unicode="&#xe6;" horiz-adv-x="848" 
d="M47 138q0 50 33 87t85.5 55.5t102 26.5t97.5 8h8q5 31 -9 43.5t-46 12.5q-47 0 -99 -21q-27 -12 -44 -21l-43 143q33 16 74 30q85 29 157 29q88 0 145 -48h2q38 27 69.5 37.5t75.5 10.5q106 0 166 -57t60 -145q0 -36 -10 -74q-6 -22 -11 -31h-309q1 -29 28 -49.5
t67 -20.5t96 25q22 10 46 24l51 -148q-28 -19 -61 -33q-78 -34 -160 -34q-129 0 -211 75h-2q-8 -11 -23 -24.5t-57 -31t-91 -17.5q-80 0 -133.5 41.5t-53.5 106.5zM247 159q0 -16 9 -24t22 -8q23 0 44 21.5t31 54.5l5 18h-16q-10 0 -24 -2.5t-31 -9t-28.5 -19.5t-11.5 -31z
M578 318h100q0 7 1 10q1 7 1 19q0 44 -37 44q-25 0 -41.5 -21.5t-23.5 -51.5z" />
    <glyph glyph-name="ccedilla" unicode="&#xe7;" horiz-adv-x="584" 
d="M186 -107l59 107q-87 23 -133 84.5t-46 138.5q0 53 22.5 107t63.5 99t107.5 73.5t145.5 28.5q40 0 79 -7.5t76.5 -23t56.5 -47t11 -73.5l-16 -79h-175l5 25q3 14 -9 23.5t-41 9.5q-58 0 -87 -39t-29 -81q0 -80 95 -80q59 0 113 28q27 13 47 27l52 -151q-29 -22 -60 -37
q-80 -38 -174 -38h-18l-21 -35q37 -2 61.5 -23.5t24.5 -53.5q0 -42 -29 -70t-67 -38t-80 -10q-24 0 -49 5q-16 4 -23 5l16 85q7 -4 14 -5q12 -4 36 -4q51 0 51 27q0 22 -50 22h-29z" />
    <glyph glyph-name="egrave" unicode="&#xe8;" horiz-adv-x="569" 
d="M70 233q0 124 87 211t217 87q106 0 166.5 -57t60.5 -146q0 -33 -10 -71q-5 -17 -10 -29h-303q-1 -36 20.5 -52.5t58.5 -16.5q43 0 103 25q26 10 48 24l52 -153q-28 -19 -61 -33q-78 -34 -165 -34q-128 0 -196 69t-68 176zM297 318h100q0 7 1 10q1 7 1 19q0 44 -37 44
q-25 0 -41.5 -21.5t-23.5 -51.5zM405 719l82 -161h-149l-126 161h193z" />
    <glyph glyph-name="eacute" unicode="&#xe9;" horiz-adv-x="569" 
d="M301 558l144 161h209l-188 -161h-165zM70 233q0 124 87 211t217 87q106 0 166.5 -57t60.5 -146q0 -33 -10 -71q-5 -17 -10 -29h-303q-1 -36 20.5 -52.5t58.5 -16.5q43 0 103 25q26 10 48 24l52 -153q-28 -19 -61 -33q-78 -34 -165 -34q-128 0 -196 69t-68 176zM297 318
h100q0 7 1 10q1 7 1 19q0 44 -37 44q-25 0 -41.5 -21.5t-23.5 -51.5z" />
    <glyph glyph-name="ecircumflex" unicode="&#xea;" horiz-adv-x="569" 
d="M190 558l136 161h198l72 -161h-152l-29 83h-2l-60 -83h-163zM70 233q0 124 87 211t217 87q106 0 166.5 -57t60.5 -146q0 -33 -10 -71q-5 -17 -10 -29h-303q-1 -36 20.5 -52.5t58.5 -16.5q43 0 103 25q26 10 48 24l52 -153q-28 -19 -61 -33q-78 -34 -165 -34
q-128 0 -196 69t-68 176zM297 318h100q0 7 1 10q1 7 1 19q0 44 -37 44q-25 0 -41.5 -21.5t-23.5 -51.5z" />
    <glyph glyph-name="edieresis" unicode="&#xeb;" horiz-adv-x="569" 
d="M454 560l31 159h147l-31 -159h-147zM197 560l32 159h146l-31 -159h-147zM70 233q0 124 87 211t217 87q106 0 166.5 -57t60.5 -146q0 -33 -10 -71q-5 -17 -10 -29h-303q-1 -36 20.5 -52.5t58.5 -16.5q43 0 103 25q26 10 48 24l52 -153q-28 -19 -61 -33q-78 -34 -165 -34
q-128 0 -196 69t-68 176zM297 318h100q0 7 1 10q1 7 1 19q0 44 -37 44q-25 0 -41.5 -21.5t-23.5 -51.5z" />
    <glyph glyph-name="igrave" unicode="&#xec;" horiz-adv-x="383" 
d="M114 126q0 31 9 73l33 172h-63l28 148h272l-59 -305q-4 -12 -4 -34q0 -32 36 -32q2 0 5 0.5t5 0.5h6l-28 -149l-17 -2q-22 -2 -42 -2q-34 0 -55.5 1.5t-48 9t-41.5 20.5t-25.5 38t-10.5 61zM303 719l82 -161h-149l-126 161h193z" />
    <glyph glyph-name="iacute" unicode="&#xed;" horiz-adv-x="383" 
d="M199 558l144 161h209l-188 -161h-165zM114 126q0 31 9 73l33 172h-63l28 148h272l-59 -305q-4 -12 -4 -34q0 -32 36 -32q2 0 5 0.5t5 0.5h6l-28 -149l-17 -2q-22 -2 -42 -2q-34 0 -55.5 1.5t-48 9t-41.5 20.5t-25.5 38t-10.5 61z" />
    <glyph glyph-name="icircumflex" unicode="&#xee;" horiz-adv-x="383" 
d="M87 558l136 161h198l72 -161h-152l-29 83h-2l-60 -83h-163zM114 126q0 31 9 73l33 172h-63l28 148h272l-59 -305q-4 -12 -4 -34q0 -32 36 -32q2 0 5 0.5t5 0.5h6l-28 -149l-17 -2q-22 -2 -42 -2q-34 0 -55.5 1.5t-48 9t-41.5 20.5t-25.5 38t-10.5 61z" />
    <glyph glyph-name="idieresis" unicode="&#xef;" horiz-adv-x="383" 
d="M336 560l31 159h147l-31 -159h-147zM109 560l32 159h146l-31 -159h-147zM114 126q0 31 9 73l33 172h-63l28 148h272l-59 -305q-4 -12 -4 -34q0 -32 36 -32q2 0 5 0.5t5 0.5h6l-28 -149l-17 -2q-22 -2 -42 -2q-34 0 -55.5 1.5t-48 9t-41.5 20.5t-25.5 38t-10.5 61z" />
    <glyph glyph-name="eth" unicode="&#xf0;" horiz-adv-x="607" 
d="M72 207q0 100 79.5 178t198.5 78q24 0 39 -4q9 -1 18 -5q-14 20 -16 22q-26 28 -34 33l-223 -82l28 115l89 31q-46 22 -76 26l84 148q126 -33 210 -93l201 73l-27 -114l-93 -34q79 -98 79 -234q0 -43 -10 -89.5t-33 -95t-57 -86.5t-87 -62t-117 -24q-120 0 -186.5 62
t-66.5 157zM283 209q0 -49 43 -49q37 0 60.5 31t23.5 70q0 45 -47 45q-44 0 -62 -28.5t-18 -68.5z" />
    <glyph glyph-name="ntilde" unicode="&#xf1;" horiz-adv-x="715" 
d="M91 0l68 349q4 22 -18 22h-41l28 148h187q65 0 65 -49q0 -15 -3 -25q0 -2 -1.5 -6t-2.5 -7h2q16 25 44 50q57 49 131 49q67 0 110 -38t43 -112q0 -35 -16 -109t-16 -92q0 -32 36 -32q1 0 5 0.5t6 0.5h6l-29 -149q-1 0 -3.5 -0.5t-5.5 -1t-6 -0.5q-11 -1 -54 -1
q-29 0 -48.5 1.5t-44.5 9t-40.5 20.5t-26 38.5t-10.5 60.5q0 36 15 106.5t15 79.5q0 30 -36 30q-42 0 -69.5 -36.5t-38.5 -92.5l-43 -214h-208zM397 557h-131q15 78 55.5 121.5t100.5 43.5q25 0 44 -9t28 -19t20.5 -19t23.5 -9q31 0 40 53h132q-14 -76 -55.5 -120.5
t-98.5 -44.5q-24 0 -43.5 9t-29 19.5t-21.5 19.5t-24 9q-29 0 -41 -54z" />
    <glyph glyph-name="ograve" unicode="&#xf2;" 
d="M67 223q0 134 100.5 221t235.5 87q118 0 193.5 -64.5t75.5 -171.5q0 -133 -101.5 -220t-235.5 -87q-116 0 -192 64.5t-76 170.5zM278 233q0 -35 20 -54t52 -19q43 0 77 33t34 89q0 37 -20 57t-51 20q-41 0 -76.5 -35t-35.5 -91zM435 719l82 -161h-149l-126 161h193z" />
    <glyph glyph-name="oacute" unicode="&#xf3;" 
d="M331 558l144 161h209l-188 -161h-165zM67 223q0 134 100.5 221t235.5 87q118 0 193.5 -64.5t75.5 -171.5q0 -133 -101.5 -220t-235.5 -87q-116 0 -192 64.5t-76 170.5zM278 233q0 -35 20 -54t52 -19q43 0 77 33t34 89q0 37 -20 57t-51 20q-41 0 -76.5 -35t-35.5 -91z" />
    <glyph glyph-name="ocircumflex" unicode="&#xf4;" 
d="M219 558l136 161h198l72 -161h-152l-29 83h-2l-60 -83h-163zM67 223q0 134 100.5 221t235.5 87q118 0 193.5 -64.5t75.5 -171.5q0 -133 -101.5 -220t-235.5 -87q-116 0 -192 64.5t-76 170.5zM278 233q0 -35 20 -54t52 -19q43 0 77 33t34 89q0 37 -20 57t-51 20
q-41 0 -76.5 -35t-35.5 -91z" />
    <glyph glyph-name="otilde" unicode="&#xf5;" 
d="M67 223q0 134 100.5 221t235.5 87q118 0 193.5 -64.5t75.5 -171.5q0 -133 -101.5 -220t-235.5 -87q-116 0 -192 64.5t-76 170.5zM278 233q0 -35 20 -54t52 -19q43 0 77 33t34 89q0 37 -20 57t-51 20q-41 0 -76.5 -35t-35.5 -91zM351 557h-131q15 78 55.5 121.5
t100.5 43.5q25 0 44 -9t28 -19t20.5 -19t23.5 -9q31 0 40 53h132q-14 -76 -55.5 -120.5t-98.5 -44.5q-24 0 -43.5 9t-29 19.5t-21.5 19.5t-24 9q-29 0 -41 -54z" />
    <glyph glyph-name="odieresis" unicode="&#xf6;" 
d="M484 560l31 159h147l-31 -159h-147zM227 560l32 159h146l-31 -159h-147zM67 223q0 134 100.5 221t235.5 87q118 0 193.5 -64.5t75.5 -171.5q0 -133 -101.5 -220t-235.5 -87q-116 0 -192 64.5t-76 170.5zM278 233q0 -35 20 -54t52 -19q43 0 77 33t34 89q0 37 -20 57
t-51 20q-41 0 -76.5 -35t-35.5 -91z" />
    <glyph glyph-name="divide" unicode="&#xf7;" 
d="M291 442v156h170v-156h-170zM93 211v154h565v-154h-565zM291 -21v156h170v-156h-170z" />
    <glyph glyph-name="oslash" unicode="&#xf8;" 
d="M67 223q0 134 100.5 221t235.5 87q84 0 149 -35l60 64l49 -40l-57 -61q68 -63 68 -164q0 -133 -101.5 -220t-235.5 -87q-82 0 -144 32l-63 -67l-48 42l58 61q-71 65 -71 167zM278 233q0 -13 3 -25l137 146q-17 5 -28 5q-41 0 -76.5 -35t-35.5 -91zM461 282q0 12 -3 22
l-133 -141q12 -3 25 -3q43 0 77 33t34 89z" />
    <glyph glyph-name="ugrave" unicode="&#xf9;" horiz-adv-x="713" 
d="M115 135q0 29 6 59l35 177h-64l30 148h272l-56 -286q-5 -13 -5 -33q0 -15 6.5 -22.5t24.5 -7.5q36 0 66.5 37.5t39.5 84.5l15 79h-64l30 148h272l-60 -305q-4 -20 -4 -35t8 -23.5t32 -8.5q1 0 4 0.5t5 0.5h4l-28 -148l-19 -1q-19 -1 -44.5 -2t-40.5 -1q-54 0 -85.5 19
t-42.5 79h-2q-70 -106 -178 -106q-67 0 -112 38t-45 109zM450 719l82 -161h-149l-126 161h193z" />
    <glyph glyph-name="uacute" unicode="&#xfa;" horiz-adv-x="713" 
d="M346 558l144 161h209l-188 -161h-165zM115 135q0 29 6 59l35 177h-64l30 148h272l-56 -286q-5 -13 -5 -33q0 -15 6.5 -22.5t24.5 -7.5q36 0 66.5 37.5t39.5 84.5l15 79h-64l30 148h272l-60 -305q-4 -20 -4 -35t8 -23.5t32 -8.5q1 0 4 0.5t5 0.5h4l-28 -148l-19 -1
q-19 -1 -44.5 -2t-40.5 -1q-54 0 -85.5 19t-42.5 79h-2q-70 -106 -178 -106q-67 0 -112 38t-45 109z" />
    <glyph glyph-name="ucircumflex" unicode="&#xfb;" horiz-adv-x="713" 
d="M234 558l136 161h198l72 -161h-152l-29 83h-2l-60 -83h-163zM115 135q0 29 6 59l35 177h-64l30 148h272l-56 -286q-5 -13 -5 -33q0 -15 6.5 -22.5t24.5 -7.5q36 0 66.5 37.5t39.5 84.5l15 79h-64l30 148h272l-60 -305q-4 -20 -4 -35t8 -23.5t32 -8.5q1 0 4 0.5t5 0.5h4
l-28 -148l-19 -1q-19 -1 -44.5 -2t-40.5 -1q-54 0 -85.5 19t-42.5 79h-2q-70 -106 -178 -106q-67 0 -112 38t-45 109z" />
    <glyph glyph-name="udieresis" unicode="&#xfc;" horiz-adv-x="713" 
d="M498 560l31 159h147l-31 -159h-147zM241 560l32 159h146l-31 -159h-147zM115 135q0 29 6 59l35 177h-64l30 148h272l-56 -286q-5 -13 -5 -33q0 -15 6.5 -22.5t24.5 -7.5q36 0 66.5 37.5t39.5 84.5l15 79h-64l30 148h272l-60 -305q-4 -20 -4 -35t8 -23.5t32 -8.5
q1 0 4 0.5t5 0.5h4l-28 -148l-19 -1q-19 -1 -44.5 -2t-40.5 -1q-54 0 -85.5 19t-42.5 79h-2q-70 -106 -178 -106q-67 0 -112 38t-45 109z" />
    <glyph glyph-name="yacute" unicode="&#xfd;" horiz-adv-x="649" 
d="M-29 -164l88 142q11 -7 21 -11q24 -11 66 -11q56 0 79 26l-90 389h-55l28 148h294l-29 -148h-34l13 -140q3 -14 0 -52l-2 -25h5l10 25l22 52l64 140h-30l28 148h285l-28 -148h-49l-227 -400q-58 -102 -129 -141.5t-158 -39.5q-71 0 -127 23q-23 9 -45 23zM330 558
l144 161h209l-188 -161h-165z" />
    <glyph glyph-name="thorn" unicode="&#xfe;" horiz-adv-x="660" 
d="M26 -200l151 771h-67l28 148h273l-39 -195q-2 -14 -5 -21l-3 -9h2q48 37 122 37q94 0 149 -63t55 -168q0 -135 -87 -223.5t-199 -88.5q-77 0 -127 38h-2l-2 -12q-3 -20 -5 -31l-36 -183h-208zM314 232q0 -73 65 -73q39 0 70.5 34.5t31.5 90.5q0 33 -17 53t-47 20
q-31 0 -67 -32t-36 -93z" />
    <glyph glyph-name="ydieresis" unicode="&#xff;" horiz-adv-x="649" 
d="M-29 -164l88 142q11 -7 21 -11q24 -11 66 -11q56 0 79 26l-90 389h-55l28 148h294l-29 -148h-34l13 -140q3 -14 0 -52l-2 -25h5l10 25l22 52l64 140h-30l28 148h285l-28 -148h-49l-227 -400q-58 -102 -129 -141.5t-158 -39.5q-71 0 -127 23q-23 9 -45 23zM482 560l31 159
h147l-31 -159h-147zM225 560l32 159h146l-31 -159h-147z" />
    <glyph glyph-name="Amacron" unicode="&#x100;" horiz-adv-x="738" 
d="M11 0l29 154h54l291 565h247l71 -565h54l-29 -154h-319l30 154h56l-1 66h-153l-27 -66h56l-31 -154h-328zM400 362h87l-3 99q-1 27 -1 68q0 20 1 28h-5q-5 -13 -9 -28q-20 -56 -26 -68zM375 781l26 132h285l-27 -132h-284z" />
    <glyph glyph-name="amacron" unicode="&#x101;" horiz-adv-x="594" 
d="M45 122q0 52 32.5 91.5t84.5 60.5t105.5 30.5t106.5 9.5l3 11q2 14 2 20q0 26 -51 26q-41 0 -100 -23q-30 -12 -52 -24l-40 148q36 17 73 30q85 29 161 29q28 0 54.5 -4t56.5 -15.5t52.5 -29t37 -47.5t14.5 -69q0 -32 -15 -98t-15 -88q0 -32 36 -32q1 0 4.5 0.5t5.5 0.5
h7l-29 -149l-13 -2q-11 -1 -61 -1h-20h-23t-21 1.5t-23 4.5l-20 8.5t-20 14t-15 21t-13 28.5h-2q-16 -24 -42 -42q-56 -42 -118 -42q-58 0 -100.5 35t-42.5 96zM245 159q0 -16 9 -24t22 -8q23 0 44 21.5t31 54.5l5 18h-16q-10 0 -24 -2.5t-31 -9t-28.5 -19.5t-11.5 -31z
M251 575l26 132h285l-27 -132h-284z" />
    <glyph glyph-name="Abreve" unicode="&#x102;" horiz-adv-x="738" 
d="M11 0l29 154h54l291 565h247l71 -565h54l-29 -154h-319l30 154h56l-1 66h-153l-27 -66h56l-31 -154h-328zM400 362h87l-3 99q-1 27 -1 68q0 20 1 28h-5q-5 -13 -9 -28q-20 -56 -26 -68zM525 758q-87 0 -138.5 46t-34.5 121h137q-12 -67 43 -67q23 0 43.5 16t25.5 51h138
q-17 -83 -75 -125t-139 -42z" />
    <glyph glyph-name="abreve" unicode="&#x103;" horiz-adv-x="594" 
d="M45 122q0 52 32.5 91.5t84.5 60.5t105.5 30.5t106.5 9.5l3 11q2 14 2 20q0 26 -51 26q-41 0 -100 -23q-30 -12 -52 -24l-40 148q36 17 73 30q85 29 161 29q28 0 54.5 -4t56.5 -15.5t52.5 -29t37 -47.5t14.5 -69q0 -32 -15 -98t-15 -88q0 -32 36 -32q1 0 4.5 0.5t5.5 0.5
h7l-29 -149l-13 -2q-11 -1 -61 -1h-20h-23t-21 1.5t-23 4.5l-20 8.5t-20 14t-15 21t-13 28.5h-2q-16 -24 -42 -42q-56 -42 -118 -42q-58 0 -100.5 35t-42.5 96zM245 159q0 -16 9 -24t22 -8q23 0 44 21.5t31 54.5l5 18h-16q-10 0 -24 -2.5t-31 -9t-28.5 -19.5t-11.5 -31z
M402 552q-87 0 -138.5 46t-34.5 121h137q-12 -67 43 -67q23 0 43.5 16t25.5 51h138q-17 -83 -75 -125t-139 -42z" />
    <glyph glyph-name="Aogonek" unicode="&#x104;" horiz-adv-x="738" 
d="M478 -150q0 41 27 81.5t69 68.5h-165l30 154h56l-1 66h-153l-27 -66h56l-31 -154h-328l29 154h54l291 565h247l71 -565h54l-29 -154h-4q-28 0 -61 -31.5t-33 -60.5q0 -27 49 -31l-57 -129q-144 16 -144 102zM400 362h87l-3 99q-1 27 -1 68q0 20 1 28h-5q-5 -13 -9 -28
q-20 -56 -26 -68z" />
    <glyph glyph-name="aogonek" unicode="&#x105;" horiz-adv-x="594" 
d="M579 0h-5q-28 0 -61 -31.5t-33 -60.5q0 -27 49 -31l-58 -129q-143 16 -143 103q0 41 28.5 83.5t70.5 67.5q-59 16 -77 73h-2q-19 -24 -43 -43q-52 -44 -115 -44q-60 0 -102.5 35.5t-42.5 97.5q0 53 32.5 92.5t84.5 60.5t105.5 30.5t106.5 9.5l3 11q2 14 2 18q0 28 -48 28
q-44 0 -103 -23q-30 -12 -52 -24l-40 148q36 17 73 30q85 29 161 29q35 0 69 -7.5t69 -24.5t56 -51t21 -81q0 -34 -15 -100t-15 -85q0 -17 7 -25.5t29 -8.5h17zM245 159q0 -16 9 -24t22 -8q23 0 44 21.5t31 54.5l5 18h-16q-10 0 -24 -2.5t-31 -9t-28.5 -19.5t-11.5 -31z" />
    <glyph glyph-name="Cacute" unicode="&#x106;" horiz-adv-x="735" 
d="M447 764l144 161h209l-188 -161h-165zM96 309q0 174 126.5 298t309.5 124q43 0 90 -7t94 -22t74 -44t20 -67l-25 -130h-189l9 50q4 17 -11 26.5t-30.5 11.5t-35.5 2q-53 0 -95 -22.5t-65.5 -58.5t-36 -75t-12.5 -76q0 -66 33.5 -108.5t104.5 -42.5q76 0 85 39l10 51h191
l-21 -117q-9 -43 -39.5 -75t-73.5 -48t-84.5 -23t-82.5 -7q-152 0 -249 89.5t-97 231.5z" />
    <glyph glyph-name="cacute" unicode="&#x107;" horiz-adv-x="584" 
d="M311 558l144 161h209l-188 -161h-165zM66 223q0 53 22.5 107t64 99t108 73.5t145.5 28.5q39 0 78 -7.5t76.5 -23t56.5 -47t11 -73.5l-15 -79h-176l6 25q3 14 -9 23.5t-41 9.5q-55 0 -85.5 -38t-30.5 -82q0 -80 95 -80q59 0 113 28q27 13 47 27l51 -151q-31 -23 -59 -37
q-78 -38 -174 -38q-137 0 -210.5 68t-73.5 167z" />
    <glyph glyph-name="Ccircumflex" unicode="&#x108;" horiz-adv-x="735" 
d="M335 764l136 161h198l72 -161h-152l-29 83h-2l-60 -83h-163zM96 309q0 174 126.5 298t309.5 124q43 0 90 -7t94 -22t74 -44t20 -67l-25 -130h-189l9 50q4 17 -11 26.5t-30.5 11.5t-35.5 2q-53 0 -95 -22.5t-65.5 -58.5t-36 -75t-12.5 -76q0 -66 33.5 -108.5t104.5 -42.5
q76 0 85 39l10 51h191l-21 -117q-9 -43 -39.5 -75t-73.5 -48t-84.5 -23t-82.5 -7q-152 0 -249 89.5t-97 231.5z" />
    <glyph glyph-name="ccircumflex" unicode="&#x109;" horiz-adv-x="584" 
d="M200 558l136 161h198l72 -161h-152l-29 83h-2l-60 -83h-163zM66 223q0 53 22.5 107t64 99t108 73.5t145.5 28.5q39 0 78 -7.5t76.5 -23t56.5 -47t11 -73.5l-15 -79h-176l6 25q3 14 -9 23.5t-41 9.5q-55 0 -85.5 -38t-30.5 -82q0 -80 95 -80q59 0 113 28q27 13 47 27
l51 -151q-31 -23 -59 -37q-78 -38 -174 -38q-137 0 -210.5 68t-73.5 167z" />
    <glyph glyph-name="Cdotaccent" unicode="&#x10a;" horiz-adv-x="735" 
d="M96 309q0 174 126.5 298t309.5 124q43 0 90 -7t94 -22t74 -44t20 -67l-25 -130h-189l9 50q4 17 -11 26.5t-30.5 11.5t-35.5 2q-53 0 -95 -22.5t-65.5 -58.5t-36 -75t-12.5 -76q0 -66 33.5 -108.5t104.5 -42.5q76 0 85 39l10 51h191l-21 -117q-9 -43 -39.5 -75t-73.5 -48
t-84.5 -23t-82.5 -7q-152 0 -249 89.5t-97 231.5zM463 777l29 148h169l-30 -148h-168z" />
    <glyph glyph-name="cdotaccent" unicode="&#x10b;" horiz-adv-x="584" 
d="M66 223q0 53 22.5 107t64 99t108 73.5t145.5 28.5q39 0 78 -7.5t76.5 -23t56.5 -47t11 -73.5l-15 -79h-176l6 25q3 14 -9 23.5t-41 9.5q-55 0 -85.5 -38t-30.5 -82q0 -80 95 -80q59 0 113 28q27 13 47 27l51 -151q-31 -23 -59 -37q-78 -38 -174 -38q-137 0 -210.5 68
t-73.5 167zM327 571l29 148h169l-30 -148h-168z" />
    <glyph glyph-name="Ccaron" unicode="&#x10c;" horiz-adv-x="735" 
d="M450 764l-72 161h152l28 -83h2l61 83h163l-137 -161h-197zM96 309q0 174 126.5 298t309.5 124q43 0 90 -7t94 -22t74 -44t20 -67l-25 -130h-189l9 50q4 17 -11 26.5t-30.5 11.5t-35.5 2q-53 0 -95 -22.5t-65.5 -58.5t-36 -75t-12.5 -76q0 -66 33.5 -108.5t104.5 -42.5
q76 0 85 39l10 51h191l-21 -117q-9 -43 -39.5 -75t-73.5 -48t-84.5 -23t-82.5 -7q-152 0 -249 89.5t-97 231.5z" />
    <glyph glyph-name="ccaron" unicode="&#x10d;" horiz-adv-x="584" 
d="M315 558l-72 161h152l28 -83h2l61 83h163l-137 -161h-197zM66 223q0 53 22.5 107t64 99t108 73.5t145.5 28.5q39 0 78 -7.5t76.5 -23t56.5 -47t11 -73.5l-15 -79h-176l6 25q3 14 -9 23.5t-41 9.5q-55 0 -85.5 -38t-30.5 -82q0 -80 95 -80q59 0 113 28q27 13 47 27
l51 -151q-31 -23 -59 -37q-78 -38 -174 -38q-137 0 -210.5 68t-73.5 167z" />
    <glyph glyph-name="Dcaron" unicode="&#x10e;" horiz-adv-x="793" 
d="M445 764l-72 161h152l28 -83h2l61 83h163l-137 -161h-197zM50 0l30 154h75l79 411h-75l30 154h309q160 0 249.5 -75.5t89.5 -210.5q0 -183 -118 -308t-301 -125h-368zM374 167h41q93 0 149.5 71.5t56.5 174.5q0 68 -34 103.5t-98 35.5h-42z" />
    <glyph glyph-name="dcaron" unicode="&#x10f;" horiz-adv-x="699" 
d="M802 719h164q1 -7 1 -19q0 -77 -48.5 -129.5t-122.5 -69.5l-58 63q67 40 67 113q0 19 -3 42zM69 220q0 135 87 223t207 88q56 0 94 -22q17 -11 24 -22h2q0 5 1 8l2 13l12 63h-62l28 148h272l-98 -505l-2 -12q-2 -12 -2 -21q0 -33 34 -33q2 0 6 0.5t6 0.5h7l-28 -149
l-25 -3q-30 -2 -56 -2q-130 0 -149 81h-2q-63 -88 -164 -88q-86 0 -140 63.5t-54 168.5zM280 237q0 -36 16 -57t43 -21q35 0 71 31.5t36 87.5q0 35 -15 57t-46 22q-39 0 -72 -34t-33 -86z" />
    <glyph glyph-name="Dcroat" unicode="&#x110;" horiz-adv-x="790" 
d="M50 0l30 154h75l23 117h-68l33 167h67l25 127h-76l30 154h306q160 0 250 -75.5t90 -210.5q0 -183 -118 -308t-302 -125h-365zM374 167h39q93 0 149 71.5t56 174.5q0 68 -34 103.5t-98 35.5h-39l-21 -114h95l-32 -167h-95z" />
    <glyph glyph-name="dcroat" unicode="&#x111;" horiz-adv-x="689" 
d="M488 518l8 38h-145l20 110h146l10 53h209l-11 -53h62l-21 -110h-61l-67 -342q-4 -12 -4 -34q0 -32 36 -32q1 0 4.5 0.5t5.5 0.5h7l-28 -149l-25 -3q-30 -2 -59 -2q-132 0 -148 71h-2q-27 -35 -70 -56.5t-81 -21.5q-95 0 -150 61.5t-55 166.5q0 139 86.5 227t207.5 88
q87 0 121 -34h2v8q0 3 2 13zM280 232q0 -34 17.5 -53.5t47.5 -19.5q31 0 66 32.5t35 91.5q0 32 -16 53t-48 21q-37 0 -69.5 -34.5t-32.5 -90.5z" />
    <glyph glyph-name="Emacron" unicode="&#x112;" horiz-adv-x="674" 
d="M50 0l30 154h75l80 411h-76l30 154h569l-45 -233h-179l13 66h-99l-20 -106h190l-33 -168h-190l-22 -111h108l13 64h179l-44 -231h-579zM364 781l26 132h285l-27 -132h-284z" />
    <glyph glyph-name="emacron" unicode="&#x113;" horiz-adv-x="569" 
d="M70 233q0 124 87 211t217 87q106 0 166.5 -57t60.5 -146q0 -33 -10 -71q-5 -17 -10 -29h-303q-1 -36 20.5 -52.5t58.5 -16.5q43 0 103 25q26 10 48 24l52 -153q-28 -19 -61 -33q-78 -34 -165 -34q-128 0 -196 69t-68 176zM297 318h100q0 7 1 10q1 7 1 19q0 44 -37 44
q-25 0 -41.5 -21.5t-23.5 -51.5zM259 575l26 132h285l-27 -132h-284z" />
    <glyph glyph-name="Ebreve" unicode="&#x114;" horiz-adv-x="674" 
d="M50 0l30 154h75l80 411h-76l30 154h569l-45 -233h-179l13 66h-99l-20 -106h190l-33 -168h-190l-22 -111h108l13 64h179l-44 -231h-579zM515 758q-87 0 -138.5 46t-34.5 121h137q-12 -67 43 -67q23 0 43.5 16t25.5 51h138q-17 -83 -75 -125t-139 -42z" />
    <glyph glyph-name="ebreve" unicode="&#x115;" horiz-adv-x="569" 
d="M70 233q0 124 87 211t217 87q106 0 166.5 -57t60.5 -146q0 -33 -10 -71q-5 -17 -10 -29h-303q-1 -36 20.5 -52.5t58.5 -16.5q43 0 103 25q26 10 48 24l52 -153q-28 -19 -61 -33q-78 -34 -165 -34q-128 0 -196 69t-68 176zM297 318h100q0 7 1 10q1 7 1 19q0 44 -37 44
q-25 0 -41.5 -21.5t-23.5 -51.5zM410 552q-87 0 -138.5 46t-34.5 121h137q-12 -67 43 -67q23 0 43.5 16t25.5 51h138q-17 -83 -75 -125t-139 -42z" />
    <glyph glyph-name="Edotaccent" unicode="&#x116;" horiz-adv-x="674" 
d="M50 0l30 154h75l80 411h-76l30 154h569l-45 -233h-179l13 66h-99l-20 -106h190l-33 -168h-190l-22 -111h108l13 64h179l-44 -231h-579zM422 777l29 148h169l-30 -148h-168z" />
    <glyph glyph-name="edotaccent" unicode="&#x117;" horiz-adv-x="569" 
d="M70 233q0 124 87 211t217 87q106 0 166.5 -57t60.5 -146q0 -33 -10 -71q-5 -17 -10 -29h-303q-1 -36 20.5 -52.5t58.5 -16.5q43 0 103 25q26 10 48 24l52 -153q-28 -19 -61 -33q-78 -34 -165 -34q-128 0 -196 69t-68 176zM297 318h100q0 7 1 10q1 7 1 19q0 44 -37 44
q-25 0 -41.5 -21.5t-23.5 -51.5zM317 571l29 148h169l-30 -148h-168z" />
    <glyph glyph-name="Eogonek" unicode="&#x118;" horiz-adv-x="674" 
d="M50 0l30 154h75l80 411h-76l30 154h569l-45 -233h-179l13 66h-99l-20 -106h190l-33 -168h-190l-22 -111h108l13 64h179l-44 -231h-4q-28 0 -61 -31.5t-33 -60.5q0 -27 49 -31l-58 -129q-143 15 -143 100q0 43 26.5 83t69.5 69h-425z" />
    <glyph glyph-name="eogonek" unicode="&#x119;" horiz-adv-x="568" 
d="M368 531q113 0 172.5 -56.5t59.5 -152.5q0 -26 -10 -64q-5 -19 -10 -30h-303q-1 -36 21 -52.5t60 -16.5q40 0 100 25q29 12 49 24l52 -153l-30 -16q-30 -17 -74 -33q-35 -14 -60 -44t-25 -54q0 -15 10.5 -22t38.5 -9l-58 -129q-143 15 -143 100q0 80 82 141
q-114 11 -172.5 75.5t-58.5 152.5q0 138 85 226t214 88zM296 318h100q0 7 1 10q1 7 1 19q0 44 -37 44q-25 0 -41.5 -21.5t-23.5 -51.5z" />
    <glyph glyph-name="Ecaron" unicode="&#x11a;" horiz-adv-x="674" 
d="M410 764l-72 161h152l28 -83h2l61 83h163l-137 -161h-197zM50 0l30 154h75l80 411h-76l30 154h569l-45 -233h-179l13 66h-99l-20 -106h190l-33 -168h-190l-22 -111h108l13 64h179l-44 -231h-579z" />
    <glyph glyph-name="ecaron" unicode="&#x11b;" horiz-adv-x="569" 
d="M305 558l-72 161h152l28 -83h2l61 83h163l-137 -161h-197zM70 233q0 124 87 211t217 87q106 0 166.5 -57t60.5 -146q0 -33 -10 -71q-5 -17 -10 -29h-303q-1 -36 20.5 -52.5t58.5 -16.5q43 0 103 25q26 10 48 24l52 -153q-28 -19 -61 -33q-78 -34 -165 -34q-128 0 -196 69
t-68 176zM297 318h100q0 7 1 10q1 7 1 19q0 44 -37 44q-25 0 -41.5 -21.5t-23.5 -51.5z" />
    <glyph glyph-name="Gcircumflex" unicode="&#x11c;" horiz-adv-x="769" 
d="M340 764l136 161h198l72 -161h-152l-29 83h-2l-60 -83h-163zM94 308q0 177 130.5 300t318.5 123q32 0 67.5 -3.5t78 -13t74.5 -24.5t50.5 -40.5t11.5 -58.5l-26 -130h-189l10 52q3 13 -4.5 21.5t-23.5 11.5t-27 4t-26 1q-55 0 -99.5 -22.5t-70 -58t-39 -75.5t-13.5 -79
q0 -69 32.5 -108.5t121.5 -39.5q98 0 104 35l6 28h-106l31 154h296l-49 -248q-10 -53 -62 -88t-114 -48t-130 -13q-158 0 -255.5 89t-97.5 231z" />
    <glyph glyph-name="gcircumflex" unicode="&#x11d;" horiz-adv-x="670" 
d="M222 558l136 161h198l72 -161h-152l-29 83h-2l-60 -83h-163zM45 -153l78 142q12 -8 36 -17q48 -16 108 -16q48 0 75.5 17.5t38.5 60.5q7 27 8 30l4 11h-1q-51 -56 -115 -56q-100 0 -151.5 63t-51.5 159q0 116 76 203t202 87q67 0 109 -34q17 -14 28 -35h2q0 25 20.5 41
t45.5 16h181l-30 -148h-30q-21 0 -24 -18l-60 -299q-14 -71 -47.5 -123.5t-78.5 -82.5t-94 -44t-101 -14q-106 0 -175 28q-33 12 -53 29zM284 259q0 -68 61 -68q40 0 66.5 35t26.5 74q0 35 -18 47t-49 12q-41 0 -64 -27t-23 -73z" />
    <glyph glyph-name="Gbreve" unicode="&#x11e;" horiz-adv-x="769" 
d="M94 308q0 177 130.5 300t318.5 123q32 0 67.5 -3.5t78 -13t74.5 -24.5t50.5 -40.5t11.5 -58.5l-26 -130h-189l10 52q3 13 -4.5 21.5t-23.5 11.5t-27 4t-26 1q-55 0 -99.5 -22.5t-70 -58t-39 -75.5t-13.5 -79q0 -69 32.5 -108.5t121.5 -39.5q98 0 104 35l6 28h-106l31 154
h296l-49 -248q-10 -53 -62 -88t-114 -48t-130 -13q-158 0 -255.5 89t-97.5 231zM560 758q-87 0 -138.5 46t-34.5 121h137q-12 -67 43 -67q23 0 43.5 16t25.5 51h138q-17 -83 -75 -125t-139 -42z" />
    <glyph glyph-name="gbreve" unicode="&#x11f;" horiz-adv-x="670" 
d="M45 -153l78 142q12 -8 36 -17q48 -16 108 -16q48 0 75.5 17.5t38.5 60.5q7 27 8 30l4 11h-1q-51 -56 -115 -56q-100 0 -151.5 63t-51.5 159q0 116 76 203t202 87q67 0 109 -34q17 -14 28 -35h2q0 25 20.5 41t45.5 16h181l-30 -148h-30q-21 0 -24 -18l-60 -299
q-14 -71 -47.5 -123.5t-78.5 -82.5t-94 -44t-101 -14q-106 0 -175 28q-33 12 -53 29zM284 259q0 -68 61 -68q40 0 66.5 35t26.5 74q0 35 -18 47t-49 12q-41 0 -64 -27t-23 -73zM442 552q-87 0 -138.5 46t-34.5 121h137q-12 -67 43 -67q23 0 43.5 16t25.5 51h138
q-17 -83 -75 -125t-139 -42z" />
    <glyph glyph-name="Gdotaccent" unicode="&#x120;" horiz-adv-x="769" 
d="M94 308q0 177 130.5 300t318.5 123q32 0 67.5 -3.5t78 -13t74.5 -24.5t50.5 -40.5t11.5 -58.5l-26 -130h-189l10 52q3 13 -4.5 21.5t-23.5 11.5t-27 4t-26 1q-55 0 -99.5 -22.5t-70 -58t-39 -75.5t-13.5 -79q0 -69 32.5 -108.5t121.5 -39.5q98 0 104 35l6 28h-106l31 154
h296l-49 -248q-10 -53 -62 -88t-114 -48t-130 -13q-158 0 -255.5 89t-97.5 231zM468 777l29 148h169l-30 -148h-168z" />
    <glyph glyph-name="gdotaccent" unicode="&#x121;" horiz-adv-x="670" 
d="M45 -153l78 142q12 -8 36 -17q48 -16 108 -16q48 0 75.5 17.5t38.5 60.5q7 27 8 30l4 11h-1q-51 -56 -115 -56q-100 0 -151.5 63t-51.5 159q0 116 76 203t202 87q67 0 109 -34q17 -14 28 -35h2q0 25 20.5 41t45.5 16h181l-30 -148h-30q-21 0 -24 -18l-60 -299
q-14 -71 -47.5 -123.5t-78.5 -82.5t-94 -44t-101 -14q-106 0 -175 28q-33 12 -53 29zM284 259q0 -68 61 -68q40 0 66.5 35t26.5 74q0 35 -18 47t-49 12q-41 0 -64 -27t-23 -73zM350 571l29 148h169l-30 -148h-168z" />
    <glyph glyph-name="Gcommaaccent" unicode="&#x122;" horiz-adv-x="769" 
d="M311 -41h164q1 -7 1 -19q0 -77 -48.5 -129.5t-122.5 -69.5l-58 63q67 40 67 113q0 27 -3 42zM94 308q0 177 130.5 300t318.5 123q32 0 67.5 -3.5t78 -13t74.5 -24.5t50.5 -40.5t11.5 -58.5l-26 -130h-189l10 52q3 13 -4.5 21.5t-23.5 11.5t-27 4t-26 1q-55 0 -99.5 -22.5
t-70 -58t-39 -75.5t-13.5 -79q0 -69 32.5 -108.5t121.5 -39.5q98 0 104 35l6 28h-106l31 154h296l-49 -248q-10 -53 -62 -88t-114 -48t-130 -13q-158 0 -255.5 89t-97.5 231z" />
    <glyph glyph-name="gcommaaccent" unicode="&#x123;" horiz-adv-x="670" 
d="M502 571h-164q-1 7 -1 19q0 77 48.5 129.5t122.5 69.5l58 -63q-67 -40 -67 -113q0 -27 3 -42zM45 -153l78 142q12 -8 36 -17q48 -16 108 -16q48 0 75.5 17.5t38.5 60.5q7 27 8 30l4 11h-1q-51 -56 -115 -56q-100 0 -151.5 63t-51.5 159q0 116 76 203t202 87q67 0 109 -34
q17 -14 28 -35h2q0 25 20.5 41t45.5 16h181l-30 -148h-30q-21 0 -24 -18l-60 -299q-14 -71 -47.5 -123.5t-78.5 -82.5t-94 -44t-101 -14q-106 0 -175 28q-33 12 -53 29zM284 259q0 -68 61 -68q40 0 66.5 35t26.5 74q0 35 -18 47t-49 12q-41 0 -64 -27t-23 -73z" />
    <glyph glyph-name="Hcircumflex" unicode="&#x124;" horiz-adv-x="887" 
d="M384 764l136 161h198l72 -161h-152l-29 83h-2l-60 -83h-163zM50 0l30 154h75l79 411h-75l30 154h368l-30 -154h-76l-24 -125h205l24 125h-76l30 154h368l-30 -154h-76l-80 -411h76l-30 -154h-368l30 154h76l23 118h-205l-23 -118h76l-30 -154h-367z" />
    <glyph glyph-name="hcircumflex" unicode="&#x125;" horiz-adv-x="690" 
d="M109 764l136 161h198l72 -161h-152l-29 83h-2l-60 -83h-163zM66 0l110 571h-63l29 148h273l-46 -229q-3 -15 -8 -31l-5 -12h2q20 24 45 42q58 42 125 42q64 0 107.5 -38t43.5 -109q0 -37 -16.5 -112.5t-16.5 -90.5q0 -33 35 -33q2 0 6 0.5t6 0.5h6l-28 -149
q-1 0 -3.5 -0.5t-5.5 -1t-6 -0.5q-11 -1 -53 -1q-28 0 -48 1.5t-45 9t-40.5 20.5t-26.5 37.5t-11 59.5q0 40 15 109t15 80q0 29 -36 29q-42 0 -70 -37t-39 -92l-42 -214h-209z" />
    <glyph glyph-name="Hbar" unicode="&#x126;" horiz-adv-x="888" 
d="M50 0l30 154h75l54 278h-79l18 91h79l8 42h-76l30 154h368l-30 -154h-76l-8 -42h205l8 42h-76l30 154h367l-29 -154h-76l-8 -42h79l-19 -91h-78l-54 -278h76l-30 -154h-368l30 154h76l20 106h-205l-20 -106h76l-30 -154h-367zM417 389h205l8 43h-205z" />
    <glyph glyph-name="hbar" unicode="&#x127;" horiz-adv-x="689" 
d="M274 0h-209l109 556h-72l21 109h71l11 54h208l-10 -54h154l-20 -109h-155l-13 -64q-3 -15 -8 -31l-5 -12h2q18 23 44 41q57 41 122 41q67 0 110.5 -38t43.5 -111q0 -35 -16.5 -110t-16.5 -92q0 -32 36 -32q1 0 5 0.5t6 0.5h6l-28 -149q-1 0 -3.5 -0.5t-5.5 -1t-6 -0.5
q-11 -1 -54 -1q-29 0 -48.5 1.5t-44.5 9t-40.5 20.5t-26 38.5t-10.5 60.5q0 36 15 106.5t15 79.5q0 30 -37 30q-41 0 -69 -37t-39 -92z" />
    <glyph glyph-name="Itilde" unicode="&#x128;" horiz-adv-x="467" 
d="M50 0l30 154h75l79 411h-75l30 154h368l-30 -154h-77l-79 -411h76l-30 -154h-367zM304 763h-131q15 78 55.5 121.5t100.5 43.5q25 0 44 -9t28 -19t20.5 -19t23.5 -9q31 0 40 53h132q-14 -76 -55.5 -120.5t-98.5 -44.5q-24 0 -43.5 9t-29 19.5t-21.5 19.5t-24 9
q-29 0 -41 -54z" />
    <glyph glyph-name="itilde" unicode="&#x129;" horiz-adv-x="383" 
d="M114 126q0 31 9 73l33 172h-63l28 148h272l-59 -305q-4 -12 -4 -34q0 -32 36 -32q2 0 5 0.5t5 0.5h6l-28 -149l-17 -2q-22 -2 -42 -2q-34 0 -55.5 1.5t-48 9t-41.5 20.5t-25.5 38t-10.5 61zM219 557h-131q15 78 55.5 121.5t100.5 43.5q25 0 44 -9t28 -19t20.5 -19
t23.5 -9q31 0 40 53h132q-14 -76 -55.5 -120.5t-98.5 -44.5q-24 0 -43.5 9t-29 19.5t-21.5 19.5t-24 9q-29 0 -41 -54z" />
    <glyph glyph-name="Imacron" unicode="&#x12a;" horiz-adv-x="467" 
d="M50 0l30 154h75l79 411h-75l30 154h368l-30 -154h-77l-79 -411h76l-30 -154h-367zM242 781l26 132h285l-27 -132h-284z" />
    <glyph glyph-name="imacron" unicode="&#x12b;" horiz-adv-x="383" 
d="M114 126q0 31 9 73l33 172h-63l28 148h272l-59 -305q-4 -12 -4 -34q0 -32 36 -32q2 0 5 0.5t5 0.5h6l-28 -149l-17 -2q-22 -2 -42 -2q-34 0 -55.5 1.5t-48 9t-41.5 20.5t-25.5 38t-10.5 61zM157 575l26 132h285l-27 -132h-284z" />
    <glyph glyph-name="Ibreve" unicode="&#x12c;" horiz-adv-x="467" 
d="M50 0l30 154h75l79 411h-75l30 154h368l-30 -154h-77l-79 -411h76l-30 -154h-367zM392 758q-87 0 -138.5 46t-34.5 121h137q-12 -67 43 -67q23 0 43.5 16t25.5 51h138q-17 -83 -75 -125t-139 -42z" />
    <glyph glyph-name="ibreve" unicode="&#x12d;" horiz-adv-x="383" 
d="M114 126q0 31 9 73l33 172h-63l28 148h272l-59 -305q-4 -12 -4 -34q0 -32 36 -32q2 0 5 0.5t5 0.5h6l-28 -149l-17 -2q-22 -2 -42 -2q-34 0 -55.5 1.5t-48 9t-41.5 20.5t-25.5 38t-10.5 61zM307 552q-87 0 -138.5 46t-34.5 121h137q-12 -67 43 -67q23 0 43.5 16t25.5 51
h138q-17 -83 -75 -125t-139 -42z" />
    <glyph glyph-name="Iogonek" unicode="&#x12e;" horiz-adv-x="467" 
d="M50 0l30 154h75l79 411h-75l30 154h368l-30 -154h-77l-79 -411h76l-30 -154h-5q-28 0 -61 -31.5t-33 -60.5q0 -27 49 -31l-57 -129q-144 15 -144 100q0 43 26.5 83t69.5 69h-212z" />
    <glyph glyph-name="iogonek" unicode="&#x12f;" horiz-adv-x="383" 
d="M102 -152q0 46 28.5 86.5t74.5 68.5q-44 10 -67.5 38t-23.5 85q0 31 9 73l33 172h-63l28 148h272l-59 -305q-5 -15 -5 -34q0 -32 36 -32h17l-28 -148h-5q-1 0 -5 -0.5t-7 -0.5q-22 -2 -52.5 -32.5t-30.5 -55.5q0 -15 9.5 -23.5t39.5 -10.5l-57 -129q-144 15 -144 100z
M198 567l29 152h201l-29 -152h-201z" />
    <glyph glyph-name="Idotaccent" unicode="&#x130;" horiz-adv-x="467" 
d="M50 0l30 154h75l79 411h-75l30 154h368l-30 -154h-77l-79 -411h76l-30 -154h-367zM300 777l29 148h169l-30 -148h-168z" />
    <glyph glyph-name="dotlessi" unicode="&#x131;" horiz-adv-x="383" 
d="M114 126q0 31 9 73l33 172h-63l28 148h272l-59 -305q-4 -12 -4 -34q0 -32 36 -32q2 0 5 0.5t5 0.5h6l-28 -149l-17 -2q-22 -2 -42 -2q-34 0 -55.5 1.5t-48 9t-41.5 20.5t-25.5 38t-10.5 61z" />
    <glyph glyph-name="IJ" unicode="&#x132;" horiz-adv-x="861" 
d="M447 0l32 167q19 -3 44 3t48.5 24.5t28.5 45.5l63 325h-89l30 154h368l-30 -154h-63l-59 -302q-58 -288 -373 -263zM50 0l30 154h74l81 411h-76l30 154h368l-30 -154h-76l-81 -411h56l-30 -154h-346z" />
    <glyph glyph-name="ij" unicode="&#x133;" horiz-adv-x="729" 
d="M198 567l29 152h202l-29 -152h-202zM114 126q0 31 9 73l33 172h-63l28 148h272l-59 -305q-4 -12 -4 -34q0 -32 36 -32q2 0 5 0.5t5 0.5h6l-28 -149l-17 -2q-11 -1 -41 -1q-34 0 -55 1.5t-48 8.5t-42 20.5t-26 38t-11 60.5zM569 567l30 152h201l-29 -152h-202zM308 -206
l31 158q2 -1 7 -1h15q85 0 94 45l72 375h-64l28 148h273l-99 -515q-12 -62 -47 -107t-80 -66.5t-85 -30.5t-77 -9t-49 1z" />
    <glyph glyph-name="Jcircumflex" unicode="&#x134;" horiz-adv-x="595" 
d="M329 764l136 161h198l72 -161h-152l-29 83h-2l-60 -83h-163zM48 188q0 26 9 69q1 4 3.5 15t4.5 16h203l-6 -27q-7 -35 -7 -49q0 -38 28 -38q34 0 43 51l68 340h-90l30 154h371l-29 -154h-66l-68 -348q-21 -108 -95.5 -168.5t-170.5 -60.5q-93 0 -160.5 54t-67.5 146z" />
    <glyph glyph-name="jcircumflex" unicode="&#x135;" horiz-adv-x="364" 
d="M84 558l137 161h197l72 -161h-152l-28 83h-2l-61 -83h-163zM90 -4l72 375h-64l28 148h273l-99 -515q-12 -62 -47 -107t-80 -66.5t-85 -30.5t-77 -9t-49 1l-19 2l31 158q1 -1 6 -1h16q85 0 94 45z" />
    <glyph glyph-name="Kcommaaccent" unicode="&#x136;" horiz-adv-x="774" 
d="M317 -41h164q1 -7 1 -19q0 -77 -48.5 -129.5t-122.5 -69.5l-58 63q67 40 67 113q0 27 -3 42zM50 0l30 154h75l79 411h-75l30 154h327l-29 -154h-37l-22 -118h41l105 118h-39l30 154h312l-30 -154h-56l-174 -195v-2q7 -4 15 -14q18 -25 23 -45l30 -106q9 -30 17.5 -40.5
t31.5 -10.5q14 0 21 1q4 1 12 1l-28 -154q-24 -3 -86 -3q-138 0 -169 114l-34 135q-10 33 -48 33h-7l-24 -125h65l-30 -154h-356z" />
    <glyph glyph-name="kcommaaccent" unicode="&#x137;" horiz-adv-x="632" 
d="M238 -41h164q1 -7 1 -19q0 -77 -48.5 -129.5t-122.5 -69.5l-58 63q67 40 67 113q0 27 -3 42zM66 0l109 571h-63l28 148h272l-75 -391h47l46 43h-51l28 148h284l-29 -148h-44l-104 -102v-2q7 -7 10 -12q7 -9 21 -38l14 -33q16 -35 48 -35q3 0 9 0.5t9 0.5h10l-28 -150
q-21 -3 -73 -3q-23 0 -42.5 3t-33 6t-25 11l-18 12.5t-13.5 16t-9.5 16t-8.5 19t-7 17.5l-20 56q-12 29 -30 29h-19l-35 -183h-207z" />
    <glyph glyph-name="kgreenlandic" unicode="&#x138;" horiz-adv-x="656" 
d="M92 0l71 371h-63l28 148h272l-37 -187h54l40 39h-45l28 148h271l-29 -148h-47l-104 -105v-2q10 -6 15 -11q19 -19 26 -38l14 -31q14 -35 48 -35h28l-28 -149q-23 -3 -66 -3q-41 0 -69 7.5t-43.5 22.5t-24 29t-17.5 34q-2 5 -3 8l-20 56q-10 25 -38 25h-20l-34 -179h-207z
" />
    <glyph glyph-name="Lacute" unicode="&#x139;" horiz-adv-x="649" 
d="M279 764l144 161h209l-188 -161h-165zM51 0l29 154h75l78 398h-76l32 167h368l-32 -167h-77l-74 -385h111l20 101h179l-52 -268h-581z" />
    <glyph glyph-name="lacute" unicode="&#x13a;" horiz-adv-x="360" 
d="M213 764l144 161h209l-188 -161h-165zM91 138q0 36 7 74l70 359h-63l29 148h271l-93 -490q-6 -23 -6 -41q0 -15 7.5 -22t28.5 -7q3 0 7 0.5t6 0.5h7l-33 -163l-16 -2q-11 -1 -41 -1q-39 0 -68 5.5t-56.5 19.5t-42 44t-14.5 75z" />
    <glyph glyph-name="Lcommaaccent" unicode="&#x13b;" horiz-adv-x="649" 
d="M267 -41h164q1 -7 1 -19q0 -77 -48.5 -129.5t-122.5 -69.5l-58 63q67 40 67 113q0 27 -3 42zM51 0l29 154h75l78 398h-76l32 167h368l-32 -167h-77l-74 -385h111l20 101h179l-52 -268h-581z" />
    <glyph glyph-name="lcommaaccent" unicode="&#x13c;" horiz-adv-x="360" 
d="M112 -41h164q1 -7 1 -19q0 -77 -48.5 -129.5t-122.5 -69.5l-58 63q67 40 67 113q0 27 -3 42zM91 138q0 36 7 74l70 359h-63l29 148h271l-93 -490q-6 -23 -6 -41q0 -15 7.5 -22t28.5 -7q3 0 7 0.5t6 0.5h7l-33 -163l-16 -2q-11 -1 -41 -1q-39 0 -68 5.5t-56.5 19.5t-42 44
t-14.5 75z" />
    <glyph glyph-name="Lcaron" unicode="&#x13d;" horiz-adv-x="649" 
d="M267 -41h164q1 -7 1 -19q0 -77 -48.5 -129.5t-122.5 -69.5l-58 63q67 40 67 113q0 27 -3 42zM51 0l29 154h75l78 398h-76l32 167h368l-32 -167h-77l-74 -385h111l20 101h179l-52 -268h-581z" />
    <glyph glyph-name="lcaron" unicode="&#x13e;" horiz-adv-x="374" 
d="M474 717h164q1 -7 1 -19q0 -77 -48.5 -129.5t-122.5 -69.5l-58 63q67 40 67 113q0 19 -3 42zM91 138q0 36 7 74l70 359h-63l29 148h271l-93 -490q-6 -23 -6 -41q0 -15 7.5 -22t28.5 -7q3 0 7 0.5t6 0.5h7l-33 -163l-16 -2q-11 -1 -41 -1q-39 0 -68 5.5t-56.5 19.5t-42 44
t-14.5 75z" />
    <glyph glyph-name="Ldot" unicode="&#x13f;" horiz-adv-x="649" 
d="M51 0l29 154h75l78 398h-76l32 167h368l-32 -167h-77l-74 -385h111l20 101h179l-52 -268h-581zM483 311l37 191h184l-36 -191h-185z" />
    <glyph glyph-name="ldot" unicode="&#x140;" horiz-adv-x="562" 
d="M91 138q0 36 7 74l70 359h-63l29 148h271l-93 -490q-6 -23 -6 -41q0 -15 7.5 -22t28.5 -7q3 0 7 0.5t6 0.5h7l-33 -163l-16 -2q-11 -1 -41 -1q-39 0 -68 5.5t-56.5 19.5t-42 44t-14.5 75zM409 311l37 191h184l-36 -191h-185z" />
    <glyph glyph-name="Lslash" unicode="&#x141;" horiz-adv-x="649" 
d="M50 0l30 154h75l10 57l-82 -41l29 163l86 41l33 178h-74l32 167h368l-33 -167h-77l-12 -62l163 79l-32 -162l-162 -80l-31 -160h124l20 101h167l-52 -268h-582z" />
    <glyph glyph-name="lslash" unicode="&#x142;" horiz-adv-x="391" 
d="M117 213l-72 -34l32 173l72 34l36 185h-63l28 148h272l-42 -219l97 47l-33 -172l-97 -48l-20 -105q-9 -32 -3 -47.5t35 -15.5q4 0 9 0.5t7 0.5h7l-32 -162l-18 -2q-11 -1 -43 -1q-26 0 -46 2t-42.5 7.5t-36.5 15.5t-28.5 26t-19 39t-7 55t7.5 73z" />
    <glyph glyph-name="Nacute" unicode="&#x143;" horiz-adv-x="869" 
d="M487 764l144 161h209l-188 -161h-165zM50 0l30 154h75l80 411h-76l30 154h289l108 -327q6 -14 13 -53q2 -9 4 -27h5l3 30q2 9 4.5 29l3.5 28l33 166h-81l29 154h373l-29 -154h-76l-110 -565h-213l-111 326q-9 30 -13 51q-2 9 -4 27h-5q0 -9 -2 -29q-1 -7 -3.5 -26.5
t-4.5 -30.5l-31 -164h81l-30 -154h-372z" />
    <glyph glyph-name="nacute" unicode="&#x144;" horiz-adv-x="715" 
d="M376 558l144 161h209l-188 -161h-165zM91 0l68 349q4 22 -18 22h-41l28 148h187q65 0 65 -49q0 -15 -3 -25q0 -2 -1.5 -6t-2.5 -7h2q16 25 44 50q57 49 131 49q67 0 110 -38t43 -112q0 -35 -16 -109t-16 -92q0 -32 36 -32q1 0 5 0.5t6 0.5h6l-29 -149q-1 0 -3.5 -0.5
t-5.5 -1t-6 -0.5q-11 -1 -54 -1q-29 0 -48.5 1.5t-44.5 9t-40.5 20.5t-26 38.5t-10.5 60.5q0 36 15 106.5t15 79.5q0 30 -36 30q-42 0 -69.5 -36.5t-38.5 -92.5l-43 -214h-208z" />
    <glyph glyph-name="Ncommaaccent" unicode="&#x145;" horiz-adv-x="869" 
d="M347 -41h164q1 -7 1 -19q0 -77 -48.5 -129.5t-122.5 -69.5l-58 63q67 40 67 113q0 27 -3 42zM50 0l30 154h75l80 411h-76l30 154h289l108 -327q6 -14 13 -53q2 -9 4 -27h5l3 30q2 9 4.5 29l3.5 28l33 166h-81l29 154h373l-29 -154h-76l-110 -565h-213l-111 326
q-9 30 -13 51q-2 9 -4 27h-5q0 -9 -2 -29q-1 -7 -3.5 -26.5t-4.5 -30.5l-31 -164h81l-30 -154h-372z" />
    <glyph glyph-name="ncommaaccent" unicode="&#x146;" horiz-adv-x="715" 
d="M324 -41h164q1 -7 1 -19q0 -77 -48.5 -129.5t-122.5 -69.5l-58 63q67 40 67 113q0 27 -3 42zM91 0l68 349q4 22 -18 22h-41l28 148h187q65 0 65 -49q0 -15 -3 -25q0 -2 -1.5 -6t-2.5 -7h2q16 25 44 50q57 49 131 49q67 0 110 -38t43 -112q0 -35 -16 -109t-16 -92
q0 -32 36 -32q1 0 5 0.5t6 0.5h6l-29 -149q-1 0 -3.5 -0.5t-5.5 -1t-6 -0.5q-11 -1 -54 -1q-29 0 -48.5 1.5t-44.5 9t-40.5 20.5t-26 38.5t-10.5 60.5q0 36 15 106.5t15 79.5q0 30 -36 30q-42 0 -69.5 -36.5t-38.5 -92.5l-43 -214h-208z" />
    <glyph glyph-name="Ncaron" unicode="&#x147;" horiz-adv-x="869" 
d="M490 764l-72 161h152l28 -83h2l61 83h163l-137 -161h-197zM50 0l30 154h75l80 411h-76l30 154h289l108 -327q6 -14 13 -53q2 -9 4 -27h5l3 30q2 9 4.5 29l3.5 28l33 166h-81l29 154h373l-29 -154h-76l-110 -565h-213l-111 326q-9 30 -13 51q-2 9 -4 27h-5q0 -9 -2 -29
q-1 -7 -3.5 -26.5t-4.5 -30.5l-31 -164h81l-30 -154h-372z" />
    <glyph glyph-name="ncaron" unicode="&#x148;" horiz-adv-x="715" 
d="M379 558l-72 161h152l28 -83h2l61 83h163l-137 -161h-197zM91 0l68 349q4 22 -18 22h-41l28 148h187q65 0 65 -49q0 -15 -3 -25q0 -2 -1.5 -6t-2.5 -7h2q16 25 44 50q57 49 131 49q67 0 110 -38t43 -112q0 -35 -16 -109t-16 -92q0 -32 36 -32q1 0 5 0.5t6 0.5h6l-29 -149
q-1 0 -3.5 -0.5t-5.5 -1t-6 -0.5q-11 -1 -54 -1q-29 0 -48.5 1.5t-44.5 9t-40.5 20.5t-26 38.5t-10.5 60.5q0 36 15 106.5t15 79.5q0 30 -36 30q-42 0 -69.5 -36.5t-38.5 -92.5l-43 -214h-208z" />
    <glyph glyph-name="napostrophe" unicode="&#x149;" horiz-adv-x="715" 
d="M127 763h164q1 -7 1 -19q0 -77 -48.5 -129.5t-122.5 -69.5l-58 63q67 40 67 113q0 19 -3 42zM91 0l68 349q4 22 -18 22h-41l28 148h187q65 0 65 -49q0 -15 -3 -25q0 -2 -1.5 -6t-2.5 -7h2q16 25 44 50q57 49 131 49q67 0 110 -38t43 -112q0 -35 -16 -109t-16 -92
q0 -32 36 -32q1 0 5 0.5t6 0.5h6l-29 -149q-1 0 -3.5 -0.5t-5.5 -1t-6 -0.5q-11 -1 -54 -1q-29 0 -48.5 1.5t-44.5 9t-40.5 20.5t-26 38.5t-10.5 60.5q0 36 15 106.5t15 79.5q0 30 -36 30q-42 0 -69.5 -36.5t-38.5 -92.5l-43 -214h-208z" />
    <glyph glyph-name="Eng" unicode="&#x14a;" horiz-adv-x="869" 
d="M547 -5l-113 331q-9 30 -13 51q-2 9 -4 27h-5q0 -9 -2 -29q-1 -7 -3.5 -26.5t-4.5 -30.5l-31 -164h81l-30 -154h-372l30 154h75l80 411h-76l30 154h289l108 -327q6 -14 13 -53q2 -9 4 -27h5l3 30q2 9 4.5 29l3.5 28l33 166h-81l29 154h373l-29 -154h-76l-108 -559
q-12 -63 -46.5 -108t-80 -66t-84.5 -30t-77 -9t-50 1l-18 2l31 157q1 -1 6 -1h16q80 0 90 43z" />
    <glyph glyph-name="eng" unicode="&#x14b;" horiz-adv-x="689" 
d="M91 0l68 349q4 22 -18 22h-41l28 148h187q65 0 65 -49q0 -14 -5 -32l-5 -17h2q19 29 45 55q61 55 133 55q67 0 110 -37.5t43 -111.5q0 -29 -28 -172l-41 -204q-12 -63 -46.5 -108t-80 -66t-84.5 -30t-77 -9t-50 1l-18 2l31 157q1 -1 6 -1h16q84 0 93 45l43 214
q19 95 19 102q0 30 -36 30q-42 0 -69.5 -36.5t-38.5 -92.5l-43 -214h-208z" />
    <glyph glyph-name="Omacron" unicode="&#x14c;" horiz-adv-x="816" 
d="M417 781l26 132h285l-27 -132h-284zM96 312q0 170 127.5 294.5t301.5 124.5q149 0 243 -89t94 -228q0 -172 -129.5 -299t-301.5 -127q-150 0 -242.5 91t-92.5 233zM313 325q0 -69 36 -110t95 -41q76 0 138 66t62 160q0 66 -36.5 105.5t-96.5 39.5q-77 0 -137.5 -64.5
t-60.5 -155.5z" />
    <glyph glyph-name="omacron" unicode="&#x14d;" 
d="M289 575l26 132h285l-27 -132h-284zM67 223q0 134 100.5 221t235.5 87q118 0 193.5 -64.5t75.5 -171.5q0 -133 -101.5 -220t-235.5 -87q-116 0 -192 64.5t-76 170.5zM278 233q0 -35 20 -54t52 -19q43 0 77 33t34 89q0 37 -20 57t-51 20q-41 0 -76.5 -35t-35.5 -91z" />
    <glyph glyph-name="Obreve" unicode="&#x14e;" horiz-adv-x="816" 
d="M96 312q0 170 127.5 294.5t301.5 124.5q149 0 243 -89t94 -228q0 -172 -129.5 -299t-301.5 -127q-150 0 -242.5 91t-92.5 233zM313 325q0 -69 36 -110t95 -41q76 0 138 66t62 160q0 66 -36.5 105.5t-96.5 39.5q-77 0 -137.5 -64.5t-60.5 -155.5zM568 758q-87 0 -138.5 46
t-34.5 121h137q-12 -67 43 -67q23 0 43.5 16t25.5 51h138q-17 -83 -75 -125t-139 -42z" />
    <glyph glyph-name="obreve" unicode="&#x14f;" 
d="M67 223q0 134 100.5 221t235.5 87q118 0 193.5 -64.5t75.5 -171.5q0 -133 -101.5 -220t-235.5 -87q-116 0 -192 64.5t-76 170.5zM278 233q0 -35 20 -54t52 -19q43 0 77 33t34 89q0 37 -20 57t-51 20q-41 0 -76.5 -35t-35.5 -91zM439 552q-87 0 -138.5 46t-34.5 121h137
q-12 -67 43 -67q23 0 43.5 16t25.5 51h138q-17 -83 -75 -125t-139 -42z" />
    <glyph glyph-name="Ohungarumlaut" unicode="&#x150;" horiz-adv-x="816" 
d="M580 764l117 161h197l-160 -161h-154zM348 764l112 161h168l-115 -161h-165zM96 312q0 170 127.5 294.5t301.5 124.5q149 0 243 -89t94 -228q0 -172 -129.5 -299t-301.5 -127q-150 0 -242.5 91t-92.5 233zM313 325q0 -69 36 -110t95 -41q76 0 138 66t62 160
q0 66 -36.5 105.5t-96.5 39.5q-77 0 -137.5 -64.5t-60.5 -155.5z" />
    <glyph glyph-name="ohungarumlaut" unicode="&#x151;" 
d="M452 558l117 161h197l-160 -161h-154zM220 558l112 161h168l-115 -161h-165zM67 223q0 134 100.5 221t235.5 87q118 0 193.5 -64.5t75.5 -171.5q0 -133 -101.5 -220t-235.5 -87q-116 0 -192 64.5t-76 170.5zM278 233q0 -35 20 -54t52 -19q43 0 77 33t34 89q0 37 -20 57
t-51 20q-41 0 -76.5 -35t-35.5 -91z" />
    <glyph glyph-name="OE" unicode="&#x152;" horiz-adv-x="1038" 
d="M94 313q0 110 62.5 206.5t161.5 152t204 55.5q57 0 102 -4t74 -4h423l-45 -233h-167l13 66h-104l-22 -108h184l-32 -166h-184l-21 -111h114l13 66h167l-46 -233h-417q-20 0 -57.5 -3.5t-80.5 -3.5q-148 0 -245 91t-97 229zM313 323q0 -68 40 -113t101 -45q36 0 55 3l20 3
l72 377q-1 0 -7.5 1.5l-10.5 2.5q-18 3 -53 3q-82 0 -149.5 -69.5t-67.5 -162.5z" />
    <glyph glyph-name="oe" unicode="&#x153;" horiz-adv-x="959" 
d="M279 233q0 -35 20 -54t52 -19q43 0 77 33t34 89q0 37 -20 57t-51 20q-49 0 -80.5 -34t-31.5 -92zM735 -12q-118 0 -196 65h-2q-89 -65 -189 -65q-123 0 -201.5 64.5t-78.5 170.5q0 136 94.5 222t229.5 86q110 0 189 -61h2q76 61 175 61q113 0 173 -56.5t60 -152.5
q0 -26 -10 -64q-5 -19 -10 -30h-303q-1 -36 21 -52.5t60 -16.5q40 0 100 25q29 12 49 24l52 -153q-31 -19 -62 -33q-78 -34 -153 -34zM688 318h100q0 7 1 10q1 7 1 19q0 44 -37 44q-25 0 -41.5 -21.5t-23.5 -51.5z" />
    <glyph glyph-name="Racute" unicode="&#x154;" horiz-adv-x="748" 
d="M410 764l144 161h209l-188 -161h-165zM48 0l30 154h76l80 411h-76l30 154h367q92 0 153 -50t61 -150q0 -29 -6.5 -59.5t-20.5 -64t-42 -63t-67 -46.5v-3q6 -5 18 -19q19 -21 26 -47l4 -14q9 -31 17.5 -41t30.5 -10q13 0 20 1q3 1 11 1l-29 -154l-26 -2q-16 -1 -56 -1
q-80 0 -117 32t-52 82l-31 104q-6 16 -13 23t-24 7h-23l-18 -91h63l-29 -154h-357zM418 402h45q40 0 66.5 23.5t26.5 64.5q0 28 -13.5 45t-38.5 17h-57z" />
    <glyph glyph-name="racute" unicode="&#x155;" horiz-adv-x="488" 
d="M268 558l144 161h209l-188 -161h-165zM92 0l67 349q6 22 -18 22h-41l30 148h185q66 0 66 -49q0 -29 -12 -65h2q28 56 77 90t107 34h15q5 0 7 -1l-40 -205l-9 2q-7 1 -33 1q-132 0 -160 -144l-34 -182h-209z" />
    <glyph glyph-name="Rcommaaccent" unicode="&#x156;" horiz-adv-x="748" 
d="M313 -41h164q1 -7 1 -19q0 -77 -48.5 -129.5t-122.5 -69.5l-58 63q67 40 67 113q0 27 -3 42zM48 0l30 154h76l80 411h-76l30 154h367q92 0 153 -50t61 -150q0 -29 -6.5 -59.5t-20.5 -64t-42 -63t-67 -46.5v-3q6 -5 18 -19q19 -21 26 -47l4 -14q9 -31 17.5 -41t30.5 -10
q13 0 20 1q3 1 11 1l-29 -154l-26 -2q-16 -1 -56 -1q-80 0 -117 32t-52 82l-31 104q-6 16 -13 23t-24 7h-23l-18 -91h63l-29 -154h-357zM418 402h45q40 0 66.5 23.5t26.5 64.5q0 28 -13.5 45t-38.5 17h-57z" />
    <glyph glyph-name="rcommaaccent" unicode="&#x157;" horiz-adv-x="488" 
d="M103 -41h164q1 -7 1 -19q0 -77 -48.5 -129.5t-122.5 -69.5l-58 63q67 40 67 113q0 27 -3 42zM92 0l67 349q6 22 -18 22h-41l30 148h185q66 0 66 -49q0 -29 -12 -65h2q28 56 77 90t107 34h15q5 0 7 -1l-40 -205l-9 2q-7 1 -33 1q-132 0 -160 -144l-34 -182h-209z" />
    <glyph glyph-name="Rcaron" unicode="&#x158;" horiz-adv-x="748" 
d="M414 764l-72 161h152l28 -83h2l61 83h163l-137 -161h-197zM48 0l30 154h76l80 411h-76l30 154h367q92 0 153 -50t61 -150q0 -29 -6.5 -59.5t-20.5 -64t-42 -63t-67 -46.5v-3q6 -5 18 -19q19 -21 26 -47l4 -14q9 -31 17.5 -41t30.5 -10q13 0 20 1q3 1 11 1l-29 -154
l-26 -2q-16 -1 -56 -1q-80 0 -117 32t-52 82l-31 104q-6 16 -13 23t-24 7h-23l-18 -91h63l-29 -154h-357zM418 402h45q40 0 66.5 23.5t26.5 64.5q0 28 -13.5 45t-38.5 17h-57z" />
    <glyph glyph-name="rcaron" unicode="&#x159;" horiz-adv-x="488" 
d="M271 558l-72 161h152l28 -83h2l61 83h163l-137 -161h-197zM92 0l67 349q6 22 -18 22h-41l30 148h185q66 0 66 -49q0 -29 -12 -65h2q28 56 77 90t107 34h15q5 0 7 -1l-40 -205l-9 2q-7 1 -33 1q-132 0 -160 -144l-34 -182h-209z" />
    <glyph glyph-name="Sacute" unicode="&#x15a;" horiz-adv-x="647" 
d="M375 764l144 161h209l-188 -161h-165zM89 272h192l-9 -46q-5 -30 21 -41t68 -11q41 0 61 16.5t20 38.5q0 17 -30.5 31t-74 28.5t-87.5 36.5t-74.5 65.5t-30.5 103.5q0 82 45.5 137t113.5 77.5t154 22.5q40 0 79.5 -6.5t82 -22t64.5 -49.5t12 -82l-21 -103h-191l9 45
q3 19 -13 25.5t-47 6.5q-73 0 -73 -42q0 -17 16.5 -29.5t42.5 -22t58 -19.5t64 -25.5t58 -36.5t42.5 -56t16.5 -80q0 -119 -93.5 -182.5t-231.5 -63.5q-44 0 -90 10.5t-89.5 32.5t-66.5 63t-13 94z" />
    <glyph glyph-name="sacute" unicode="&#x15b;" horiz-adv-x="531" 
d="M281 558l144 161h209l-188 -161h-165zM48 138l11 53h173l-2 -12q-4 -20 10.5 -28t43.5 -8q53 0 53 22q0 14 -23.5 24.5t-57 21.5t-67 26.5t-57 46.5t-23.5 74q0 83 78 128t182 45q39 0 75.5 -7t67.5 -21t47 -41t9 -62l-11 -60h-173l2 13q2 14 -6.5 18.5t-25.5 4.5
q-44 0 -44 -22q0 -15 24 -25t58 -19.5t67.5 -23.5t57.5 -43.5t24 -71.5q0 -80 -77.5 -131.5t-190.5 -51.5q-41 0 -80 7.5t-76.5 23.5t-56.5 47t-12 72z" />
    <glyph glyph-name="Scircumflex" unicode="&#x15c;" horiz-adv-x="647" 
d="M263 764l136 161h198l72 -161h-152l-29 83h-2l-60 -83h-163zM89 272h192l-9 -46q-5 -30 21 -41t68 -11q41 0 61 16.5t20 38.5q0 17 -30.5 31t-74 28.5t-87.5 36.5t-74.5 65.5t-30.5 103.5q0 82 45.5 137t113.5 77.5t154 22.5q40 0 79.5 -6.5t82 -22t64.5 -49.5t12 -82
l-21 -103h-191l9 45q3 19 -13 25.5t-47 6.5q-73 0 -73 -42q0 -17 16.5 -29.5t42.5 -22t58 -19.5t64 -25.5t58 -36.5t42.5 -56t16.5 -80q0 -119 -93.5 -182.5t-231.5 -63.5q-44 0 -90 10.5t-89.5 32.5t-66.5 63t-13 94z" />
    <glyph glyph-name="scircumflex" unicode="&#x15d;" horiz-adv-x="531" 
d="M169 558l136 161h198l72 -161h-152l-29 83h-2l-60 -83h-163zM48 138l11 53h173l-2 -12q-4 -20 10.5 -28t43.5 -8q53 0 53 22q0 14 -23.5 24.5t-57 21.5t-67 26.5t-57 46.5t-23.5 74q0 83 78 128t182 45q39 0 75.5 -7t67.5 -21t47 -41t9 -62l-11 -60h-173l2 13
q2 14 -6.5 18.5t-25.5 4.5q-44 0 -44 -22q0 -15 24 -25t58 -19.5t67.5 -23.5t57.5 -43.5t24 -71.5q0 -80 -77.5 -131.5t-190.5 -51.5q-41 0 -80 7.5t-76.5 23.5t-56.5 47t-12 72z" />
    <glyph glyph-name="Scedilla" unicode="&#x15e;" horiz-adv-x="647" 
d="M216 -107l55 100q-42 7 -77.5 20.5t-67 36t-46 58t-6.5 80.5l15 84h192l-9 -46q-5 -30 21 -41t68 -11q41 0 61 16.5t20 38.5q0 17 -30.5 31t-74 28.5t-87.5 36.5t-74.5 65.5t-30.5 103.5q0 82 45.5 137t113.5 77.5t154 22.5q40 0 79.5 -6.5t82 -22t64.5 -49.5t12 -82
l-21 -103h-191l9 45q3 19 -13 25.5t-47 6.5q-73 0 -73 -42q0 -17 16.5 -29.5t42.5 -22t58 -19.5t64 -25.5t58 -36.5t42.5 -56t16.5 -80q0 -112 -84.5 -175.5t-213.5 -69.5l-20 -36q37 -2 61.5 -23.5t24.5 -53.5q0 -42 -29.5 -70t-67 -38t-79.5 -10q-24 0 -49 5q-16 4 -23 5
l15 85q10 -4 15 -5q12 -4 36 -4q50 0 50 27q0 22 -50 22h-28z" />
    <glyph glyph-name="scedilla" unicode="&#x15f;" horiz-adv-x="531" 
d="M167 -107l54 98q-80 7 -132.5 43.5t-40.5 103.5l11 53h173l-2 -12q-4 -20 10.5 -28t43.5 -8q53 0 53 22q0 14 -23.5 24.5t-57 21.5t-67 26.5t-57 46.5t-23.5 74q0 83 78 128t182 45q39 0 75.5 -7t67.5 -21t47 -41t9 -62l-11 -60h-173l2 13q2 14 -6.5 18.5t-25.5 4.5
q-44 0 -44 -22q0 -15 24 -25t58 -19.5t67.5 -23.5t57.5 -43.5t24 -71.5q0 -73 -65 -123t-164 -58l-21 -37q37 -2 61.5 -23.5t24.5 -53.5q0 -42 -29.5 -70t-67 -38t-79.5 -10q-24 0 -49 5q-16 4 -23 5l15 85q10 -4 15 -5q12 -4 36 -4q50 0 50 27q0 22 -50 22h-28z" />
    <glyph glyph-name="Scaron" unicode="&#x160;" horiz-adv-x="647" 
d="M378 764l-72 161h152l28 -83h2l61 83h163l-137 -161h-197zM89 272h192l-9 -46q-5 -30 21 -41t68 -11q41 0 61 16.5t20 38.5q0 17 -30.5 31t-74 28.5t-87.5 36.5t-74.5 65.5t-30.5 103.5q0 82 45.5 137t113.5 77.5t154 22.5q40 0 79.5 -6.5t82 -22t64.5 -49.5t12 -82
l-21 -103h-191l9 45q3 19 -13 25.5t-47 6.5q-73 0 -73 -42q0 -17 16.5 -29.5t42.5 -22t58 -19.5t64 -25.5t58 -36.5t42.5 -56t16.5 -80q0 -119 -93.5 -182.5t-231.5 -63.5q-44 0 -90 10.5t-89.5 32.5t-66.5 63t-13 94z" />
    <glyph glyph-name="scaron" unicode="&#x161;" horiz-adv-x="531" 
d="M284 558l-72 161h152l28 -83h2l61 83h163l-137 -161h-197zM48 138l11 53h173l-2 -12q-4 -20 10.5 -28t43.5 -8q53 0 53 22q0 14 -23.5 24.5t-57 21.5t-67 26.5t-57 46.5t-23.5 74q0 83 78 128t182 45q39 0 75.5 -7t67.5 -21t47 -41t9 -62l-11 -60h-173l2 13
q2 14 -6.5 18.5t-25.5 4.5q-44 0 -44 -22q0 -15 24 -25t58 -19.5t67.5 -23.5t57.5 -43.5t24 -71.5q0 -80 -77.5 -131.5t-190.5 -51.5q-41 0 -80 7.5t-76.5 23.5t-56.5 47t-12 72z" />
    <glyph glyph-name="Tcommaaccent" unicode="&#x162;" horiz-adv-x="713" 
d="M171 0l30 154h76l77 398h-48l-18 -96h-179l51 263h669l-51 -263h-180l18 96h-46l-77 -398h76l-30 -154h-143l-27 -47q37 -2 61.5 -23.5t24.5 -53.5q0 -42 -29.5 -70t-67 -38t-79.5 -10q-24 0 -49 5q-16 4 -23 5l15 85q10 -4 15 -5q12 -4 36 -4q50 0 50 27q0 22 -50 22
h-28l59 107h-133z" />
    <glyph glyph-name="tcommaaccent" unicode="&#x163;" horiz-adv-x="430" 
d="M140 -107l71 128q-94 41 -94 138q0 18 6 48l33 164h-63l28 148h71l27 139h199l-27 -139h103l-28 -148h-103l-29 -153q-2 -14 -2 -19q0 -39 69 -39q19 0 22 1t8 1l-32 -164l-18 -2q-11 -1 -38 -1q-28 0 -53 4l-26 -46q40 -3 63 -23.5t23 -57.5q0 -56 -54.5 -85t-118.5 -29
q-28 0 -53 5q-17 4 -22 5l15 85q10 -4 15 -5q12 -4 35 -4q51 0 51 26q0 23 -50 23h-28z" />
    <glyph glyph-name="Tcaron" unicode="&#x164;" horiz-adv-x="713" 
d="M407 764l-72 161h152l28 -83h2l61 83h163l-137 -161h-197zM171 0l30 154h76l77 398h-48l-18 -96h-179l51 263h669l-51 -263h-180l18 96h-46l-77 -398h76l-30 -154h-368z" />
    <glyph glyph-name="tcaron" unicode="&#x165;" horiz-adv-x="428" 
d="M518 762h164q1 -7 1 -19q0 -77 -48.5 -129.5t-122.5 -69.5l-58 63q67 40 67 113q0 20 -3 42zM154 371h-63l28 148h71l27 139h199l-27 -139h103l-28 -148h-103l-27 -142q-4 -15 -4 -32q0 -37 72 -37q14 0 19 1q3 1 8 1l-32 -164l-18 -2q-11 -1 -35 -1q-104 0 -166.5 43.5
t-62.5 120.5q0 18 6 48z" />
    <glyph glyph-name="Tbar" unicode="&#x166;" horiz-adv-x="713" 
d="M171 0l30 154h76l21 109h-154l25 132h155l30 157h-47l-19 -96h-179l51 263h669l-51 -263h-180l20 96h-48l-30 -157h154l-26 -132h-154l-21 -109h76l-30 -154h-368z" />
    <glyph glyph-name="tbar" unicode="&#x167;" horiz-adv-x="428" 
d="M116 167q0 18 4 39h-61l25 126h62l11 51h-63l26 136h70l27 139h200l-27 -139h103l-26 -136h-103l-9 -51h95l-25 -126h-93q-2 -25 18 -35.5t53 -10.5q15 0 18 1t8 1l-32 -164l-18 -2q-11 -1 -34 -1q-102 0 -165.5 44t-63.5 128z" />
    <glyph glyph-name="Utilde" unicode="&#x168;" horiz-adv-x="832" 
d="M149 223q0 28 6 58l55 284h-76l30 154h366l-30 -154h-74l-57 -297q-2 -14 -2 -21q0 -73 83 -73q99 0 116 94l57 297h-74l29 154h366l-29 -154h-76l-58 -301q-24 -128 -111.5 -202t-220.5 -74q-129 0 -214.5 59.5t-85.5 175.5zM488 763h-131q15 78 55.5 121.5t100.5 43.5
q25 0 44 -9t28 -19t20.5 -19t23.5 -9q31 0 40 53h132q-14 -76 -55.5 -120.5t-98.5 -44.5q-24 0 -43.5 9t-29 19.5t-21.5 19.5t-24 9q-29 0 -41 -54z" />
    <glyph glyph-name="utilde" unicode="&#x169;" horiz-adv-x="713" 
d="M115 135q0 29 6 59l35 177h-64l30 148h272l-56 -286q-5 -13 -5 -33q0 -15 6.5 -22.5t24.5 -7.5q36 0 66.5 37.5t39.5 84.5l15 79h-64l30 148h272l-60 -305q-4 -20 -4 -35t8 -23.5t32 -8.5q1 0 4 0.5t5 0.5h4l-28 -148l-19 -1q-19 -1 -44.5 -2t-40.5 -1q-54 0 -85.5 19
t-42.5 79h-2q-70 -106 -178 -106q-67 0 -112 38t-45 109zM366 557h-131q15 78 55.5 121.5t100.5 43.5q25 0 44 -9t28 -19t20.5 -19t23.5 -9q31 0 40 53h132q-14 -76 -55.5 -120.5t-98.5 -44.5q-24 0 -43.5 9t-29 19.5t-21.5 19.5t-24 9q-29 0 -41 -54z" />
    <glyph glyph-name="Umacron" unicode="&#x16a;" horiz-adv-x="832" 
d="M149 223q0 28 6 58l55 284h-76l30 154h366l-30 -154h-74l-57 -297q-2 -14 -2 -21q0 -73 83 -73q99 0 116 94l57 297h-74l29 154h366l-29 -154h-76l-58 -301q-24 -128 -111.5 -202t-220.5 -74q-129 0 -214.5 59.5t-85.5 175.5zM426 781l26 132h285l-27 -132h-284z" />
    <glyph glyph-name="umacron" unicode="&#x16b;" horiz-adv-x="713" 
d="M115 135q0 29 6 59l35 177h-64l30 148h272l-56 -286q-5 -13 -5 -33q0 -15 6.5 -22.5t24.5 -7.5q36 0 66.5 37.5t39.5 84.5l15 79h-64l30 148h272l-60 -305q-4 -20 -4 -35t8 -23.5t32 -8.5q1 0 4 0.5t5 0.5h4l-28 -148l-19 -1q-19 -1 -44.5 -2t-40.5 -1q-54 0 -85.5 19
t-42.5 79h-2q-70 -106 -178 -106q-67 0 -112 38t-45 109zM304 575l26 132h285l-27 -132h-284z" />
    <glyph glyph-name="Ubreve" unicode="&#x16c;" horiz-adv-x="832" 
d="M149 223q0 28 6 58l55 284h-76l30 154h366l-30 -154h-74l-57 -297q-2 -14 -2 -21q0 -73 83 -73q99 0 116 94l57 297h-74l29 154h366l-29 -154h-76l-58 -301q-24 -128 -111.5 -202t-220.5 -74q-129 0 -214.5 59.5t-85.5 175.5zM576 758q-87 0 -138.5 46t-34.5 121h137
q-12 -67 43 -67q23 0 43.5 16t25.5 51h138q-17 -83 -75 -125t-139 -42z" />
    <glyph glyph-name="ubreve" unicode="&#x16d;" horiz-adv-x="713" 
d="M115 135q0 29 6 59l35 177h-64l30 148h272l-56 -286q-5 -13 -5 -33q0 -15 6.5 -22.5t24.5 -7.5q36 0 66.5 37.5t39.5 84.5l15 79h-64l30 148h272l-60 -305q-4 -20 -4 -35t8 -23.5t32 -8.5q1 0 4 0.5t5 0.5h4l-28 -148l-19 -1q-19 -1 -44.5 -2t-40.5 -1q-54 0 -85.5 19
t-42.5 79h-2q-70 -106 -178 -106q-67 0 -112 38t-45 109zM454 552q-87 0 -138.5 46t-34.5 121h137q-12 -67 43 -67q23 0 43.5 16t25.5 51h138q-17 -83 -75 -125t-139 -42z" />
    <glyph glyph-name="Uring" unicode="&#x16e;" horiz-adv-x="832" 
d="M567 751q-44 0 -76 19.5t-32 55.5q0 52 40 77t92 25q44 0 76.5 -20t32.5 -59q0 -49 -41.5 -73.5t-91.5 -24.5zM573 804q17 0 29.5 12t12.5 30q0 28 -29 28q-18 0 -29.5 -12t-11.5 -32q0 -26 28 -26zM149 223q0 28 6 58l55 284h-76l30 154h366l-30 -154h-74l-57 -297
q-2 -14 -2 -21q0 -73 83 -73q99 0 116 94l57 297h-74l29 154h366l-29 -154h-76l-58 -301q-24 -128 -111.5 -202t-220.5 -74q-129 0 -214.5 59.5t-85.5 175.5z" />
    <glyph glyph-name="uring" unicode="&#x16f;" horiz-adv-x="713" 
d="M444 545q-44 0 -76 19.5t-32 55.5q0 52 40 77t92 25q44 0 76.5 -20t32.5 -59q0 -49 -41.5 -73.5t-91.5 -24.5zM450 598q17 0 29.5 12t12.5 30q0 28 -29 28q-18 0 -29.5 -12t-11.5 -32q0 -26 28 -26zM115 135q0 29 6 59l35 177h-64l30 148h272l-56 -286q-5 -13 -5 -33
q0 -15 6.5 -22.5t24.5 -7.5q36 0 66.5 37.5t39.5 84.5l15 79h-64l30 148h272l-60 -305q-4 -20 -4 -35t8 -23.5t32 -8.5q1 0 4 0.5t5 0.5h4l-28 -148l-19 -1q-19 -1 -44.5 -2t-40.5 -1q-54 0 -85.5 19t-42.5 79h-2q-70 -106 -178 -106q-67 0 -112 38t-45 109z" />
    <glyph glyph-name="Uhungarumlaut" unicode="&#x170;" horiz-adv-x="832" 
d="M149 223q0 28 6 58l55 284h-76l30 154h366l-30 -154h-74l-57 -297q-2 -14 -2 -21q0 -73 83 -73q99 0 116 94l57 297h-74l29 154h366l-29 -154h-76l-58 -301q-24 -128 -111.5 -202t-220.5 -74q-129 0 -214.5 59.5t-85.5 175.5zM589 764l117 161h197l-160 -161h-154z
M357 764l112 161h168l-115 -161h-165z" />
    <glyph glyph-name="uhungarumlaut" unicode="&#x171;" horiz-adv-x="713" 
d="M115 135q0 29 6 59l35 177h-64l30 148h272l-56 -286q-5 -13 -5 -33q0 -15 6.5 -22.5t24.5 -7.5q36 0 66.5 37.5t39.5 84.5l15 79h-64l30 148h272l-60 -305q-4 -20 -4 -35t8 -23.5t32 -8.5q1 0 4 0.5t5 0.5h4l-28 -148l-19 -1q-19 -1 -44.5 -2t-40.5 -1q-54 0 -85.5 19
t-42.5 79h-2q-70 -106 -178 -106q-67 0 -112 38t-45 109zM467 558l117 161h197l-160 -161h-154zM235 558l112 161h168l-115 -161h-165z" />
    <glyph glyph-name="Uogonek" unicode="&#x172;" horiz-adv-x="832" 
d="M149 223q0 28 6 58l55 284h-76l30 154h368l-30 -154h-76l-57 -297q-2 -14 -2 -21q0 -73 83 -73q99 0 116 94l57 297h-76l29 154h368l-29 -154h-76l-60 -313q-35 -181 -222 -252q-36 -13 -57.5 -40.5t-21.5 -50.5q0 -29 49 -32l-58 -129q-143 15 -143 100q0 77 81 141
q-117 9 -187.5 69.5t-70.5 164.5z" />
    <glyph glyph-name="uogonek" unicode="&#x173;" horiz-adv-x="714" 
d="M115 136q0 21 5 53l36 182h-64l30 148h272l-56 -286q-5 -13 -5 -33q0 -15 6.5 -22.5t24.5 -7.5q36 0 66.5 37.5t39.5 84.5l15 79h-64l30 148h272l-60 -305q-4 -12 -4 -34q0 -33 36 -33q1 0 4.5 0.5t5.5 0.5h7l-28 -148h-5q-28 0 -61 -31.5t-33 -60.5q0 -27 49 -31
l-58 -129q-143 15 -143 100q0 46 27.5 86t71.5 68q-30 8 -50.5 26.5t-29.5 65.5h-2q-70 -106 -177 -106q-69 0 -113.5 38t-44.5 110z" />
    <glyph glyph-name="Wcircumflex" unicode="&#x174;" horiz-adv-x="1056" 
d="M460 764l136 161h198l72 -161h-152l-29 83h-2l-60 -83h-163zM208 0l-25 565h-56l29 154h342l-29 -154h-83l-3 -249q0 -41 -3 -57l-3 -28h4q5 21 7 28q11 34 21 57l171 403h163l14 -403q3 -17 0 -57l-3 -28h5l7 28q8 32 18 57l94 249h-82l29 154h354l-30 -154h-56
l-245 -565h-235l-11 303q-2 36 2 60l3 30h-4l-9 -30q-18 -49 -23 -60l-127 -303h-236z" />
    <glyph glyph-name="wcircumflex" unicode="&#x175;" horiz-adv-x="889" 
d="M342 558l136 161h198l72 -161h-152l-29 83h-2l-60 -83h-163zM155 0l-11 371h-57l30 148h290l-29 -148h-46l-7 -125l-4 -52l-2 -26h4l8 26l18 52l110 273h164v-273q0 -37 -1 -52l-2 -26h4q3 15 7 26q2 8 8 26.5t8 25.5l43 125h-46l30 148h302l-30 -148h-57l-155 -371h-243
l4 201l3 52l3 25h-5l-7 -24q-10 -34 -17 -53l-74 -201h-243z" />
    <glyph glyph-name="Ycircumflex" unicode="&#x176;" horiz-adv-x="682" 
d="M157 0l29 154h76l27 136l-111 275h-58l30 154h298l-29 -154h-40l28 -90q2 -6 4.5 -15.5t3.5 -12.5q2 -8 2 -10h2q1 4 6 10q9 15 18 28l63 90h-39l29 154h315l-30 -154h-58l-218 -275l-27 -136h76l-29 -154h-368zM286 764l136 161h198l72 -161h-152l-29 83h-2l-60 -83
h-163z" />
    <glyph glyph-name="ycircumflex" unicode="&#x177;" horiz-adv-x="649" 
d="M-29 -164l88 142q11 -7 21 -11q24 -11 66 -11q56 0 79 26l-90 389h-55l28 148h294l-29 -148h-34l13 -140q3 -14 0 -52l-2 -25h5l10 25l22 52l64 140h-30l28 148h285l-28 -148h-49l-227 -400q-58 -102 -129 -141.5t-158 -39.5q-71 0 -127 23q-23 9 -45 23zM218 558
l136 161h198l72 -161h-152l-29 83h-2l-60 -83h-163z" />
    <glyph glyph-name="Ydieresis" unicode="&#x178;" horiz-adv-x="682" 
d="M157 0l29 154h76l27 136l-111 275h-58l30 154h298l-29 -154h-40l28 -90q2 -6 4.5 -15.5t3.5 -12.5q2 -8 2 -10h2q1 4 6 10q9 15 18 28l63 90h-39l29 154h315l-30 -154h-58l-218 -275l-27 -136h76l-29 -154h-368zM550 766l31 159h147l-31 -159h-147zM293 766l32 159h146
l-31 -159h-147z" />
    <glyph glyph-name="Zacute" unicode="&#x179;" horiz-adv-x="675" 
d="M382 764l144 161h209l-188 -161h-165zM48 0l25 131l349 388q12 13 27 25l13 9v2q-9 0 -14 -1q-18 -2 -30 -2h-81l-19 -96h-179l51 263h568l-25 -128l-351 -391q-1 -1 -27 -24l-14 -10v-2l15 2q9 1 30 1h98l20 101h179l-52 -268h-583z" />
    <glyph glyph-name="zacute" unicode="&#x17a;" horiz-adv-x="564" 
d="M282 558l144 161h209l-188 -161h-165zM40 0l24 126l261 220q4 3 12.5 10t12.5 9q4 4 10 6v2q-11 0 -16 -1q-9 -1 -29 -1h-36l-10 -53h-173l40 201h482l-25 -127l-257 -219q-14 -12 -24 -18q-1 -1 -10 -7v-2q12 0 17 1q9 1 28 1h42l10 53h173l-40 -201h-492z" />
    <glyph glyph-name="Zdotaccent" unicode="&#x17b;" horiz-adv-x="675" 
d="M48 0l25 131l349 388q12 13 27 25l13 9v2q-9 0 -14 -1q-18 -2 -30 -2h-81l-19 -96h-179l51 263h568l-25 -128l-351 -391q-1 -1 -27 -24l-14 -10v-2l15 2q9 1 30 1h98l20 101h179l-52 -268h-583zM398 777l29 148h169l-30 -148h-168z" />
    <glyph glyph-name="zdotaccent" unicode="&#x17c;" horiz-adv-x="564" 
d="M40 0l24 126l261 220q4 3 12.5 10t12.5 9q4 4 10 6v2q-11 0 -16 -1q-9 -1 -29 -1h-36l-10 -53h-173l40 201h482l-25 -127l-257 -219q-14 -12 -24 -18q-1 -1 -10 -7v-2q12 0 17 1q9 1 28 1h42l10 53h173l-40 -201h-492zM298 571l29 148h169l-30 -148h-168z" />
    <glyph glyph-name="Zcaron" unicode="&#x17d;" horiz-adv-x="675" 
d="M385 764l-72 161h152l28 -83h2l61 83h163l-137 -161h-197zM48 0l25 131l349 388q12 13 27 25l13 9v2q-9 0 -14 -1q-18 -2 -30 -2h-81l-19 -96h-179l51 263h568l-25 -128l-351 -391q-1 -1 -27 -24l-14 -10v-2l15 2q9 1 30 1h98l20 101h179l-52 -268h-583z" />
    <glyph glyph-name="zcaron" unicode="&#x17e;" horiz-adv-x="564" 
d="M286 558l-72 161h152l28 -83h2l61 83h163l-137 -161h-197zM40 0l24 126l261 220q4 3 12.5 10t12.5 9q4 4 10 6v2q-11 0 -16 -1q-9 -1 -29 -1h-36l-10 -53h-173l40 201h482l-25 -127l-257 -219q-14 -12 -24 -18q-1 -1 -10 -7v-2q12 0 17 1q9 1 28 1h42l10 53h173l-40 -201
h-492z" />
    <glyph glyph-name="longs" unicode="&#x17f;" horiz-adv-x="364" 
d="M403 535l-104 -535h-208l72 371h-63l29 148h63l4 21q11 60 44.5 101.5t79 60t83.5 25.5t78 7q25 0 49 -2l19 -3l-33 -161l-14 2q-18 2 -34 2q-58 0 -65 -37z" />
    <glyph glyph-name="florin" unicode="&#x192;" horiz-adv-x="560" 
d="M-28 -122l34 172l21 -3q20 -3 49 -3q79 0 94 57l52 191h-53l32 161h67l28 95q17 57 52 96t79 56.5t79.5 24t71.5 6.5q44 0 75 -4q13 -1 39 -5l-35 -173l-24 3q-15 3 -47 3q-80 0 -89 -42l-16 -60h85l-33 -161h-99l-65 -241q-15 -57 -51 -96.5t-81.5 -57t-82 -24
t-71.5 -6.5q-41 0 -76 5z" />
    <glyph glyph-name="Scommaaccent" unicode="&#x218;" horiz-adv-x="647" 
d="M233 -41h164q1 -7 1 -19q0 -77 -48.5 -129.5t-122.5 -69.5l-58 63q67 40 67 113q0 27 -3 42zM89 272h192l-9 -46q-5 -30 21 -41t68 -11q41 0 61 16.5t20 38.5q0 17 -30.5 31t-74 28.5t-87.5 36.5t-74.5 65.5t-30.5 103.5q0 82 45.5 137t113.5 77.5t154 22.5
q40 0 79.5 -6.5t82 -22t64.5 -49.5t12 -82l-21 -103h-191l9 45q3 19 -13 25.5t-47 6.5q-73 0 -73 -42q0 -17 16.5 -29.5t42.5 -22t58 -19.5t64 -25.5t58 -36.5t42.5 -56t16.5 -80q0 -119 -93.5 -182.5t-231.5 -63.5q-44 0 -90 10.5t-89.5 32.5t-66.5 63t-13 94z" />
    <glyph glyph-name="scommaaccent" unicode="&#x219;" horiz-adv-x="531" 
d="M186 -41h164q1 -7 1 -19q0 -77 -48.5 -129.5t-122.5 -69.5l-58 63q67 40 67 113q0 27 -3 42zM48 138l11 53h173l-2 -12q-4 -20 10.5 -28t43.5 -8q53 0 53 22q0 14 -23.5 24.5t-57 21.5t-67 26.5t-57 46.5t-23.5 74q0 83 78 128t182 45q39 0 75.5 -7t67.5 -21t47 -41
t9 -62l-11 -60h-173l2 13q2 14 -6.5 18.5t-25.5 4.5q-44 0 -44 -22q0 -15 24 -25t58 -19.5t67.5 -23.5t57.5 -43.5t24 -71.5q0 -80 -77.5 -131.5t-190.5 -51.5q-41 0 -80 7.5t-76.5 23.5t-56.5 47t-12 72z" />
    <glyph glyph-name="uni021A" unicode="&#x21a;" horiz-adv-x="713" 
d="M263 -41h164q1 -7 1 -19q0 -77 -48.5 -129.5t-122.5 -69.5l-58 63q67 40 67 113q0 27 -3 42zM171 0l30 154h76l77 398h-48l-18 -96h-179l51 263h669l-51 -263h-180l18 96h-46l-77 -398h76l-30 -154h-368z" />
    <glyph glyph-name="uni021B" unicode="&#x21b;" horiz-adv-x="428" 
d="M155 -41h164q1 -7 1 -19q0 -77 -48.5 -129.5t-122.5 -69.5l-58 63q67 40 67 113q0 27 -3 42zM154 371h-63l28 148h71l27 139h199l-27 -139h103l-28 -148h-103l-27 -142q-4 -15 -4 -32q0 -37 72 -37q14 0 19 1q3 1 8 1l-32 -164l-18 -2q-11 -1 -35 -1q-104 0 -166.5 43.5
t-62.5 120.5q0 18 6 48z" />
    <glyph glyph-name="circumflex" unicode="&#x2c6;" horiz-adv-x="480" 
d="M-38 764l136 161h198l72 -161h-152l-29 83h-2l-60 -83h-163z" />
    <glyph glyph-name="caron" unicode="&#x2c7;" horiz-adv-x="480" 
d="M77 764l-72 161h152l28 -83h2l61 83h163l-137 -161h-197z" />
    <glyph glyph-name="breve" unicode="&#x2d8;" horiz-adv-x="477" 
d="M175 758q-87 0 -138.5 46t-34.5 121h137q-12 -67 43 -67q23 0 43.5 16t25.5 51h138q-17 -83 -75 -125t-139 -42z" />
    <glyph glyph-name="dotaccent" unicode="&#x2d9;" horiz-adv-x="478" 
d="M88 777l29 148h169l-30 -148h-168z" />
    <glyph glyph-name="ring" unicode="&#x2da;" horiz-adv-x="478" 
d="M171 751q-44 0 -76 19.5t-32 55.5q0 52 40 77t92 25q44 0 76.5 -20t32.5 -59q0 -49 -41.5 -73.5t-91.5 -24.5zM177 804q17 0 29.5 12t12.5 30q0 28 -29 28q-18 0 -29.5 -12t-11.5 -32q0 -26 28 -26z" />
    <glyph glyph-name="ogonek" unicode="&#x2db;" horiz-adv-x="480" 
d="M60 -152q0 54 40.5 101t99.5 76h111l-5 -25q-27 0 -59.5 -35t-32.5 -64q0 -6 1 -9t12.5 -8.5t33.5 -6.5l-57 -129q-144 15 -144 100z" />
    <glyph glyph-name="tilde" unicode="&#x2dc;" horiz-adv-x="478" 
d="M89 763h-131q15 78 55.5 121.5t100.5 43.5q25 0 44 -9t28 -19t20.5 -19t23.5 -9q31 0 40 53h132q-14 -76 -55.5 -120.5t-98.5 -44.5q-24 0 -43.5 9t-29 19.5t-21.5 19.5t-24 9q-29 0 -41 -54z" />
    <glyph glyph-name="hungarumlaut" unicode="&#x2dd;" horiz-adv-x="478" 
d="M145 764l117 161h197l-160 -161h-154zM-87 764l112 161h168l-115 -161h-165z" />
    <glyph glyph-name="uni1E9E" unicode="&#x1e9e;" horiz-adv-x="785" 
d="M29 0l29 154h76l56 288q24 126 117 201.5t222 75.5h316l-28 -144l-110 -128l-21 -22l-11 -10v-2q63 -22 94 -72t31 -103q0 -39 -18.5 -81t-54.5 -80.5t-98 -63t-138 -24.5q-55 0 -109 10l33 176l16 -3q15 -3 44 -3q106 0 106 57q0 56 -138 58l26 119l86 100q15 18 27 27
q3 2 7.5 6t5.5 4l-1 2q-8 0 -13 -1q-16 -2 -30 -2h-58q-30 0 -54 -25.5t-32 -66.5l-86 -447h-292z" />
    <glyph glyph-name="thinspace" unicode="&#x2009;" horiz-adv-x="224" 
 />
    <glyph glyph-name="endash" unicode="&#x2013;" horiz-adv-x="753" 
d="M103 211l30 154h628l-30 -154h-628z" />
    <glyph glyph-name="emdash" unicode="&#x2014;" horiz-adv-x="953" 
d="M103 211l30 154h828l-30 -154h-828z" />
    <glyph glyph-name="quoteleft" unicode="&#x2018;" horiz-adv-x="290" 
d="M114 453l155 283h145l-113 -283h-187z" />
    <glyph glyph-name="quoteright" unicode="&#x2019;" horiz-adv-x="280" 
d="M119 453l114 283h186l-155 -283h-145z" />
    <glyph glyph-name="quotesinglbase" unicode="&#x201a;" horiz-adv-x="303" 
d="M116 195h186l-155 -284h-145z" />
    <glyph glyph-name="quotedblleft" unicode="&#x201c;" horiz-adv-x="515" 
d="M339 453l155 283h145l-114 -283h-186zM114 453l155 283h145l-113 -283h-187z" />
    <glyph glyph-name="quotedblright" unicode="&#x201d;" horiz-adv-x="505" 
d="M344 453l113 283h187l-155 -283h-145zM119 453l114 283h186l-155 -283h-145z" />
    <glyph glyph-name="quotedblbase" unicode="&#x201e;" horiz-adv-x="528" 
d="M340 195h187l-155 -284h-145zM116 195h186l-155 -284h-145z" />
    <glyph glyph-name="dagger" unicode="&#x2020;" horiz-adv-x="534" 
d="M157 -50l82 415h-135l30 154h134l40 200h198l-39 -200h134l-30 -154h-134l-81 -415h-199z" />
    <glyph glyph-name="daggerdbl" unicode="&#x2021;" horiz-adv-x="540" 
d="M161 -50l37 190h-133l28 155h135l14 70h-134l29 154h135l39 200h198l-39 -200h134l-29 -154h-135l-14 -70h134l-29 -155h-134l-38 -190h-198z" />
    <glyph glyph-name="bullet" unicode="&#x2022;" horiz-adv-x="479" 
d="M296 90q-84 0 -142 58.5t-58 142.5t58 142.5t142 58.5t142.5 -59t58.5 -142t-58.5 -142t-142.5 -59z" />
    <glyph glyph-name="ellipsis" unicode="&#x2026;" horiz-adv-x="1001" 
d="M764 0l36 191h184l-36 -191h-184zM410 0l36 191h184l-36 -191h-184zM56 0l36 191h184l-36 -191h-184z" />
    <glyph glyph-name="perthousand" unicode="&#x2030;" horiz-adv-x="1370" 
d="M325 363q-79 0 -129.5 47t-50.5 118q0 81 63 142t152 61q79 0 130 -48.5t51 -121.5q0 -79 -67 -138.5t-149 -59.5zM112 0l677 719h187l-677 -719h-187zM340 505q19 0 34.5 14t15.5 34q0 16 -12 26t-32 10t-35 -13.5t-15 -35.5q0 -16 12 -25.5t32 -9.5zM978 153
q0 81 63 142t152 61q79 0 130 -48.5t51 -121.5q0 -79 -67 -138.5t-149 -59.5q-80 0 -130 46.5t-50 118.5zM552 153q0 81 63 142t152 61q78 0 129 -49t51 -121q0 -79 -67 -138.5t-149 -59.5q-78 0 -128.5 46.5t-50.5 118.5zM1129 165q0 -16 12 -25.5t32 -9.5q19 0 34.5 14
t15.5 34q0 16 -12 26t-32 10t-35 -13.5t-15 -35.5zM703 165q0 -35 44 -35q19 0 34 14t15 34q0 16 -12 26t-32 10q-19 0 -34 -13.5t-15 -35.5z" />
    <glyph glyph-name="guilsinglleft" unicode="&#x2039;" horiz-adv-x="405" 
d="M209 77l-131 204l191 207h193l-203 -214l131 -197h-181z" />
    <glyph glyph-name="guilsinglright" unicode="&#x203a;" horiz-adv-x="405" 
d="M55 77l203 214l-131 197h182l130 -204l-190 -207h-194z" />
    <glyph glyph-name="fraction" unicode="&#x2044;" horiz-adv-x="195" 
d="M5 0h-148l475 719h148z" />
    <glyph glyph-name="zerosuperior" unicode="&#x2070;" horiz-adv-x="418" 
d="M297 413q-147 0 -147 174q0 49 11.5 96.5t35.5 92.5t69 72.5t104 27.5q149 0 149 -174q0 -38 -7 -76.5t-24 -77t-41.5 -68.5t-63.5 -48.5t-86 -18.5zM316 549q21 0 40 43.5t19 96.5q0 49 -22 49q-23 0 -42 -43t-19 -92q0 -54 24 -54z" />
    <glyph glyph-name="foursuperior" unicode="&#x2074;" horiz-adv-x="432" 
d="M291 423l17 84h-191l16 94l205 265h186l-49 -252h49l-20 -107h-49l-16 -84h-148zM260 614h68l19 96l10 35l6 18h-4l-9 -17l-20 -33l-70 -97v-2z" />
    <glyph glyph-name="fivesuperior" unicode="&#x2075;" horiz-adv-x="405" 
d="M277 413q-61 0 -119 30q-28 15 -46 30l77 93q9 -6 29 -16q36 -17 59 -17q58 0 58 38q0 30 -49 30q-27 0 -39 -4q-5 -1 -15 -5l-70 33l64 241h297l-29 -154h-103l8 44h-82l-13 -50q-3 -12 -4 -13l-3 -6l1 -1q10 4 16 5q15 4 39 4q64 0 100 -32t36 -80q0 -64 -59 -117
t-153 -53z" />
    <glyph glyph-name="sixsuperior" unicode="&#x2076;" horiz-adv-x="406" 
d="M313 413q-70 0 -120 43t-50 127q0 69 32 135.5t95 112t141 45.5q44 0 81 -13q22 -7 32 -13l-51 -117q-4 2 -12 4.5l-11 3.5q-26 7 -54 7q-46 0 -65 -41q17 4 38 4q55 0 89.5 -34.5t34.5 -88.5q0 -64 -48.5 -119.5t-131.5 -55.5zM320 528q18 0 29.5 15.5t11.5 33.5
q0 43 -41 43q-22 0 -30.5 -10.5t-8.5 -32.5q0 -25 11 -37t28 -12z" />
    <glyph glyph-name="sevensuperior" unicode="&#x2077;" horiz-adv-x="397" 
d="M115 423l226 308q11 14 16 18l8 7l1 5l-12 -2q-21 -3 -23 -3h-41l-8 -44h-114l30 154h352l-19 -101l-252 -342h-164z" />
    <glyph glyph-name="eightsuperior" unicode="&#x2078;" horiz-adv-x="415" 
d="M294 413q-68 0 -116 32t-48 86q0 72 88 131q-29 35 -29 74q0 66 57 103t125 37q61 0 106.5 -30.5t45.5 -81.5q0 -59 -73 -123q44 -34 44 -84q0 -47 -33.5 -81t-77.5 -48.5t-89 -14.5zM360 688q10 10 14 16q13 20 13 35q0 27 -35 27q-31 0 -31 -33q0 -29 39 -45zM306 524
q17 0 30.5 9t13.5 26q0 16 -11.5 26t-41.5 23q-28 -25 -28 -50q0 -34 37 -34z" />
    <glyph glyph-name="ninesuperior" unicode="&#x2079;" horiz-adv-x="406" 
d="M344 876q70 0 120 -43t50 -127q0 -69 -32 -135.5t-95 -112t-141 -45.5q-44 0 -81 13q-21 7 -32 13l51 117q16 -4 24 -7q30 -8 53 -8q46 0 65 41q-17 -4 -38 -4q-54 0 -89 34.5t-35 88.5q0 64 48.5 119.5t131.5 55.5zM337 761q-18 0 -29.5 -15.5t-11.5 -33.5q0 -43 41 -43
q22 0 30.5 10.5t8.5 32.5q0 25 -11 37t-28 12z" />
    <glyph glyph-name="zeroinferior" unicode="&#x2080;" horiz-adv-x="419" 
d="M185 -167q-147 0 -147 174q0 49 11.5 96.5t35.5 92.5t69 72.5t104 27.5q149 0 149 -174q0 -38 -7 -76.5t-24 -77t-41.5 -68.5t-63.5 -48.5t-86 -18.5zM204 -31q21 0 40 43.5t19 96.5q0 49 -22 49q-23 0 -42 -43t-19 -92q0 -54 24 -54z" />
    <glyph glyph-name="oneinferior" unicode="&#x2081;" horiz-adv-x="399" 
d="M10 -157l22 115h97l21 110q1 4 3 11t4 11q4 5 5 11h-2l-8 -8l-14 -13l-26 -16l-67 92l170 130h127l-63 -328h99l-22 -115h-346z" />
    <glyph glyph-name="twoinferior" unicode="&#x2082;" horiz-adv-x="426" 
d="M367 -157h-360q0 56 18 100t45.5 69.5t59 46.5t59 32t45.5 24t18 26q0 18 -26 18q-27 0 -54 -20q-9 -6 -25 -20l-87 88q24 25 54 45q67 44 136 44q60 0 109 -33t49 -97q0 -38 -22.5 -69.5t-55 -51t-64.5 -35t-54.5 -28.5t-22.5 -24h97l7 39h103z" />
    <glyph glyph-name="threeinferior" unicode="&#x2083;" horiz-adv-x="406" 
d="M178 -167q-76 0 -130 34q-24 15 -38 35l87 100q6 -7 20 -17q26 -16 60 -16q46 0 46 29q0 17 -45 17h-29l-6 60l79 77q6 8 18 17q1 1 10 7v4l-12 -2q-14 -2 -24 -2h-44l-9 -44h-103l30 154h326l-17 -94l-101 -92q37 -15 59 -42t22 -59q0 -62 -56 -114t-143 -52z" />
    <glyph glyph-name="fourinferior" unicode="&#x2084;" horiz-adv-x="431" 
d="M178 -157l17 84h-191l16 94l205 265h186l-49 -252h49l-20 -107h-49l-16 -84h-148zM147 34h68l19 96l10 35l6 18h-4l-9 -17l-20 -33l-70 -97v-2z" />
    <glyph glyph-name="fiveinferior" unicode="&#x2085;" horiz-adv-x="405" 
d="M164 -167q-61 0 -119 30q-28 15 -46 30l77 93q9 -7 29 -17q34 -16 59 -16q58 0 58 38q0 30 -49 30q-27 0 -39 -4q-5 -1 -15 -5l-70 33l64 241h297l-29 -154h-103l8 44h-82l-13 -50q-3 -12 -4 -13l-3 -6l1 -1q10 4 16 5q15 4 39 4q64 0 100 -32t36 -80q0 -64 -59 -117
t-153 -53z" />
    <glyph glyph-name="sixinferior" unicode="&#x2086;" horiz-adv-x="406" 
d="M200 -167q-70 0 -120 43t-50 127q0 69 32 135.5t95 112t141 45.5q44 0 81 -13q21 -7 32 -13l-51 -117q-4 2 -12 4.5l-11 3.5q-26 7 -54 7q-46 0 -65 -41q17 4 38 4q55 0 89.5 -34.5t34.5 -88.5q0 -64 -48.5 -119.5t-131.5 -55.5zM207 -52q18 0 29.5 15.5t11.5 33.5
q0 43 -41 43q-22 0 -30.5 -10.5t-8.5 -32.5q0 -25 11 -37t28 -12z" />
    <glyph glyph-name="seveninferior" unicode="&#x2087;" horiz-adv-x="396" 
d="M2 -157l226 308q11 14 16 18l8 7l1 5l-12 -2q-21 -3 -23 -3h-41l-8 -44h-114l30 154h352l-19 -101l-252 -342h-164z" />
    <glyph glyph-name="eightinferior" unicode="&#x2088;" horiz-adv-x="416" 
d="M182 -167q-68 0 -116 32t-48 86q0 72 88 131q-29 35 -29 74q0 66 57 103t125 37q61 0 106.5 -30.5t45.5 -81.5q0 -59 -73 -123q44 -34 44 -84q0 -47 -33.5 -81t-77.5 -48.5t-89 -14.5zM248 108q10 10 14 16q13 20 13 35q0 27 -35 27q-31 0 -31 -33q0 -29 39 -45zM194 -56
q17 0 30.5 9t13.5 26q0 16 -11.5 26t-41.5 23q-28 -25 -28 -50q0 -34 37 -34z" />
    <glyph glyph-name="nineinferior" unicode="&#x2089;" horiz-adv-x="406" 
d="M231 296q70 0 120 -43t50 -127q0 -69 -32 -135.5t-95 -112t-141 -45.5q-44 0 -81 13q-21 7 -32 13l51 117l24 -8q26 -7 53 -7q46 0 65 41q-17 -4 -38 -4q-54 0 -89 34.5t-35 88.5q0 64 48.5 119.5t131.5 55.5zM224 181q-18 0 -29.5 -15.5t-11.5 -33.5q0 -43 41 -43
q22 0 30.5 10.5t8.5 32.5q0 25 -11 37t-28 12z" />
    <glyph glyph-name="Euro" unicode="&#x20ac;" horiz-adv-x="634" 
d="M80 224l23 104h55q3 40 8 57h-52l23 105h63q54 110 151 175.5t220 65.5q60 0 108 -12q21 -4 45 -13l-80 -167q-11 4 -26 7q-30 6 -54 6q-94 0 -130 -62h190l-46 -105h-192q-9 -33 -9 -57h180l-44 -104h-118q27 -53 112 -53q33 0 67 9l32 9l-2 -183l-32 -9q-38 -9 -86 -9
q-117 0 -204 63t-115 173h-87z" />
    <glyph glyph-name="trademark" unicode="&#x2122;" horiz-adv-x="1058" 
d="M580 268l35 447h118l73 -175q2 -4 5 -15t4 -13q2 -4 4 -16h2q2 12 4 16q1 2 4 13t5 15l73 175h118l33 -447h-127l-10 174v22q0 7 1 10h-2l-51 -125h-98l-51 125h-2q1 -3 1 -10v-22l-12 -174h-127zM295 268v338h-142v109h408v-109h-140v-338h-126z" />
    <glyph glyph-name="minus" unicode="&#x2212;" 
d="M94 211v154h559v-154h-559z" />
    <glyph glyph-name="infinity" unicode="&#x221e;" horiz-adv-x="518" 
d="M328 132q-90 0 -154 63.5t-64 153.5t64 153t154 63t153 -63t63 -153t-63 -153.5t-153 -63.5z" />
    <glyph glyph-name="approxequal" unicode="&#x2248;" 
d="M178 322l-73 118q85 85 171 85q40 0 74 -17.5t64.5 -35t59.5 -17.5q55 0 99 54l73 -118q-85 -85 -172 -85q-40 0 -74 17.5t-64.5 35t-59.5 17.5q-46 0 -98 -54zM178 75l-73 117q85 85 171 85q40 0 74 -17.5t64.5 -35t59.5 -17.5q52 0 99 54l73 -118q-85 -85 -172 -85
q-40 0 -74 17.5t-64.5 35t-59.5 17.5q-47 0 -98 -53z" />
    <glyph glyph-name="notequal" unicode="&#x2260;" 
d="M163 35l30 51h-77v155h175l56 94h-231v155h330l63 105l88 -56l-29 -49h67v-155h-164l-57 -94h221v-155h-319l-62 -104z" />
    <glyph glyph-name="lessequal" unicode="&#x2264;" 
d="M92 226v126l521 230v-171l-317 -122v-2l317 -120v-172zM95 -58h518v-152h-518v152z" />
    <glyph glyph-name="greaterequal" unicode="&#x2265;" 
d="M136 -5v172l318 120v2l-318 122v171l522 -230v-126zM138 -58h518v-152h-518v152z" />
    <glyph glyph-name="CR" horiz-adv-x="250" 
 />
    <glyph glyph-name="commaaccent" horiz-adv-x="335" 
d="M50 -41h164q1 -7 1 -19q0 -77 -48.5 -129.5t-122.5 -69.5l-58 63q67 40 67 113q0 27 -3 42z" />
    <glyph glyph-name="apple" horiz-adv-x="1130" 
d="M110 -5v152l-126 72v278l126 71v151l265 142l134 -71l132 71l265 -142v-151l124 -71v-278l-124 -72v-152l-265 -141l-132 71l-134 -71zM150 30l238 -126l121 66l118 -66l238 126v139l114 64v249l-114 66v136l-238 126l-118 -64l-121 64l-238 -126v-136l-114 -66v-249
l114 -64v-139zM184 64v121l-99 60v225l99 58v123l215 114l110 -59l107 59l214 -114v-123l100 -58v-225l-100 -60v-121l-214 -114l-107 58l-110 -58zM362 91h153v155h162v127h-162v111h49q17 0 17 -17v-18h135v116q0 24 -9.5 34.5t-34.5 10.5h-353v-126h43v-393z" />
    <glyph glyph-name="zero.tnum" horiz-adv-x="613" 
d="M87 246q0 59 10 121t35 128t61.5 118t95.5 85t131 33q250 0 250 -255q0 -58 -10.5 -120.5t-35.5 -129t-61.5 -119t-95.5 -86t-131 -33.5q-249 0 -249 258zM305 257q0 -83 36 -83q45 0 77.5 101.5t32.5 187.5q0 82 -37 82q-25 0 -47 -32.5t-35 -79.5t-20 -94t-7 -82z" />
    <glyph glyph-name="one.tnum" horiz-adv-x="613" 
d="M75 0l31 167h151l46 236q1 3 3.5 19t4.5 22l5 18h-2l-9 -13q-8 -11 -27 -26l-40 -30l-98 135l248 191h180l-106 -552h152l-34 -167h-505z" />
    <glyph glyph-name="two.tnum" horiz-adv-x="613" 
d="M569 0h-516q0 73 20.5 134t53.5 101.5t73 73t80.5 56.5l73.5 44.5t54 43.5t21 48q0 44 -48 44q-36 0 -76 -38q-19 -18 -32 -39l-139 110q32 45 72 77q92 76 206 76q94 0 169.5 -54t75.5 -148q0 -48 -25 -93t-62.5 -76.5t-81.5 -61.5t-82.5 -51t-65.5 -42.5t-30 -37.5h121
l16 81h170z" />
    <glyph glyph-name="three.tnum" horiz-adv-x="613" 
d="M57 77l108 148q26 -18 41 -25q50 -26 96 -26q43 0 68 19t25 44q0 22 -21 36.5t-59 14.5q-16 0 -23 -1q-4 -1 -11 -1l-24 93l131 143q13 14 27 24q4 3 12 7v2q-11 0 -17 -1q-22 -2 -34 -2h-51l-10 -58h-170l43 225h491l-28 -149l-153 -163q35 -12 60 -34q60 -48 60 -126
q0 -42 -21 -86.5t-59.5 -83.5t-100.5 -64t-136 -25q-102 0 -182 45q-39 21 -62 44z" />
    <glyph glyph-name="four.tnum" horiz-adv-x="613" 
d="M36 166l22 126l330 427h267l-76 -392h80l-31 -161h-80l-32 -166h-209l33 166h-304zM266 327h105l28 143q3 16 14 54q6 20 10 29h-4l-15 -24q-6 -11 -34 -51l-104 -149v-2z" />
    <glyph glyph-name="five.tnum" horiz-adv-x="613" 
d="M52 83l112 141q24 -17 42 -25q48 -25 96 -25q42 0 70 18t28 52q0 55 -83 55q-32 0 -66 -8l-27 -9l-108 46l106 391h442l-44 -225h-169l12 58h-102l-18 -59q-7 -23 -9 -26q-1 -2 -4 -11h2l21 4q12 3 39 3q98 0 163.5 -57.5t65.5 -158.5q0 -109 -94.5 -184t-229.5 -75
q-95 0 -181 48q-35 20 -64 47z" />
    <glyph glyph-name="six.tnum" horiz-adv-x="613" 
d="M81 267q0 83 31.5 165.5t87 149t139.5 108t181 41.5q64 0 122 -18q26 -7 45 -18l-75 -169q-12 5 -29 10q-34 9 -76 9q-107 0 -154 -75h2l21 6q26 6 57 6q101 0 154.5 -64t53.5 -153q0 -110 -79 -193.5t-207 -83.5q-115 0 -194.5 71t-79.5 208zM290 263q0 -45 22 -67
t55 -22q30 0 47 24t17 51q0 67 -84 67q-31 0 -44 -13t-13 -40z" />
    <glyph glyph-name="seven.tnum" horiz-adv-x="613" 
d="M67 0l356 512q14 19 26 31l10 10v2q-10 0 -16 -1q-22 -2 -41 -2h-67l-12 -58h-179l44 225h535l-29 -147l-402 -572h-225z" />
    <glyph glyph-name="eight.tnum" horiz-adv-x="613" 
d="M66 190q0 54 33 99.5t106 94.5q-52 50 -52 119q0 89 71.5 158.5t194.5 69.5q105 0 176 -51.5t71 -135.5q0 -31 -10 -59.5t-31 -54.5t-32.5 -38t-34.5 -33q68 -53 68 -135q0 -90 -79.5 -163t-217.5 -73q-123 0 -193 59.5t-70 142.5zM427 424q43 43 43 91q0 46 -59 46
q-32 0 -49.5 -16t-17.5 -41q0 -43 83 -80zM260 216q0 -25 21 -42.5t54 -17.5q39 0 63.5 19t24.5 51q0 21 -25 38t-77 40q-61 -39 -61 -88z" />
    <glyph glyph-name="nine.tnum" horiz-adv-x="613" 
d="M670 452q0 -83 -31.5 -165.5t-87 -149t-139.5 -108t-181 -41.5q-64 0 -122 18q-25 8 -45 18l75 169l29 -9q38 -10 76 -10q112 0 160 82h-2l-24 -7q-26 -7 -60 -7q-99 0 -151 62t-52 150q0 110 77.5 193.5t203.5 83.5q115 0 194.5 -71t79.5 -208zM461 458q0 44 -22 65.5
t-55 21.5q-30 0 -47 -24t-17 -51q0 -67 84 -67q31 0 44 13.5t13 41.5z" />
    <glyph glyph-name="hyphen.case" horiz-adv-x="443" 
d="M108 256l35 180h324l-35 -180h-324z" />
    <glyph glyph-name="parenleft.case" horiz-adv-x="377" 
d="M335 -65h-162q-63 138 -63 280q0 166 51 306t167 266h174q-212 -262 -212 -577q0 -150 45 -275z" />
    <glyph glyph-name="parenright.case" horiz-adv-x="378" 
d="M190 -65h-174q212 262 212 577q0 144 -46 275h163q63 -138 63 -280q0 -339 -218 -572z" />
    <glyph glyph-name="bracketleft.case" horiz-adv-x="389" 
d="M64 -65l167 852h283l-28 -142h-112l-110 -568h112l-29 -142h-283z" />
    <glyph glyph-name="bracketright.case" horiz-adv-x="390" 
d="M43 77h113l110 568h-112l28 142h283l-166 -852h-283z" />
    <glyph glyph-name="braceleft.case" horiz-adv-x="406" 
d="M123 70q0 24 11 73t11 65q0 43 -35 58q-15 7 -35 7l35 180q27 2 44 11q48 23 59 83l21 109q17 84 99.5 116t194.5 19l-28 -148q-42 9 -71 -2t-35 -43l-25 -124q-10 -53 -61 -88q-24 -16 -49 -23v-2q18 -4 33 -19q32 -32 32 -90q0 -18 -12 -73t-12 -76q0 -38 90 -25
l-28 -147q-10 0 -16 -1q-11 -1 -38 -1q-25 0 -52 5.5t-59.5 19t-53 43.5t-20.5 73z" />
    <glyph glyph-name="braceright.case" horiz-adv-x="406" 
d="M18 -68l28 146q41 -7 71 4.5t36 44.5l25 127q11 54 62 86q23 15 49 23v2q-18 6 -32 20q-33 33 -33 90q0 17 11.5 74.5t11.5 68.5q0 39 -91 26l28 147q53 8 106.5 -3t92.5 -47t39 -90q0 -20 -10 -68.5t-10 -63.5q0 -43 36 -58q15 -7 35 -7l-35 -180q-26 -2 -45 -11
q-47 -21 -58 -83l-23 -114q-27 -137 -243 -137q-28 0 -37 1z" />
    <glyph glyph-name="at.case" horiz-adv-x="834" 
d="M86 308q0 174 137 300.5t341 126.5q138 0 207 -59.5t69 -155.5q0 -41 -8 -73l-24 -133h75l-27 -135h-271q-108 0 -164 47.5t-56 117.5q0 75 67.5 129.5t207.5 54.5h17q4 19 -14.5 30t-37.5 13.5t-40 2.5q-53 0 -98 -16.5t-76.5 -43.5t-54.5 -61.5t-33.5 -71t-10.5 -72.5
q0 -75 49.5 -123.5t148.5 -48.5l-29 -151q-169 0 -272 87.5t-103 234.5zM541 356q0 -42 50 -42h26l17 97h-23q-70 0 -70 -55z" />
    <glyph glyph-name="guillemotleft.case" horiz-adv-x="712" 
d="M508 137l-130 204l215 207h197l-231 -214l131 -197h-182zM220 137l-131 204l191 207h193l-203 -214l131 -197h-181z" />
    <glyph glyph-name="guillemotright.case" horiz-adv-x="711" 
d="M372 137l203 214l-131 197h181l131 -204l-191 -207h-193zM55 137l231 214l-131 197h182l130 -204l-215 -207h-197z" />
    <glyph glyph-name="guilsinglleft.case" horiz-adv-x="406" 
d="M220 137l-131 204l191 207h193l-203 -214l131 -197h-181z" />
    <glyph glyph-name="guilsinglright.case" horiz-adv-x="406" 
d="M67 137l203 214l-131 197h181l131 -204l-191 -207h-193z" />
    <glyph glyph-name="endash.case" horiz-adv-x="751" 
d="M112 271l30 154h628l-29 -154h-629z" />
    <glyph glyph-name="emdash.case" horiz-adv-x="951" 
d="M112 271l30 154h828l-29 -154h-829z" />
    <glyph glyph-name="periodcentered.case" horiz-adv-x="302" 
d="M106 249l37 191h184l-36 -191h-185z" />
    <glyph glyph-name="questiondown.case" horiz-adv-x="482" 
d="M291 545l33 174h185l-33 -174h-185zM48 178q0 49 21 90t52 66.5t62 46t55 39.5t27 36l7 30h199l-9 -48q-8 -46 -40.5 -84t-66.5 -58t-61 -43t-27 -43q0 -15 13 -24.5t31 -9.5q27 0 65 22q15 10 29 22l95 -152q-25 -19 -64 -40q-80 -40 -161 -40q-91 0 -159 50t-68 140z
" />
    <glyph glyph-name="exclamdown.case" horiz-adv-x="358" 
d="M191 545l33 174h185l-33 -174h-185zM71 0l114 486h177l-74 -486h-217z" />
    <glyph glyph-name="bullet.case" horiz-adv-x="481" 
d="M310 157q-84 0 -142.5 58t-58.5 142t59 142.5t142 58.5t142 -58.5t59 -142.5t-58.5 -142t-142.5 -58z" />
    <glyph glyph-name="zero.p_osf" horiz-adv-x="605" 
d="M87 212q0 63 17.5 124t52 115t92.5 87t131 33q130 0 188.5 -62t58.5 -163q0 -65 -18.5 -127t-53 -114.5t-92 -84.5t-128.5 -32q-131 0 -189.5 61.5t-58.5 162.5zM296 215q0 -55 38 -55q23 0 40.5 18t26.5 46.5t13 57.5t4 58t-7.5 44t-29.5 15q-30 0 -50 -33t-27.5 -72
t-7.5 -79z" />
    <glyph glyph-name="one.p_osf" horiz-adv-x="535" 
d="M50 0l31 161h139l19 103l11 49q3 9 7 29h-2q-8 -8 -13 -11q-7 -6 -33 -20l-39 -18l-69 145l221 121h175l-76 -398h132l-31 -161h-472z" />
    <glyph glyph-name="two.p_osf" horiz-adv-x="590" 
d="M63 0l27 138q26 12 68.5 35t96 57t91 71.5t37.5 65.5q0 33 -41 33q-39 0 -93 -32q-20 -11 -46 -32l-82 136q29 26 72 50q88 49 183 49q39 0 75.5 -9t69.5 -27.5t53.5 -53t20.5 -80.5t-24 -88.5t-61.5 -72t-70.5 -48.5t-64 -31v-6l19 3q18 3 54 3h136l-35 -161h-486z" />
    <glyph glyph-name="three.p_osf" horiz-adv-x="560" 
d="M15 -43l101 136q16 -13 38 -24q50 -25 94 -25t66 19t22 44q0 46 -75 46q-16 0 -23 -1q-4 -1 -12 -1l-18 87l132 145q9 11 24 21l12 8v2q-11 0 -16 -1q-18 -2 -28 -2h-60l-14 -64h-157l42 212h460l-26 -135l-142 -153q35 -15 58 -34q57 -47 57 -121q0 -91 -82.5 -167.5
t-219.5 -76.5q-97 0 -175 42q-34 18 -58 43z" />
    <glyph glyph-name="four.p_osf" horiz-adv-x="628" 
d="M23 24l22 121l310 414h277l-74 -380h77l-31 -155h-77l-27 -140h-204l27 140h-300zM242 179h112l31 154q5 23 13 50l9 27h-4q-8 -16 -13 -23q-20 -32 -31 -46l-117 -160v-2z" />
    <glyph glyph-name="five.p_osf" horiz-adv-x="547" 
d="M11 -44l101 135q17 -17 34 -26q46 -26 89 -26q47 0 74 19t27 53q0 58 -80 58q-33 0 -60 -9l-24 -9l-98 39l98 369h417l-43 -212h-163l13 64h-85l-19 -69q-1 -9 -6 -17l-4 -8h2l14 3q18 2 41 2q91 0 148.5 -55t57.5 -144q0 -111 -88.5 -182.5t-210.5 -71.5q-95 0 -172 43
q-38 21 -63 44z" />
    <glyph glyph-name="six.p_osf" horiz-adv-x="620" 
d="M87 251q0 77 29 154t80.5 140t132 102.5t174.5 39.5q61 0 123 -18q27 -8 47 -18l-81 -154q-10 6 -28 11q-34 10 -69 10q-53 0 -87 -20t-63 -60h2l28 8q30 7 65 7q87 0 142.5 -61.5t55.5 -146.5q0 -63 -30.5 -120t-97 -97t-154.5 -40q-113 0 -191 65.5t-78 197.5zM287 235
q0 -33 21 -56.5t54 -23.5q32 0 53 23t21 56q0 63 -72 63q-77 0 -77 -62z" />
    <glyph glyph-name="seven.p_osf" horiz-adv-x="559" 
d="M19 -116l340 480q10 15 29 36q6 8 12 12v2q-10 0 -17 -1q-22 -2 -42 -2h-64l-12 -64h-173l41 212h521l-28 -139l-383 -536h-224z" />
    <glyph glyph-name="eight.p_osf" horiz-adv-x="604" 
d="M67 177q0 30 11 57.5t32.5 51.5t38.5 39.5t43 34.5q-44 44 -44 106q0 86 69.5 153t189.5 67q98 0 166.5 -47.5t68.5 -123.5q0 -86 -91 -186q62 -47 62 -116q0 -85 -78 -155t-217 -70q-121 0 -186 57t-65 132zM415 393q41 41 41 88q0 46 -59 46q-32 0 -49.5 -16t-17.5 -41
q0 -24 21.5 -41t63.5 -36zM252 206q0 -25 21 -42.5t54 -17.5q39 0 63.5 19t24.5 51q0 11 -7 20.5t-26 20.5t-30 16l-41 18q-59 -35 -59 -85z" />
    <glyph glyph-name="nine.p_osf" horiz-adv-x="621" 
d="M642 306q0 -77 -29 -154t-80.5 -140t-132 -102.5t-174.5 -39.5q-61 0 -123 18q-27 8 -47 18l81 154q11 -5 28 -10q37 -11 69 -11q53 0 87 20t63 60h-2l-28 -7q-34 -8 -65 -8q-87 0 -142.5 61.5t-55.5 146.5q0 63 30.5 120t97 97t154.5 40q113 0 191 -65.5t78 -197.5z
M442 322q0 33 -21 56.5t-54 23.5q-32 0 -53 -23t-21 -56q0 -63 72 -63q77 0 77 62z" />
    <glyph glyph-name="zero.t_osf" horiz-adv-x="613" 
d="M91 212q0 63 17.5 124t52 115t92.5 87t131 33q130 0 188.5 -62t58.5 -163q0 -65 -18.5 -127t-53 -114.5t-92 -84.5t-128.5 -32q-131 0 -189.5 61.5t-58.5 162.5zM300 215q0 -55 38 -55q23 0 40.5 18t26.5 46.5t13 57.5t4 58t-7.5 44t-29.5 15q-30 0 -50 -33t-27.5 -72
t-7.5 -79z" />
    <glyph glyph-name="one.t_osf" horiz-adv-x="613" 
d="M89 0l31 161h139l19 103l11 49q3 9 7 29h-2q-8 -8 -13 -11q-7 -6 -33 -20l-39 -18l-69 145l221 121h175l-76 -398h132l-31 -161h-472z" />
    <glyph glyph-name="two.t_osf" horiz-adv-x="613" 
d="M74 0l27 138l69.5 37t93 55t94.5 72.5t36 64.5q0 33 -41 33q-39 0 -93 -32q-20 -11 -46 -32l-82 136q29 26 72 50q88 49 183 49q39 0 75.5 -9t69.5 -27.5t53.5 -53t20.5 -80.5t-24 -88.5t-61.5 -72t-70.5 -48.5t-64 -31v-6l19 3q18 3 54 3h136l-35 -161h-486z" />
    <glyph glyph-name="three.t_osf" horiz-adv-x="613" 
d="M44 -40l100 136q16 -13 38 -24q50 -25 94 -25q42 0 64.5 19.5t22.5 42.5q0 46 -74 46q-16 0 -23 -1q-4 -1 -12 -1l-18 87l131 144q9 11 24 21l12 8v2q-11 0 -16 -1q-18 -2 -28 -2h-59l-14 -64h-157l42 211h458l-26 -134l-141 -152q33 -14 57 -34q57 -47 57 -121
q0 -42 -20 -84t-56.5 -77.5t-95 -58t-128.5 -22.5q-96 0 -174 42q-33 17 -58 42z" />
    <glyph glyph-name="four.t_osf" horiz-adv-x="613" 
d="M15 24l22 121l310 414h277l-74 -380h77l-31 -155h-77l-27 -140h-204l27 140h-300zM234 179h112l31 154q5 23 13 50l9 27h-4q-8 -16 -13 -23q-20 -32 -31 -46l-117 -160v-2z" />
    <glyph glyph-name="five.t_osf" horiz-adv-x="613" 
d="M43 -44l101 135q17 -17 34 -26q46 -26 89 -26q47 0 74 19t27 53q0 58 -80 58q-33 0 -60 -9l-24 -9l-98 39l98 369h417l-43 -212h-163l13 64h-85l-19 -69q-1 -9 -6 -17l-4 -8h2l14 3q18 2 41 2q91 0 148.5 -55t57.5 -144q0 -111 -88.5 -182.5t-210.5 -71.5q-95 0 -172 43
q-38 21 -63 44z" />
    <glyph glyph-name="six.t_osf" horiz-adv-x="613" 
d="M83 251q0 77 29 154t80.5 140t132 102.5t174.5 39.5q61 0 123 -18q27 -8 47 -18l-81 -154q-10 6 -28 11q-34 10 -69 10q-53 0 -87 -20t-63 -60h2l28 8q30 7 65 7q87 0 142.5 -61.5t55.5 -146.5q0 -63 -30.5 -120t-97 -97t-154.5 -40q-113 0 -191 65.5t-78 197.5zM283 235
q0 -33 21 -56.5t54 -23.5q32 0 53 23t21 56q0 63 -72 63q-77 0 -77 -62z" />
    <glyph glyph-name="seven.t_osf" horiz-adv-x="613" 
d="M46 -116l340 480q10 15 29 36q6 8 12 12v2q-10 0 -17 -1q-22 -2 -42 -2h-64l-12 -64h-173l41 212h521l-28 -139l-383 -536h-224z" />
    <glyph glyph-name="eight.t_osf" horiz-adv-x="613" 
d="M71 177q0 30 11 57.5t32.5 51.5t38.5 39.5t43 34.5q-44 44 -44 106q0 86 69.5 153t189.5 67q98 0 166.5 -47.5t68.5 -123.5q0 -86 -91 -186q62 -47 62 -116q0 -85 -78 -155t-217 -70q-121 0 -186 57t-65 132zM419 393q41 41 41 88q0 46 -59 46q-32 0 -49.5 -16t-17.5 -41
q0 -24 21.5 -41t63.5 -36zM256 206q0 -25 21 -42.5t54 -17.5q39 0 63.5 19t24.5 51q0 11 -7 20.5t-26 20.5t-30 16l-41 18q-59 -35 -59 -85z" />
    <glyph glyph-name="nine.t_osf" horiz-adv-x="613" 
d="M638 306q0 -77 -29 -154t-80.5 -140t-132 -102.5t-174.5 -39.5q-61 0 -123 18q-27 8 -47 18l81 154q11 -5 28 -10q37 -11 69 -11q53 0 87 20t63 60h-2l-28 -7q-34 -8 -65 -8q-87 0 -142.5 61.5t-55.5 146.5q0 63 30.5 120t97 97t154.5 40q113 0 191 -65.5t78 -197.5z
M438 322q0 33 -21 56.5t-54 23.5q-32 0 -53 -23t-21 -56q0 -63 72 -63q77 0 77 62z" />
    <glyph glyph-name="dollar.osf" horiz-adv-x="564" 
d="M50 94l102 131q18 -13 48 -29q56 -29 104 -29q42 0 42 22q0 10 -34.5 26l-76 34.5t-76 58t-34.5 90.5q0 64 55.5 118.5t156.5 67.5l18 104h127l-19 -106q59 -10 114 -41q23 -13 39 -27l-89 -139q-14 11 -39 23q-50 22 -104 22q-24 0 -33 -4t-9 -15q0 -8 7.5 -13t32.5 -15
q31 -12 48.5 -19.5t46.5 -24.5t45 -34t28.5 -44t12.5 -58q0 -75 -63 -126t-149 -64l-17 -102h-127l19 105q-66 13 -130 52q-28 18 -46 36z" />
    <glyph glyph-name="cent.osf" horiz-adv-x="567" 
d="M217 -31l17 87q-72 27 -109.5 85.5t-37.5 128.5q0 96 65 177t179 105l15 78h134l-16 -80q49 -9 109 -47q24 -16 40 -32l-109 -131q-12 12 -24 20q-29 20 -76 20q-57 0 -82 -31t-25 -63q0 -25 18.5 -45t60.5 -20t80 21q16 9 31 21l66 -149q-26 -19 -51 -31
q-68 -33 -136 -38l-16 -76h-133z" />
    <glyph glyph-name="sterling.osf" horiz-adv-x="617" 
d="M39 0l34 174h59l9 52h-49l25 127h49l6 28q23 105 103.5 162t190.5 57q87 0 151 -35q34 -18 54 -35l-107 -139q-11 7 -29 15q-36 15 -81 15q-22 0 -44.5 -13t-27.5 -33l-5 -22h163l-25 -127h-163l-9 -52h272l-35 -174h-541z" />
    <glyph glyph-name="yen.osf" horiz-adv-x="693" 
d="M98 106l22 111h161l-31 79h-115l22 111h52l-65 181h229l17 -87q3 -13 15 -80q4 -19 6 -40h2l21 40q25 48 44 80l51 87h241l-135 -181h64l-22 -111h-128l-59 -79h172l-22 -111h-171l-21 -106h-211l22 106h-161z" />
    <glyph glyph-name="florin.osf" horiz-adv-x="612" 
d="M4 -114l35 171l23 -4q25 -5 49 -5q77 0 90 55l38 145h-53l33 162h67l27 94q13 46 39 80.5t54.5 53.5t63.5 30.5t61.5 15t54.5 3.5q46 0 77 -4q13 -1 39 -5l-35 -173l-24 4q-20 4 -48 4q-74 0 -91 -55l-14 -48h85l-32 -162h-99l-51 -190q-15 -57 -50 -96t-79 -56.5
t-79 -24t-70 -6.5q-40 0 -75 5z" />
    <glyph glyph-name="Euro.osf" horiz-adv-x="581" 
d="M73 195l16 77h65q2 18 7 45h-63l16 77h72q102 206 340 206q45 0 87 -10q22 -6 33 -11l-71 -151l-19 4q-16 4 -47 4q-71 0 -105 -42h158l-33 -77h-159q-8 -22 -8 -45h153l-30 -77h-112q26 -39 90 -39q32 0 62 7l27 7l-2 -163q-10 -5 -32 -10q-36 -9 -76 -9q-117 0 -190 58
t-92 149h-87z" />
    <glyph glyph-name="zero.numerator" horiz-adv-x="420" 
d="M270 266q-147 0 -147 174q0 49 11.5 96.5t35.5 92.5t69 72.5t104 27.5q149 0 149 -174q0 -38 -7 -76.5t-24 -77t-41.5 -68.5t-63.5 -48.5t-86 -18.5zM289 402q21 0 40 43.5t19 96.5q0 49 -22 49q-23 0 -42 -43t-19 -92q0 -54 24 -54z" />
    <glyph glyph-name="one.numerator" horiz-adv-x="400" 
d="M94 276l22 115h97l21 110q1 4 3 11t4 11q4 5 5 11h-2l-8 -8l-14 -13l-26 -16l-67 92l170 130h127l-63 -328h99l-22 -115h-346z" />
    <glyph glyph-name="two.numerator" horiz-adv-x="426" 
d="M451 276h-360q0 56 18 100t45.5 69.5t59 46.5t59 32t45.5 24t18 26q0 18 -26 18q-27 0 -54 -20q-9 -6 -25 -20l-87 88q24 26 54 45q67 44 136 44q60 0 109 -33t49 -97q0 -38 -22.5 -69.5t-55 -51t-64.5 -35t-54.5 -28.5t-22.5 -24h97l7 39h103z" />
    <glyph glyph-name="three.numerator" horiz-adv-x="405" 
d="M261 266q-74 0 -130 35q-25 16 -38 34l87 100q6 -6 20 -16q28 -17 60 -17q46 0 46 29q0 17 -45 17h-29l-6 60l79 77q6 8 18 17q1 1 10 7v4l-12 -2q-14 -2 -24 -2h-44l-9 -44h-103l30 154h326l-17 -94l-101 -92q37 -15 59 -42t22 -59q0 -62 -56 -114t-143 -52z" />
    <glyph glyph-name="four.numerator" horiz-adv-x="431" 
d="M262 276l17 84h-191l16 94l205 265h186l-49 -252h49l-20 -107h-49l-16 -84h-148zM231 467h68l19 96l10 35l6 18h-4l-9 -17l-20 -33l-70 -97v-2z" />
    <glyph glyph-name="five.numerator" horiz-adv-x="405" 
d="M248 266q-61 0 -119 30q-28 15 -46 30l77 93q9 -6 29 -16q36 -17 59 -17q58 0 58 38q0 30 -49 30q-27 0 -39 -4q-5 -1 -15 -5l-70 33l64 241h297l-29 -154h-103l8 44h-82l-13 -50q-3 -11 -4 -13l-3 -6l1 -1q10 4 16 5q15 4 39 4q64 0 100 -32t36 -80q0 -64 -59 -117
t-153 -53z" />
    <glyph glyph-name="six.numerator" horiz-adv-x="407" 
d="M285 266q-70 0 -120 43t-50 127q0 69 32 135.5t95 112t141 45.5q44 0 81 -13q21 -7 32 -13l-51 -117q-4 2 -12 4.5l-11 3.5q-26 7 -54 7q-46 0 -65 -41q17 4 38 4q55 0 89.5 -34.5t34.5 -88.5q0 -64 -48.5 -119.5t-131.5 -55.5zM292 381q18 0 29.5 15.5t11.5 33.5
q0 43 -41 43q-22 0 -30.5 -10.5t-8.5 -32.5q0 -25 11 -37t28 -12z" />
    <glyph glyph-name="seven.numerator" horiz-adv-x="400" 
d="M89 276l226 308q11 14 16 18l8 7l1 5l-12 -2q-21 -3 -23 -3h-41l-8 -44h-114l30 154h352l-19 -101l-252 -342h-164z" />
    <glyph glyph-name="eight.numerator" horiz-adv-x="416" 
d="M266 266q-68 0 -116 32t-48 86q0 72 88 131q-29 35 -29 74q0 66 57 103t125 37q61 0 106.5 -30.5t45.5 -81.5q0 -59 -73 -123q44 -34 44 -84q0 -47 -33.5 -81t-77.5 -48.5t-89 -14.5zM332 541q10 10 14 16q13 20 13 35q0 27 -35 27q-31 0 -31 -33q0 -29 39 -45zM278 377
q17 0 30.5 9t13.5 26q0 16 -11.5 26t-41.5 23q-28 -25 -28 -50q0 -34 37 -34z" />
    <glyph glyph-name="nine.numerator" horiz-adv-x="407" 
d="M316 729q70 0 120 -43t50 -127q0 -69 -32 -135.5t-95 -112t-141 -45.5q-44 0 -81 13q-21 7 -32 13l51 117q16 -4 24 -7q30 -8 53 -8q46 0 65 41q-17 -4 -38 -4q-54 0 -89 34.5t-35 88.5q0 64 48.5 119.5t131.5 55.5zM309 614q-18 0 -29.5 -15.5t-11.5 -33.5q0 -43 41 -43
q22 0 30.5 10.5t8.5 32.5q0 25 -11 37t-28 12z" />
    <glyph glyph-name="zero.denominator" horiz-adv-x="418" 
d="M215 -10q-147 0 -147 174q0 49 11.5 96.5t35.5 92.5t69 72.5t104 27.5q149 0 149 -174q0 -38 -7 -76.5t-24 -77t-41.5 -68.5t-63.5 -48.5t-86 -18.5zM234 126q21 0 40 43.5t19 96.5q0 49 -22 49q-23 0 -42 -43t-19 -92q0 -54 24 -54z" />
    <glyph glyph-name="one.denominator" horiz-adv-x="399" 
d="M40 0l22 115h97l21 110q1 4 3 11t4 11q4 5 5 11h-2l-8 -8l-14 -13l-26 -16l-67 92l170 130h127l-63 -328h99l-22 -115h-346z" />
    <glyph glyph-name="two.denominator" horiz-adv-x="425" 
d="M397 0h-360q0 56 18 100t45.5 69.5t59 46.5t59 32t45.5 24t18 26q0 18 -26 18q-27 0 -54 -20q-9 -6 -25 -20l-87 88q24 26 54 45q67 44 136 44q60 0 109 -33t49 -97q0 -38 -22.5 -69.5t-55 -51t-64.5 -35t-54.5 -28.5t-22.5 -24h97l7 39h103z" />
    <glyph glyph-name="three.denominator" horiz-adv-x="405" 
d="M207 -10q-74 0 -130 35q-25 16 -38 34l87 100q6 -6 20 -16q28 -17 60 -17q46 0 46 29q0 17 -45 17h-29l-6 60l79 77q6 8 18 17q1 1 10 7v4l-12 -2q-14 -2 -24 -2h-44l-9 -44h-103l30 154h326l-17 -94l-101 -92q37 -15 59 -42t22 -59q0 -62 -56 -114t-143 -52z" />
    <glyph glyph-name="four.denominator" horiz-adv-x="431" 
d="M208 0l17 84h-191l16 94l205 265h186l-49 -252h49l-20 -107h-49l-16 -84h-148zM177 191h68l19 96l10 35l6 18h-4l-9 -17l-20 -33l-70 -97v-2z" />
    <glyph glyph-name="five.denominator" horiz-adv-x="404" 
d="M194 -10q-61 0 -119 30q-28 15 -46 30l77 93q9 -6 29 -16q36 -17 59 -17q58 0 58 38q0 30 -49 30q-27 0 -39 -4q-5 -1 -15 -5l-70 33l64 241h297l-29 -154h-103l8 44h-82l-13 -50q-3 -11 -4 -13l-3 -6l1 -1q10 4 16 5q15 4 39 4q64 0 100 -32t36 -80q0 -64 -59 -117
t-153 -53z" />
    <glyph glyph-name="six.denominator" horiz-adv-x="407" 
d="M231 -10q-70 0 -120 43t-50 127q0 69 32 135.5t95 112t141 45.5q44 0 81 -13q21 -7 32 -13l-51 -117q-4 2 -12 4.5l-11 3.5q-26 7 -54 7q-46 0 -65 -41q17 4 38 4q55 0 89.5 -34.5t34.5 -88.5q0 -64 -48.5 -119.5t-131.5 -55.5zM238 105q18 0 29.5 15.5t11.5 33.5
q0 43 -41 43q-22 0 -30.5 -10.5t-8.5 -32.5q0 -25 11 -37t28 -12z" />
    <glyph glyph-name="seven.denominator" horiz-adv-x="396" 
d="M32 0l226 308q11 14 16 18l8 7l1 5l-12 -2q-21 -3 -23 -3h-41l-8 -44h-114l30 154h352l-19 -101l-252 -342h-164z" />
    <glyph glyph-name="eight.denominator" horiz-adv-x="415" 
d="M212 -10q-68 0 -116 32t-48 86q0 72 88 131q-29 35 -29 74q0 66 57 103t125 37q61 0 106.5 -30.5t45.5 -81.5q0 -59 -73 -123q44 -34 44 -84q0 -47 -33.5 -81t-77.5 -48.5t-89 -14.5zM278 265q10 10 14 16q13 20 13 35q0 27 -35 27q-31 0 -31 -33q0 -29 39 -45zM224 101
q17 0 30.5 9t13.5 26q0 16 -11.5 26t-41.5 23q-28 -25 -28 -50q0 -34 37 -34z" />
    <glyph glyph-name="nine.denominator" horiz-adv-x="407" 
d="M262 453q70 0 120 -43t50 -127q0 -69 -32 -135.5t-95 -112t-141 -45.5q-44 0 -81 13q-22 7 -32 13l51 117q16 -4 24 -7q30 -8 53 -8q46 0 65 41q-17 -4 -38 -4q-54 0 -89 34.5t-35 88.5q0 64 48.5 119.5t131.5 55.5zM255 338q-18 0 -29.5 -15.5t-11.5 -33.5q0 -43 41 -43
q22 0 30.5 10.5t8.5 32.5q0 25 -11 37t-28 12z" />
    </font>
</defs>
</svg>
