<?xml version="1.0" standalone="no"?>
<!DOCTYPE svg PUBLIC "-//W3C//DTD SVG 1.1//EN" "http://www.w3.org/Graphics/SVG/1.1/DTD/svg11.dtd" >
<svg>
<metadata>
Created by FontForge 20090622 at Wed Jan 11 04:05:55 2017
 By deploy user
Copyright (c) 2009 by Jos Buivenga. All rights reserved. TK-rip
</metadata>
<defs>
<font id="MuseoSlab-100Italic" horiz-adv-x="556" >
  <font-face 
    font-family="Museo Slab 100"
    font-weight="400"
    font-style="italic"
    font-stretch="normal"
    units-per-em="1000"
    panose-1="2 0 0 0 0 0 0 0 0 0"
    ascent="750"
    descent="-250"
    x-height="500"
    cap-height="700"
    bbox="-173 -210 1051 881"
    underline-thickness="50"
    underline-position="-50"
    unicode-range="U+0020-U+FB04"
  />
<missing-glyph horiz-adv-x="510" 
d="M-53 0v700h500v-700h-500zM197 395l170 255h-340zM397 95v510l-170 -255zM-3 95l170 255l-170 255v-510zM27 50h340l-170 255z" />
    <glyph glyph-name="f_f" unicode="ff" horiz-adv-x="607" 
d="M60 0l89 461h-94l7 39h94l5 22q11 57 36 96.5t55.5 56t53.5 22.5t45 6q18 0 23 -1q3 -1 8 -1l-9 -39q-3 0 -6 1t-16 1q-115 0 -147 -141l-5 -23h255l5 22q11 57 36 96.5t55.5 56t53.5 22.5t45 6q18 0 23 -1q3 -1 8 -1l-9 -39q-3 0 -6 1t-16 1q-115 0 -147 -141l-5 -23
h133l-7 -39h-133l-89 -461h-43l89 461h-255l-89 -461h-43z" />
    <glyph glyph-name="fi" unicode="fi" horiz-adv-x="558" 
d="M60 0l89 461h-95l7 39h95l5 22q9 47 28 81.5t39.5 53t45.5 29.5t42 14t34 3q18 0 23 -1q3 -1 8 -1l-9 -39q-3 0 -6 1t-16 1q-115 0 -147 -141l-5 -23h284l-76 -385q-3 -18 -3 -29q0 -31 13.5 -40t36.5 -9q18 0 21 1t6 1l-8 -39q-8 0 -12 -1q-7 -1 -19 -1q-13 0 -25 3
t-26 10.5t-22.5 25t-8.5 42.5q0 15 4 30l69 352h-241l-89 -461h-42zM458 627l15 73h54l-15 -73h-54z" />
    <glyph glyph-name="fl" unicode="fl" horiz-adv-x="565" 
d="M60 0l89 461h-95l7 39h95l4 20q37 192 225 192q51 0 101 -10q26 -5 39 -10l-111 -576q-4 -15 -4 -31q0 -21 8.5 -32.5t17.5 -13.5t24 -2q18 0 21 1t6 1l-8 -39q-7 0 -10 -1q-7 -1 -21 -1q-13 0 -25 3t-26 10.5t-22.5 25t-8.5 42.5q0 16 4 31l107 552q-7 3 -21 6
q-30 6 -72 6q-31 0 -55 -5t-51 -20t-46 -47.5t-29 -80.5l-4 -21h133l-7 -39h-133l-89 -461h-43z" />
    <glyph glyph-name="f_f_i" unicode="ffi" horiz-adv-x="857" 
d="M60 0l89 461h-94l7 39h94l5 22q11 57 36 96.5t55.5 56t53.5 22.5t45 6q18 0 23 -1q3 -1 8 -1l-9 -39q-3 0 -6 1t-16 1q-115 0 -147 -141l-5 -23h255l5 22q11 57 36 96.5t55.5 56t53.5 22.5t45 6q18 0 23 -1q3 -1 8 -1l-9 -39q-3 0 -6 1t-16 1q-115 0 -147 -141l-5 -23
h284l-76 -385q-3 -18 -3 -29q0 -31 13.5 -40t36.5 -9q18 0 21 1t6 1l-8 -39q-8 0 -12 -1q-7 -1 -19 -1q-13 0 -25 3t-26 10.5t-22.5 25t-8.5 42.5q0 15 4 30l69 352h-241l-89 -461h-43l89 461h-255l-89 -461h-43zM757 627l15 73h54l-15 -73h-54z" />
    <glyph glyph-name="f_f_l" unicode="ffl" horiz-adv-x="863" 
d="M60 0l89 461h-94l7 39h94l5 22q11 57 36 96.5t55.5 56t53.5 22.5t45 6q18 0 23 -1q3 -1 8 -1l-9 -39q-3 0 -6 1t-16 1q-115 0 -147 -141l-5 -23h255l4 20q37 192 225 192q51 0 101 -10q26 -5 39 -10l-111 -576q-4 -15 -4 -31q0 -21 8.5 -32.5t17.5 -13.5t24 -2q18 0 21 1
t6 1l-8 -39q-7 0 -10 -1q-7 -1 -21 -1q-13 0 -25 3t-26 10.5t-22.5 25t-8.5 42.5q0 16 4 31l107 552q-7 3 -21 6q-30 6 -72 6q-31 0 -55 -5t-51 -20t-46 -47.5t-29 -80.5l-4 -21h133l-7 -39h-133l-89 -461h-43l89 461h-255l-89 -461h-43z" />
    <glyph glyph-name="f_j" unicode="fj" horiz-adv-x="541" 
d="M60 0l89 461h-94l7 39h94l5 22q11 57 36 96.5t55.5 56t53.5 22.5t45 6q18 0 23 -1q3 -1 8 -1l-9 -39q-3 0 -6 1t-16 1q-115 0 -147 -141l-5 -23h289l-101 -520q-11 -58 -34.5 -98t-52.5 -57.5t-51.5 -23.5t-45.5 -6q-18 0 -25 1q-3 1 -10 1l8 39q3 0 6 -1t16 -1
q18 0 36.5 5t41.5 18.5t42 45t27 76.5l93 482h-246l-89 -461h-43zM466 627l14 73h50l-14 -73h-50z" />
    <glyph glyph-name=".notdef" horiz-adv-x="510" 
d="M-53 0v700h500v-700h-500zM197 395l170 255h-340zM397 95v510l-170 -255zM-3 95l170 255l-170 255v-510zM27 50h340l-170 255z" />
    <glyph glyph-name=".null" horiz-adv-x="0" 
 />
    <glyph glyph-name="nonmarkingreturn" horiz-adv-x="333" 
 />
    <glyph glyph-name="space" unicode=" " horiz-adv-x="250" 
 />
    <glyph glyph-name="exclam" unicode="!" horiz-adv-x="223" 
d="M66 175l103 525h43l-103 -525h-43zM24 0l13 61h59l-13 -61h-59z" />
    <glyph glyph-name="quotedbl" unicode="&#x22;" horiz-adv-x="294" 
d="M220 518l37 191h43l-37 -191h-43zM116 518l37 191h43l-37 -191h-43z" />
    <glyph glyph-name="numbersign" unicode="#" horiz-adv-x="729" 
d="M108 0l74 199h-151l15 40h151l82 221h-151l15 40h151l74 200h44l-74 -200h189l74 200h44l-74 -200h148l-15 -40h-148l-82 -221h148l-15 -40h-148l-74 -199h-44l74 199h-189l-74 -199h-44zM241 239h189l82 221h-189z" />
    <glyph glyph-name="dollar" unicode="$" horiz-adv-x="521" 
d="M13 90l32 29q21 -23 43 -37q55 -37 124 -37q77 0 135 43t58 107q0 43 -31 74.5t-75.5 53l-88.5 43.5t-75 59t-31 87q0 73 59.5 124t159.5 59l22 110h43l-21 -110q61 -4 112 -34q22 -13 38 -29l-29 -34q-14 17 -36 29q-47 28 -114 28q-83 0 -135.5 -41.5t-52.5 -100.5
q0 -42 31 -72.5t75 -50.5l88.5 -41.5t75.5 -58.5t31 -87q0 -77 -62 -134t-157 -65l-21 -108h-43l21 108q-77 5 -134 46q-26 19 -42 40z" />
    <glyph glyph-name="percent" unicode="%" horiz-adv-x="689" 
d="M223 451q-53 0 -83.5 31t-30.5 84q0 55 47 100.5t106 45.5q52 0 82.5 -31t30.5 -82q0 -57 -47 -102.5t-105 -45.5zM-2 0l662 700h57l-663 -700h-56zM225 491q43 0 75 32.5t32 76.5q0 31 -20 51.5t-52 20.5q-42 0 -75 -33t-33 -76q0 -31 20 -51.5t53 -20.5zM335 103
q0 55 47 100.5t106 45.5q52 0 82.5 -31t30.5 -82q0 -57 -47 -102.5t-105 -45.5q-53 0 -83.5 31t-30.5 84zM378 100q0 -31 20 -51.5t53 -20.5q43 0 75 32t32 77q0 31 -20 51.5t-52 20.5q-42 0 -75 -33t-33 -76z" />
    <glyph glyph-name="ampersand" unicode="&#x26;" horiz-adv-x="639" 
d="M38 159q0 75 48 137.5t125 82.5v2q-19 7 -37 25q-38 38 -38 100q0 87 65 146.5t163 59.5q32 0 60 -5l25 -6l-20 -39q-14 4 -21 5q-17 4 -46 4q-73 0 -126.5 -46t-53.5 -120q0 -107 147 -107h163l20 102h43l-20 -102h97l-8 -40h-97l-22 -112q-51 -258 -265 -258
q-94 0 -148 47t-54 124zM83 166q0 -64 40.5 -100.5t116.5 -36.5q177 0 222 217l22 112h-161q-100 0 -170 -52t-70 -140z" />
    <glyph glyph-name="quotesingle" unicode="'" horiz-adv-x="190" 
d="M116 518l37 191h43l-37 -191h-43z" />
    <glyph glyph-name="parenleft" unicode="(" horiz-adv-x="289" 
d="M161 -95h-42q-46 125 -46 263q0 306 201 557h46q-206 -262 -206 -558q0 -135 47 -262z" />
    <glyph glyph-name="parenright" unicode=")" horiz-adv-x="291" 
d="M25 -95h-46q206 262 206 558q0 135 -47 262h42q46 -125 46 -263q0 -306 -201 -557z" />
    <glyph glyph-name="asterisk" unicode="*" horiz-adv-x="478" 
d="M153 344l-33 26l124 131v2l-144 46l21 41l144 -54l27 164h47l-37 -164l167 53l6 -42l-167 -49v-2l71 -128l-37 -25l-68 134h-2z" />
    <glyph glyph-name="plus" unicode="+" horiz-adv-x="600" 
d="M221 0l52 263h-237l7 40h237l52 263h43l-52 -263h236l-7 -40h-236l-52 -263h-43z" />
    <glyph glyph-name="comma" unicode="," horiz-adv-x="243" 
d="M58 61h55l-116 -195h-44z" />
    <glyph glyph-name="hyphen" unicode="-" horiz-adv-x="527" 
d="M119 263l7 40h276l-7 -40h-276z" />
    <glyph glyph-name="period" unicode="." horiz-adv-x="236" 
d="M34 0l12 63h61l-12 -63h-61z" />
    <glyph glyph-name="slash" unicode="/" horiz-adv-x="402" 
d="M-14 -42l405 782h47l-405 -782h-47z" />
    <glyph glyph-name="zero" unicode="0" horiz-adv-x="619" 
d="M69 209q0 58 9.5 122t33.5 133t58.5 123t90 89.5t123.5 35.5q188 0 188 -223q0 -58 -9.5 -121.5t-33.5 -132.5t-58.5 -123t-90 -89t-123.5 -35q-97 0 -142.5 58.5t-45.5 162.5zM113 207q0 -177 145 -177q58 0 106 32.5t77.5 82t49.5 113t28 121.5t8 111q0 180 -144 180
q-68 0 -122.5 -45t-85 -116.5t-46.5 -149t-16 -152.5z" />
    <glyph glyph-name="one" unicode="1" horiz-adv-x="427" 
d="M-5 0l7 40h159l109 558q1 4 3 13.5t4 14.5l3 14h-2l-10 -10q-15 -15 -26 -24l-107 -90l-26 32l181 152h43l-129 -660h155l-8 -40h-356z" />
    <glyph glyph-name="two" unicode="2" horiz-adv-x="570" 
d="M454 0h-448q2 57 29 106t68.5 84.5t92 68l100.5 63t91.5 62.5t67 74t25.5 90q0 55 -35.5 89t-100.5 34q-68 0 -138 -50q-32 -24 -54 -50l-31 25q33 37 62 58q78 58 160 58q89 0 135.5 -45t46.5 -118q0 -71 -44 -129t-108.5 -99.5l-131 -80.5t-119.5 -90t-65 -110h363
l20 101h42z" />
    <glyph glyph-name="three" unicode="3" horiz-adv-x="555" 
d="M8 85l34 29q17 -23 44 -42q59 -43 125 -43q86 0 152.5 59.5t66.5 143.5q0 68 -45 102.5t-115 34.5q-23 0 -34 -1l-16 -2l-8 32l252 242q2 2 17 14q5 4 9 6v2q-8 0 -11 -1q-7 -1 -19 -1h-265l-20 -101h-42l28 141h401l-6 -30l-275 -262q30 1 61 -6.5t62 -25.5t51 -54
t20 -85q0 -102 -78 -175.5t-185 -73.5q-81 0 -152 49q-29 20 -52 48z" />
    <glyph glyph-name="four" unicode="4" horiz-adv-x="576" 
d="M13 200l6 30l451 470h43l-90 -460h104l-8 -40h-104l-39 -200h-43l39 200h-359zM85 240h295l69 353q1 5 2.5 14t3.5 13l4 12h-2l-8 -10q-5 -7 -20 -22l-344 -358v-2z" />
    <glyph glyph-name="five" unicode="5" horiz-adv-x="551" 
d="M15 79l32 27q15 -21 38 -38q55 -39 118 -39q91 0 161.5 64.5t70.5 153.5q0 69 -45.5 110.5t-117.5 41.5q-51 0 -103 -21q-27 -12 -41 -22l-31 11l105 333h325l-28 -141h-42l20 101h-244l-65 -207q-9 -28 -11 -32q-1 -2 -4 -11h2l33 15q39 15 90 15q90 0 146 -53.5
t56 -138.5q0 -106 -84 -183t-195 -77q-81 0 -143 46q-27 21 -43 45z" />
    <glyph glyph-name="six" unicode="6" horiz-adv-x="588" 
d="M64 236q0 50 14.5 111t46 125.5t75 118t107 87.5t135.5 34q46 0 92 -14q16 -5 34 -14l-26 -37q-10 7 -27 12q-33 12 -73 12q-113 0 -198 -97t-119 -226h2q37 45 92 70.5t114 25.5q85 0 136 -47.5t51 -130.5q0 -68 -30.5 -131t-90 -105t-134.5 -42q-97 0 -149 68t-52 180z
M109 221q0 -75 41 -133.5t114 -58.5q88 0 149.5 69t61.5 168q0 64 -38.5 100.5t-105.5 36.5q-45 0 -95.5 -22t-88.5 -65.5t-38 -94.5z" />
    <glyph glyph-name="seven" unicode="7" horiz-adv-x="525" 
d="M62 0l433 632l16 21l7 7v2q-7 0 -10 -1q-7 -1 -23 -1h-329l-20 -101h-42l28 141h459l-6 -30l-463 -670h-50z" />
    <glyph glyph-name="eight" unicode="8" horiz-adv-x="596" 
d="M45 168q0 46 20 88t54 73t51 43.5t38 24.5q2 2 3 2q-70 48 -70 119q0 76 65.5 135t168.5 59q91 0 138 -39.5t47 -109.5q0 -40 -18 -81.5t-46.5 -74t-43 -47t-27.5 -25.5q82 -54 82 -127q0 -94 -78 -157t-181 -63q-86 0 -144.5 47.5t-58.5 132.5zM386 356q14 10 29.5 24.5
t41 43t41.5 65.5t16 74q0 50 -38 79t-101 29q-80 0 -134 -45.5t-54 -106.5q0 -24 10.5 -44t35.5 -38t42.5 -28t57 -28t53.5 -25zM91 168q0 -64 45.5 -101.5t111.5 -37.5q82 0 147.5 50.5t65.5 127.5q0 25 -12 46t-36.5 38t-47 28.5t-59 28.5t-56.5 28q-19 -10 -38 -23
t-50.5 -40t-51 -65t-19.5 -80z" />
    <glyph glyph-name="nine" unicode="9" horiz-adv-x="586" 
d="M44 16l23 37q12 -8 28 -12q33 -12 72 -12q113 0 198 97t119 226h-2q-37 -45 -92.5 -70.5t-114.5 -25.5q-85 0 -135.5 47.5t-50.5 130.5q0 68 30.5 131t90 105t134.5 42q97 0 149 -68t52 -180q0 -50 -14.5 -111t-46 -125.5t-75 -118t-107 -87.5t-135.5 -34q-49 0 -91 14
q-17 6 -32 14zM275 297q45 0 96 22t90 65.5t39 94.5q0 75 -40.5 133.5t-112.5 58.5q-89 0 -151 -69t-62 -168q0 -64 38 -100.5t103 -36.5z" />
    <glyph glyph-name="colon" unicode=":" horiz-adv-x="306" 
d="M151 437l12 63h61l-12 -63h-61zM66 0l12 63h61l-12 -63h-61z" />
    <glyph glyph-name="semicolon" unicode=";" horiz-adv-x="312" 
d="M156 437l12 63h61l-12 -63h-61zM83 61h61l-116 -195h-44z" />
    <glyph glyph-name="less" unicode="&#x3c;" horiz-adv-x="600" 
d="M59 265v36l439 197v-48l-377 -166v-2l377 -166v-48z" />
    <glyph glyph-name="equal" unicode="=" horiz-adv-x="600" 
d="M67 343v40h456v-40h-456zM67 183v40h456v-40h-456z" />
    <glyph glyph-name="greater" unicode="&#x3e;" horiz-adv-x="600" 
d="M97 68v48l377 166v2l-377 166v48l439 -197v-36z" />
    <glyph glyph-name="question" unicode="?" horiz-adv-x="450" 
d="M140 175l9 44q10 47 39 86.5t62.5 66.5l66 54t54 62t21.5 77q0 46 -33 75.5t-89 29.5q-48 0 -96 -21q-20 -9 -40 -21l-17 37q22 14 46 24q54 23 109 23q77 0 121.5 -40t44.5 -105q0 -49 -22.5 -89.5t-56 -69t-68 -55t-63 -61t-36.5 -73.5l-9 -44h-43zM99 0l13 61h59
l-13 -61h-59z" />
    <glyph glyph-name="at" unicode="@" horiz-adv-x="757" 
d="M39 178q0 84 36 163.5t95.5 137.5t139 93.5t162.5 35.5q95 0 143 -42t48 -107q0 -18 -3 -33l-66 -339h70l-8 -40h-257q-74 0 -120.5 46t-46.5 116q0 91 71.5 159.5t167.5 68.5h146q0 5 1 8q1 5 1 17q0 44 -38 75t-114 31q-100 0 -189 -54.5t-141.5 -144.5t-52.5 -191
q0 -115 69.5 -187t182.5 -72l-8 -41q-125 0 -207 84.5t-82 215.5zM277 212q0 -55 35 -90t92 -35h145l60 310h-143q-73 0 -131 -56.5t-58 -128.5z" />
    <glyph glyph-name="A" unicode="A" horiz-adv-x="709" 
d="M-47 0l8 40h74l376 660h46l118 -660h75l-8 -40h-204l8 40h85l-36 202h-297l-115 -202h85l-8 -40h-207zM221 282h267l-58 327l-3 26q-1 4 -1 12h-2q-1 -4 -5 -12q-8 -19 -12 -26z" />
    <glyph glyph-name="B" unicode="B" horiz-adv-x="664" 
d="M-2 0l8 40h94l121 620h-95l8 40h307q68 0 111 -25q27 -16 43 -49.5t16 -75.5q0 -64 -34.5 -111t-90.5 -69v-2q87 -32 87 -141q0 -65 -32.5 -118.5t-84.5 -81.5q-50 -27 -122 -27h-336zM211 388h190q68 0 116.5 45t48.5 118q0 62 -43 89q-32 20 -82 20h-177zM143 40h185
q68 0 112 27q38 23 63 66t25 92q0 59 -34 91t-94 32h-197z" />
    <glyph glyph-name="C" unicode="C" horiz-adv-x="745" 
d="M67 290q0 86 35.5 165t94 134.5t135.5 89t157 33.5q34 0 72.5 -6t81 -19.5t66 -43t15.5 -69.5l-13 -67h-44l11 60q6 28 -11.5 49.5t-49.5 32.5t-65 16.5t-64 5.5q-97 0 -183.5 -50t-139.5 -137.5t-53 -189.5q0 -118 70 -191.5t184 -73.5q34 0 71.5 6.5t74 18.5t62.5 33.5
t32 48.5l11 55h44l-13 -65q-9 -47 -59 -79.5t-108 -45.5t-114 -13q-136 0 -218 84t-82 218z" />
    <glyph glyph-name="D" unicode="D" horiz-adv-x="775" 
d="M-2 0l8 40h94l121 620h-95l8 40h286q91 0 157 -24q152 -60 152 -250q0 -121 -61 -226.5t-162 -156.5q-83 -43 -203 -43h-305zM142 40h152q108 0 187 38q91 47 147 140.5t56 203.5q0 163 -124 214q-58 24 -145 24h-151z" />
    <glyph glyph-name="E" unicode="E" horiz-adv-x="617" 
d="M-2 0l8 40h94l121 620h-95l8 40h483l-26 -130h-42l18 90h-303l-56 -287h279l-8 -40h-279l-57 -293h323l19 96h42l-27 -136h-502z" />
    <glyph glyph-name="F" unicode="F" horiz-adv-x="560" 
d="M-2 0l8 40h94l121 620h-95l8 40h458l-27 -135h-42l19 95h-278l-57 -292h268l-8 -40h-268l-56 -288h100l-8 -40h-237z" />
    <glyph glyph-name="G" unicode="G" horiz-adv-x="771" 
d="M67 288q0 173 124 298.5t300 125.5q99 0 178.5 -38t68.5 -100l-13 -67h-44l10 53q7 36 -25.5 62.5t-79 37.5t-94.5 11q-155 0 -267.5 -113t-112.5 -266q0 -117 74 -190t192 -73q47 0 97 9.5t97.5 37t54.5 68.5l25 125h-155l8 40h198l-34 -173q-7 -39 -39 -69.5t-76 -46.5
t-89 -24t-87 -8q-143 0 -227 82.5t-84 217.5z" />
    <glyph glyph-name="H" unicode="H" horiz-adv-x="830" 
d="M-2 0l8 40h94l121 620h-95l8 40h233l-8 -40h-95l-56 -289h444l56 289h-95l8 40h233l-8 -40h-95l-121 -620h95l-8 -40h-233l8 40h95l57 291h-444l-57 -291h95l-8 -40h-232z" />
    <glyph glyph-name="I" unicode="I" horiz-adv-x="343" 
d="M-2 0l8 40h94l121 620h-95l8 40h233l-8 -40h-95l-121 -620h95l-8 -40h-232z" />
    <glyph glyph-name="J" unicode="J" horiz-adv-x="533" 
d="M6 139q0 20 6 50q4 16 5 24h43q-1 -9 -5 -22q-5 -25 -5 -45q0 -117 116 -117q59 0 109 38.5t67 123.5l90 469h-111l8 40h239l-8 -40h-85l-92 -475q-20 -102 -81 -149.5t-136 -47.5q-69 0 -114.5 37t-45.5 114z" />
    <glyph glyph-name="K" unicode="K" horiz-adv-x="647" 
d="M-2 0l8 40h94l121 620h-95l8 40h233l-8 -40h-95l-53 -272h108l242 272h-68l8 40h199l-8 -40h-74l-261 -290v-2l7 -7q5 -6 15 -28l103 -250q7 -15 12 -23t17.5 -15t31.5 -7q12 0 19 1q3 1 9 1l-8 -40q-6 0 -9 -1q-7 -1 -20 -1q-42 0 -61.5 20t-38.5 65l-94 232
q-7 18 -18 25.5t-34 7.5h-85l-60 -308h95l-8 -40h-232z" />
    <glyph glyph-name="L" unicode="L" horiz-adv-x="577" 
d="M-2 0l8 40h94l121 620h-95l8 40h233l-8 -40h-95l-121 -620h312l24 120h42l-32 -160h-491z" />
    <glyph glyph-name="M" unicode="M" horiz-adv-x="930" 
d="M-19 0l8 40h94l170 620h-96l8 40h139l130 -486q3 -9 5 -23l2 -10h2l5 10q2 4 7 11.5t7 11.5l320 486h143l-8 -40h-96l-72 -620h95l-8 -40h-233l8 40h95l63 542q2 19 5 27l4 15h-2q-4 -10 -7 -15q-7 -15 -14 -24l-298 -450h-44l-124 450l-4 24q-1 5 -1 15h-2l-2 -15
q-2 -18 -5 -27l-149 -542h95l-8 -40h-232z" />
    <glyph glyph-name="N" unicode="N" horiz-adv-x="824" 
d="M-2 0l8 40h94l121 620h-95l8 40h133l318 -601q2 -4 5 -12.5t4 -9.5l4 -12h2q0 9 1 14q3 22 4 25l109 556h-95l8 40h233l-8 -40h-95l-129 -660h-39l-319 602l-9 22l-3 12h-2q0 -9 -1 -14q-3 -22 -4 -25l-108 -557h95l-8 -40h-232z" />
    <glyph glyph-name="O" unicode="O" horiz-adv-x="829" 
d="M66 288q0 112 61 210.5t160 156t207 57.5q130 0 211.5 -82t81.5 -210q0 -86 -36.5 -166.5t-96 -138t-137.5 -92.5t-158 -35q-129 0 -211 84t-82 216zM111 288q0 -114 70.5 -186.5t182.5 -72.5q93 0 180.5 52.5t142.5 143.5t55 194q0 111 -70.5 181.5t-182.5 70.5
q-95 0 -182 -51.5t-141.5 -140.5t-54.5 -191z" />
    <glyph glyph-name="P" unicode="P" horiz-adv-x="636" 
d="M-2 0l8 40h94l121 620h-95l8 40h312q62 0 98 -14q93 -36 93 -152q0 -72 -39 -134t-102 -90q-47 -20 -112 -20h-192l-49 -250h95l-8 -40h-232zM200 330h180q53 0 97 17q52 22 83.5 71.5t31.5 111.5q0 86 -63 115q-31 15 -91 15h-174z" />
    <glyph glyph-name="Q" unicode="Q" horiz-adv-x="829" 
d="M66 288q0 111 61 210t159 156.5t203 57.5q132 0 215 -81.5t83 -210.5q0 -91 -39 -173.5t-107 -144.5l69 -91l-30 -26l-70 92q-114 -89 -246 -89t-215 84t-83 216zM111 288q0 -114 70.5 -186.5t182.5 -72.5q119 0 222 81l-88 116l30 26l88 -117q59 56 92.5 129.5
t33.5 154.5q0 111 -70.5 181.5t-182.5 70.5q-95 0 -182 -51.5t-141.5 -140.5t-54.5 -191z" />
    <glyph glyph-name="R" unicode="R" horiz-adv-x="677" 
d="M-2 0l8 40h94l121 620h-95l8 40h290q88 0 133 -26q67 -40 67 -132q0 -90 -60 -154t-149 -74v-2l6 -9l8 -16l81 -204q7 -16 12 -23.5t17.5 -14.5t31.5 -7q12 0 19 1q3 1 9 1l-8 -40q-6 0 -9 -1q-7 -1 -21 -1q-22 0 -38 5.5t-27 19t-17 25t-16 35.5l-72 181
q-11 29 -27 37.5t-47 8.5h-121l-53 -270h95l-8 -40h-232zM204 350h185q76 0 133 54t57 134q0 70 -50 101q-37 21 -113 21h-152z" />
    <glyph glyph-name="S" unicode="S" horiz-adv-x="561" 
d="M38 124l12 63h44l-12 -60q-9 -49 37.5 -73.5t115.5 -24.5q82 0 140 46t58 122q0 52 -32.5 84.5t-78.5 50l-92.5 36t-79 55t-32.5 93.5q0 88 72 142t174 54q69 0 125.5 -29.5t47.5 -77.5l-13 -63h-44l10 52q7 39 -35.5 58t-97.5 19q-79 0 -135.5 -43t-56.5 -110
q0 -39 23.5 -67t58.5 -42l75.5 -31t75.5 -35t58.5 -54t23.5 -87q0 -93 -73.5 -153.5t-177.5 -60.5q-35 0 -68.5 7t-65 21.5t-48 42.5t-9.5 65z" />
    <glyph glyph-name="T" unicode="T" horiz-adv-x="643" 
d="M145 0l8 40h95l121 620h-224l-23 -118h-42l31 158h575l-31 -158h-42l23 118h-224l-121 -620h95l-8 -40h-233z" />
    <glyph glyph-name="U" unicode="U" horiz-adv-x="788" 
d="M116 182q0 43 10 83l77 395h-95l8 40h233l-8 -40h-95l-77 -396q-9 -45 -9 -77q0 -73 48 -115.5t134 -42.5q96 0 161 49q77 57 98 167l82 415h-95l8 40h233l-8 -40h-95l-84 -425q-26 -132 -120 -195q-76 -52 -182 -52q-102 0 -163 53.5t-61 140.5z" />
    <glyph glyph-name="V" unicode="V" horiz-adv-x="695" 
d="M265 0l-108 660h-75l8 40h203l-8 -40h-83l92 -573q3 -13 3 -26v-12h3q1 4 5 12l12 26l316 573h-83l8 40h206l-8 -40h-75l-366 -660h-50z" />
    <glyph glyph-name="W" unicode="W" horiz-adv-x="988" 
d="M202 0l-40 660h-74l8 40h202l-8 -40h-84l31 -567v-26q0 -8 -1 -12h3q1 4 5 12l12 26l292 607h47l56 -607q1 -9 1 -26v-12h3q1 4 5 12q1 3 4.5 12l5.5 14l251 567h-84l8 40h206l-8 -40h-74l-298 -660h-54l-55 599q-1 9 -1 26q0 8 1 12h-3q-2 -8 -4 -12q-1 -3 -4.5 -12
l-5.5 -14l-289 -599h-54z" />
    <glyph glyph-name="X" unicode="X" horiz-adv-x="625" 
d="M-33 0l8 40h73l248 314l-125 306h-69l8 40h200l-8 -40h-85l104 -255l3 -9t4 -9q2 -6 2 -7h2l4 8q2 3 6.5 8.5t6.5 8.5l199 255h-81l8 40h206l-8 -40h-73l-252 -319l124 -301h73l-8 -40h-200l8 40h81l-103 250l-3 9t-4 9q-2 6 -2 7h-2q0 -1 -5 -8l-12 -17l-195 -250h81
l-8 -40h-206z" />
    <glyph glyph-name="Y" unicode="Y" horiz-adv-x="636" 
d="M144 0l8 40h95l52 264l-146 356h-71l8 40h202l-8 -40h-83l116 -287q2 -3 3.5 -8t2.5 -8q2 -6 2 -9h2q1 3 6 8l13 17l229 287h-83l8 40h205l-8 -40h-71l-284 -356l-52 -264h95l-8 -40h-233z" />
    <glyph glyph-name="Z" unicode="Z" horiz-adv-x="615" 
d="M4 0l7 34l516 593q4 5 8 9t9 8.5t7 6.5l10 9v2q-7 0 -11 -1q-7 -1 -27 -1h-344l-23 -118h-42l31 158h480l-7 -34l-517 -593l-24 -24l-10 -9v-2q8 0 12 1q7 1 26 1h358l24 120h42l-32 -160h-493z" />
    <glyph glyph-name="bracketleft" unicode="[" horiz-adv-x="281" 
d="M33 -95l159 820h108l-8 -40h-65l-143 -740h65l-8 -40h-108z" />
    <glyph glyph-name="backslash" unicode="\" horiz-adv-x="395" 
d="M237 -42l-100 782h42l100 -782h-42z" />
    <glyph glyph-name="bracketright" unicode="]" horiz-adv-x="280" 
d="M-3 -55h65l143 740h-65l8 40h108l-159 -820h-108z" />
    <glyph glyph-name="asciicircum" unicode="^" horiz-adv-x="600" 
d="M19 252l197 448h32l197 -448h-46l-167 388l-167 -388h-46z" />
    <glyph glyph-name="underscore" unicode="_" horiz-adv-x="537" 
d="M-37 0h496l-7 -40h-496z" />
    <glyph glyph-name="grave" unicode="`" horiz-adv-x="509" 
d="M212 750l-82 111h62l72 -111h-52z" />
    <glyph glyph-name="a" unicode="a" horiz-adv-x="535" 
d="M8 111q0 40 15.5 71.5t43 52t60.5 35t73.5 22t76.5 10.5t74 3h39q4 19 5 25q4 20 4 39q0 49 -25 75.5t-87 26.5q-54 0 -108 -24q-23 -10 -43 -24l-18 38q23 16 48 26q60 25 126 25q151 0 151 -135q0 -32 -27 -152t-27 -139q0 -31 13.5 -40t36.5 -9q18 0 21 1t6 1l-8 -39
q-8 0 -12 -1q-7 -1 -19 -1q-45 0 -66 27.5t-13 76.5h-2q1 0 -7 -11.5t-24 -28.5t-38 -34t-54.5 -28.5t-66.5 -11.5q-64 0 -106 33.5t-42 89.5zM52 117q0 -38 27.5 -64t81.5 -26q75 0 135.5 66.5t80.5 147.5l6 25h-32q-299 0 -299 -149z" />
    <glyph glyph-name="b" unicode="b" horiz-adv-x="588" 
d="M39 0l128 661h-95l8 39h137l-49 -255l-9 -32l-5 -14h2q28 50 80.5 81.5t112.5 31.5q87 0 134.5 -52.5t47.5 -144.5q0 -141 -81.5 -234t-190.5 -93q-61 0 -103.5 29.5t-57.5 83.5h-2q0 -10 -1 -15q-4 -32 -4 -34l-10 -52h-42zM122 184q0 -68 34.5 -111.5t102.5 -43.5
q87 0 157.5 79t70.5 205q0 74 -36.5 116t-101.5 42q-100 0 -163.5 -89t-63.5 -198z" />
    <glyph glyph-name="c" unicode="c" horiz-adv-x="545" 
d="M39 204q0 129 96 218.5t217 89.5q36 0 72 -9.5t63 -34t21 -59.5l-9 -49h-42l7 39q5 35 -34 53.5t-86 18.5q-97 0 -179 -77t-82 -188q0 -84 50 -130.5t129 -46.5q70 0 131 36q27 16 49 36l16 -38q-25 -21 -53 -37q-70 -38 -145 -38q-98 0 -159.5 57.5t-61.5 158.5z" />
    <glyph glyph-name="d" unicode="d" horiz-adv-x="610" 
d="M40 185q0 141 81.5 234t190.5 93q60 0 103 -29t58 -84h2q0 9 1 14q3 29 4 32l42 216h-95l8 39h137l-114 -585q-3 -18 -3 -29q0 -31 13.5 -40t36.5 -9q18 0 21 1t6 1l-8 -39q-8 0 -12 -1q-7 -1 -19 -1q-45 0 -66.5 27.5t-10.5 74.5h-2q-26 -46 -77.5 -79t-113.5 -33
q-89 0 -136 52.5t-47 144.5zM84 187q0 -74 36.5 -116t102.5 -42q67 0 120 45t79.5 109.5t26.5 132.5q0 67 -34.5 111t-102.5 44q-87 0 -157.5 -79t-70.5 -205z" />
    <glyph glyph-name="e" unicode="e" horiz-adv-x="550" 
d="M39 197q0 124 84.5 219.5t209.5 95.5q85 0 128 -48.5t43 -128.5q0 -23 -6 -53q-3 -16 -7 -25h-401l-3 -16q-3 -15 -3 -39q0 -76 46 -124.5t130 -48.5q57 0 119 32q21 11 48 31l16 -38q-23 -17 -53 -33q-64 -33 -132 -33q-97 0 -158 56.5t-61 152.5zM100 296h355l2 12
q2 16 2 30q0 67 -35.5 101t-93.5 34q-72 0 -136.5 -46.5t-93.5 -130.5z" />
    <glyph glyph-name="f" unicode="f" horiz-adv-x="309" 
d="M60 0l89 461h-94l7 39h94l5 22q11 57 36 96.5t55.5 56t53.5 22.5t45 6q18 0 23 -1q3 -1 8 -1l-9 -39q-3 0 -6 1t-16 1q-115 0 -147 -141l-5 -23h133l-7 -39h-133l-89 -461h-43z" />
    <glyph glyph-name="g" unicode="g" horiz-adv-x="598" 
d="M10 -171l24 35q12 -8 38 -17q48 -16 92 -16q197 0 229 200q6 36 12 54l6 17h-2q-64 -102 -178 -102q-87 0 -138 53t-51 143q0 54 17.5 108.5t49 101.5t83 76.5t112.5 29.5t106.5 -23.5t58.5 -74.5h2q-1 1 -1 6q0 1 2 19q6 33 22 47t48 14h74l-7 -39h-68q-23 0 -27 -22
l-85 -441q-21 -107 -93 -157.5t-167 -50.5q-86 0 -159 39zM86 197q0 -74 38.5 -115t107.5 -41t119.5 48.5t72.5 114t22 133.5q0 134 -140 134q-100 0 -160 -84t-60 -190z" />
    <glyph glyph-name="h" unicode="h" horiz-adv-x="613" 
d="M39 0l128 661h-90l8 39h132l-54 -283q-3 -16 -8 -32l-5 -14h2q25 49 88 95t142 46q68 0 102.5 -32.5t34.5 -93.5q0 -33 -25 -158t-25 -142q0 -22 8.5 -33.5t17.5 -13.5t24 -2q17 0 20 1t7 1l-8 -39q-8 0 -12 -1q-7 -1 -19 -1q-30 0 -56 17t-26 61q0 18 25 143.5t25 157.5
q0 47 -25 70.5t-69 23.5q-91 0 -164 -69.5t-91 -167.5l-45 -234h-42z" />
    <glyph glyph-name="i" unicode="i" horiz-adv-x="272" 
d="M170 627l15 73h54l-15 -73h-54zM71 79q0 15 4 30l69 352h-95l8 39h137l-76 -385q-3 -18 -3 -29q0 -31 13.5 -40t36.5 -9q18 0 21 1t6 1l-8 -39q-8 0 -12 -1q-7 -1 -19 -1q-13 0 -25 3t-26 10.5t-22.5 25t-8.5 42.5z" />
    <glyph glyph-name="j" unicode="j" horiz-adv-x="255" 
d="M175 627l14 73h54l-14 -73h-54zM56 -21l93 482h-95l8 39h137l-101 -520q-11 -58 -34.5 -98t-52.5 -57.5t-51.5 -23.5t-45.5 -6q-18 0 -25 1q-3 1 -10 1l8 39q3 0 6 -1t16 -1q18 0 36.5 5t41.5 18.5t42 45t27 76.5z" />
    <glyph glyph-name="k" unicode="k" horiz-adv-x="512" 
d="M38 0l130 661h-95l8 39h137l-78 -397h74l172 158h-73l8 39h197l-8 -39h-66l-192 -177v-2l8 -7q7 -7 16 -27l75 -166q7 -15 12 -23t17.5 -15t31.5 -7q12 0 19 1q3 1 9 1l-8 -39q-6 0 -9 -1q-7 -1 -20 -1q-21 0 -36 5.5t-27 19.5t-18 24.5t-18 35.5l-73 159q-6 14 -16 18
t-31 4h-51l-53 -264h-42z" />
    <glyph glyph-name="l" unicode="l" horiz-adv-x="256" 
d="M57 79q0 16 4 31l107 551h-95l8 39h137l-113 -584q-4 -15 -4 -31q0 -21 8.5 -32.5t17.5 -13.5t24 -2q18 0 21 1t6 1l-8 -39q-7 0 -10 -1q-7 -1 -21 -1q-13 0 -25 3t-26 10.5t-22.5 25t-8.5 42.5z" />
    <glyph glyph-name="m" unicode="m" horiz-adv-x="971" 
d="M60 0l85 439q5 22 -18 22h-73l8 39h79q28 0 38.5 -9.5t10.5 -30.5q0 -11 -6.5 -42t-13.5 -47h2q32 60 93.5 100.5t126.5 40.5q71 0 101 -34.5t30 -101.5h2q30 59 90 97.5t125 38.5q68 0 103 -33.5t35 -93.5q0 -32 -25 -156.5t-25 -142.5q0 -22 8.5 -33.5t17.5 -13.5
t24 -2q17 0 20 1t7 1l-8 -39q-8 0 -12 -1q-7 -1 -19 -1q-30 0 -56 17t-26 61q0 19 25 144t25 155q0 47 -23 72.5t-77 25.5q-84 0 -148.5 -71t-82.5 -158l-47 -244h-42l58 302q9 49 9 76q0 45 -21.5 70t-74.5 25q-83 0 -151 -70.5t-85 -159.5l-47 -243h-42z" />
    <glyph glyph-name="n" unicode="n" horiz-adv-x="634" 
d="M60 0l85 439q5 22 -18 22h-73l8 39h79q28 0 38.5 -9.5t10.5 -30.5q0 -11 -6.5 -42t-13.5 -47h2q26 51 88.5 96t145.5 45q66 0 100 -32.5t34 -92.5q0 -33 -25 -158t-25 -143q0 -22 8.5 -33.5t17.5 -13.5t24 -2q17 0 20 1t7 1l-8 -39q-8 0 -12 -1q-7 -1 -19 -1
q-30 0 -56 17t-26 61q0 18 25 143.5t25 157.5q0 94 -96 94q-88 0 -161.5 -70t-91.5 -167l-45 -234h-42z" />
    <glyph glyph-name="o" unicode="o" horiz-adv-x="622" 
d="M39 205q0 126 94 216.5t217 90.5q96 0 156 -60t60 -154q0 -126 -94.5 -218t-216.5 -92q-96 0 -156 61t-60 156zM83 206q0 -78 49 -127.5t128 -49.5q101 0 181.5 79.5t80.5 188.5q0 76 -49.5 125t-127.5 49q-102 0 -182 -78.5t-80 -186.5z" />
    <glyph glyph-name="p" unicode="p" horiz-adv-x="610" 
d="M20 -200l125 639q5 22 -18 22h-73l8 39h79q28 0 38.5 -10t10.5 -30q0 -18 -14 -60h2q28 48 77.5 80t114.5 32q88 0 135.5 -52.5t47.5 -144.5q0 -140 -81.5 -233.5t-188.5 -93.5q-61 0 -104.5 29t-58.5 84h-2q0 -10 -1 -15q-3 -24 -5 -34l-50 -252h-42zM144 187
q0 -68 35.5 -113t101.5 -45q87 0 157.5 79t70.5 205q0 74 -36.5 116t-102.5 42q-99 0 -162.5 -89t-63.5 -195z" />
    <glyph glyph-name="q" unicode="q" horiz-adv-x="588" 
d="M40 184q0 141 82 234.5t191 93.5q60 0 102.5 -29t57.5 -83h2q0 7 1 11q0 2 0.5 7.5t1.5 11l2 10.5l11 60h42l-129 -662h95l-8 -38h-137l50 252q5 23 9 34l5 15h-2q-29 -49 -78 -81t-115 -32q-88 0 -135.5 52t-47.5 144zM84 187q0 -74 37 -116t102 -42q100 0 163.5 90
t63.5 197q0 67 -34.5 111t-102.5 44q-87 0 -158 -79t-71 -205z" />
    <glyph glyph-name="r" unicode="r" horiz-adv-x="356" 
d="M60 0l85 439q5 22 -18 22h-73l8 39h79q28 0 38.5 -9.5t10.5 -30.5q0 -27 -22 -96h2q29 61 77 100.5t109 39.5q14 0 30 -3l-9 -42q-16 2 -22 2q-44 0 -82.5 -27.5t-64.5 -70.5t-43 -86.5t-26 -85.5l-37 -191h-42z" />
    <glyph glyph-name="s" unicode="s" horiz-adv-x="462" 
d="M13 101l9 48h42l-8 -43q-5 -24 8 -40.5t36.5 -23.5t44.5 -10t42 -3q59 0 104 27.5t45 75.5q0 33 -26 56t-62.5 37.5l-73 30t-62.5 44t-26 68.5q0 65 57 104.5t134 39.5q64 0 106 -26.5t33 -70.5l-11 -53h-42l10 48q7 33 -27 47t-79 14q-52 0 -94.5 -26t-42.5 -72
q0 -31 26 -53.5t62.5 -37l73 -30.5t62.5 -44t26 -67q0 -65 -55 -109t-146 -44q-72 0 -124.5 29.5t-41.5 83.5z" />
    <glyph glyph-name="t" unicode="t" horiz-adv-x="311" 
d="M83 133q0 25 6 58l52 270h-95l8 39h95l27 139h42l-27 -139h131l-8 -39h-131l-53 -277q-5 -24 -5 -49q0 -100 89 -100q18 0 21 1t8 1l-8 -39q-3 0 -6 -1t-15 -1q-131 0 -131 137z" />
    <glyph glyph-name="u" unicode="u" horiz-adv-x="635" 
d="M80 114q0 26 8 69l53 278h-94l7 39h137l-58 -300q-10 -41 -10 -80q0 -91 98 -91q89 0 160 73.5t88 165.5l37 193h-94l7 39h137l-75 -385q-3 -18 -3 -29q0 -31 13.5 -40t36.5 -9q18 0 21 1t6 1l-8 -39q-8 0 -12 -1q-7 -1 -19 -1q-55 0 -72 35.5t-2 87.5h-2
q-29 -48 -86.5 -90.5t-139.5 -42.5q-59 0 -96.5 30.5t-37.5 95.5z" />
    <glyph glyph-name="v" unicode="v" horiz-adv-x="550" 
d="M198 0l-88 461h-68l7 39h190l-7 -39h-79l70 -374q3 -7 3 -22v-10h2q3 8 4 10l11 22l216 374h-79l7 39h194l-7 -39h-68l-268 -461h-40z" />
    <glyph glyph-name="w" unicode="w" horiz-adv-x="846" 
d="M173 0l-64 461h-66l7 39h190l-7 -39h-81l48 -377q1 -7 1 -22v-10h2q3 8 4 10q8 18 10 22l221 414h46l59 -414q2 -14 2 -22v-10h2l4 10q1 1 4 9.5t5 12.5l196 377h-81l7 39h194l-7 -39h-66l-244 -461h-42l-61 411l-2 22q-1 3 -1 11h-2q-2 -8 -4 -11l-11 -22l-221 -411h-42
z" />
    <glyph glyph-name="x" unicode="x" horiz-adv-x="529" 
d="M-31 0l7 39h79l178 224l-72 179q-6 12 -10 15.5t-15 3.5h-72l7 39h82q18 0 25.5 -7t16.5 -28l59 -146q1 -3 2.5 -8.5t3.5 -8.5l3 -8h2q0 1 5 8q8 12 13 18l142 180h113l-7 -39h-87l-164 -203l72 -176q10 -23 23.5 -34t43.5 -11q18 0 25 1q3 1 10 1l-8 -39q-7 0 -11 -1
q-7 -1 -24 -1q-46 0 -66.5 20.5t-37.5 64.5l-47 120q-1 3 -2.5 8.5t-3.5 8.5l-3 8h-2l-5 -7l-13 -19l-158 -202h-104z" />
    <glyph glyph-name="y" unicode="y" horiz-adv-x="562" 
d="M-46 -183l24 34q6 -6 16 -11q22 -10 42 -10q61 0 117 90l50 82l-93 459h-68l8 39h191l-8 -39h-79l75 -381q2 -5 2 -20v-8h2l4 8l11 20l223 381h-79l8 39h195l-8 -39h-69l-336 -566q-64 -105 -148 -105q-36 0 -60 13q-10 6 -20 14z" />
    <glyph glyph-name="z" unicode="z" horiz-adv-x="507" 
d="M-10 0l6 34l374 381q42 46 47 46v2q-8 0 -13 -1q-8 -1 -37 -1h-228l-18 -95h-41l26 134h379l-7 -34l-375 -381l-22.5 -22t-18.5 -17l-7 -7v-2q8 0 13 1q9 1 38 1h256l19 95h41l-26 -134h-406z" />
    <glyph glyph-name="braceleft" unicode="{" horiz-adv-x="305" 
d="M77 28q0 20 7 60l18 94q3 18 3 32q0 48 -32 72q-13 10 -33 15l8 40q23 4 46 19q48 32 62 100l16 81q10 50 28.5 86.5t37 54.5t43 28t39 12t32.5 2l-7 -39q-14 0 -28 -3.5t-35.5 -16t-39.5 -44t-27 -79.5l-18 -93q-14 -66 -60 -104q-17 -15 -44 -23v-2q17 -9 29 -23
q28 -30 28 -76q0 -13 -3 -28l-21 -106q-6 -30 -6 -52q0 -91 81 -91l-8 -39q0 -1 -2 -1h-7q-13 0 -27.5 4t-34.5 15.5t-32.5 38.5t-12.5 66z" />
    <glyph glyph-name="bar" unicode="|" horiz-adv-x="305" 
d="M135 -155v940h43v-940h-43z" />
    <glyph glyph-name="braceright" unicode="}" horiz-adv-x="306" 
d="M-38 -96l7 40q102 0 130 143l20 105q13 69 60 107q20 17 44 23v2q-15 8 -28 23q-28 30 -28 73q0 13 3 28l18 94q6 30 6 52q0 91 -81 91l8 39q14 1 31 -2t37.5 -14t34 -38.5t13.5 -68.5q0 -20 -7 -60l-16 -82q-3 -18 -3 -32q0 -47 33 -72q13 -10 32 -15l-8 -40
q-23 -4 -46 -19q-48 -32 -62 -100l-18 -93q-10 -50 -28 -86.5t-37.5 -55.5t-42.5 -29t-39.5 -12t-32.5 -1z" />
    <glyph glyph-name="asciitilde" unicode="~" horiz-adv-x="587" 
d="M114 213h-40q0 74 31.5 109t83.5 35q31 0 55.5 -11.5t40 -27.5l30 -32t35 -27.5t45.5 -11.5q31 0 49 21t22 41.5t4 43.5h40q0 -74 -31.5 -109t-83.5 -35q-31 0 -55.5 11.5t-40 27.5l-30 32t-35 27.5t-45.5 11.5q-31 0 -49 -21t-22 -41.5t-4 -43.5z" />
    <glyph glyph-name="uni00A0" unicode="&#xa0;" horiz-adv-x="287" 
 />
    <glyph glyph-name="exclamdown" unicode="&#xa1;" horiz-adv-x="213" 
d="M105 439l13 61h59l-13 -61h-59zM-11 -200l103 525h43l-103 -525h-43z" />
    <glyph glyph-name="cent" unicode="&#xa2;" horiz-adv-x="545" 
d="M203 -13l16 85q-77 9 -120 62.5t-43 143.5q0 79 30 156t94 133.5t148 60.5l16 84h43l-17 -85q83 -10 129 -76q21 -30 28 -64l-40 -16q-8 32 -26 58q-42 58 -117 58q-110 0 -176 -90.5t-66 -218.5q0 -75 37 -120t113 -45q75 0 137 58q25 24 48 58l39 -16q-21 -35 -54 -68
q-71 -69 -160 -74l-16 -84h-43z" />
    <glyph glyph-name="sterling" unicode="&#xa3;" horiz-adv-x="603" 
d="M-7 0l8 40h90l57 293h-66l8 40h65l33 167q15 72 77 122t145 50q60 0 108 -26q19 -9 37 -26l-33 -30q-13 11 -29 20q-35 20 -83 20q-71 0 -120.5 -40.5t-59.5 -98.5l-31 -158h198l-8 -40h-198l-57 -293h326l24 120h42l-31 -160h-502z" />
    <glyph glyph-name="yen" unicode="&#xa5;" horiz-adv-x="618" 
d="M226 0l44 222h-163l7 40h163l9 42l-20 48h-134l8 40h110l-125 308h47l110 -276q3 -7 9.5 -25t10.5 -27l10 -27h2q6 10 18 26l39 52l219 277h53l-245 -308h108l-8 -40h-132l-37 -48l-9 -42h160l-7 -40h-160l-44 -222h-43z" />
    <glyph glyph-name="section" unicode="&#xa7;" horiz-adv-x="380" 
d="M94 62l26 473q4 75 54 126t128 51q39 0 69 -17q12 -7 24 -17l-30 -30q-8 8 -17 12q-17 11 -47 11q-59 0 -96 -38t-41 -96l-28 -475h-42zM-1 -28l30 30q8 -8 17 -12q17 -11 47 -11q58 0 96.5 38.5t40.5 95.5l28 475h42l-26 -473q-4 -75 -54 -126t-128 -51q-39 0 -69 17
q-12 7 -24 17z" />
    <glyph glyph-name="dieresis" unicode="&#xa8;" horiz-adv-x="509" 
d="M253 788l15 73h54l-15 -73h-54zM85 788l15 73h54l-15 -73h-54z" />
    <glyph glyph-name="copyright" unicode="&#xa9;" horiz-adv-x="825" 
d="M70 350q0 152 102.5 257t249.5 105q148 0 252 -105t104 -257t-104 -257t-252 -105q-147 0 -249.5 105t-102.5 257zM115 350q0 -136 88.5 -228t218.5 -92q132 0 221.5 92t89.5 228q0 135 -89.5 227.5t-221.5 92.5q-130 0 -218.5 -92.5t-88.5 -227.5zM219 349q0 85 57 148
t158 63q67 0 121 -44q27 -20 42 -44l-33 -29q-18 24 -34 37q-45 37 -95 37q-81 0 -126 -49.5t-45 -117.5t45 -117.5t126 -49.5q51 0 96 37q18 15 33 37l33 -29q-17 -24 -43 -44q-54 -44 -120 -44q-101 0 -158 62t-57 147z" />
    <glyph glyph-name="ordfeminine" unicode="&#xaa;" horiz-adv-x="432" 
d="M219 382q-37 0 -66 20.5t-29 61.5t24 68t63.5 37.5t66.5 13.5t57 3h21l1 5q8 39 -7 60.5t-53 21.5q-30 0 -64 -14q-14 -5 -28 -15l-17 32q15 10 32 17q38 17 78 17q101 0 101 -90q0 -18 -5 -40l-38 -192h-39l10 51h-2q-12 -16 -28 -28q-37 -29 -78 -29zM227 419
q42 0 77 43t45 88h-13q-169 0 -169 -83q0 -48 60 -48zM82 263l7 37h253l-7 -37h-253z" />
    <glyph glyph-name="guillemotleft" unicode="&#xab;" horiz-adv-x="491" 
d="M334 77l-128 208l204 203h57l-211 -208l126 -203h-48zM179 77l-128 208l192 203h57l-199 -208l126 -203h-48z" />
    <glyph glyph-name="logicalnot" unicode="&#xac;" horiz-adv-x="633" 
d="M90 343v40h456v-219h-42v179h-414z" />
    <glyph glyph-name="uni00AD" unicode="&#xad;" horiz-adv-x="527" 
d="M119 263l7 40h276l-7 -40h-276z" />
    <glyph glyph-name="registered" unicode="&#xae;" horiz-adv-x="825" 
d="M70 350q0 152 102.5 257t249.5 105q148 0 252 -105t104 -257t-104 -257t-252 -105q-147 0 -249.5 105t-102.5 257zM115 350q0 -136 88.5 -228t218.5 -92q132 0 221.5 92t89.5 228q0 135 -89.5 227.5t-221.5 92.5q-130 0 -218.5 -92.5t-88.5 -227.5zM306 150v400h133
q52 0 84 -31.5t32 -84.5q0 -43 -22 -70.5t-55 -36.5v-2l3 -5q4 -4 10 -17l79 -153h-49l-85 167h-86v-167h-44zM350 355h84q35 0 55.5 21t20.5 58q0 36 -20.5 56t-55.5 20h-84v-155z" />
    <glyph glyph-name="macron" unicode="&#xaf;" horiz-adv-x="509" 
d="M80 786l7 40h239l-7 -40h-239z" />
    <glyph glyph-name="degree" unicode="&#xb0;" horiz-adv-x="372" 
d="M221 449q-51 0 -82.5 31.5t-31.5 80.5q0 57 47.5 103t105.5 46q50 0 81.5 -31.5t31.5 -80.5q0 -59 -47 -104t-105 -45zM223 489q43 0 75 32.5t32 76.5q0 31 -20 51.5t-52 20.5q-42 0 -75 -33t-33 -76q0 -31 20 -51.5t53 -20.5z" />
    <glyph glyph-name="plusminus" unicode="&#xb1;" horiz-adv-x="600" 
d="M40 263v40h237v263h43v-263h236v-40h-236v-263h-43v263h-237zM60 -113h476v-40h-476v40z" />
    <glyph glyph-name="twosuperior" unicode="&#xb2;" horiz-adv-x="356" 
d="M336 423h-269q2 39 18.5 71t41.5 54.5t55 42.5t60 37.5t54.5 36t39.5 43t15 53.5q0 30 -20.5 50t-55.5 20q-36 0 -73 -25q-17 -10 -31 -25l-21 28q13 13 36 29q44 29 90 29q57 0 85.5 -28.5t28.5 -75.5q0 -45 -25 -80t-62.5 -58.5l-76 -45.5t-71 -52.5t-42.5 -67.5h192
l11 57h38z" />
    <glyph glyph-name="threesuperior" unicode="&#xb3;" horiz-adv-x="362" 
d="M208 413q-54 0 -104 33q-20 13 -36 32l30 24q12 -15 29 -26q39 -27 82 -27q45 0 81.5 35t36.5 84q0 36 -27 57t-64 21h-32l-7 24l139 133l17 14l7 5v2q-4 0 -7 -1q-14 -2 -20 -2h-136l-11 -57h-38l18 93h254l-5 -26l-157 -151q38 -3 73 -29.5t35 -82.5q0 -61 -47.5 -108
t-110.5 -47z" />
    <glyph glyph-name="acute" unicode="&#xb4;" horiz-adv-x="509" 
d="M110 750l116 111h68l-126 -111h-58z" />
    <glyph glyph-name="mu" unicode="&#xb5;" horiz-adv-x="576" 
d="M61 -33l-33 -167h-42l136 700h42l-58 -300q-9 -44 -9 -78q0 -93 99 -93q90 0 162 73t89 166l45 232h42l-97 -500h-42l16 83q1 4 2.5 11t3 12t2.5 9l5 14h-2q-27 -51 -88.5 -96t-144.5 -45q-84 0 -117 53h-2l-3 -29q-1 -7 -2.5 -23t-3.5 -22z" />
    <glyph glyph-name="mu" unicode="&#x3bc;" horiz-adv-x="576" 
d="M61 -33l-33 -167h-42l136 700h42l-58 -300q-9 -44 -9 -78q0 -93 99 -93q90 0 162 73t89 166l45 232h42l-97 -500h-42l16 83q1 4 2.5 11t3 12t2.5 9l5 14h-2q-27 -51 -88.5 -96t-144.5 -45q-84 0 -117 53h-2l-3 -29q-1 -7 -2.5 -23t-3.5 -22z" />
    <glyph glyph-name="paragraph" unicode="&#xb6;" horiz-adv-x="555" 
d="M220 -50l56 291q-80 0 -139.5 57t-59.5 141q0 104 86 182.5t191 78.5h220l-7 -40h-167l-138 -710h-42zM324 -50l125 647h42l-125 -647h-42z" />
    <glyph glyph-name="periodcentered" unicode="&#xb7;" horiz-adv-x="280" 
d="M101 254l12 63h61l-12 -63h-61z" />
    <glyph glyph-name="cedilla" unicode="&#xb8;" horiz-adv-x="509" 
d="M149 -92l45 110l31 -5l-1 -8l-25 -65q25 -4 41.5 -20t16.5 -44q0 -39 -31.5 -59.5t-71.5 -20.5q-19 0 -35 2l-13 3l8 37l11 -3q14 -2 28 -2q62 0 62 43q0 32 -54 32h-12z" />
    <glyph glyph-name="onesuperior" unicode="&#xb9;" horiz-adv-x="306" 
d="M64 423l7 36h106l59 307l6 27l3 10h-2l-7 -8q-15 -15 -20 -19l-61 -51l-22 29l122 103h38l-78 -398h103l-7 -36h-247z" />
    <glyph glyph-name="ordmasculine" unicode="&#xba;" horiz-adv-x="481" 
d="M259 383q-62 0 -99 37.5t-37 97.5q0 78 59.5 135.5t134.5 57.5q62 0 99.5 -38.5t37.5 -96.5q0 -79 -59.5 -136t-135.5 -57zM263 420q59 0 105.5 45.5t46.5 109.5q0 44 -28.5 71.5t-73.5 27.5q-58 0 -104.5 -45.5t-46.5 -107.5q0 -45 28 -73t73 -28zM88 263l7 37h294
l-7 -37h-294z" />
    <glyph glyph-name="guillemotright" unicode="&#xbb;" horiz-adv-x="492" 
d="M188 77l199 208l-126 203h48l128 -208l-192 -203h-57zM21 77l211 208l-126 203h48l128 -208l-204 -203h-57z" />
    <glyph glyph-name="onequarter" unicode="&#xbc;" horiz-adv-x="919" 
d="M250 0h-47l472 700h46zM56 266l7 36h106l59 307l6 27l3 10h-2l-7 -8q-16 -16 -20 -19l-61 -51l-22 29l122 103h38l-78 -398h103l-7 -36h-247zM713 0l24 121h-215l5 26l278 287h31l-54 -277h68l-7 -36h-68l-24 -121h-38zM582 157h162l34 175q1 4 3 13.5t4 13.5l4 14h-2
q-1 -1 -2.5 -3t-3 -4.5t-2.5 -3.5q-5 -7 -21 -23l-176 -180v-2z" />
    <glyph glyph-name="onehalf" unicode="&#xbd;" horiz-adv-x="896" 
d="M242 0h-47l472 700h46zM48 266l7 36h106l59 307l6 27l3 10h-2l-7 -8q-16 -16 -20 -19l-61 -51l-22 29l122 103h38l-78 -398h103l-7 -36h-247zM788 0h-269q2 39 18.5 71t41.5 54.5t55 42.5t60 37.5t54.5 36t39.5 43t15 53.5q0 30 -20.5 50t-55.5 20q-36 0 -73 -25
q-17 -11 -31 -25l-21 28q13 13 36 29q44 29 90 29q57 0 85.5 -28.5t28.5 -75.5q0 -45 -25 -80t-62.5 -58.5l-76 -45.5t-71 -52.5t-42.5 -67.5h192l11 57h38z" />
    <glyph glyph-name="threequarters" unicode="&#xbe;" horiz-adv-x="939" 
d="M266 0h-47l472 700h46zM729 0l24 121h-215l5 26l278 287h31l-54 -277h68l-7 -36h-68l-24 -121h-38zM598 157h162l34 175q1 4 3 13.5t4 13.5l4 14h-2q-1 -1 -2.5 -3t-3 -4.5t-2.5 -3.5q-5 -7 -21 -23l-176 -180v-2zM199 256q-55 0 -104 33q-20 13 -36 32l30 24
q12 -15 29 -26q39 -27 82 -27q45 0 81.5 35t36.5 84q0 36 -27 57t-64 21h-32l-7 24l139 133l17 14l7 5v2q-4 0 -7 -1q-14 -2 -20 -2h-136l-11 -57h-38l18 93h254l-5 -26l-157 -151q38 -3 73 -29.5t35 -82.5q0 -61 -47.5 -108t-110.5 -47z" />
    <glyph glyph-name="questiondown" unicode="&#xbf;" horiz-adv-x="445" 
d="M260 439l13 61h59l-13 -61h-59zM-7 -65q0 49 22 89.5t55.5 69t68 55t63 61t37.5 73.5l9 42h43l-9 -42q-10 -47 -39 -86.5t-62.5 -66.5l-66 -54t-54 -62t-21.5 -77q0 -46 33 -75.5t89 -29.5q48 0 96 21q20 9 40 21l17 -37q-22 -14 -46 -24q-54 -23 -109 -23
q-77 0 -121.5 40t-44.5 105z" />
    <glyph glyph-name="Agrave" unicode="&#xc0;" horiz-adv-x="709" 
d="M-47 0l8 40h74l376 660h46l118 -660h75l-8 -40h-204l8 40h85l-36 202h-297l-115 -202h85l-8 -40h-207zM221 282h267l-58 327l-3 26q-1 4 -1 12h-2q-1 -4 -5 -12q-8 -19 -12 -26zM428 750l-82 111h62l72 -111h-52z" />
    <glyph glyph-name="Aacute" unicode="&#xc1;" horiz-adv-x="709" 
d="M-47 0l8 40h74l376 660h46l118 -660h75l-8 -40h-204l8 40h85l-36 202h-297l-115 -202h85l-8 -40h-207zM221 282h267l-58 327l-3 26q-1 4 -1 12h-2q-1 -4 -5 -12q-8 -19 -12 -26zM404 750l116 111h68l-126 -111h-58z" />
    <glyph glyph-name="Acircumflex" unicode="&#xc2;" horiz-adv-x="709" 
d="M-47 0l8 40h74l376 660h46l118 -660h75l-8 -40h-204l8 40h85l-36 202h-297l-115 -202h85l-8 -40h-207zM221 282h267l-58 327l-3 26q-1 4 -1 12h-2q-1 -4 -5 -12q-8 -19 -12 -26zM331 750l102 111h60l58 -111h-50l-40 80h-2l-72 -80h-56z" />
    <glyph glyph-name="Atilde" unicode="&#xc3;" horiz-adv-x="709" 
d="M-47 0l8 40h74l376 660h46l118 -660h75l-8 -40h-204l8 40h85l-36 202h-297l-115 -202h85l-8 -40h-207zM221 282h267l-58 327l-3 26q-1 4 -1 12h-2q-1 -4 -5 -12q-8 -19 -12 -26zM348 753h-44q20 108 97 108q23 0 40 -11.5t24.5 -24.5t19 -24.5t25.5 -11.5q6 0 11 1.5t9 5
t7.5 7t6.5 9t5 9.5t4.5 10.5t3.5 9.5t3 9.5t2 7.5h44q-20 -108 -97 -108q-23 0 -40 11t-24.5 25t-19 25t-25.5 11q-37 0 -52 -69z" />
    <glyph glyph-name="Adieresis" unicode="&#xc4;" horiz-adv-x="709" 
d="M-47 0l8 40h74l376 660h46l118 -660h75l-8 -40h-204l8 40h85l-36 202h-297l-115 -202h85l-8 -40h-207zM221 282h267l-58 327l-3 26q-1 4 -1 12h-2q-1 -4 -5 -12q-8 -19 -12 -26zM509 788l15 73h54l-15 -73h-54zM341 788l15 73h54l-15 -73h-54z" />
    <glyph glyph-name="Aring" unicode="&#xc5;" horiz-adv-x="709" 
d="M-47 0l8 40h74l376 660h46l118 -660h75l-8 -40h-204l8 40h85l-36 202h-297l-115 -202h85l-8 -40h-207zM221 282h267l-58 327l-3 26q-1 4 -1 12h-2q-1 -4 -5 -12q-8 -19 -12 -26zM446 733q-29 0 -48 18t-19 46q0 34 26.5 59t59.5 25q30 0 49 -17.5t19 -46.5
q0 -33 -26.5 -58.5t-60.5 -25.5zM448 770q20 0 32.5 13.5t12.5 33.5q0 28 -30 28q-18 0 -31 -13.5t-13 -33.5q0 -28 29 -28z" />
    <glyph glyph-name="AE" unicode="&#xc6;" horiz-adv-x="907" 
d="M-43 0l8 40h67l375 620h-81l8 40h573l-26 -130h-42l18 90h-303l-56 -287h279l-8 -40h-279l-57 -293h323l18 91h42l-26 -131h-498l8 40h90l57 293h-191l-177 -293h81l-8 -40h-195zM281 373h174l56 287h-56z" />
    <glyph glyph-name="Ccedilla" unicode="&#xc7;" horiz-adv-x="745" 
d="M296 -92l33 82q-121 12 -191.5 93.5t-70.5 206.5q0 86 35.5 165t94 134.5t135.5 89t157 33.5q34 0 72.5 -6t81 -19.5t66 -43t15.5 -69.5l-13 -67h-44l11 60q6 28 -11.5 49.5t-49.5 32.5t-65 16.5t-64 5.5q-97 0 -183.5 -50t-139.5 -137.5t-53 -189.5q0 -118 70 -191.5
t184 -73.5q34 0 71.5 6.5t74 18.5t62.5 33.5t32 48.5l11 55h44l-13 -65q-9 -47 -59 -79.5t-108 -45.5t-114 -13h-3l-18 -48q25 -4 41.5 -20t16.5 -44q0 -39 -31.5 -59.5t-71.5 -20.5q-19 0 -35 2l-13 3l8 37l11 -3q14 -2 28 -2q62 0 62 43q0 32 -54 32h-12z" />
    <glyph glyph-name="Egrave" unicode="&#xc8;" horiz-adv-x="617" 
d="M-2 0l8 40h94l121 620h-95l8 40h483l-26 -130h-42l18 90h-303l-56 -287h279l-8 -40h-279l-57 -293h323l19 96h42l-27 -136h-502zM385 750l-82 111h62l72 -111h-52z" />
    <glyph glyph-name="Eacute" unicode="&#xc9;" horiz-adv-x="617" 
d="M-2 0l8 40h94l121 620h-95l8 40h483l-26 -130h-42l18 90h-303l-56 -287h279l-8 -40h-279l-57 -293h323l19 96h42l-27 -136h-502zM361 750l116 111h68l-126 -111h-58z" />
    <glyph glyph-name="Ecircumflex" unicode="&#xca;" horiz-adv-x="617" 
d="M-2 0l8 40h94l121 620h-95l8 40h483l-26 -130h-42l18 90h-303l-56 -287h279l-8 -40h-279l-57 -293h323l19 96h42l-27 -136h-502zM288 750l102 111h60l58 -111h-50l-40 80h-2l-72 -80h-56z" />
    <glyph glyph-name="Edieresis" unicode="&#xcb;" horiz-adv-x="617" 
d="M-2 0l8 40h94l121 620h-95l8 40h483l-26 -130h-42l18 90h-303l-56 -287h279l-8 -40h-279l-57 -293h323l19 96h42l-27 -136h-502zM466 788l15 73h54l-15 -73h-54zM298 788l15 73h54l-15 -73h-54z" />
    <glyph glyph-name="Igrave" unicode="&#xcc;" horiz-adv-x="343" 
d="M-2 0l8 40h94l121 620h-95l8 40h233l-8 -40h-95l-121 -620h95l-8 -40h-232zM242 750l-82 111h62l72 -111h-52z" />
    <glyph glyph-name="Iacute" unicode="&#xcd;" horiz-adv-x="343" 
d="M-2 0l8 40h94l121 620h-95l8 40h233l-8 -40h-95l-121 -620h95l-8 -40h-232zM218 750l116 111h68l-126 -111h-58z" />
    <glyph glyph-name="Icircumflex" unicode="&#xce;" horiz-adv-x="343" 
d="M-2 0l8 40h94l121 620h-95l8 40h233l-8 -40h-95l-121 -620h95l-8 -40h-232zM145 750l102 111h60l58 -111h-50l-40 80h-2l-72 -80h-56z" />
    <glyph glyph-name="Idieresis" unicode="&#xcf;" horiz-adv-x="343" 
d="M-2 0l8 40h94l121 620h-95l8 40h233l-8 -40h-95l-121 -620h95l-8 -40h-232zM323 788l15 73h54l-15 -73h-54zM155 788l15 73h54l-15 -73h-54z" />
    <glyph glyph-name="Eth" unicode="&#xd0;" horiz-adv-x="784" 
d="M-2 0l8 40h94l57 293h-80l8 40h80l56 287h-95l8 40h305q140 0 219.5 -71t79.5 -199q0 -180 -117.5 -305t-298.5 -125h-324zM143 40h170q164 0 272 111t108 277q0 112 -68.5 172t-190.5 60h-169l-57 -287h183l-8 -40h-183z" />
    <glyph glyph-name="Ntilde" unicode="&#xd1;" horiz-adv-x="824" 
d="M-2 0l8 40h94l121 620h-95l8 40h133l318 -601q2 -4 5 -12.5t4 -9.5l4 -12h2q0 9 1 14q3 22 4 25l109 556h-95l8 40h233l-8 -40h-95l-129 -660h-39l-319 602l-9 22l-3 12h-2q0 -9 -1 -14q-3 -22 -4 -25l-108 -557h95l-8 -40h-232zM410 753h-44q20 108 97 108
q23 0 40 -11.5t24.5 -24.5t19 -24.5t25.5 -11.5q6 0 11 1.5t9 5t7.5 7t6.5 9t5 9.5t4.5 10.5t3.5 9.5t3 9.5t2 7.5h44q-20 -108 -97 -108q-23 0 -40 11t-24.5 25t-19 25t-25.5 11q-37 0 -52 -69z" />
    <glyph glyph-name="Ograve" unicode="&#xd2;" horiz-adv-x="829" 
d="M66 288q0 112 61 210.5t160 156t207 57.5q130 0 211.5 -82t81.5 -210q0 -86 -36.5 -166.5t-96 -138t-137.5 -92.5t-158 -35q-129 0 -211 84t-82 216zM111 288q0 -114 70.5 -186.5t182.5 -72.5q93 0 180.5 52.5t142.5 143.5t55 194q0 111 -70.5 181.5t-182.5 70.5
q-95 0 -182 -51.5t-141.5 -140.5t-54.5 -191zM488 750l-82 111h62l72 -111h-52z" />
    <glyph glyph-name="Oacute" unicode="&#xd3;" horiz-adv-x="829" 
d="M66 288q0 112 61 210.5t160 156t207 57.5q130 0 211.5 -82t81.5 -210q0 -86 -36.5 -166.5t-96 -138t-137.5 -92.5t-158 -35q-129 0 -211 84t-82 216zM111 288q0 -114 70.5 -186.5t182.5 -72.5q93 0 180.5 52.5t142.5 143.5t55 194q0 111 -70.5 181.5t-182.5 70.5
q-95 0 -182 -51.5t-141.5 -140.5t-54.5 -191zM464 750l116 111h68l-126 -111h-58z" />
    <glyph glyph-name="Ocircumflex" unicode="&#xd4;" horiz-adv-x="829" 
d="M66 288q0 112 61 210.5t160 156t207 57.5q130 0 211.5 -82t81.5 -210q0 -86 -36.5 -166.5t-96 -138t-137.5 -92.5t-158 -35q-129 0 -211 84t-82 216zM111 288q0 -114 70.5 -186.5t182.5 -72.5q93 0 180.5 52.5t142.5 143.5t55 194q0 111 -70.5 181.5t-182.5 70.5
q-95 0 -182 -51.5t-141.5 -140.5t-54.5 -191zM391 750l102 111h60l58 -111h-50l-40 80h-2l-72 -80h-56z" />
    <glyph glyph-name="Otilde" unicode="&#xd5;" horiz-adv-x="829" 
d="M66 288q0 112 61 210.5t160 156t207 57.5q130 0 211.5 -82t81.5 -210q0 -86 -36.5 -166.5t-96 -138t-137.5 -92.5t-158 -35q-129 0 -211 84t-82 216zM111 288q0 -114 70.5 -186.5t182.5 -72.5q93 0 180.5 52.5t142.5 143.5t55 194q0 111 -70.5 181.5t-182.5 70.5
q-95 0 -182 -51.5t-141.5 -140.5t-54.5 -191zM408 753h-44q20 108 97 108q23 0 40 -11.5t24.5 -24.5t19 -24.5t25.5 -11.5q6 0 11 1.5t9 5t7.5 7t6.5 9t5 9.5t4.5 10.5t3.5 9.5t3 9.5t2 7.5h44q-20 -108 -97 -108q-23 0 -40 11t-24.5 25t-19 25t-25.5 11q-37 0 -52 -69z" />
    <glyph glyph-name="Odieresis" unicode="&#xd6;" horiz-adv-x="829" 
d="M66 288q0 112 61 210.5t160 156t207 57.5q130 0 211.5 -82t81.5 -210q0 -86 -36.5 -166.5t-96 -138t-137.5 -92.5t-158 -35q-129 0 -211 84t-82 216zM111 288q0 -114 70.5 -186.5t182.5 -72.5q93 0 180.5 52.5t142.5 143.5t55 194q0 111 -70.5 181.5t-182.5 70.5
q-95 0 -182 -51.5t-141.5 -140.5t-54.5 -191zM569 788l15 73h54l-15 -73h-54zM401 788l15 73h54l-15 -73h-54z" />
    <glyph glyph-name="multiply" unicode="&#xd7;" horiz-adv-x="600" 
d="M47 28l224 255l-224 255l28 28l223 -253l223 253l28 -28l-225 -255l225 -255l-28 -28l-223 253l-223 -253z" />
    <glyph glyph-name="Oslash" unicode="&#xd8;" horiz-adv-x="828" 
d="M80 3l66 72q-80 83 -80 213q0 111 61 210t159 156.5t203 57.5q109 0 186 -58l64 70l32 -27l-64 -70q80 -82 80 -207q0 -114 -61.5 -214.5t-159 -159t-202.5 -58.5q-113 0 -187 59l-64 -70zM176 107l470 515q-68 49 -157 49q-95 0 -182 -51.5t-141.5 -140.5t-54.5 -191
q0 -110 65 -181zM677 594l-471 -515q67 -50 158 -50q93 0 180.5 52.5t142.5 143.5t55 194q0 105 -65 175z" />
    <glyph glyph-name="Ugrave" unicode="&#xd9;" horiz-adv-x="788" 
d="M116 182q0 43 10 83l77 395h-95l8 40h233l-8 -40h-95l-77 -396q-9 -45 -9 -77q0 -73 48 -115.5t134 -42.5q96 0 161 49q77 57 98 167l82 415h-95l8 40h233l-8 -40h-95l-84 -425q-26 -132 -120 -195q-76 -52 -182 -52q-102 0 -163 53.5t-61 140.5zM465 750l-82 111h62
l72 -111h-52z" />
    <glyph glyph-name="Uacute" unicode="&#xda;" horiz-adv-x="788" 
d="M116 182q0 43 10 83l77 395h-95l8 40h233l-8 -40h-95l-77 -396q-9 -45 -9 -77q0 -73 48 -115.5t134 -42.5q96 0 161 49q77 57 98 167l82 415h-95l8 40h233l-8 -40h-95l-84 -425q-26 -132 -120 -195q-76 -52 -182 -52q-102 0 -163 53.5t-61 140.5zM441 750l116 111h68
l-126 -111h-58z" />
    <glyph glyph-name="Ucircumflex" unicode="&#xdb;" horiz-adv-x="788" 
d="M116 182q0 43 10 83l77 395h-95l8 40h233l-8 -40h-95l-77 -396q-9 -45 -9 -77q0 -73 48 -115.5t134 -42.5q96 0 161 49q77 57 98 167l82 415h-95l8 40h233l-8 -40h-95l-84 -425q-26 -132 -120 -195q-76 -52 -182 -52q-102 0 -163 53.5t-61 140.5zM368 750l102 111h60
l58 -111h-50l-40 80h-2l-72 -80h-56z" />
    <glyph glyph-name="Udieresis" unicode="&#xdc;" horiz-adv-x="788" 
d="M116 182q0 43 10 83l77 395h-95l8 40h233l-8 -40h-95l-77 -396q-9 -45 -9 -77q0 -73 48 -115.5t134 -42.5q96 0 161 49q77 57 98 167l82 415h-95l8 40h233l-8 -40h-95l-84 -425q-26 -132 -120 -195q-76 -52 -182 -52q-102 0 -163 53.5t-61 140.5zM546 788l15 73h54
l-15 -73h-54zM378 788l15 73h54l-15 -73h-54z" />
    <glyph glyph-name="Yacute" unicode="&#xdd;" horiz-adv-x="636" 
d="M144 0l8 40h95l52 264l-146 356h-71l8 40h202l-8 -40h-83l116 -287q2 -3 3.5 -8t2.5 -8q2 -6 2 -9h2q1 3 6 8l13 17l229 287h-83l8 40h205l-8 -40h-71l-284 -356l-52 -264h95l-8 -40h-233zM365 750l116 111h68l-126 -111h-58z" />
    <glyph glyph-name="Thorn" unicode="&#xde;" horiz-adv-x="636" 
d="M-2 0l8 40h94l121 620h-95l8 40h233l-8 -40h-95l-18 -90h182q84 0 133.5 -45t49.5 -124q0 -106 -75 -173.5t-176 -67.5h-193l-24 -120h95l-8 -40h-232zM174 200h185q85 0 146 56t61 149q0 60 -38 92.5t-105 32.5h-185z" />
    <glyph glyph-name="germandbls" unicode="&#xdf;" horiz-adv-x="567" 
d="M39 0l104 539q15 79 78 126t134 47t109 -34.5t38 -87.5q0 -33 -17 -62t-41 -49.5t-48 -39t-41 -38.5t-17 -41q0 -22 26 -46.5t57.5 -45t57.5 -54.5t26 -72q0 -61 -51.5 -105t-120.5 -44q-62 0 -116 18q-21 7 -42 17l9 44q13 -8 40 -19q47 -19 108 -19q48 0 88 28t40 80
q0 25 -17.5 48.5t-42 41.5l-49 36.5t-42 42t-17.5 48.5q0 33 26 64.5t56.5 51.5t56.5 50.5t26 62.5q0 34 -26 58.5t-76 24.5q-57 0 -107 -38.5t-64 -103.5l-103 -529h-42z" />
    <glyph glyph-name="agrave" unicode="&#xe0;" horiz-adv-x="535" 
d="M8 111q0 40 15.5 71.5t43 52t60.5 35t73.5 22t76.5 10.5t74 3h39q4 19 5 25q4 20 4 39q0 49 -25 75.5t-87 26.5q-54 0 -108 -24q-23 -10 -43 -24l-18 38q23 16 48 26q60 25 126 25q151 0 151 -135q0 -32 -27 -152t-27 -139q0 -31 13.5 -40t36.5 -9q18 0 21 1t6 1l-8 -39
q-8 0 -12 -1q-7 -1 -19 -1q-45 0 -66 27.5t-13 76.5h-2q1 0 -7 -11.5t-24 -28.5t-38 -34t-54.5 -28.5t-66.5 -11.5q-64 0 -106 33.5t-42 89.5zM52 117q0 -38 27.5 -64t81.5 -26q75 0 135.5 66.5t80.5 147.5l6 25h-32q-299 0 -299 -149zM297 589l-82 111h62l72 -111h-52z" />
    <glyph glyph-name="aacute" unicode="&#xe1;" horiz-adv-x="535" 
d="M8 111q0 40 15.5 71.5t43 52t60.5 35t73.5 22t76.5 10.5t74 3h39q4 19 5 25q4 20 4 39q0 49 -25 75.5t-87 26.5q-54 0 -108 -24q-23 -10 -43 -24l-18 38q23 16 48 26q60 25 126 25q151 0 151 -135q0 -32 -27 -152t-27 -139q0 -31 13.5 -40t36.5 -9q18 0 21 1t6 1l-8 -39
q-8 0 -12 -1q-7 -1 -19 -1q-45 0 -66 27.5t-13 76.5h-2q1 0 -7 -11.5t-24 -28.5t-38 -34t-54.5 -28.5t-66.5 -11.5q-64 0 -106 33.5t-42 89.5zM52 117q0 -38 27.5 -64t81.5 -26q75 0 135.5 66.5t80.5 147.5l6 25h-32q-299 0 -299 -149zM273 589l116 111h68l-126 -111h-58z
" />
    <glyph glyph-name="acircumflex" unicode="&#xe2;" horiz-adv-x="535" 
d="M8 111q0 40 15.5 71.5t43 52t60.5 35t73.5 22t76.5 10.5t74 3h39q4 19 5 25q4 20 4 39q0 49 -25 75.5t-87 26.5q-54 0 -108 -24q-23 -10 -43 -24l-18 38q23 16 48 26q60 25 126 25q151 0 151 -135q0 -32 -27 -152t-27 -139q0 -31 13.5 -40t36.5 -9q18 0 21 1t6 1l-8 -39
q-8 0 -12 -1q-7 -1 -19 -1q-45 0 -66 27.5t-13 76.5h-2q1 0 -7 -11.5t-24 -28.5t-38 -34t-54.5 -28.5t-66.5 -11.5q-64 0 -106 33.5t-42 89.5zM52 117q0 -38 27.5 -64t81.5 -26q75 0 135.5 66.5t80.5 147.5l6 25h-32q-299 0 -299 -149zM200 589l102 111h60l58 -111h-50
l-40 80h-2l-72 -80h-56z" />
    <glyph glyph-name="atilde" unicode="&#xe3;" horiz-adv-x="535" 
d="M8 111q0 40 15.5 71.5t43 52t60.5 35t73.5 22t76.5 10.5t74 3h39q4 19 5 25q4 20 4 39q0 49 -25 75.5t-87 26.5q-54 0 -108 -24q-23 -10 -43 -24l-18 38q23 16 48 26q60 25 126 25q151 0 151 -135q0 -32 -27 -152t-27 -139q0 -31 13.5 -40t36.5 -9q18 0 21 1t6 1l-8 -39
q-8 0 -12 -1q-7 -1 -19 -1q-45 0 -66 27.5t-13 76.5h-2q1 0 -7 -11.5t-24 -28.5t-38 -34t-54.5 -28.5t-66.5 -11.5q-64 0 -106 33.5t-42 89.5zM52 117q0 -38 27.5 -64t81.5 -26q75 0 135.5 66.5t80.5 147.5l6 25h-32q-299 0 -299 -149zM217 592h-44q19 108 97 108
q23 0 40 -11t24.5 -25t19 -25t25.5 -11q6 0 11 1.5t9 5t7.5 7t6.5 9t5 9.5t4.5 10.5t3.5 9.5t3 9.5t2 7.5h44q-10 -53 -35 -80.5t-62 -27.5q-23 0 -40 11.5t-24.5 24.5t-19 24.5t-25.5 11.5q-37 0 -52 -69z" />
    <glyph glyph-name="adieresis" unicode="&#xe4;" horiz-adv-x="535" 
d="M8 111q0 40 15.5 71.5t43 52t60.5 35t73.5 22t76.5 10.5t74 3h39q4 19 5 25q4 20 4 39q0 49 -25 75.5t-87 26.5q-54 0 -108 -24q-23 -10 -43 -24l-18 38q23 16 48 26q60 25 126 25q151 0 151 -135q0 -32 -27 -152t-27 -139q0 -31 13.5 -40t36.5 -9q18 0 21 1t6 1l-8 -39
q-8 0 -12 -1q-7 -1 -19 -1q-45 0 -66 27.5t-13 76.5h-2q1 0 -7 -11.5t-24 -28.5t-38 -34t-54.5 -28.5t-66.5 -11.5q-64 0 -106 33.5t-42 89.5zM52 117q0 -38 27.5 -64t81.5 -26q75 0 135.5 66.5t80.5 147.5l6 25h-32q-299 0 -299 -149zM378 627l15 73h54l-15 -73h-54z
M210 627l15 73h54l-15 -73h-54z" />
    <glyph glyph-name="aring" unicode="&#xe5;" horiz-adv-x="535" 
d="M8 111q0 40 15.5 71.5t43 52t60.5 35t73.5 22t76.5 10.5t74 3h39q4 19 5 25q4 20 4 39q0 49 -25 75.5t-87 26.5q-54 0 -108 -24q-23 -10 -43 -24l-18 38q23 16 48 26q60 25 126 25q151 0 151 -135q0 -32 -27 -152t-27 -139q0 -31 13.5 -40t36.5 -9q18 0 21 1t6 1l-8 -39
q-8 0 -12 -1q-7 -1 -19 -1q-45 0 -66 27.5t-13 76.5h-2q1 0 -7 -11.5t-24 -28.5t-38 -34t-54.5 -28.5t-66.5 -11.5q-64 0 -106 33.5t-42 89.5zM52 117q0 -38 27.5 -64t81.5 -26q75 0 135.5 66.5t80.5 147.5l6 25h-32q-299 0 -299 -149zM315 572q-29 0 -48 18t-19 46
q0 34 26.5 59t59.5 25q30 0 49 -17.5t19 -46.5q0 -33 -26.5 -58.5t-60.5 -25.5zM317 609q20 0 32.5 13.5t12.5 33.5q0 28 -30 28q-18 0 -31 -13.5t-13 -33.5q0 -28 29 -28z" />
    <glyph glyph-name="ae" unicode="&#xe6;" horiz-adv-x="871" 
d="M10 113q0 187 313 187h64q9 50 9 70q0 101 -117 101q-49 0 -103 -24q-25 -11 -44 -24l-18 38q22 16 47 26q56 25 118 25q150 0 157 -108h2q81 108 213 108q87 0 131 -47.5t44 -130.5q0 -18 -6 -48l-6 -25h-393l-3 -17q-3 -15 -3 -39q0 -82 42 -129t124 -47q58 0 120 32
q21 11 48 31l16 -38q-23 -17 -53 -33q-64 -33 -129 -33q-83 0 -136.5 39.5t-67.5 109.5h-2q-6 -14 -20.5 -35t-41 -48.5t-68.5 -46.5t-90 -19q-64 0 -105.5 33t-41.5 92zM433 300h345l2 13q1 8 1 27q0 67 -37 100t-93 33q-72 0 -130.5 -44.5t-87.5 -128.5zM55 116
q0 -39 28 -64t81 -25q76 0 135 65.5t76 146.5l5 22h-69q-256 0 -256 -145z" />
    <glyph glyph-name="ccedilla" unicode="&#xe7;" horiz-adv-x="545" 
d="M190 -92l33 83q-83 10 -133.5 66t-50.5 147q0 129 96 218.5t217 89.5q36 0 72 -9.5t63 -34t21 -59.5l-9 -49h-42l7 39q5 35 -34 53.5t-86 18.5q-97 0 -179 -77t-82 -188q0 -84 50 -130.5t129 -46.5q70 0 131 36q27 16 49 36l16 -38q-25 -21 -53 -37q-70 -38 -145 -38h-2
l-18 -48q25 -4 41.5 -20t16.5 -44q0 -39 -31.5 -59.5t-71.5 -20.5q-19 0 -35 2l-13 3l8 37l11 -3q14 -2 28 -2q62 0 62 43q0 32 -54 32h-12z" />
    <glyph glyph-name="egrave" unicode="&#xe8;" horiz-adv-x="550" 
d="M39 197q0 124 84.5 219.5t209.5 95.5q85 0 128 -48.5t43 -128.5q0 -23 -6 -53q-3 -16 -7 -25h-401l-3 -16q-3 -15 -3 -39q0 -76 46 -124.5t130 -48.5q57 0 119 32q21 11 48 31l16 -38q-23 -17 -53 -33q-64 -33 -132 -33q-97 0 -158 56.5t-61 152.5zM100 296h355l2 12
q2 16 2 30q0 67 -35.5 101t-93.5 34q-72 0 -136.5 -46.5t-93.5 -130.5zM339 589l-82 111h62l72 -111h-52z" />
    <glyph glyph-name="eacute" unicode="&#xe9;" horiz-adv-x="550" 
d="M39 197q0 124 84.5 219.5t209.5 95.5q85 0 128 -48.5t43 -128.5q0 -23 -6 -53q-3 -16 -7 -25h-401l-3 -16q-3 -15 -3 -39q0 -76 46 -124.5t130 -48.5q57 0 119 32q21 11 48 31l16 -38q-23 -17 -53 -33q-64 -33 -132 -33q-97 0 -158 56.5t-61 152.5zM100 296h355l2 12
q2 16 2 30q0 67 -35.5 101t-93.5 34q-72 0 -136.5 -46.5t-93.5 -130.5zM315 589l116 111h68l-126 -111h-58z" />
    <glyph glyph-name="ecircumflex" unicode="&#xea;" horiz-adv-x="550" 
d="M39 197q0 124 84.5 219.5t209.5 95.5q85 0 128 -48.5t43 -128.5q0 -23 -6 -53q-3 -16 -7 -25h-401l-3 -16q-3 -15 -3 -39q0 -76 46 -124.5t130 -48.5q57 0 119 32q21 11 48 31l16 -38q-23 -17 -53 -33q-64 -33 -132 -33q-97 0 -158 56.5t-61 152.5zM100 296h355l2 12
q2 16 2 30q0 67 -35.5 101t-93.5 34q-72 0 -136.5 -46.5t-93.5 -130.5zM242 589l102 111h60l58 -111h-50l-40 80h-2l-72 -80h-56z" />
    <glyph glyph-name="edieresis" unicode="&#xeb;" horiz-adv-x="550" 
d="M39 197q0 124 84.5 219.5t209.5 95.5q85 0 128 -48.5t43 -128.5q0 -23 -6 -53q-3 -16 -7 -25h-401l-3 -16q-3 -15 -3 -39q0 -76 46 -124.5t130 -48.5q57 0 119 32q21 11 48 31l16 -38q-23 -17 -53 -33q-64 -33 -132 -33q-97 0 -158 56.5t-61 152.5zM100 296h355l2 12
q2 16 2 30q0 67 -35.5 101t-93.5 34q-72 0 -136.5 -46.5t-93.5 -130.5zM420 627l15 73h54l-15 -73h-54zM252 627l15 73h54l-15 -73h-54z" />
    <glyph glyph-name="igrave" unicode="&#xec;" horiz-adv-x="272" 
d="M71 79q0 15 4 30l69 352h-95l8 39h137l-76 -385q-3 -18 -3 -29q0 -31 13.5 -40t36.5 -9q18 0 21 1t6 1l-8 -39q-8 0 -12 -1q-7 -1 -19 -1q-13 0 -25 3t-26 10.5t-22.5 25t-8.5 42.5zM174 589l-82 111h62l72 -111h-52z" />
    <glyph glyph-name="iacute" unicode="&#xed;" horiz-adv-x="272" 
d="M71 79q0 15 4 30l69 352h-95l8 39h137l-76 -385q-3 -18 -3 -29q0 -31 13.5 -40t36.5 -9q18 0 21 1t6 1l-8 -39q-8 0 -12 -1q-7 -1 -19 -1q-13 0 -25 3t-26 10.5t-22.5 25t-8.5 42.5zM150 589l116 111h68l-126 -111h-58z" />
    <glyph glyph-name="icircumflex" unicode="&#xee;" horiz-adv-x="272" 
d="M71 79q0 15 4 30l69 352h-95l8 39h137l-76 -385q-3 -18 -3 -29q0 -31 13.5 -40t36.5 -9q18 0 21 1t6 1l-8 -39q-8 0 -12 -1q-7 -1 -19 -1q-13 0 -25 3t-26 10.5t-22.5 25t-8.5 42.5zM77 589l102 111h60l58 -111h-50l-40 80h-2l-72 -80h-56z" />
    <glyph glyph-name="idieresis" unicode="&#xef;" horiz-adv-x="272" 
d="M71 79q0 15 4 30l69 352h-95l8 39h137l-76 -385q-3 -18 -3 -29q0 -31 13.5 -40t36.5 -9q18 0 21 1t6 1l-8 -39q-8 0 -12 -1q-7 -1 -19 -1q-13 0 -25 3t-26 10.5t-22.5 25t-8.5 42.5zM243 627l15 73h54l-15 -73h-54zM99 627l15 73h54l-15 -73h-54z" />
    <glyph glyph-name="eth" unicode="&#xf0;" horiz-adv-x="591" 
d="M38 183q0 109 78 197t206 88q73 0 123 -34q20 -13 35 -35h2q-17 118 -102 186l-187 -80l-10 37l161 69q-62 36 -143 59l18 35q104 -28 169 -75l139 59l11 -37l-116 -49q106 -95 106 -249q0 -56 -17.5 -117t-51.5 -118t-93.5 -94t-134.5 -37q-93 0 -143 56t-50 139z
M82 185q0 -67 39 -112t110 -45q103 0 173.5 88.5t70.5 180.5q0 59 -41.5 95t-112.5 36q-97 0 -168 -72t-71 -171z" />
    <glyph glyph-name="ntilde" unicode="&#xf1;" horiz-adv-x="634" 
d="M60 0l85 439q5 22 -18 22h-73l8 39h79q28 0 38.5 -9.5t10.5 -30.5q0 -11 -6.5 -42t-13.5 -47h2q26 51 88.5 96t145.5 45q66 0 100 -32.5t34 -92.5q0 -33 -25 -158t-25 -143q0 -22 8.5 -33.5t17.5 -13.5t24 -2q17 0 20 1t7 1l-8 -39q-8 0 -12 -1q-7 -1 -19 -1
q-30 0 -56 17t-26 61q0 18 25 143.5t25 157.5q0 94 -96 94q-88 0 -161.5 -70t-91.5 -167l-45 -234h-42zM295 592h-44q19 108 97 108q23 0 40 -11t24.5 -25t19 -25t25.5 -11q6 0 11 1.5t9 5t7.5 7t6.5 9t5 9.5t4.5 10.5t3.5 9.5t3 9.5t2 7.5h44q-10 -53 -35 -80.5t-62 -27.5
q-23 0 -40 11.5t-24.5 24.5t-19 24.5t-25.5 11.5q-37 0 -52 -69z" />
    <glyph glyph-name="ograve" unicode="&#xf2;" horiz-adv-x="622" 
d="M39 205q0 126 94 216.5t217 90.5q96 0 156 -60t60 -154q0 -126 -94.5 -218t-216.5 -92q-96 0 -156 61t-60 156zM83 206q0 -78 49 -127.5t128 -49.5q101 0 181.5 79.5t80.5 188.5q0 76 -49.5 125t-127.5 49q-102 0 -182 -78.5t-80 -186.5zM353 589l-82 111h62l72 -111h-52
z" />
    <glyph glyph-name="oacute" unicode="&#xf3;" horiz-adv-x="622" 
d="M39 205q0 126 94 216.5t217 90.5q96 0 156 -60t60 -154q0 -126 -94.5 -218t-216.5 -92q-96 0 -156 61t-60 156zM83 206q0 -78 49 -127.5t128 -49.5q101 0 181.5 79.5t80.5 188.5q0 76 -49.5 125t-127.5 49q-102 0 -182 -78.5t-80 -186.5zM329 589l116 111h68l-126 -111
h-58z" />
    <glyph glyph-name="ocircumflex" unicode="&#xf4;" horiz-adv-x="622" 
d="M39 205q0 126 94 216.5t217 90.5q96 0 156 -60t60 -154q0 -126 -94.5 -218t-216.5 -92q-96 0 -156 61t-60 156zM83 206q0 -78 49 -127.5t128 -49.5q101 0 181.5 79.5t80.5 188.5q0 76 -49.5 125t-127.5 49q-102 0 -182 -78.5t-80 -186.5zM256 589l102 111h60l58 -111h-50
l-40 80h-2l-72 -80h-56z" />
    <glyph glyph-name="otilde" unicode="&#xf5;" horiz-adv-x="622" 
d="M39 205q0 126 94 216.5t217 90.5q96 0 156 -60t60 -154q0 -126 -94.5 -218t-216.5 -92q-96 0 -156 61t-60 156zM83 206q0 -78 49 -127.5t128 -49.5q101 0 181.5 79.5t80.5 188.5q0 76 -49.5 125t-127.5 49q-102 0 -182 -78.5t-80 -186.5zM273 592h-44q19 108 97 108
q23 0 40 -11t24.5 -25t19 -25t25.5 -11q6 0 11 1.5t9 5t7.5 7t6.5 9t5 9.5t4.5 10.5t3.5 9.5t3 9.5t2 7.5h44q-10 -53 -35 -80.5t-62 -27.5q-23 0 -40 11.5t-24.5 24.5t-19 24.5t-25.5 11.5q-37 0 -52 -69z" />
    <glyph glyph-name="odieresis" unicode="&#xf6;" horiz-adv-x="622" 
d="M39 205q0 126 94 216.5t217 90.5q96 0 156 -60t60 -154q0 -126 -94.5 -218t-216.5 -92q-96 0 -156 61t-60 156zM83 206q0 -78 49 -127.5t128 -49.5q101 0 181.5 79.5t80.5 188.5q0 76 -49.5 125t-127.5 49q-102 0 -182 -78.5t-80 -186.5zM434 627l15 73h54l-15 -73h-54z
M266 627l15 73h54l-15 -73h-54z" />
    <glyph glyph-name="divide" unicode="&#xf7;" horiz-adv-x="600" 
d="M268 431v59h57v-59h-57zM59 263v40h476v-40h-476zM268 76v59h57v-59h-57z" />
    <glyph glyph-name="oslash" unicode="&#xf8;" horiz-adv-x="622" 
d="M52 -2l48 52q-61 61 -61 155q0 126 93 216.5t213 90.5q81 0 139 -42l50 55l27 -26l-51 -56q56 -63 56 -145q0 -126 -93.5 -218t-212.5 -92q-76 0 -132 37l-49 -53zM129 82l325 356q-48 33 -109 33q-102 0 -182 -78.5t-80 -186.5q0 -73 46 -124zM480 411l-323 -354
q46 -28 103 -28q101 0 181.5 79.5t80.5 188.5q0 62 -42 114z" />
    <glyph glyph-name="ugrave" unicode="&#xf9;" horiz-adv-x="635" 
d="M80 114q0 26 8 69l53 278h-94l7 39h137l-58 -300q-10 -41 -10 -80q0 -91 98 -91q89 0 160 73.5t88 165.5l37 193h-94l7 39h137l-75 -385q-3 -18 -3 -29q0 -31 13.5 -40t36.5 -9q18 0 21 1t6 1l-8 -39q-8 0 -12 -1q-7 -1 -19 -1q-55 0 -72 35.5t-2 87.5h-2
q-29 -48 -86.5 -90.5t-139.5 -42.5q-59 0 -96.5 30.5t-37.5 95.5zM338 589l-82 111h62l72 -111h-52z" />
    <glyph glyph-name="uacute" unicode="&#xfa;" horiz-adv-x="635" 
d="M80 114q0 26 8 69l53 278h-94l7 39h137l-58 -300q-10 -41 -10 -80q0 -91 98 -91q89 0 160 73.5t88 165.5l37 193h-94l7 39h137l-75 -385q-3 -18 -3 -29q0 -31 13.5 -40t36.5 -9q18 0 21 1t6 1l-8 -39q-8 0 -12 -1q-7 -1 -19 -1q-55 0 -72 35.5t-2 87.5h-2
q-29 -48 -86.5 -90.5t-139.5 -42.5q-59 0 -96.5 30.5t-37.5 95.5zM314 589l116 111h68l-126 -111h-58z" />
    <glyph glyph-name="ucircumflex" unicode="&#xfb;" horiz-adv-x="635" 
d="M80 114q0 26 8 69l53 278h-94l7 39h137l-58 -300q-10 -41 -10 -80q0 -91 98 -91q89 0 160 73.5t88 165.5l37 193h-94l7 39h137l-75 -385q-3 -18 -3 -29q0 -31 13.5 -40t36.5 -9q18 0 21 1t6 1l-8 -39q-8 0 -12 -1q-7 -1 -19 -1q-55 0 -72 35.5t-2 87.5h-2
q-29 -48 -86.5 -90.5t-139.5 -42.5q-59 0 -96.5 30.5t-37.5 95.5zM241 589l102 111h60l58 -111h-50l-40 80h-2l-72 -80h-56z" />
    <glyph glyph-name="udieresis" unicode="&#xfc;" horiz-adv-x="635" 
d="M80 114q0 26 8 69l53 278h-94l7 39h137l-58 -300q-10 -41 -10 -80q0 -91 98 -91q89 0 160 73.5t88 165.5l37 193h-94l7 39h137l-75 -385q-3 -18 -3 -29q0 -31 13.5 -40t36.5 -9q18 0 21 1t6 1l-8 -39q-8 0 -12 -1q-7 -1 -19 -1q-55 0 -72 35.5t-2 87.5h-2
q-29 -48 -86.5 -90.5t-139.5 -42.5q-59 0 -96.5 30.5t-37.5 95.5zM419 627l15 73h54l-15 -73h-54zM251 627l15 73h54l-15 -73h-54z" />
    <glyph glyph-name="yacute" unicode="&#xfd;" horiz-adv-x="562" 
d="M-46 -183l24 34q6 -6 16 -11q22 -10 42 -10q61 0 117 90l50 82l-93 459h-68l8 39h191l-8 -39h-79l75 -381q2 -5 2 -20v-8h2l4 8l11 20l223 381h-79l8 39h195l-8 -39h-69l-336 -566q-64 -105 -148 -105q-36 0 -60 13q-10 6 -20 14zM304 589l116 111h68l-126 -111h-58z" />
    <glyph glyph-name="thorn" unicode="&#xfe;" horiz-adv-x="590" 
d="M1 -200l166 861h-90l8 39h132l-49 -255q-1 -5 -3 -16t-4 -15q-4 -11 -5 -14h2q27 47 77 79.5t115 32.5q88 0 135.5 -52.5t47.5 -144.5q0 -140 -81.5 -233.5t-188.5 -93.5q-61 0 -104.5 29t-58.5 84h-2q0 -10 -1 -15q-3 -24 -5 -34l-50 -252h-41zM124 187q0 -68 35.5 -113
t101.5 -45q87 0 157 79t70 205q0 74 -36.5 116t-101.5 42q-99 0 -162.5 -89t-63.5 -195z" />
    <glyph glyph-name="ydieresis" unicode="&#xff;" horiz-adv-x="562" 
d="M-46 -183l24 34q6 -6 16 -11q22 -10 42 -10q61 0 117 90l50 82l-93 459h-68l8 39h191l-8 -39h-79l75 -381q2 -5 2 -20v-8h2l4 8l11 20l223 381h-79l8 39h195l-8 -39h-69l-336 -566q-64 -105 -148 -105q-36 0 -60 13q-10 6 -20 14zM409 627l15 73h54l-15 -73h-54zM241 627
l15 73h54l-15 -73h-54z" />
    <glyph glyph-name="Amacron" unicode="&#x100;" horiz-adv-x="709" 
d="M-47 0l8 40h74l376 660h46l118 -660h75l-8 -40h-204l8 40h85l-36 202h-297l-115 -202h85l-8 -40h-207zM221 282h267l-58 327l-3 26q-1 4 -1 12h-2q-1 -4 -5 -12q-8 -19 -12 -26zM332 786l7 40h239l-7 -40h-239z" />
    <glyph glyph-name="amacron" unicode="&#x101;" horiz-adv-x="535" 
d="M8 111q0 40 15.5 71.5t43 52t60.5 35t73.5 22t76.5 10.5t74 3h39q4 19 5 25q4 20 4 39q0 49 -25 75.5t-87 26.5q-54 0 -108 -24q-23 -10 -43 -24l-18 38q23 16 48 26q60 25 126 25q151 0 151 -135q0 -32 -27 -152t-27 -139q0 -31 13.5 -40t36.5 -9q18 0 21 1t6 1l-8 -39
q-8 0 -12 -1q-7 -1 -19 -1q-45 0 -66 27.5t-13 76.5h-2q1 0 -7 -11.5t-24 -28.5t-38 -34t-54.5 -28.5t-66.5 -11.5q-64 0 -106 33.5t-42 89.5zM52 117q0 -38 27.5 -64t81.5 -26q75 0 135.5 66.5t80.5 147.5l6 25h-32q-299 0 -299 -149zM201 625l7 40h239l-7 -40h-239z" />
    <glyph glyph-name="Abreve" unicode="&#x102;" horiz-adv-x="709" 
d="M-47 0l8 40h74l376 660h46l118 -660h75l-8 -40h-204l8 40h85l-36 202h-297l-115 -202h85l-8 -40h-207zM221 282h267l-58 327l-3 26q-1 4 -1 12h-2q-1 -4 -5 -12q-8 -19 -12 -26zM446 747q-42 0 -68.5 27t-17.5 71l3 16h42l-3 -14q-6 -31 8 -46.5t41 -15.5q26 0 46.5 15.5
t26.5 47.5l3 13h42l-3 -16q-8 -50 -42 -74t-78 -24z" />
    <glyph glyph-name="abreve" unicode="&#x103;" horiz-adv-x="535" 
d="M8 111q0 40 15.5 71.5t43 52t60.5 35t73.5 22t76.5 10.5t74 3h39q4 19 5 25q4 20 4 39q0 49 -25 75.5t-87 26.5q-54 0 -108 -24q-23 -10 -43 -24l-18 38q23 16 48 26q60 25 126 25q151 0 151 -135q0 -32 -27 -152t-27 -139q0 -31 13.5 -40t36.5 -9q18 0 21 1t6 1l-8 -39
q-8 0 -12 -1q-7 -1 -19 -1q-45 0 -66 27.5t-13 76.5h-2q1 0 -7 -11.5t-24 -28.5t-38 -34t-54.5 -28.5t-66.5 -11.5q-64 0 -106 33.5t-42 89.5zM52 117q0 -38 27.5 -64t81.5 -26q75 0 135.5 66.5t80.5 147.5l6 25h-32q-299 0 -299 -149zM315 586q-42 0 -68.5 27t-17.5 71
l3 16h42l-3 -14q-6 -31 8 -46.5t41 -15.5q26 0 46.5 15.5t26.5 47.5l3 13h42l-3 -16q-8 -50 -42 -74t-78 -24z" />
    <glyph glyph-name="Aogonek" unicode="&#x104;" horiz-adv-x="709" 
d="M484 -125q0 64 88 125h-134l8 40h85l-36 202h-297l-115 -202h85l-8 -40h-207l8 40h74l376 660h46l118 -660h75l-8 -40h-5q-15 0 -61.5 -41.5t-46.5 -76.5q0 -27 29 -41q12 -5 29 -7l-18 -38q-27 5 -42 14q-43 23 -43 65zM221 282h267l-58 327l-3 26q-1 4 -1 12h-2
q-1 -4 -5 -12q-8 -19 -12 -26z" />
    <glyph glyph-name="aogonek" unicode="&#x105;" horiz-adv-x="535" 
d="M302 -125q0 70 92 127q-60 18 -46 100h-2q1 0 -7 -11.5t-24 -28.5t-38 -34t-54.5 -28.5t-66.5 -11.5q-64 0 -106 33.5t-42 89.5q0 40 15.5 71.5t43 52t60.5 35t73.5 22t76.5 10.5t74 3h39q4 19 5 25q4 20 4 39q0 49 -25 75.5t-87 26.5q-54 0 -108 -24q-23 -10 -43 -24
l-18 38q23 16 48 26q60 25 126 25q151 0 151 -135q0 -32 -27 -152t-27 -139q0 -31 13.5 -40t36.5 -9q18 0 21 1t6 1l-8 -39h-2h-2q-1 -1 -3 -1q-24 -10 -64 -47t-40 -70q0 -27 29 -41q12 -5 29 -7l-18 -38q-27 5 -42 14q-43 23 -43 65zM52 117q0 -38 27.5 -64t81.5 -26
q75 0 135.5 66.5t80.5 147.5l6 25h-32q-299 0 -299 -149z" />
    <glyph glyph-name="Cacute" unicode="&#x106;" horiz-adv-x="745" 
d="M67 290q0 86 35.5 165t94 134.5t135.5 89t157 33.5q34 0 72.5 -6t81 -19.5t66 -43t15.5 -69.5l-13 -67h-44l11 60q6 28 -11.5 49.5t-49.5 32.5t-65 16.5t-64 5.5q-97 0 -183.5 -50t-139.5 -137.5t-53 -189.5q0 -118 70 -191.5t184 -73.5q34 0 71.5 6.5t74 18.5t62.5 33.5
t32 48.5l11 55h44l-13 -65q-9 -47 -59 -79.5t-108 -45.5t-114 -13q-136 0 -218 84t-82 218zM449 750l116 111h68l-126 -111h-58z" />
    <glyph glyph-name="cacute" unicode="&#x107;" horiz-adv-x="545" 
d="M39 204q0 129 96 218.5t217 89.5q36 0 72 -9.5t63 -34t21 -59.5l-9 -49h-42l7 39q5 35 -34 53.5t-86 18.5q-97 0 -179 -77t-82 -188q0 -84 50 -130.5t129 -46.5q70 0 131 36q27 16 49 36l16 -38q-25 -21 -53 -37q-70 -38 -145 -38q-98 0 -159.5 57.5t-61.5 158.5z
M315 589l116 111h68l-126 -111h-58z" />
    <glyph glyph-name="Ccircumflex" unicode="&#x108;" horiz-adv-x="745" 
d="M67 290q0 86 35.5 165t94 134.5t135.5 89t157 33.5q34 0 72.5 -6t81 -19.5t66 -43t15.5 -69.5l-13 -67h-44l11 60q6 28 -11.5 49.5t-49.5 32.5t-65 16.5t-64 5.5q-97 0 -183.5 -50t-139.5 -137.5t-53 -189.5q0 -118 70 -191.5t184 -73.5q34 0 71.5 6.5t74 18.5t62.5 33.5
t32 48.5l11 55h44l-13 -65q-9 -47 -59 -79.5t-108 -45.5t-114 -13q-136 0 -218 84t-82 218zM376 750l102 111h60l58 -111h-50l-40 80h-2l-72 -80h-56z" />
    <glyph glyph-name="ccircumflex" unicode="&#x109;" horiz-adv-x="545" 
d="M39 204q0 129 96 218.5t217 89.5q36 0 72 -9.5t63 -34t21 -59.5l-9 -49h-42l7 39q5 35 -34 53.5t-86 18.5q-97 0 -179 -77t-82 -188q0 -84 50 -130.5t129 -46.5q70 0 131 36q27 16 49 36l16 -38q-25 -21 -53 -37q-70 -38 -145 -38q-98 0 -159.5 57.5t-61.5 158.5z
M242 589l102 111h60l58 -111h-50l-40 80h-2l-72 -80h-56z" />
    <glyph glyph-name="Cdotaccent" unicode="&#x10a;" horiz-adv-x="745" 
d="M67 290q0 86 35.5 165t94 134.5t135.5 89t157 33.5q34 0 72.5 -6t81 -19.5t66 -43t15.5 -69.5l-13 -67h-44l11 60q6 28 -11.5 49.5t-49.5 32.5t-65 16.5t-64 5.5q-97 0 -183.5 -50t-139.5 -137.5t-53 -189.5q0 -118 70 -191.5t184 -73.5q34 0 71.5 6.5t74 18.5t62.5 33.5
t32 48.5l11 55h44l-13 -65q-9 -47 -59 -79.5t-108 -45.5t-114 -13q-136 0 -218 84t-82 218zM470 788l14 73h54l-14 -73h-54z" />
    <glyph glyph-name="cdotaccent" unicode="&#x10b;" horiz-adv-x="545" 
d="M39 204q0 129 96 218.5t217 89.5q36 0 72 -9.5t63 -34t21 -59.5l-9 -49h-42l7 39q5 35 -34 53.5t-86 18.5q-97 0 -179 -77t-82 -188q0 -84 50 -130.5t129 -46.5q70 0 131 36q27 16 49 36l16 -38q-25 -21 -53 -37q-70 -38 -145 -38q-98 0 -159.5 57.5t-61.5 158.5z
M336 627l14 73h54l-14 -73h-54z" />
    <glyph glyph-name="Ccaron" unicode="&#x10c;" horiz-adv-x="745" 
d="M67 290q0 86 35.5 165t94 134.5t135.5 89t157 33.5q34 0 72.5 -6t81 -19.5t66 -43t15.5 -69.5l-13 -67h-44l11 60q6 28 -11.5 49.5t-49.5 32.5t-65 16.5t-64 5.5q-97 0 -183.5 -50t-139.5 -137.5t-53 -189.5q0 -118 70 -191.5t184 -73.5q34 0 71.5 6.5t74 18.5t62.5 33.5
t32 48.5l11 55h44l-13 -65q-9 -47 -59 -79.5t-108 -45.5t-114 -13q-136 0 -218 84t-82 218zM462 750l-58 111h50l40 -80h2l72 80h56l-102 -111h-60z" />
    <glyph glyph-name="ccaron" unicode="&#x10d;" horiz-adv-x="545" 
d="M39 204q0 129 96 218.5t217 89.5q36 0 72 -9.5t63 -34t21 -59.5l-9 -49h-42l7 39q5 35 -34 53.5t-86 18.5q-97 0 -179 -77t-82 -188q0 -84 50 -130.5t129 -46.5q70 0 131 36q27 16 49 36l16 -38q-25 -21 -53 -37q-70 -38 -145 -38q-98 0 -159.5 57.5t-61.5 158.5z
M328 589l-58 111h50l40 -80h2l72 80h56l-102 -111h-60z" />
    <glyph glyph-name="Dcaron" unicode="&#x10e;" horiz-adv-x="775" 
d="M-2 0l8 40h94l121 620h-95l8 40h286q91 0 157 -24q152 -60 152 -250q0 -121 -61 -226.5t-162 -156.5q-83 -43 -203 -43h-305zM142 40h152q108 0 187 38q91 47 147 140.5t56 203.5q0 163 -124 214q-58 24 -145 24h-151zM412 750l-58 111h50l40 -80h2l72 80h56l-102 -111
h-60z" />
    <glyph glyph-name="dcaron" unicode="&#x10f;" horiz-adv-x="610" 
d="M40 185q0 141 81.5 234t190.5 93q60 0 103 -29t58 -84h2q0 9 1 14q3 29 4 32l42 216h-95l8 39h137l-114 -585q-3 -18 -3 -29q0 -31 13.5 -40t36.5 -9q18 0 21 1t6 1l-8 -39q-8 0 -12 -1q-7 -1 -19 -1q-45 0 -66.5 27.5t-10.5 74.5h-2q-26 -46 -77.5 -79t-113.5 -33
q-89 0 -136 52.5t-47 144.5zM84 187q0 -74 36.5 -116t102.5 -42q67 0 120 45t79.5 109.5t26.5 132.5q0 67 -34.5 111t-102.5 44q-87 0 -157.5 -79t-70.5 -205zM638 700h46q2 -14 2 -21q0 -33 -18 -65.5t-51 -56.5l-23 23q47 44 47 93q0 12 -3 27z" />
    <glyph glyph-name="Dcroat" unicode="&#x110;" horiz-adv-x="784" 
d="M-2 0l8 40h94l57 293h-80l8 40h80l56 287h-95l8 40h305q140 0 219.5 -71t79.5 -199q0 -180 -117.5 -305t-298.5 -125h-324zM143 40h170q164 0 272 111t108 277q0 112 -68.5 172t-190.5 60h-169l-57 -287h183l-8 -40h-183z" />
    <glyph glyph-name="dcroat" unicode="&#x111;" horiz-adv-x="610" 
d="M40 185q0 141 81.5 234t190.5 93q60 0 103 -29t58 -84h2q0 9 1 14q3 29 4 32l24 124h-153l8 40h153l18 91h42l-18 -91h83l-8 -40h-83l-88 -454q-3 -18 -3 -29q0 -31 13.5 -40t36.5 -9q18 0 21 1t6 1l-8 -39q-8 0 -12 -1q-7 -1 -19 -1q-45 0 -66.5 27.5t-10.5 74.5h-2
q-26 -46 -77.5 -79t-113.5 -33q-89 0 -136 52.5t-47 144.5zM84 187q0 -74 36.5 -116t102.5 -42q67 0 120 45t79.5 109.5t26.5 132.5q0 67 -34.5 111t-102.5 44q-87 0 -157.5 -79t-70.5 -205z" />
    <glyph glyph-name="Emacron" unicode="&#x112;" horiz-adv-x="617" 
d="M-2 0l8 40h94l121 620h-95l8 40h483l-26 -130h-42l18 90h-303l-56 -287h279l-8 -40h-279l-57 -293h323l19 96h42l-27 -136h-502zM289 786l7 40h239l-7 -40h-239z" />
    <glyph glyph-name="emacron" unicode="&#x113;" horiz-adv-x="550" 
d="M39 197q0 124 84.5 219.5t209.5 95.5q85 0 128 -48.5t43 -128.5q0 -23 -6 -53q-3 -16 -7 -25h-401l-3 -16q-3 -15 -3 -39q0 -76 46 -124.5t130 -48.5q57 0 119 32q21 11 48 31l16 -38q-23 -17 -53 -33q-64 -33 -132 -33q-97 0 -158 56.5t-61 152.5zM100 296h355l2 12
q2 16 2 30q0 67 -35.5 101t-93.5 34q-72 0 -136.5 -46.5t-93.5 -130.5zM243 625l7 40h239l-7 -40h-239z" />
    <glyph glyph-name="Ebreve" unicode="&#x114;" horiz-adv-x="617" 
d="M-2 0l8 40h94l121 620h-95l8 40h483l-26 -130h-42l18 90h-303l-56 -287h279l-8 -40h-279l-57 -293h323l19 96h42l-27 -136h-502zM403 747q-42 0 -68.5 27t-17.5 71l3 16h42l-3 -14q-6 -31 8 -46.5t41 -15.5q26 0 46.5 15.5t26.5 47.5l3 13h42l-3 -16q-8 -50 -42 -74
t-78 -24z" />
    <glyph glyph-name="ebreve" unicode="&#x115;" horiz-adv-x="550" 
d="M39 197q0 124 84.5 219.5t209.5 95.5q85 0 128 -48.5t43 -128.5q0 -23 -6 -53q-3 -16 -7 -25h-401l-3 -16q-3 -15 -3 -39q0 -76 46 -124.5t130 -48.5q57 0 119 32q21 11 48 31l16 -38q-23 -17 -53 -33q-64 -33 -132 -33q-97 0 -158 56.5t-61 152.5zM100 296h355l2 12
q2 16 2 30q0 67 -35.5 101t-93.5 34q-72 0 -136.5 -46.5t-93.5 -130.5zM357 586q-42 0 -68.5 27t-17.5 71l3 16h42l-3 -14q-6 -31 8 -46.5t41 -15.5q26 0 46.5 15.5t26.5 47.5l3 13h42l-3 -16q-8 -50 -42 -74t-78 -24z" />
    <glyph glyph-name="Edotaccent" unicode="&#x116;" horiz-adv-x="617" 
d="M-2 0l8 40h94l121 620h-95l8 40h483l-26 -130h-42l18 90h-303l-56 -287h279l-8 -40h-279l-57 -293h323l19 96h42l-27 -136h-502zM382 788l14 73h54l-14 -73h-54z" />
    <glyph glyph-name="edotaccent" unicode="&#x117;" horiz-adv-x="550" 
d="M39 197q0 124 84.5 219.5t209.5 95.5q85 0 128 -48.5t43 -128.5q0 -23 -6 -53q-3 -16 -7 -25h-401l-3 -16q-3 -15 -3 -39q0 -76 46 -124.5t130 -48.5q57 0 119 32q21 11 48 31l16 -38q-23 -17 -53 -33q-64 -33 -132 -33q-97 0 -158 56.5t-61 152.5zM100 296h355l2 12
q2 16 2 30q0 67 -35.5 101t-93.5 34q-72 0 -136.5 -46.5t-93.5 -130.5zM336 627l14 73h54l-14 -73h-54z" />
    <glyph glyph-name="Eogonek" unicode="&#x118;" horiz-adv-x="617" 
d="M-2 0l8 40h94l121 620h-95l8 40h483l-26 -130h-42l18 90h-303l-56 -287h279l-8 -40h-279l-57 -293h323l19 96h42l-27 -136h-5q-15 0 -61.5 -41.5t-46.5 -76.5q0 -27 29 -41q12 -5 29 -7l-18 -38q-27 5 -42 14q-43 23 -43 65q0 64 88 125h-432z" />
    <glyph glyph-name="eogonek" unicode="&#x119;" horiz-adv-x="551" 
d="M40 197q0 124 84 219.5t207 95.5q86 0 130 -48.5t44 -128.5q0 -23 -6 -53q-3 -16 -7 -25h-401l-3 -16q-3 -15 -3 -39q0 -76 46 -124.5t130 -48.5q57 0 119 32q21 11 48 31l16 -38l-26 -17q-29 -19 -69 -36q-18 -9 -38 -22.5t-43 -41.5t-23 -55t29 -41q12 -5 29 -7
l-18 -38q-27 5 -42 14q-43 23 -43 65q0 60 71 113q-103 -2 -167 55.5t-64 153.5zM101 296h355l2 12q2 16 2 30q0 67 -35.5 101t-93.5 34q-72 0 -136.5 -46.5t-93.5 -130.5z" />
    <glyph glyph-name="Ecaron" unicode="&#x11a;" horiz-adv-x="617" 
d="M-2 0l8 40h94l121 620h-95l8 40h483l-26 -130h-42l18 90h-303l-56 -287h279l-8 -40h-279l-57 -293h323l19 96h42l-27 -136h-502zM374 750l-58 111h50l40 -80h2l72 80h56l-102 -111h-60z" />
    <glyph glyph-name="ecaron" unicode="&#x11b;" horiz-adv-x="550" 
d="M39 197q0 124 84.5 219.5t209.5 95.5q85 0 128 -48.5t43 -128.5q0 -23 -6 -53q-3 -16 -7 -25h-401l-3 -16q-3 -15 -3 -39q0 -76 46 -124.5t130 -48.5q57 0 119 32q21 11 48 31l16 -38q-23 -17 -53 -33q-64 -33 -132 -33q-97 0 -158 56.5t-61 152.5zM100 296h355l2 12
q2 16 2 30q0 67 -35.5 101t-93.5 34q-72 0 -136.5 -46.5t-93.5 -130.5zM328 589l-58 111h50l40 -80h2l72 80h56l-102 -111h-60z" />
    <glyph glyph-name="Gcircumflex" unicode="&#x11c;" horiz-adv-x="771" 
d="M67 288q0 173 124 298.5t300 125.5q99 0 178.5 -38t68.5 -100l-13 -67h-44l10 53q7 36 -25.5 62.5t-79 37.5t-94.5 11q-155 0 -267.5 -113t-112.5 -266q0 -117 74 -190t192 -73q47 0 97 9.5t97.5 37t54.5 68.5l25 125h-155l8 40h198l-34 -173q-7 -39 -39 -69.5t-76 -46.5
t-89 -24t-87 -8q-143 0 -227 82.5t-84 217.5zM387 750l102 111h60l58 -111h-50l-40 80h-2l-72 -80h-56z" />
    <glyph glyph-name="gcircumflex" unicode="&#x11d;" horiz-adv-x="598" 
d="M10 -171l24 35q12 -8 38 -17q48 -16 92 -16q197 0 229 200q6 36 12 54l6 17h-2q-64 -102 -178 -102q-87 0 -138 53t-51 143q0 54 17.5 108.5t49 101.5t83 76.5t112.5 29.5t106.5 -23.5t58.5 -74.5h2q-1 1 -1 6q0 1 2 19q6 33 22 47t48 14h74l-7 -39h-68q-23 0 -27 -22
l-85 -441q-21 -107 -93 -157.5t-167 -50.5q-86 0 -159 39zM86 197q0 -74 38.5 -115t107.5 -41t119.5 48.5t72.5 114t22 133.5q0 134 -140 134q-100 0 -160 -84t-60 -190zM235 589l102 111h60l58 -111h-50l-40 80h-2l-72 -80h-56z" />
    <glyph glyph-name="Gbreve" unicode="&#x11e;" horiz-adv-x="771" 
d="M67 288q0 173 124 298.5t300 125.5q99 0 178.5 -38t68.5 -100l-13 -67h-44l10 53q7 36 -25.5 62.5t-79 37.5t-94.5 11q-155 0 -267.5 -113t-112.5 -266q0 -117 74 -190t192 -73q47 0 97 9.5t97.5 37t54.5 68.5l25 125h-155l8 40h198l-34 -173q-7 -39 -39 -69.5t-76 -46.5
t-89 -24t-87 -8q-143 0 -227 82.5t-84 217.5zM502 747q-42 0 -68.5 27t-17.5 71l3 16h42l-3 -14q-6 -31 8 -46.5t41 -15.5q26 0 46.5 15.5t26.5 47.5l3 13h42l-3 -16q-8 -50 -42 -74t-78 -24z" />
    <glyph glyph-name="gbreve" unicode="&#x11f;" horiz-adv-x="598" 
d="M10 -171l24 35q12 -8 38 -17q48 -16 92 -16q197 0 229 200q6 36 12 54l6 17h-2q-64 -102 -178 -102q-87 0 -138 53t-51 143q0 54 17.5 108.5t49 101.5t83 76.5t112.5 29.5t106.5 -23.5t58.5 -74.5h2q-1 1 -1 6q0 1 2 19q6 33 22 47t48 14h74l-7 -39h-68q-23 0 -27 -22
l-85 -441q-21 -107 -93 -157.5t-167 -50.5q-86 0 -159 39zM86 197q0 -74 38.5 -115t107.5 -41t119.5 48.5t72.5 114t22 133.5q0 134 -140 134q-100 0 -160 -84t-60 -190zM350 586q-42 0 -68.5 27t-17.5 71l3 16h42l-3 -14q-6 -31 8 -46.5t41 -15.5q26 0 46.5 15.5t26.5 47.5
l3 13h42l-3 -16q-8 -50 -42 -74t-78 -24z" />
    <glyph glyph-name="Gdotaccent" unicode="&#x120;" horiz-adv-x="771" 
d="M67 288q0 173 124 298.5t300 125.5q99 0 178.5 -38t68.5 -100l-13 -67h-44l10 53q7 36 -25.5 62.5t-79 37.5t-94.5 11q-155 0 -267.5 -113t-112.5 -266q0 -117 74 -190t192 -73q47 0 97 9.5t97.5 37t54.5 68.5l25 125h-155l8 40h198l-34 -173q-7 -39 -39 -69.5t-76 -46.5
t-89 -24t-87 -8q-143 0 -227 82.5t-84 217.5zM481 788l14 73h54l-14 -73h-54z" />
    <glyph glyph-name="gdotaccent" unicode="&#x121;" horiz-adv-x="598" 
d="M10 -171l24 35q12 -8 38 -17q48 -16 92 -16q197 0 229 200q6 36 12 54l6 17h-2q-64 -102 -178 -102q-87 0 -138 53t-51 143q0 54 17.5 108.5t49 101.5t83 76.5t112.5 29.5t106.5 -23.5t58.5 -74.5h2q-1 1 -1 6q0 1 2 19q6 33 22 47t48 14h74l-7 -39h-68q-23 0 -27 -22
l-85 -441q-21 -107 -93 -157.5t-167 -50.5q-86 0 -159 39zM86 197q0 -74 38.5 -115t107.5 -41t119.5 48.5t72.5 114t22 133.5q0 134 -140 134q-100 0 -160 -84t-60 -190zM329 627l14 73h54l-14 -73h-54z" />
    <glyph glyph-name="Gcommaaccent" unicode="&#x122;" horiz-adv-x="771" 
d="M67 288q0 173 124 298.5t300 125.5q99 0 178.5 -38t68.5 -100l-13 -67h-44l10 53q7 36 -25.5 62.5t-79 37.5t-94.5 11q-155 0 -267.5 -113t-112.5 -266q0 -117 74 -190t192 -73q47 0 97 9.5t97.5 37t54.5 68.5l25 125h-155l8 40h198l-34 -173q-7 -39 -39 -69.5t-76 -46.5
t-89 -24t-87 -8q-143 0 -227 82.5t-84 217.5zM310 -66h46q2 -14 2 -21q0 -33 -18 -65.5t-51 -56.5l-23 23q47 44 47 93q0 12 -3 27z" />
    <glyph glyph-name="gcommaaccent" unicode="&#x123;" horiz-adv-x="598" 
d="M10 -171l24 35q12 -8 38 -17q48 -16 92 -16q197 0 229 200q6 36 12 54l6 17h-2q-64 -102 -178 -102q-87 0 -138 53t-51 143q0 54 17.5 108.5t49 101.5t83 76.5t112.5 29.5t106.5 -23.5t58.5 -74.5h2q-1 1 -1 6q0 1 2 19q6 33 22 47t48 14h74l-7 -39h-68q-23 0 -27 -22
l-85 -441q-21 -107 -93 -157.5t-167 -50.5q-86 0 -159 39zM86 197q0 -74 38.5 -115t107.5 -41t119.5 48.5t72.5 114t22 133.5q0 134 -140 134q-100 0 -160 -84t-60 -190zM361 578h-46q-2 14 -2 21q0 33 18 65.5t51 56.5l23 -23q-47 -44 -47 -93q0 -12 3 -27z" />
    <glyph glyph-name="Hcircumflex" unicode="&#x124;" horiz-adv-x="830" 
d="M-2 0l8 40h94l121 620h-95l8 40h233l-8 -40h-95l-56 -289h444l56 289h-95l8 40h233l-8 -40h-95l-121 -620h95l-8 -40h-233l8 40h95l57 291h-444l-57 -291h95l-8 -40h-232zM391 750l102 111h60l58 -111h-50l-40 80h-2l-72 -80h-56z" />
    <glyph glyph-name="hcircumflex" unicode="&#x125;" horiz-adv-x="613" 
d="M39 0l128 661h-90l8 39h132l-54 -283q-3 -16 -8 -32l-5 -14h2q25 49 88 95t142 46q68 0 102.5 -32.5t34.5 -93.5q0 -33 -25 -158t-25 -142q0 -22 8.5 -33.5t17.5 -13.5t24 -2q17 0 20 1t7 1l-8 -39q-8 0 -12 -1q-7 -1 -19 -1q-30 0 -56 17t-26 61q0 18 25 143.5t25 157.5
q0 47 -25 70.5t-69 23.5q-91 0 -164 -69.5t-91 -167.5l-45 -234h-42zM93 750l102 111h60l58 -111h-50l-40 80h-2l-72 -80h-56z" />
    <glyph glyph-name="Hbar" unicode="&#x126;" horiz-adv-x="830" 
d="M-1 0l8 40h94l91 467h-85l8 40h85l22 113h-95l8 40h233l-8 -40h-95l-22 -113h444l22 113h-95l8 40h233l-8 -40h-95l-22 -113h85l-8 -40h-85l-91 -467h95l-8 -40h-233l8 40h95l57 291h-444l-57 -291h95l-8 -40h-232zM209 371h444l26 136h-444z" />
    <glyph glyph-name="hbar" unicode="&#x127;" horiz-adv-x="613" 
d="M39 0l111 569h-81l8 40h81l18 91h42l-18 -91h153l-8 -40h-153l-29 -152q-3 -16 -8 -32l-5 -14h2q25 49 88 95t142 46q68 0 102.5 -32.5t34.5 -93.5q0 -33 -25 -158t-25 -142q0 -22 8.5 -33.5t17.5 -13.5t24 -2q17 0 20 1t7 1l-8 -39q-8 0 -12 -1q-7 -1 -19 -1
q-30 0 -56 17t-26 61q0 18 25 143.5t25 157.5q0 47 -25 70.5t-69 23.5q-91 0 -164 -69.5t-91 -167.5l-45 -234h-42z" />
    <glyph glyph-name="Itilde" unicode="&#x128;" horiz-adv-x="343" 
d="M-2 0l8 40h94l121 620h-95l8 40h233l-8 -40h-95l-121 -620h95l-8 -40h-232zM162 753h-44q20 108 97 108q23 0 40 -11.5t24.5 -24.5t19 -24.5t25.5 -11.5q6 0 11 1.5t9 5t7.5 7t6.5 9t5 9.5t4.5 10.5t3.5 9.5t3 9.5t2 7.5h44q-20 -108 -97 -108q-23 0 -40 11t-24.5 25
t-19 25t-25.5 11q-37 0 -52 -69z" />
    <glyph glyph-name="itilde" unicode="&#x129;" horiz-adv-x="272" 
d="M71 79q0 15 4 30l69 352h-95l8 39h137l-76 -385q-3 -18 -3 -29q0 -31 13.5 -40t36.5 -9q18 0 21 1t6 1l-8 -39q-8 0 -12 -1q-7 -1 -19 -1q-13 0 -25 3t-26 10.5t-22.5 25t-8.5 42.5zM94 592h-44q20 108 97 108q23 0 40 -11t24.5 -25t19 -25t25.5 -11q6 0 11 1.5t9 5
t7.5 7t6.5 9t5 9.5t4.5 10.5t3.5 9.5t3 9.5t2 7.5h44q-20 -108 -97 -108q-23 0 -40 11.5t-24.5 24.5t-19 24.5t-25.5 11.5q-37 0 -52 -69z" />
    <glyph glyph-name="Imacron" unicode="&#x12a;" horiz-adv-x="343" 
d="M-2 0l8 40h94l121 620h-95l8 40h233l-8 -40h-95l-121 -620h95l-8 -40h-232zM146 786l7 40h239l-7 -40h-239z" />
    <glyph glyph-name="imacron" unicode="&#x12b;" horiz-adv-x="272" 
d="M71 79q0 15 4 30l69 352h-95l8 39h137l-76 -385q-3 -18 -3 -29q0 -31 13.5 -40t36.5 -9q18 0 21 1t6 1l-8 -39q-8 0 -12 -1q-7 -1 -19 -1q-13 0 -25 3t-26 10.5t-22.5 25t-8.5 42.5zM78 625l7 40h239l-7 -40h-239z" />
    <glyph glyph-name="Ibreve" unicode="&#x12c;" horiz-adv-x="343" 
d="M-2 0l8 40h94l121 620h-95l8 40h233l-8 -40h-95l-121 -620h95l-8 -40h-232zM260 747q-42 0 -68.5 27t-17.5 71l3 16h42l-3 -14q-6 -31 8 -46.5t41 -15.5q26 0 46.5 15.5t26.5 47.5l3 13h42l-3 -16q-8 -50 -42 -74t-78 -24z" />
    <glyph glyph-name="ibreve" unicode="&#x12d;" horiz-adv-x="272" 
d="M71 79q0 15 4 30l69 352h-95l8 39h137l-76 -385q-3 -18 -3 -29q0 -31 13.5 -40t36.5 -9q18 0 21 1t6 1l-8 -39q-8 0 -12 -1q-7 -1 -19 -1q-13 0 -25 3t-26 10.5t-22.5 25t-8.5 42.5zM192 586q-42 0 -68.5 27t-17.5 71l3 16h42l-3 -14q-6 -31 8 -46.5t41 -15.5
q26 0 46.5 15.5t26.5 47.5l3 13h42l-3 -16q-8 -50 -42 -74t-78 -24z" />
    <glyph glyph-name="Iogonek" unicode="&#x12e;" horiz-adv-x="343" 
d="M-2 0l8 40h94l121 620h-95l8 40h233l-8 -40h-95l-121 -620h95l-8 -40h-5q-15 0 -61.5 -41.5t-46.5 -76.5q0 -27 29 -41q12 -5 29 -7l-18 -38q-27 5 -42 14q-43 23 -43 65q0 64 88 125h-162z" />
    <glyph glyph-name="iogonek" unicode="&#x12f;" horiz-adv-x="272" 
d="M28 -125q0 38 24.5 68t67.5 60q-49 16 -49 76q0 15 4 30l69 352h-95l8 39h137l-76 -385q-3 -18 -3 -29q0 -31 13.5 -40t36.5 -9q18 0 21 1t6 1l-8 -39h-2h-2q-1 -1 -3 -1q-24 -10 -64 -47t-40 -70q0 -27 29 -41q12 -5 29 -7l-18 -38q-27 5 -42 14q-43 23 -43 65zM170 627
l15 73h54l-15 -73h-54z" />
    <glyph glyph-name="Idotaccent" unicode="&#x130;" horiz-adv-x="343" 
d="M-2 0l8 40h94l121 620h-95l8 40h233l-8 -40h-95l-121 -620h95l-8 -40h-232zM239 788l14 73h54l-14 -73h-54z" />
    <glyph glyph-name="dotlessi" unicode="&#x131;" horiz-adv-x="272" 
d="M71 79q0 15 4 30l69 352h-95l8 39h137l-76 -385q-3 -18 -3 -29q0 -31 13.5 -40t36.5 -9q18 0 21 1t6 1l-8 -39q-8 0 -12 -1q-7 -1 -19 -1q-13 0 -25 3t-26 10.5t-22.5 25t-8.5 42.5z" />
    <glyph glyph-name="IJ" unicode="&#x132;" horiz-adv-x="670" 
d="M278 -5l8 42q24 0 44 3.5t43.5 15t41.5 30.5t34.5 52.5t25.5 79.5l86 442h-95l8 40h233l-8 -40h-95l-86 -442q-13 -70 -38 -116.5t-59.5 -68.5t-67.5 -30t-75 -8zM-1 0l8 40h94l120 620h-95l8 40h233l-8 -40h-95l-120 -620h86l-8 -40h-223z" />
    <glyph glyph-name="ij" unicode="&#x133;" horiz-adv-x="527" 
d="M170 627l15 73h54l-15 -73h-54zM71 79q0 15 4 30l69 352h-95l8 39h137l-76 -385q-3 -18 -3 -29q0 -31 13.5 -40t36.5 -9q18 0 21 1t6 1l-8 -39q-8 0 -12 -1q-7 -1 -19 -1q-13 0 -25 3t-26 10.5t-22.5 25t-8.5 42.5zM447 627l14 73h54l-14 -73h-54zM328 -21l93 482h-95
l8 39h137l-101 -520q-11 -58 -34.5 -98t-52.5 -57.5t-51.5 -23.5t-45.5 -6q-18 0 -25 1q-3 1 -10 1l8 39q3 0 6 -1t16 -1q18 0 36.5 5t41.5 18.5t42 45t27 76.5z" />
    <glyph glyph-name="Jcircumflex" unicode="&#x134;" horiz-adv-x="533" 
d="M6 139q0 20 6 50q4 16 5 24h43q-1 -9 -5 -22q-5 -25 -5 -45q0 -117 116 -117q59 0 109 38.5t67 123.5l90 469h-111l8 40h239l-8 -40h-85l-92 -475q-20 -102 -81 -149.5t-136 -47.5q-69 0 -114.5 37t-45.5 114zM358 750l102 111h60l58 -111h-50l-40 80h-2l-72 -80h-56z
" />
    <glyph glyph-name="jcircumflex" unicode="&#x135;" horiz-adv-x="255" 
d="M62 589l102 111h60l58 -111h-50l-40 80h-2l-72 -80h-56zM56 -21l93 482h-95l8 39h137l-101 -520q-11 -58 -34.5 -98t-52.5 -57.5t-51.5 -23.5t-45.5 -6q-18 0 -25 1q-3 1 -10 1l8 39q3 0 6 -1t16 -1q18 0 36.5 5t41.5 18.5t42 45t27 76.5z" />
    <glyph glyph-name="Kcommaaccent" unicode="&#x136;" horiz-adv-x="647" 
d="M-2 0l8 40h94l121 620h-95l8 40h233l-8 -40h-95l-53 -272h108l242 272h-68l8 40h199l-8 -40h-74l-261 -290v-2l7 -7q5 -6 15 -28l103 -250q7 -15 12 -23t17.5 -15t31.5 -7q12 0 19 1q3 1 9 1l-8 -40q-6 0 -9 -1q-7 -1 -20 -1q-42 0 -61.5 20t-38.5 65l-94 232
q-7 18 -18 25.5t-34 7.5h-85l-60 -308h95l-8 -40h-232zM239 -66h46q2 -14 2 -21q0 -33 -18 -65.5t-51 -56.5l-23 23q47 44 47 93q0 12 -3 27z" />
    <glyph glyph-name="kcommaaccent" unicode="&#x137;" horiz-adv-x="512" 
d="M38 0l130 661h-95l8 39h137l-78 -397h74l172 158h-73l8 39h197l-8 -39h-66l-192 -177v-2l8 -7q7 -7 16 -27l75 -166q7 -15 12 -23t17.5 -15t31.5 -7q12 0 19 1q3 1 9 1l-8 -39q-6 0 -9 -1q-7 -1 -20 -1q-21 0 -36 5.5t-27 19.5t-18 24.5t-18 35.5l-73 159q-6 14 -16 18
t-31 4h-51l-53 -264h-42zM175 -66h46q2 -14 2 -21q0 -33 -18 -65.5t-51 -56.5l-23 23q47 44 47 93q0 12 -3 27z" />
    <glyph glyph-name="kgreenlandic" unicode="&#x138;" horiz-adv-x="534" 
d="M60 0l90 461h-95l8 39h137l-38 -197h74l172 158h-73l8 39h197l-8 -39h-66l-192 -177v-2l8 -7q7 -7 16 -27l75 -166q7 -15 12 -23t17.5 -15t31.5 -7q12 0 19 1q3 1 9 1l-8 -39q-6 0 -9 -1q-7 -1 -20 -1q-21 0 -36 5.5t-27 19.5t-18 24.5t-18 35.5l-73 159q-6 14 -16 18
t-31 4h-51l-53 -264h-42z" />
    <glyph glyph-name="Lacute" unicode="&#x139;" horiz-adv-x="577" 
d="M-2 0l8 40h94l121 620h-95l8 40h233l-8 -40h-95l-121 -620h312l24 120h42l-32 -160h-491zM218 750l116 111h68l-126 -111h-58z" />
    <glyph glyph-name="lacute" unicode="&#x13a;" horiz-adv-x="256" 
d="M57 79q0 16 4 31l107 551h-95l8 39h137l-113 -584q-4 -15 -4 -31q0 -21 8.5 -32.5t17.5 -13.5t24 -2q18 0 21 1t6 1l-8 -39q-7 0 -10 -1q-7 -1 -21 -1q-13 0 -25 3t-26 10.5t-22.5 25t-8.5 42.5zM167 750l116 111h68l-126 -111h-58z" />
    <glyph glyph-name="Lcommaaccent" unicode="&#x13b;" horiz-adv-x="577" 
d="M-2 0l8 40h94l121 620h-95l8 40h233l-8 -40h-95l-121 -620h312l24 120h42l-32 -160h-491zM234 -66h46q2 -14 2 -21q0 -33 -18 -65.5t-51 -56.5l-23 23q47 44 47 93q0 12 -3 27z" />
    <glyph glyph-name="lcommaaccent" unicode="&#x13c;" horiz-adv-x="256" 
d="M57 79q0 16 4 31l107 551h-95l8 39h137l-113 -584q-4 -15 -4 -31q0 -21 8.5 -32.5t17.5 -13.5t24 -2q18 0 21 1t6 1l-8 -39q-7 0 -10 -1q-7 -1 -21 -1q-13 0 -25 3t-26 10.5t-22.5 25t-8.5 42.5zM63 -66h46q2 -14 2 -21q0 -33 -18 -65.5t-51 -56.5l-23 23q47 44 47 93
q0 12 -3 27z" />
    <glyph glyph-name="Lcaron" unicode="&#x13d;" horiz-adv-x="577" 
d="M-2 0l8 40h94l121 620h-95l8 40h233l-8 -40h-95l-121 -620h312l24 120h42l-32 -160h-491zM234 -66h46q2 -14 2 -21q0 -33 -18 -65.5t-51 -56.5l-23 23q47 44 47 93q0 12 -3 27z" />
    <glyph glyph-name="lcaron" unicode="&#x13e;" horiz-adv-x="256" 
d="M57 79q0 16 4 31l107 551h-95l8 39h137l-113 -584q-4 -15 -4 -31q0 -21 8.5 -32.5t17.5 -13.5t24 -2q18 0 21 1t6 1l-8 -39q-7 0 -10 -1q-7 -1 -21 -1q-13 0 -25 3t-26 10.5t-22.5 25t-8.5 42.5zM285 700h46q2 -14 2 -21q0 -33 -18 -65.5t-51 -56.5l-23 23q47 44 47 93
q0 12 -3 27z" />
    <glyph glyph-name="Ldot" unicode="&#x13f;" horiz-adv-x="577" 
d="M-2 0l8 40h94l121 620h-95l8 40h233l-8 -40h-95l-121 -620h312l24 120h42l-32 -160h-491zM332 334l12 63h61l-12 -63h-61z" />
    <glyph glyph-name="ldot" unicode="&#x140;" horiz-adv-x="264" 
d="M57 79q0 16 4 31l107 551h-95l8 39h137l-113 -584q-4 -15 -4 -31q0 -21 8.5 -32.5t17.5 -13.5t24 -2q18 0 21 1t6 1l-8 -39q-7 0 -10 -1q-7 -1 -21 -1q-13 0 -25 3t-26 10.5t-22.5 25t-8.5 42.5zM232 334l12 63h61l-12 -63h-61z" />
    <glyph glyph-name="Lslash" unicode="&#x141;" horiz-adv-x="578" 
d="M-1 0l8 40h94l53 273l-99 -46l10 47l98 46l59 300h-95l8 40h233l-8 -40h-95l-54 -278l254 120l-9 -48l-254 -119l-58 -295h312l24 120h42l-32 -160h-491z" />
    <glyph glyph-name="lslash" unicode="&#x142;" horiz-adv-x="256" 
d="M61 107l54 276l-97 -50l8 47l98 51l45 230h-95l8 39h137l-48 -245l103 54l-10 -48l-102 -53l-57 -294q-15 -78 44 -78q2 0 6 0.5t5 0.5h4l-8 -39q-4 0 -6 -1t-12 -1q-14 0 -27 4t-29.5 15.5t-20.5 33.5t0 58z" />
    <glyph glyph-name="Nacute" unicode="&#x143;" horiz-adv-x="824" 
d="M-2 0l8 40h94l121 620h-95l8 40h133l318 -601q2 -4 5 -12.5t4 -9.5l4 -12h2q0 9 1 14q3 22 4 25l109 556h-95l8 40h233l-8 -40h-95l-129 -660h-39l-319 602l-9 22l-3 12h-2q0 -9 -1 -14q-3 -22 -4 -25l-108 -557h95l-8 -40h-232zM466 750l116 111h68l-126 -111h-58z" />
    <glyph glyph-name="nacute" unicode="&#x144;" horiz-adv-x="634" 
d="M60 0l85 439q5 22 -18 22h-73l8 39h79q28 0 38.5 -9.5t10.5 -30.5q0 -11 -6.5 -42t-13.5 -47h2q26 51 88.5 96t145.5 45q66 0 100 -32.5t34 -92.5q0 -33 -25 -158t-25 -143q0 -22 8.5 -33.5t17.5 -13.5t24 -2q17 0 20 1t7 1l-8 -39q-8 0 -12 -1q-7 -1 -19 -1
q-30 0 -56 17t-26 61q0 18 25 143.5t25 157.5q0 94 -96 94q-88 0 -161.5 -70t-91.5 -167l-45 -234h-42zM351 589l116 111h68l-126 -111h-58z" />
    <glyph glyph-name="Ncommaaccent" unicode="&#x145;" horiz-adv-x="824" 
d="M-2 0l8 40h94l121 620h-95l8 40h133l318 -601q2 -4 5 -12.5t4 -9.5l4 -12h2q0 9 1 14q3 22 4 25l109 556h-95l8 40h233l-8 -40h-95l-129 -660h-39l-319 602l-9 22l-3 12h-2q0 -9 -1 -14q-3 -22 -4 -25l-108 -557h95l-8 -40h-232zM320 -66h46q2 -14 2 -21q0 -33 -18 -65.5
t-51 -56.5l-23 23q47 44 47 93q0 12 -3 27z" />
    <glyph glyph-name="ncommaaccent" unicode="&#x146;" horiz-adv-x="634" 
d="M60 0l85 439q5 22 -18 22h-73l8 39h79q28 0 38.5 -9.5t10.5 -30.5q0 -11 -6.5 -42t-13.5 -47h2q26 51 88.5 96t145.5 45q66 0 100 -32.5t34 -92.5q0 -33 -25 -158t-25 -143q0 -22 8.5 -33.5t17.5 -13.5t24 -2q17 0 20 1t7 1l-8 -39q-8 0 -12 -1q-7 -1 -19 -1
q-30 0 -56 17t-26 61q0 18 25 143.5t25 157.5q0 94 -96 94q-88 0 -161.5 -70t-91.5 -167l-45 -234h-42zM253 -66h46q2 -14 2 -21q0 -33 -18 -65.5t-51 -56.5l-23 23q47 44 47 93q0 12 -3 27z" />
    <glyph glyph-name="Ncaron" unicode="&#x147;" horiz-adv-x="824" 
d="M-2 0l8 40h94l121 620h-95l8 40h133l318 -601q2 -4 5 -12.5t4 -9.5l4 -12h2q0 9 1 14q3 22 4 25l109 556h-95l8 40h233l-8 -40h-95l-129 -660h-39l-319 602l-9 22l-3 12h-2q0 -9 -1 -14q-3 -22 -4 -25l-108 -557h95l-8 -40h-232zM479 750l-58 111h50l40 -80h2l72 80h56
l-102 -111h-60z" />
    <glyph glyph-name="ncaron" unicode="&#x148;" horiz-adv-x="634" 
d="M60 0l85 439q5 22 -18 22h-73l8 39h79q28 0 38.5 -9.5t10.5 -30.5q0 -11 -6.5 -42t-13.5 -47h2q26 51 88.5 96t145.5 45q66 0 100 -32.5t34 -92.5q0 -33 -25 -158t-25 -143q0 -22 8.5 -33.5t17.5 -13.5t24 -2q17 0 20 1t7 1l-8 -39q-8 0 -12 -1q-7 -1 -19 -1
q-30 0 -56 17t-26 61q0 18 25 143.5t25 157.5q0 94 -96 94q-88 0 -161.5 -70t-91.5 -167l-45 -234h-42zM364 589l-58 111h50l40 -80h2l72 80h56l-102 -111h-60z" />
    <glyph glyph-name="napostrophe" unicode="&#x149;" horiz-adv-x="634" 
d="M60 0l85 439q5 22 -18 22h-73l8 39h79q28 0 38.5 -9.5t10.5 -30.5q0 -11 -6.5 -42t-13.5 -47h2q26 51 88.5 96t145.5 45q66 0 100 -32.5t34 -92.5q0 -33 -25 -158t-25 -143q0 -22 8.5 -33.5t17.5 -13.5t24 -2q17 0 20 1t7 1l-8 -39q-8 0 -12 -1q-7 -1 -19 -1
q-30 0 -56 17t-26 61q0 18 25 143.5t25 157.5q0 94 -96 94q-88 0 -161.5 -70t-91.5 -167l-45 -234h-42zM138 700h46q2 -14 2 -21q0 -33 -18 -65.5t-51 -56.5l-23 23q47 44 47 93q0 12 -3 27z" />
    <glyph glyph-name="Eng" unicode="&#x14a;" horiz-adv-x="824" 
d="M-2 0l8 40h94l121 620h-95l8 40h134l317 -601q2 -4 5 -12.5t4 -9.5l4 -12h2q0 9 1 14l4 25l109 556h-95l8 40h233l-8 -40h-95l-126 -642q-13 -68 -38 -114t-58.5 -68.5t-67 -31.5t-75.5 -9l8 41q149 0 186 168l-316 598l-9 22l-3 12h-2q0 -9 -1 -14q-3 -22 -4 -25
l-108 -557h95l-8 -40h-232z" />
    <glyph glyph-name="eng" unicode="&#x14b;" horiz-adv-x="613" 
d="M60 0l85 439q5 22 -18 22h-73l8 39h79q28 0 38.5 -9.5t10.5 -30.5q0 -11 -6.5 -42t-13.5 -47h2q26 51 88.5 96t145.5 45q66 0 100 -32.5t34 -92.5q0 -27 -8 -70l-66 -342q-11 -58 -34.5 -98t-52.5 -57.5t-51.5 -23.5t-45.5 -6q-18 0 -25 1q-3 1 -10 1l8 39q3 0 6 -1
t16 -1q18 0 36.5 5t41.5 18.5t42 45t27 76.5l63 328q9 49 9 75q0 94 -96 94q-88 0 -161.5 -70t-91.5 -167l-45 -234h-42z" />
    <glyph glyph-name="Omacron" unicode="&#x14c;" horiz-adv-x="829" 
d="M66 288q0 112 61 210.5t160 156t207 57.5q130 0 211.5 -82t81.5 -210q0 -86 -36.5 -166.5t-96 -138t-137.5 -92.5t-158 -35q-129 0 -211 84t-82 216zM111 288q0 -114 70.5 -186.5t182.5 -72.5q93 0 180.5 52.5t142.5 143.5t55 194q0 111 -70.5 181.5t-182.5 70.5
q-95 0 -182 -51.5t-141.5 -140.5t-54.5 -191zM392 786l7 40h239l-7 -40h-239z" />
    <glyph glyph-name="omacron" unicode="&#x14d;" horiz-adv-x="622" 
d="M39 205q0 126 94 216.5t217 90.5q96 0 156 -60t60 -154q0 -126 -94.5 -218t-216.5 -92q-96 0 -156 61t-60 156zM83 206q0 -78 49 -127.5t128 -49.5q101 0 181.5 79.5t80.5 188.5q0 76 -49.5 125t-127.5 49q-102 0 -182 -78.5t-80 -186.5zM257 625l7 40h239l-7 -40h-239z
" />
    <glyph glyph-name="Obreve" unicode="&#x14e;" horiz-adv-x="829" 
d="M66 288q0 112 61 210.5t160 156t207 57.5q130 0 211.5 -82t81.5 -210q0 -86 -36.5 -166.5t-96 -138t-137.5 -92.5t-158 -35q-129 0 -211 84t-82 216zM111 288q0 -114 70.5 -186.5t182.5 -72.5q93 0 180.5 52.5t142.5 143.5t55 194q0 111 -70.5 181.5t-182.5 70.5
q-95 0 -182 -51.5t-141.5 -140.5t-54.5 -191zM506 747q-42 0 -68.5 27t-17.5 71l3 16h42l-3 -14q-6 -31 8 -46.5t41 -15.5q26 0 46.5 15.5t26.5 47.5l3 13h42l-3 -16q-8 -50 -42 -74t-78 -24z" />
    <glyph glyph-name="obreve" unicode="&#x14f;" horiz-adv-x="622" 
d="M39 205q0 126 94 216.5t217 90.5q96 0 156 -60t60 -154q0 -126 -94.5 -218t-216.5 -92q-96 0 -156 61t-60 156zM83 206q0 -78 49 -127.5t128 -49.5q101 0 181.5 79.5t80.5 188.5q0 76 -49.5 125t-127.5 49q-102 0 -182 -78.5t-80 -186.5zM371 586q-42 0 -68.5 27
t-17.5 71l3 16h42l-3 -14q-6 -31 8 -46.5t41 -15.5q26 0 46.5 15.5t26.5 47.5l3 13h42l-3 -16q-8 -50 -42 -74t-78 -24z" />
    <glyph glyph-name="Ohungarumlaut" unicode="&#x150;" horiz-adv-x="829" 
d="M66 288q0 112 61 210.5t160 156t207 57.5q130 0 211.5 -82t81.5 -210q0 -86 -36.5 -166.5t-96 -138t-137.5 -92.5t-158 -35q-129 0 -211 84t-82 216zM111 288q0 -114 70.5 -186.5t182.5 -72.5q93 0 180.5 52.5t142.5 143.5t55 194q0 111 -70.5 181.5t-182.5 70.5
q-95 0 -182 -51.5t-141.5 -140.5t-54.5 -191zM522 750l89 111h64l-101 -111h-52zM403 750l84 111h58l-87 -111h-55z" />
    <glyph glyph-name="ohungarumlaut" unicode="&#x151;" horiz-adv-x="622" 
d="M39 205q0 126 94 216.5t217 90.5q96 0 156 -60t60 -154q0 -126 -94.5 -218t-216.5 -92q-96 0 -156 61t-60 156zM83 206q0 -78 49 -127.5t128 -49.5q101 0 181.5 79.5t80.5 188.5q0 76 -49.5 125t-127.5 49q-102 0 -182 -78.5t-80 -186.5zM387 589l89 111h64l-101 -111
h-52zM268 589l84 111h58l-87 -111h-55z" />
    <glyph glyph-name="OE" unicode="&#x152;" horiz-adv-x="952" 
d="M66 282q0 173 125.5 300.5t293.5 127.5q19 0 64.5 -5t60.5 -5h342l-26 -130h-42l18 90h-303l-56 -287h279l-8 -40h-279l-57 -293h323l18 91h42l-26 -131h-351q-13 0 -56.5 -5t-61.5 -5q-138 0 -219 81t-81 211zM111 277q0 -110 67.5 -178t185.5 -68q32 0 49 4l22 4
l121 622l-21 4q-17 4 -48 4q-156 0 -266 -115.5t-110 -276.5z" />
    <glyph glyph-name="oe" unicode="&#x153;" horiz-adv-x="1024" 
d="M39 205q0 126 94.5 216.5t214.5 90.5q79 0 133 -40.5t75 -109.5h2q40 68 104 109t142 41q86 0 130 -48.5t44 -128.5q0 -23 -6 -53q-3 -16 -7 -25h-401l-3 -16q-3 -15 -3 -39q0 -76 46 -124.5t130 -48.5q57 0 119 32q21 11 48 31l16 -38q-21 -16 -52 -33q-64 -33 -131 -33
q-82 0 -139 40t-75 111h-2q-42 -68 -113.5 -109.5t-147.5 -41.5q-98 0 -158 61t-60 156zM574 296h355l2 12q2 16 2 30q0 67 -35.5 101t-93.5 34q-72 0 -136.5 -46.5t-93.5 -130.5zM83 206q0 -78 49 -127.5t128 -49.5q101 0 181.5 79.5t80.5 188.5q0 76 -49.5 125t-127.5 49
q-102 0 -182 -78.5t-80 -186.5z" />
    <glyph glyph-name="Racute" unicode="&#x154;" horiz-adv-x="677" 
d="M-2 0l8 40h94l121 620h-95l8 40h290q88 0 133 -26q67 -40 67 -132q0 -90 -60 -154t-149 -74v-2l6 -9l8 -16l81 -204q7 -16 12 -23.5t17.5 -14.5t31.5 -7q12 0 19 1q3 1 9 1l-8 -40q-6 0 -9 -1q-7 -1 -21 -1q-22 0 -38 5.5t-27 19t-17 25t-16 35.5l-72 181
q-11 29 -27 37.5t-47 8.5h-121l-53 -270h95l-8 -40h-232zM204 350h185q76 0 133 54t57 134q0 70 -50 101q-37 21 -113 21h-152zM370 750l116 111h68l-126 -111h-58z" />
    <glyph glyph-name="racute" unicode="&#x155;" horiz-adv-x="356" 
d="M60 0l85 439q5 22 -18 22h-73l8 39h79q28 0 38.5 -9.5t10.5 -30.5q0 -27 -22 -96h2q29 61 77 100.5t109 39.5q14 0 30 -3l-9 -42q-16 2 -22 2q-44 0 -82.5 -27.5t-64.5 -70.5t-43 -86.5t-26 -85.5l-37 -191h-42zM202 589l116 111h68l-126 -111h-58z" />
    <glyph glyph-name="Rcommaaccent" unicode="&#x156;" horiz-adv-x="677" 
d="M-2 0l8 40h94l121 620h-95l8 40h290q88 0 133 -26q67 -40 67 -132q0 -90 -60 -154t-149 -74v-2l6 -9l8 -16l81 -204q7 -16 12 -23.5t17.5 -14.5t31.5 -7q12 0 19 1q3 1 9 1l-8 -40q-6 0 -9 -1q-7 -1 -21 -1q-22 0 -38 5.5t-27 19t-17 25t-16 35.5l-72 181
q-11 29 -27 37.5t-47 8.5h-121l-53 -270h95l-8 -40h-232zM204 350h185q76 0 133 54t57 134q0 70 -50 101q-37 21 -113 21h-152zM262 -66h46q2 -14 2 -21q0 -33 -18 -65.5t-51 -56.5l-23 23q47 44 47 93q0 12 -3 27z" />
    <glyph glyph-name="rcommaaccent" unicode="&#x157;" horiz-adv-x="356" 
d="M60 0l85 439q5 22 -18 22h-73l8 39h79q28 0 38.5 -9.5t10.5 -30.5q0 -27 -22 -96h2q29 61 77 100.5t109 39.5q14 0 30 -3l-9 -42q-16 2 -22 2q-44 0 -82.5 -27.5t-64.5 -70.5t-43 -86.5t-26 -85.5l-37 -191h-42zM44 -66h46q2 -14 2 -21q0 -33 -18 -65.5t-51 -56.5l-23 23
q47 44 47 93q0 12 -3 27z" />
    <glyph glyph-name="Rcaron" unicode="&#x158;" horiz-adv-x="677" 
d="M-2 0l8 40h94l121 620h-95l8 40h290q88 0 133 -26q67 -40 67 -132q0 -90 -60 -154t-149 -74v-2l6 -9l8 -16l81 -204q7 -16 12 -23.5t17.5 -14.5t31.5 -7q12 0 19 1q3 1 9 1l-8 -40q-6 0 -9 -1q-7 -1 -21 -1q-22 0 -38 5.5t-27 19t-17 25t-16 35.5l-72 181
q-11 29 -27 37.5t-47 8.5h-121l-53 -270h95l-8 -40h-232zM204 350h185q76 0 133 54t57 134q0 70 -50 101q-37 21 -113 21h-152zM383 750l-58 111h50l40 -80h2l72 80h56l-102 -111h-60z" />
    <glyph glyph-name="rcaron" unicode="&#x159;" horiz-adv-x="356" 
d="M60 0l85 439q5 22 -18 22h-73l8 39h79q28 0 38.5 -9.5t10.5 -30.5q0 -27 -22 -96h2q29 61 77 100.5t109 39.5q14 0 30 -3l-9 -42q-16 2 -22 2q-44 0 -82.5 -27.5t-64.5 -70.5t-43 -86.5t-26 -85.5l-37 -191h-42zM215 589l-58 111h50l40 -80h2l72 80h56l-102 -111h-60z
" />
    <glyph glyph-name="Sacute" unicode="&#x15a;" horiz-adv-x="561" 
d="M38 124l12 63h44l-12 -60q-9 -49 37.5 -73.5t115.5 -24.5q82 0 140 46t58 122q0 52 -32.5 84.5t-78.5 50l-92.5 36t-79 55t-32.5 93.5q0 88 72 142t174 54q69 0 125.5 -29.5t47.5 -77.5l-13 -63h-44l10 52q7 39 -35.5 58t-97.5 19q-79 0 -135.5 -43t-56.5 -110
q0 -39 23.5 -67t58.5 -42l75.5 -31t75.5 -35t58.5 -54t23.5 -87q0 -93 -73.5 -153.5t-177.5 -60.5q-35 0 -68.5 7t-65 21.5t-48 42.5t-9.5 65zM323 750l116 111h68l-126 -111h-58z" />
    <glyph glyph-name="sacute" unicode="&#x15b;" horiz-adv-x="462" 
d="M13 101l9 48h42l-8 -43q-5 -24 8 -40.5t36.5 -23.5t44.5 -10t42 -3q59 0 104 27.5t45 75.5q0 33 -26 56t-62.5 37.5l-73 30t-62.5 44t-26 68.5q0 65 57 104.5t134 39.5q64 0 106 -26.5t33 -70.5l-11 -53h-42l10 48q7 33 -27 47t-79 14q-52 0 -94.5 -26t-42.5 -72
q0 -31 26 -53.5t62.5 -37l73 -30.5t62.5 -44t26 -67q0 -65 -55 -109t-146 -44q-72 0 -124.5 29.5t-41.5 83.5zM256 589l116 111h68l-126 -111h-58z" />
    <glyph glyph-name="Scircumflex" unicode="&#x15c;" horiz-adv-x="561" 
d="M38 124l12 63h44l-12 -60q-9 -49 37.5 -73.5t115.5 -24.5q82 0 140 46t58 122q0 52 -32.5 84.5t-78.5 50l-92.5 36t-79 55t-32.5 93.5q0 88 72 142t174 54q69 0 125.5 -29.5t47.5 -77.5l-13 -63h-44l10 52q7 39 -35.5 58t-97.5 19q-79 0 -135.5 -43t-56.5 -110
q0 -39 23.5 -67t58.5 -42l75.5 -31t75.5 -35t58.5 -54t23.5 -87q0 -93 -73.5 -153.5t-177.5 -60.5q-35 0 -68.5 7t-65 21.5t-48 42.5t-9.5 65zM250 750l102 111h60l58 -111h-50l-40 80h-2l-72 -80h-56z" />
    <glyph glyph-name="scircumflex" unicode="&#x15d;" horiz-adv-x="462" 
d="M13 101l9 48h42l-8 -43q-5 -24 8 -40.5t36.5 -23.5t44.5 -10t42 -3q59 0 104 27.5t45 75.5q0 33 -26 56t-62.5 37.5l-73 30t-62.5 44t-26 68.5q0 65 57 104.5t134 39.5q64 0 106 -26.5t33 -70.5l-11 -53h-42l10 48q7 33 -27 47t-79 14q-52 0 -94.5 -26t-42.5 -72
q0 -31 26 -53.5t62.5 -37l73 -30.5t62.5 -44t26 -67q0 -65 -55 -109t-146 -44q-72 0 -124.5 29.5t-41.5 83.5zM183 589l102 111h60l58 -111h-50l-40 80h-2l-72 -80h-56z" />
    <glyph glyph-name="Scedilla" unicode="&#x15e;" horiz-adv-x="561" 
d="M164 -92l33 82q-45 5 -81.5 17.5t-61.5 43t-16 73.5l12 63h44l-12 -60q-9 -49 37.5 -73.5t115.5 -24.5q82 0 140 46t58 122q0 52 -32.5 84.5t-78.5 50l-92.5 36t-79 55t-32.5 93.5q0 88 72 142t174 54q69 0 125.5 -29.5t47.5 -77.5l-13 -63h-44l10 52q7 39 -35.5 58
t-97.5 19q-79 0 -135.5 -43t-56.5 -110q0 -39 23.5 -67t58.5 -42l75.5 -31t75.5 -35t58.5 -54t23.5 -87q0 -92 -72 -152t-176 -62l-18 -48q25 -4 41.5 -20t16.5 -44q0 -39 -31.5 -59.5t-71.5 -20.5q-19 0 -35 2l-13 3l8 37l11 -3q14 -2 28 -2q62 0 62 43q0 32 -54 32h-12z
" />
    <glyph glyph-name="scedilla" unicode="&#x15f;" horiz-adv-x="462" 
d="M119 -92l33 81q-66 7 -107.5 35t-31.5 77l9 48h42l-8 -43q-5 -24 8 -40.5t36.5 -23.5t44.5 -10t42 -3q59 0 104 27.5t45 75.5q0 33 -26 56t-62.5 37.5l-73 30t-62.5 44t-26 68.5q0 65 57 104.5t134 39.5q64 0 106 -26.5t33 -70.5l-11 -53h-42l10 48q7 33 -27 47t-79 14
q-52 0 -94.5 -26t-42.5 -72q0 -31 26 -53.5t62.5 -37l73 -30.5t62.5 -44t26 -67q0 -64 -52.5 -107.5t-140.5 -45.5l-18 -48q25 -4 41.5 -20t16.5 -44q0 -39 -31.5 -59.5t-71.5 -20.5q-19 0 -35 2l-13 3l8 37l11 -3q14 -2 28 -2q62 0 62 43q0 32 -54 32h-12z" />
    <glyph glyph-name="Scaron" unicode="&#x160;" horiz-adv-x="561" 
d="M38 124l12 63h44l-12 -60q-9 -49 37.5 -73.5t115.5 -24.5q82 0 140 46t58 122q0 52 -32.5 84.5t-78.5 50l-92.5 36t-79 55t-32.5 93.5q0 88 72 142t174 54q69 0 125.5 -29.5t47.5 -77.5l-13 -63h-44l10 52q7 39 -35.5 58t-97.5 19q-79 0 -135.5 -43t-56.5 -110
q0 -39 23.5 -67t58.5 -42l75.5 -31t75.5 -35t58.5 -54t23.5 -87q0 -93 -73.5 -153.5t-177.5 -60.5q-35 0 -68.5 7t-65 21.5t-48 42.5t-9.5 65zM336 750l-58 111h50l40 -80h2l72 80h56l-102 -111h-60z" />
    <glyph glyph-name="scaron" unicode="&#x161;" horiz-adv-x="462" 
d="M13 101l9 48h42l-8 -43q-5 -24 8 -40.5t36.5 -23.5t44.5 -10t42 -3q59 0 104 27.5t45 75.5q0 33 -26 56t-62.5 37.5l-73 30t-62.5 44t-26 68.5q0 65 57 104.5t134 39.5q64 0 106 -26.5t33 -70.5l-11 -53h-42l10 48q7 33 -27 47t-79 14q-52 0 -94.5 -26t-42.5 -72
q0 -31 26 -53.5t62.5 -37l73 -30.5t62.5 -44t26 -67q0 -65 -55 -109t-146 -44q-72 0 -124.5 29.5t-41.5 83.5zM269 589l-58 111h50l40 -80h2l72 80h56l-102 -111h-60z" />
    <glyph glyph-name="Tcommaaccent" unicode="&#x162;" horiz-adv-x="643" 
d="M145 0l8 40h95l121 620h-224l-23 -118h-42l31 158h575l-31 -158h-42l23 118h-224l-121 -620h95l-8 -40h-99l-23 -60q25 -4 41.5 -20t16.5 -44q0 -39 -31.5 -59.5t-71.5 -20.5q-19 0 -35 2l-13 3l8 37l11 -3q14 -2 28 -2q62 0 62 43q0 32 -54 32h-12l37 92h-98z" />
    <glyph glyph-name="tcommaaccent" unicode="&#x163;" horiz-adv-x="311" 
d="M88 -92l44 108q-49 33 -49 117q0 25 6 58l52 270h-95l8 39h95l27 139h42l-27 -139h131l-8 -39h-131l-53 -277q-5 -24 -5 -49q0 -100 89 -100q18 0 21 1t8 1l-8 -39q-3 0 -6 -1t-15 -1q-29 0 -52 6l-24 -62q25 -4 41.5 -20t16.5 -44q0 -39 -31.5 -59.5t-71.5 -20.5
q-19 0 -35 2l-13 3l8 37l11 -3q14 -2 28 -2q62 0 62 43q0 32 -54 32h-12z" />
    <glyph glyph-name="Tcaron" unicode="&#x164;" horiz-adv-x="643" 
d="M145 0l8 40h95l121 620h-224l-23 -118h-42l31 158h575l-31 -158h-42l23 118h-224l-121 -620h95l-8 -40h-233zM380 750l-58 111h50l40 -80h2l72 80h56l-102 -111h-60z" />
    <glyph glyph-name="tcaron" unicode="&#x165;" horiz-adv-x="311" 
d="M83 133q0 25 6 58l52 270h-95l8 39h95l27 139h42l-27 -139h131l-8 -39h-131l-53 -277q-5 -24 -5 -49q0 -100 89 -100q18 0 21 1t8 1l-8 -39q-3 0 -6 -1t-15 -1q-131 0 -131 137zM322 700h46q2 -14 2 -21q0 -33 -18 -65.5t-51 -56.5l-23 23q47 44 47 93q0 12 -3 27z" />
    <glyph glyph-name="Tbar" unicode="&#x166;" horiz-adv-x="643" 
d="M145 0l8 40h95l58 297h-192l8 40h192l55 283h-224l-23 -118h-42l31 158h575l-31 -158h-42l23 118h-224l-55 -283h194l-8 -40h-194l-58 -297h95l-8 -40h-233z" />
    <glyph glyph-name="tbar" unicode="&#x167;" horiz-adv-x="311" 
d="M84 133q0 25 6 58l20 104h-89l7 40h89l25 126h-95l8 39h95l27 139h42l-27 -139h131l-8 -39h-131l-25 -126h126l-8 -40h-125l-21 -111q-5 -24 -5 -49q0 -100 89 -100q18 0 21 1t8 1l-8 -39q-3 0 -6 -1t-15 -1q-131 0 -131 137z" />
    <glyph glyph-name="Utilde" unicode="&#x168;" horiz-adv-x="788" 
d="M116 182q0 43 10 83l77 395h-95l8 40h233l-8 -40h-95l-77 -396q-9 -45 -9 -77q0 -73 48 -115.5t134 -42.5q96 0 161 49q77 57 98 167l82 415h-95l8 40h233l-8 -40h-95l-84 -425q-26 -132 -120 -195q-76 -52 -182 -52q-102 0 -163 53.5t-61 140.5zM385 753h-44
q19 108 97 108q23 0 40 -11.5t24.5 -24.5t19 -24.5t25.5 -11.5q6 0 11 1.5t9 5t7.5 7t6.5 9t5 9.5t4.5 10.5t3.5 9.5t3 9.5t2 7.5h44q-10 -53 -35 -80.5t-62 -27.5q-23 0 -40 11t-24.5 25t-19 25t-25.5 11q-37 0 -52 -69z" />
    <glyph glyph-name="utilde" unicode="&#x169;" horiz-adv-x="635" 
d="M80 114q0 26 8 69l53 278h-94l7 39h137l-58 -300q-10 -41 -10 -80q0 -91 98 -91q89 0 160 73.5t88 165.5l37 193h-94l7 39h137l-75 -385q-3 -18 -3 -29q0 -31 13.5 -40t36.5 -9q18 0 21 1t6 1l-8 -39q-8 0 -12 -1q-7 -1 -19 -1q-55 0 -72 35.5t-2 87.5h-2
q-29 -48 -86.5 -90.5t-139.5 -42.5q-59 0 -96.5 30.5t-37.5 95.5zM258 592h-44q20 108 97 108q23 0 40 -11t24.5 -25t19 -25t25.5 -11q6 0 11 1.5t9 5t7.5 7t6.5 9t5 9.5t4.5 10.5t3.5 9.5t3 9.5t2 7.5h44q-20 -108 -97 -108q-23 0 -40 11.5t-24.5 24.5t-19 24.5t-25.5 11.5
q-37 0 -52 -69z" />
    <glyph glyph-name="Umacron" unicode="&#x16a;" horiz-adv-x="788" 
d="M116 182q0 43 10 83l77 395h-95l8 40h233l-8 -40h-95l-77 -396q-9 -45 -9 -77q0 -73 48 -115.5t134 -42.5q96 0 161 49q77 57 98 167l82 415h-95l8 40h233l-8 -40h-95l-84 -425q-26 -132 -120 -195q-76 -52 -182 -52q-102 0 -163 53.5t-61 140.5zM369 786l7 40h239
l-7 -40h-239z" />
    <glyph glyph-name="umacron" unicode="&#x16b;" horiz-adv-x="635" 
d="M80 114q0 26 8 69l53 278h-94l7 39h137l-58 -300q-10 -41 -10 -80q0 -91 98 -91q89 0 160 73.5t88 165.5l37 193h-94l7 39h137l-75 -385q-3 -18 -3 -29q0 -31 13.5 -40t36.5 -9q18 0 21 1t6 1l-8 -39q-8 0 -12 -1q-7 -1 -19 -1q-55 0 -72 35.5t-2 87.5h-2
q-29 -48 -86.5 -90.5t-139.5 -42.5q-59 0 -96.5 30.5t-37.5 95.5zM242 625l7 40h239l-7 -40h-239z" />
    <glyph glyph-name="Ubreve" unicode="&#x16c;" horiz-adv-x="788" 
d="M116 182q0 43 10 83l77 395h-95l8 40h233l-8 -40h-95l-77 -396q-9 -45 -9 -77q0 -73 48 -115.5t134 -42.5q96 0 161 49q77 57 98 167l82 415h-95l8 40h233l-8 -40h-95l-84 -425q-26 -132 -120 -195q-76 -52 -182 -52q-102 0 -163 53.5t-61 140.5zM483 747q-42 0 -68.5 27
t-17.5 71l3 16h42l-3 -14q-6 -31 8 -46.5t41 -15.5q26 0 46.5 15.5t26.5 47.5l3 13h42l-3 -16q-8 -50 -42 -74t-78 -24z" />
    <glyph glyph-name="ubreve" unicode="&#x16d;" horiz-adv-x="635" 
d="M80 114q0 26 8 69l53 278h-94l7 39h137l-58 -300q-10 -41 -10 -80q0 -91 98 -91q89 0 160 73.5t88 165.5l37 193h-94l7 39h137l-75 -385q-3 -18 -3 -29q0 -31 13.5 -40t36.5 -9q18 0 21 1t6 1l-8 -39q-8 0 -12 -1q-7 -1 -19 -1q-55 0 -72 35.5t-2 87.5h-2
q-29 -48 -86.5 -90.5t-139.5 -42.5q-59 0 -96.5 30.5t-37.5 95.5zM356 586q-42 0 -68.5 27t-17.5 71l3 16h42l-3 -14q-6 -31 8 -46.5t41 -15.5q26 0 46.5 15.5t26.5 47.5l3 13h42l-3 -16q-8 -50 -42 -74t-78 -24z" />
    <glyph glyph-name="Uring" unicode="&#x16e;" horiz-adv-x="788" 
d="M116 182q0 43 10 83l77 395h-95l8 40h233l-8 -40h-95l-77 -396q-9 -45 -9 -77q0 -73 48 -115.5t134 -42.5q96 0 161 49q77 57 98 167l82 415h-95l8 40h233l-8 -40h-95l-84 -425q-26 -132 -120 -195q-76 -52 -182 -52q-102 0 -163 53.5t-61 140.5zM483 733q-29 0 -48 18
t-19 46q0 34 26.5 59t59.5 25q30 0 49 -17.5t19 -46.5q0 -33 -26.5 -58.5t-60.5 -25.5zM485 770q20 0 32.5 13.5t12.5 33.5q0 28 -30 28q-18 0 -31 -13.5t-13 -33.5q0 -28 29 -28z" />
    <glyph glyph-name="uring" unicode="&#x16f;" horiz-adv-x="635" 
d="M80 114q0 26 8 69l53 278h-94l7 39h137l-58 -300q-10 -41 -10 -80q0 -91 98 -91q89 0 160 73.5t88 165.5l37 193h-94l7 39h137l-75 -385q-3 -18 -3 -29q0 -31 13.5 -40t36.5 -9q18 0 21 1t6 1l-8 -39q-8 0 -12 -1q-7 -1 -19 -1q-55 0 -72 35.5t-2 87.5h-2
q-29 -48 -86.5 -90.5t-139.5 -42.5q-59 0 -96.5 30.5t-37.5 95.5zM356 572q-29 0 -48 18t-19 46q0 34 26.5 59t59.5 25q30 0 49 -17.5t19 -46.5q0 -33 -26.5 -58.5t-60.5 -25.5zM358 609q20 0 32.5 13.5t12.5 33.5q0 28 -30 28q-18 0 -31 -13.5t-13 -33.5q0 -28 29 -28z" />
    <glyph glyph-name="Uhungarumlaut" unicode="&#x170;" horiz-adv-x="788" 
d="M116 182q0 43 10 83l77 395h-95l8 40h233l-8 -40h-95l-77 -396q-9 -45 -9 -77q0 -73 48 -115.5t134 -42.5q96 0 161 49q77 57 98 167l82 415h-95l8 40h233l-8 -40h-95l-84 -425q-26 -132 -120 -195q-76 -52 -182 -52q-102 0 -163 53.5t-61 140.5zM499 750l89 111h64
l-101 -111h-52zM380 750l84 111h58l-87 -111h-55z" />
    <glyph glyph-name="uhungarumlaut" unicode="&#x171;" horiz-adv-x="635" 
d="M80 114q0 26 8 69l53 278h-94l7 39h137l-58 -300q-10 -41 -10 -80q0 -91 98 -91q89 0 160 73.5t88 165.5l37 193h-94l7 39h137l-75 -385q-3 -18 -3 -29q0 -31 13.5 -40t36.5 -9q18 0 21 1t6 1l-8 -39q-8 0 -12 -1q-7 -1 -19 -1q-55 0 -72 35.5t-2 87.5h-2
q-29 -48 -86.5 -90.5t-139.5 -42.5q-59 0 -96.5 30.5t-37.5 95.5zM372 589l89 111h64l-101 -111h-52zM253 589l84 111h58l-87 -111h-55z" />
    <glyph glyph-name="Uogonek" unicode="&#x172;" horiz-adv-x="788" 
d="M116 187q0 27 6 57l81 416h-95l8 40h233l-8 -40h-95l-81 -417q-5 -24 -5 -52q0 -77 47.5 -119.5t134.5 -42.5q99 0 169 57.5t90 158.5l82 415h-95l8 40h233l-8 -40h-95l-84 -425q-33 -168 -193 -232q-16 -8 -36 -21t-45.5 -42.5t-25.5 -57.5q0 -27 29 -41q12 -5 29 -7
l-18 -38q-27 5 -42 14q-43 23 -43 65q0 60 72 114q-45 -4 -88 4.5t-81 30t-61 64t-23 99.5z" />
    <glyph glyph-name="uogonek" unicode="&#x173;" horiz-adv-x="635" 
d="M389 -125q0 38 24.5 68t67.5 60q-34 11 -43.5 45.5t4.5 72.5h-2q-29 -48 -86.5 -90.5t-139.5 -42.5q-59 0 -96.5 30.5t-37.5 95.5q0 26 8 69l53 278h-94l7 39h137l-58 -300q-10 -41 -10 -80q0 -91 98 -91q89 0 160 73.5t88 165.5l37 193h-94l7 39h137l-75 -385
q-3 -18 -3 -29q0 -31 13.5 -40t36.5 -9q18 0 21 1t6 1l-8 -39h-3q-2 0 -3 -0.5t-3 -0.5q-24 -8 -64 -46.5t-40 -70.5q0 -27 29 -41q12 -5 29 -7l-18 -38q-27 5 -42 14q-43 23 -43 65z" />
    <glyph glyph-name="Wcircumflex" unicode="&#x174;" horiz-adv-x="988" 
d="M202 0l-40 660h-74l8 40h202l-8 -40h-84l31 -567v-26q0 -8 -1 -12h3q1 4 5 12l12 26l292 607h47l56 -607q1 -9 1 -26v-12h3q1 4 5 12q1 3 4.5 12l5.5 14l251 567h-84l8 40h206l-8 -40h-74l-298 -660h-54l-55 599q-1 9 -1 26q0 8 1 12h-3q-2 -8 -4 -12q-1 -3 -4.5 -12
l-5.5 -14l-289 -599h-54zM471 750l102 111h60l58 -111h-50l-40 80h-2l-72 -80h-56z" />
    <glyph glyph-name="wcircumflex" unicode="&#x175;" horiz-adv-x="846" 
d="M173 0l-64 461h-66l7 39h190l-7 -39h-81l48 -377q1 -7 1 -22v-10h2q3 8 4 10q8 18 10 22l221 414h46l59 -414q2 -14 2 -22v-10h2l4 10q1 1 4 9.5t5 12.5l196 377h-81l7 39h194l-7 -39h-66l-244 -461h-42l-61 411l-2 22q-1 3 -1 11h-2q-2 -8 -4 -11l-11 -22l-221 -411h-42
zM366 589l102 111h60l58 -111h-50l-40 80h-2l-72 -80h-56z" />
    <glyph glyph-name="Ycircumflex" unicode="&#x176;" horiz-adv-x="636" 
d="M144 0l8 40h95l52 264l-146 356h-71l8 40h202l-8 -40h-83l116 -287q2 -3 3.5 -8t2.5 -8q2 -6 2 -9h2q1 3 6 8l13 17l229 287h-83l8 40h205l-8 -40h-71l-284 -356l-52 -264h95l-8 -40h-233zM292 750l102 111h60l58 -111h-50l-40 80h-2l-72 -80h-56z" />
    <glyph glyph-name="ycircumflex" unicode="&#x177;" horiz-adv-x="562" 
d="M-46 -183l24 34q6 -6 16 -11q22 -10 42 -10q61 0 117 90l50 82l-93 459h-68l8 39h191l-8 -39h-79l75 -381q2 -5 2 -20v-8h2l4 8l11 20l223 381h-79l8 39h195l-8 -39h-69l-336 -566q-64 -105 -148 -105q-36 0 -60 13q-10 6 -20 14zM231 589l102 111h60l58 -111h-50l-40 80
h-2l-72 -80h-56z" />
    <glyph glyph-name="Ydieresis" unicode="&#x178;" horiz-adv-x="636" 
d="M144 0l8 40h95l52 264l-146 356h-71l8 40h202l-8 -40h-83l116 -287q2 -3 3.5 -8t2.5 -8q2 -6 2 -9h2q1 3 6 8l13 17l229 287h-83l8 40h205l-8 -40h-71l-284 -356l-52 -264h95l-8 -40h-233zM470 788l15 73h54l-15 -73h-54zM302 788l15 73h54l-15 -73h-54z" />
    <glyph glyph-name="Zacute" unicode="&#x179;" horiz-adv-x="615" 
d="M4 0l7 34l516 593q4 5 8 9t9 8.5t7 6.5l10 9v2q-7 0 -11 -1q-7 -1 -27 -1h-344l-23 -118h-42l31 158h480l-7 -34l-517 -593l-24 -24l-10 -9v-2q8 0 12 1q7 1 26 1h358l24 120h42l-32 -160h-493zM350 750l116 111h68l-126 -111h-58z" />
    <glyph glyph-name="zacute" unicode="&#x17a;" horiz-adv-x="507" 
d="M-10 0l6 34l374 381q42 46 47 46v2q-8 0 -13 -1q-8 -1 -37 -1h-228l-18 -95h-41l26 134h379l-7 -34l-375 -381l-22.5 -22t-18.5 -17l-7 -7v-2q8 0 13 1q9 1 38 1h256l19 95h41l-26 -134h-406zM266 589l116 111h68l-126 -111h-58z" />
    <glyph glyph-name="Zdotaccent" unicode="&#x17b;" horiz-adv-x="615" 
d="M4 0l7 34l516 593q4 5 8 9t9 8.5t7 6.5l10 9v2q-7 0 -11 -1q-7 -1 -27 -1h-344l-23 -118h-42l31 158h480l-7 -34l-517 -593l-24 -24l-10 -9v-2q8 0 12 1q7 1 26 1h358l24 120h42l-32 -160h-493zM371 788l14 73h54l-14 -73h-54z" />
    <glyph glyph-name="zdotaccent" unicode="&#x17c;" horiz-adv-x="507" 
d="M-10 0l6 34l374 381q42 46 47 46v2q-8 0 -13 -1q-8 -1 -37 -1h-228l-18 -95h-41l26 134h379l-7 -34l-375 -381l-22.5 -22t-18.5 -17l-7 -7v-2q8 0 13 1q9 1 38 1h256l19 95h41l-26 -134h-406zM287 627l14 73h54l-14 -73h-54z" />
    <glyph glyph-name="Zcaron" unicode="&#x17d;" horiz-adv-x="615" 
d="M4 0l7 34l516 593q4 5 8 9t9 8.5t7 6.5l10 9v2q-7 0 -11 -1q-7 -1 -27 -1h-344l-23 -118h-42l31 158h480l-7 -34l-517 -593l-24 -24l-10 -9v-2q8 0 12 1q7 1 26 1h358l24 120h42l-32 -160h-493zM363 750l-58 111h50l40 -80h2l72 80h56l-102 -111h-60z" />
    <glyph glyph-name="zcaron" unicode="&#x17e;" horiz-adv-x="507" 
d="M-10 0l6 34l374 381q42 46 47 46v2q-8 0 -13 -1q-8 -1 -37 -1h-228l-18 -95h-41l26 134h379l-7 -34l-375 -381l-22.5 -22t-18.5 -17l-7 -7v-2q8 0 13 1q9 1 38 1h256l19 95h41l-26 -134h-406zM279 589l-58 111h50l40 -80h2l72 80h56l-102 -111h-60z" />
    <glyph glyph-name="longs" unicode="&#x17f;" horiz-adv-x="254" 
d="M60 0l89 462h-95l7 38h95l5 22q9 47 28 81.5t39.5 53t45.5 29.5t42 14t34 3q18 0 23 -1q3 -1 8 -1l-9 -39q-3 0 -6 1t-16 1q-121 0 -147 -141l-101 -523h-42z" />
    <glyph glyph-name="florin" unicode="&#x192;" horiz-adv-x="444" 
d="M-136 -95l8 38l17 -3q22 -2 43 -2q19 0 37.5 5t42 18.5t45 45t34.5 76.5l84 295h-96l7 38h99l34 118q16 56 42.5 94.5t57 55t53.5 22.5t46 6q42 0 63 -4l26 -4l-7 -38l-25 4q-15 3 -56 3q-116 0 -159 -145l-33 -112h133l-7 -38h-136l-87 -304q-16 -55 -42.5 -93
t-56.5 -54t-52.5 -22t-45.5 -6q-32 0 -50 3z" />
    <glyph glyph-name="Scommaaccent" unicode="&#x218;" horiz-adv-x="561" 
d="M38 124l12 63h44l-12 -60q-9 -49 37.5 -73.5t115.5 -24.5q82 0 140 46t58 122q0 52 -32.5 84.5t-78.5 50l-92.5 36t-79 55t-32.5 93.5q0 88 72 142t174 54q69 0 125.5 -29.5t47.5 -77.5l-13 -63h-44l10 52q7 39 -35.5 58t-97.5 19q-79 0 -135.5 -43t-56.5 -110
q0 -39 23.5 -67t58.5 -42l75.5 -31t75.5 -35t58.5 -54t23.5 -87q0 -93 -73.5 -153.5t-177.5 -60.5q-35 0 -68.5 7t-65 21.5t-48 42.5t-9.5 65zM184 -66h46q2 -14 2 -21q0 -33 -18 -65.5t-51 -56.5l-23 23q47 44 47 93q0 12 -3 27z" />
    <glyph glyph-name="scommaaccent" unicode="&#x219;" horiz-adv-x="462" 
d="M13 101l9 48h42l-8 -43q-5 -24 8 -40.5t36.5 -23.5t44.5 -10t42 -3q59 0 104 27.5t45 75.5q0 33 -26 56t-62.5 37.5l-73 30t-62.5 44t-26 68.5q0 65 57 104.5t134 39.5q64 0 106 -26.5t33 -70.5l-11 -53h-42l10 48q7 33 -27 47t-79 14q-52 0 -94.5 -26t-42.5 -72
q0 -31 26 -53.5t62.5 -37l73 -30.5t62.5 -44t26 -67q0 -65 -55 -109t-146 -44q-72 0 -124.5 29.5t-41.5 83.5zM134 -66h46q2 -14 2 -21q0 -33 -18 -65.5t-51 -56.5l-23 23q47 44 47 93q0 12 -3 27z" />
    <glyph glyph-name="uni021A" unicode="&#x21a;" horiz-adv-x="643" 
d="M145 0l8 40h95l121 620h-224l-23 -118h-42l31 158h575l-31 -158h-42l23 118h-224l-121 -620h95l-8 -40h-233zM224 -66h46q2 -14 2 -21q0 -33 -18 -65.5t-51 -56.5l-23 23q47 44 47 93q0 12 -3 27z" />
    <glyph glyph-name="uni021B" unicode="&#x21b;" horiz-adv-x="311" 
d="M83 133q0 25 6 58l52 270h-95l8 39h95l27 139h42l-27 -139h131l-8 -39h-131l-53 -277q-5 -24 -5 -49q0 -100 89 -100q18 0 21 1t8 1l-8 -39q-3 0 -6 -1t-15 -1q-131 0 -131 137zM108 -66h46q2 -14 2 -21q0 -33 -18 -65.5t-51 -56.5l-23 23q47 44 47 93q0 12 -3 27z" />
    <glyph glyph-name="circumflex" unicode="&#x2c6;" horiz-adv-x="508" 
d="M75 750l102 111h60l58 -111h-50l-40 80h-2l-72 -80h-56z" />
    <glyph glyph-name="caron" unicode="&#x2c7;" horiz-adv-x="508" 
d="M161 750l-58 111h50l40 -80h2l72 80h56l-102 -111h-60z" />
    <glyph glyph-name="breve" unicode="&#x2d8;" horiz-adv-x="510" 
d="M189 747q-42 0 -68.5 27t-17.5 71l3 16h42l-3 -14q-6 -31 8 -46.5t41 -15.5q26 0 46.5 15.5t26.5 47.5l3 13h42l-3 -16q-8 -50 -42 -74t-78 -24z" />
    <glyph glyph-name="dotaccent" unicode="&#x2d9;" horiz-adv-x="510" 
d="M170 788l14 73h54l-14 -73h-54z" />
    <glyph glyph-name="ring" unicode="&#x2da;" horiz-adv-x="510" 
d="M190 733q-29 0 -48 18t-19 46q0 34 26.5 59t59.5 25q30 0 49 -17.5t19 -46.5q0 -33 -26.5 -58.5t-60.5 -25.5zM192 770q20 0 32.5 13.5t12.5 33.5q0 28 -30 28q-18 0 -31 -13.5t-13 -33.5q0 -28 29 -28z" />
    <glyph glyph-name="ogonek" unicode="&#x2db;" horiz-adv-x="509" 
d="M124 -125q0 73 115 142h41l-3 -17q-15 0 -61.5 -41.5t-46.5 -76.5q0 -27 29 -41q12 -5 29 -7l-18 -38q-27 5 -42 14q-43 23 -43 65z" />
    <glyph glyph-name="tilde" unicode="&#x2dc;" horiz-adv-x="509" 
d="M92 753h-44q20 108 97 108q23 0 40 -11.5t24.5 -24.5t19 -24.5t25.5 -11.5q6 0 11 1.5t9 5t7.5 7t6.5 9t5 9.5t4.5 10.5t3.5 9.5t3 9.5t2 7.5h44q-20 -108 -97 -108q-23 0 -40 11t-24.5 25t-19 25t-25.5 11q-37 0 -52 -69z" />
    <glyph glyph-name="hungarumlaut" unicode="&#x2dd;" horiz-adv-x="509" 
d="M183 750l89 111h64l-101 -111h-52zM64 750l84 111h58l-87 -111h-55z" />
    <glyph glyph-name="uni1E9E" unicode="&#x1e9e;" horiz-adv-x="692" 
d="M-14 0l8 40h94l94 485q14 76 72 125.5t137 49.5h270l-6 -30l-199 -237l-16 -18v-2q33 -4 63 -15.5t57 -30.5t43.5 -50t16.5 -71q0 -110 -86.5 -181t-217.5 -71q-41 0 -68 5q-18 4 -26 5l8 42l24 -5q28 -5 64 -5q112 0 184 56t72 152q0 120 -195 137l5 26l195 233
q3 3 13 14l6 6l1 2q-5 0 -8 -1t-16 -1h-184q-60 0 -108 -39.5t-58 -95.5l-102 -525h-137z" />
    <glyph glyph-name="thinspace" unicode="&#x2009;" horiz-adv-x="287" 
 />
    <glyph glyph-name="endash" unicode="&#x2013;" horiz-adv-x="727" 
d="M119 263l7 40h476l-7 -40h-476z" />
    <glyph glyph-name="emdash" unicode="&#x2014;" horiz-adv-x="927" 
d="M119 263l7 40h676l-7 -40h-676z" />
    <glyph glyph-name="quoteleft" unicode="&#x2018;" horiz-adv-x="210" 
d="M102 517l94 191h41l-79 -191h-56z" />
    <glyph glyph-name="quoteright" unicode="&#x2019;" horiz-adv-x="206" 
d="M104 517l79 191h56l-94 -191h-41z" />
    <glyph glyph-name="quotesinglbase" unicode="&#x201a;" horiz-adv-x="240" 
d="M-25 -130l79 191h56l-94 -191h-41z" />
    <glyph glyph-name="quotedblleft" unicode="&#x201c;" horiz-adv-x="320" 
d="M212 517l94 191h41l-79 -191h-56zM102 517l94 191h41l-79 -191h-56z" />
    <glyph glyph-name="quotedblright" unicode="&#x201d;" horiz-adv-x="316" 
d="M214 517l79 191h56l-94 -191h-41zM104 517l79 191h56l-94 -191h-41z" />
    <glyph glyph-name="quotedblbase" unicode="&#x201e;" horiz-adv-x="350" 
d="M164 61h56l-94 -191h-41zM54 61h56l-94 -191h-41z" />
    <glyph glyph-name="dagger" unicode="&#x2020;" horiz-adv-x="376" 
d="M98 -50l99 510h-114l8 40h114l38 200h42l-38 -200h119l-8 -40h-119l-99 -510h-42z" />
    <glyph glyph-name="daggerdbl" unicode="&#x2021;" horiz-adv-x="386" 
d="M103 -50l45 236h-114l8 40h114l46 234h-114l8 40h114l38 200h42l-38 -200h119l-8 -40h-119l-46 -234h119l-8 -40h-119l-45 -236h-42z" />
    <glyph glyph-name="bullet" unicode="&#x2022;" horiz-adv-x="395" 
d="M196 159q-54 0 -93 39t-39 93t39 93t93 39t93 -39t39 -93t-39 -93t-93 -39z" />
    <glyph glyph-name="ellipsis" unicode="&#x2026;" horiz-adv-x="663" 
d="M460 0l13 63h61l-13 -63h-61zM247 0l13 63h61l-13 -63h-61zM34 0l13 63h61l-13 -63h-61z" />
    <glyph glyph-name="perthousand" unicode="&#x2030;" horiz-adv-x="1005" 
d="M232 451q-53 0 -82.5 30.5t-29.5 84.5q0 55 48 100.5t107 45.5q51 0 81 -31t30 -82q0 -57 -47.5 -102.5t-106.5 -45.5zM9 0l662 700h57l-663 -700h-56zM236 491q42 0 74.5 32.5t32.5 76.5q0 31 -20 51.5t-52 20.5q-42 0 -75 -33t-33 -76q0 -31 20 -51.5t53 -20.5z
M667 103q0 55 48 100.5t107 45.5q51 0 81 -31t30 -82q0 -57 -47.5 -102.5t-106.5 -45.5q-53 0 -82.5 30.5t-29.5 84.5zM346 103q0 55 48 100.5t107 45.5q51 0 81 -31t30 -82q0 -57 -47.5 -102.5t-106.5 -45.5q-53 0 -82.5 30.5t-29.5 84.5zM710 100q0 -31 20 -51.5t53 -20.5
q43 0 75 32t32 77q0 31 -20 51.5t-52 20.5q-42 0 -75 -33t-33 -76zM389 100q0 -31 20 -51.5t53 -20.5q42 0 74.5 32t32.5 77q0 31 -20 51.5t-52 20.5q-42 0 -75 -33t-33 -76z" />
    <glyph glyph-name="guilsinglleft" unicode="&#x2039;" horiz-adv-x="329" 
d="M179 77l-128 208l192 203h57l-199 -208l126 -203h-48z" />
    <glyph glyph-name="guilsinglright" unicode="&#x203a;" horiz-adv-x="331" 
d="M27 77l199 208l-126 203h48l128 -208l-192 -203h-57z" />
    <glyph glyph-name="fraction" unicode="&#x2044;" horiz-adv-x="149" 
d="M-126 0h-47l472 700h46z" />
    <glyph glyph-name="zerosuperior" unicode="&#x2070;" horiz-adv-x="398" 
d="M227 413q-119 0 -119 138q0 45 10 95.5t31.5 102t62 85t94.5 33.5q119 0 119 -141q0 -45 -10 -94.5t-31.5 -101t-62 -84.5t-94.5 -33zM229 449q42 0 74.5 29t49.5 73.5t25 89t8 84.5q0 106 -82 106q-42 0 -74.5 -29.5t-49.5 -74.5t-25 -89.5t-8 -85.5q0 -103 82 -103z
" />
    <glyph glyph-name="foursuperior" unicode="&#x2074;" horiz-adv-x="374" 
d="M264 423l24 121h-215l5 26l278 287h31l-54 -277h68l-7 -36h-68l-24 -121h-38zM133 580h162l34 175q1 4 3 13.5t4 13.5l4 14h-2q-1 -1 -2.5 -3t-3 -4.5t-2.5 -3.5q-5 -7 -21 -23l-176 -180v-2z" />
    <glyph glyph-name="fivesuperior" unicode="&#x2075;" horiz-adv-x="361" 
d="M205 413q-53 0 -99 32q-20 14 -34 31l29 24q15 -17 28 -25q38 -26 77 -26q52 0 89 36.5t37 86.5q0 42 -26 67.5t-68 25.5q-31 0 -61 -13q-14 -6 -25 -14l-24 10l67 209h209l-18 -93h-38l11 57h-139l-34 -112l-6 -15l-3 -7h2q7 4 17 7q22 6 46 6q57 0 93 -35.5t36 -90.5
q0 -66 -48.5 -113.5t-117.5 -47.5z" />
    <glyph glyph-name="sixsuperior" unicode="&#x2076;" horiz-adv-x="380" 
d="M230 413q-62 0 -94 41.5t-32 110.5q0 40 16 90t44.5 98.5t75 81t100.5 32.5q31 0 61 -10q14 -5 22 -11l-21 -30q-2 1 -18 8q-18 7 -46 7q-60 0 -108 -52t-72 -126h2q48 48 119 48q52 0 83 -30.5t31 -83.5q0 -81 -50.5 -127.5t-112.5 -46.5zM230 449q54 0 89 40.5t35 96.5
q0 37 -22.5 58t-60.5 21q-44 0 -86 -32t-42 -72q0 -44 23 -78t64 -34z" />
    <glyph glyph-name="sevensuperior" unicode="&#x2077;" horiz-adv-x="339" 
d="M94 423l262 378q3 5 12 14l6 6v2q-4 0 -7 -1q-4 -1 -16 -1h-175l-11 -57h-38l18 93h282l-5 -26l-284 -408h-44z" />
    <glyph glyph-name="eightsuperior" unicode="&#x2078;" horiz-adv-x="385" 
d="M224 413q-56 0 -93.5 29.5t-37.5 83.5q0 79 100 144q-39 32 -39 73q0 57 45.5 90.5t101.5 33.5q50 0 84 -25t34 -70q0 -31 -19 -64t-34.5 -48.5t-29.5 -27.5q50 -34 50 -82q0 -54 -48.5 -95.5t-113.5 -41.5zM305 650q13 10 28 24t31 42t16 54q0 29 -23.5 45t-56.5 16
q-40 0 -73.5 -23t-33.5 -63q0 -14 5 -25t20.5 -22l23 -16t33 -17t30.5 -15zM224 449q45 0 84 29t39 70q0 15 -6.5 27.5t-21.5 23t-27 17.5t-35 18l-33 16q-31 -15 -61.5 -47t-30.5 -76q0 -35 27 -56.5t65 -21.5z" />
    <glyph glyph-name="ninesuperior" unicode="&#x2079;" horiz-adv-x="379" 
d="M176 413q-29 0 -62 11q-16 5 -24 10l23 30l17 -7q22 -8 46 -8q60 0 108 52t72 126h-2q-48 -48 -119 -48q-52 0 -83 30.5t-31 83.5q0 81 50.5 127.5t112.5 46.5t94 -41.5t32 -110.5q0 -40 -16 -90t-44 -98.5t-74.5 -81t-99.5 -32.5zM243 615q44 0 86 32t42 72q0 44 -23 78
t-64 34q-54 0 -89 -40.5t-35 -96.5q0 -37 22.5 -58t60.5 -21z" />
    <glyph glyph-name="zeroinferior" unicode="&#x2080;" horiz-adv-x="400" 
d="M115 -167q-119 0 -119 138q0 45 10 95.5t31.5 102t62 85t94.5 33.5q119 0 119 -141q0 -44 -10.5 -94t-31.5 -101t-62 -84.5t-94 -33.5zM117 -131q42 0 74.5 29t49.5 73.5t25 89t8 84.5q0 106 -82 106q-42 0 -74.5 -29.5t-49.5 -74.5t-25 -89.5t-8 -85.5q0 -103 82 -103z
" />
    <glyph glyph-name="oneinferior" unicode="&#x2081;" horiz-adv-x="304" 
d="M-49 -157l7 36h106l59 307l6 27l3 10h-2l-7 -8q-16 -15 -20 -19l-61 -51l-22 29l122 103h38l-78 -398h103l-7 -36h-247z" />
    <glyph glyph-name="twoinferior" unicode="&#x2082;" horiz-adv-x="356" 
d="M223 -157h-269q1 52 30.5 93.5t71.5 67.5l83 50.5t70 56t29 70.5q0 30 -20.5 50t-55.5 20q-36 0 -73 -25q-17 -10 -31 -25l-21 28q13 13 36 29q44 29 90 29q57 0 85.5 -28.5t28.5 -75.5q0 -45 -25 -80t-62.5 -58.5l-76 -45.5t-71 -52.5t-42.5 -67.5h192l11 57h38z" />
    <glyph glyph-name="threeinferior" unicode="&#x2083;" horiz-adv-x="363" 
d="M96 -168q-56 0 -104 32q-21 14 -36 33l30 24q12 -16 29 -27q38 -26 82 -26q45 0 81.5 35t36.5 84q0 36 -27 57t-64 21h-32l-7 24l139 133l17 14l7 5v2q-4 0 -7 -1q-14 -2 -20 -2h-136l-11 -57h-38l18 93h254l-5 -26l-157 -151q38 -3 73 -29.5t35 -82.5q0 -61 -47.5 -108
t-110.5 -47z" />
    <glyph glyph-name="fourinferior" unicode="&#x2084;" horiz-adv-x="375" 
d="M152 -157l24 121h-215l5 26l278 287h31l-54 -277h68l-7 -36h-68l-24 -121h-38zM21 0h162l34 175q1 4 3 13.5t4 13.5l4 14h-2q-1 -1 -2.5 -3t-3 -4.5t-2.5 -3.5q-5 -7 -21 -23l-176 -180v-2z" />
    <glyph glyph-name="fiveinferior" unicode="&#x2085;" horiz-adv-x="360" 
d="M91 -167q-54 0 -99 31q-21 14 -34 32l29 24q13 -17 28 -26q37 -25 77 -25q52 0 89 36.5t37 86.5q0 42 -26 67.5t-68 25.5q-31 0 -61 -13q-14 -6 -25 -14l-24 10l67 209h209l-18 -93h-38l11 57h-139l-34 -112l-6 -15l-3 -7h2q7 4 17 7q22 6 46 6q57 0 93 -35.5t36 -90.5
q0 -66 -48.5 -113.5t-117.5 -47.5z" />
    <glyph glyph-name="sixinferior" unicode="&#x2086;" horiz-adv-x="379" 
d="M117 -167q-62 0 -94 41.5t-32 110.5q0 40 16 90t44.5 98.5t75 81t100.5 32.5q31 0 61 -10q14 -5 22 -11l-21 -30q-2 1 -18 8q-18 7 -46 7q-60 0 -108 -52t-72 -126h2q48 48 119 48q52 0 83 -30.5t31 -83.5q0 -81 -50.5 -127.5t-112.5 -46.5zM117 -131q54 0 89 40.5
t35 96.5q0 37 -22.5 58t-60.5 21q-44 0 -86 -32t-42 -72q0 -44 23 -78t64 -34z" />
    <glyph glyph-name="seveninferior" unicode="&#x2087;" horiz-adv-x="339" 
d="M-20 -158l262 378q3 5 12 14l6 6v2q-4 0 -7 -1q-4 -1 -16 -1h-175l-11 -57h-38l18 93h282l-5 -26l-284 -408h-44z" />
    <glyph glyph-name="eightinferior" unicode="&#x2088;" horiz-adv-x="385" 
d="M111 -166q-56 0 -93.5 29.5t-37.5 83.5q0 79 100 144q-39 32 -39 73q0 57 45.5 90.5t101.5 33.5q50 0 84 -25t34 -70q0 -31 -19 -64t-34.5 -48.5t-29.5 -27.5q50 -34 50 -82q0 -54 -48.5 -95.5t-113.5 -41.5zM192 71q13 10 28 24t31 42t16 54q0 29 -23.5 45t-56.5 16
q-40 0 -73.5 -23t-33.5 -63q0 -14 5 -25t20.5 -22l23 -16t33 -17t30.5 -15zM111 -130q45 0 84 29t39 70q0 15 -6.5 27.5t-21.5 23t-27 17.5t-35 18l-33 16q-31 -15 -61.5 -47t-30.5 -76q0 -35 27 -56.5t65 -21.5z" />
    <glyph glyph-name="nineinferior" unicode="&#x2089;" horiz-adv-x="379" 
d="M64 -167q-32 0 -62 10q-16 5 -24 11l23 30q4 -2 17 -8q18 -7 46 -7q60 0 108 52t72 126h-2q-48 -48 -119 -48q-52 0 -83 30.5t-31 83.5q0 81 50.5 127.5t112.5 46.5t94 -41.5t32 -110.5q0 -40 -16 -90t-44 -98.5t-74.5 -81t-99.5 -32.5zM131 35q44 0 86 32t42 72
q0 44 -23 78t-64 34q-54 0 -89 -40.5t-35 -96.5q0 -37 22.5 -58t60.5 -21z" />
    <glyph glyph-name="Euro" unicode="&#x20ac;" horiz-adv-x="597" 
d="M48 263l7 40h55q4 57 17 109h-54l7 40h61q51 116 154.5 188t223.5 72q34 0 68 -6l26 -6l-18 -40q-5 1 -22 5q-25 5 -55 5q-104 0 -194 -60.5t-136 -157.5h328l-15 -40h-328q-14 -48 -19 -109h307l-14 -40h-294q2 -101 64 -167t176 -66q28 0 65 7l26 6l4 -42
q-10 -3 -28 -7q-34 -6 -68 -6q-128 0 -206 76t-78 199h-60z" />
    <glyph glyph-name="trademark" unicode="&#x2122;" horiz-adv-x="1017" 
d="M508 264l35 436h35l126 -270q7 -12 10 -27q1 -3 2.5 -7t1.5 -6h2q0 2 1.5 6t2.5 7l10 27l126 270h35l35 -436h-38l-28 328v20q0 5 1 8h-2l-127 -274h-34l-127 274h-2q1 -3 1 -8v-20l-28 -328h-38zM267 264v398h-160v38h360v-38h-161v-398h-39z" />
    <glyph glyph-name="minus" unicode="&#x2212;" horiz-adv-x="600" 
d="M48 263v40h496v-40h-496z" />
    <glyph glyph-name="infinity" unicode="&#x221e;" horiz-adv-x="466" 
d="M242 184q-68 0 -116.5 48.5t-48.5 116.5t48.5 116t116.5 48t116 -48t48 -116t-48 -116.5t-116 -48.5z" />
    <glyph glyph-name="approxequal" unicode="&#x2248;" horiz-adv-x="600" 
d="M82 321l-25 30q25 26 63 46t78 20t74 -17.5t64.5 -35t59.5 -17.5q60 0 116 56l25 -30q-25 -26 -63 -46t-78 -20t-74 17.5t-64.5 35t-59.5 17.5q-60 0 -116 -56zM82 161l-25 30q25 26 63 46t78 20t74 -17.5t64.5 -35t59.5 -17.5q60 0 116 56l25 -30q-25 -26 -63 -46
t-78 -20t-74 17.5t-64.5 35t-59.5 17.5q-60 0 -116 -56z" />
    <glyph glyph-name="notequal" unicode="&#x2260;" horiz-adv-x="600" 
d="M127 92l68 91h-126v40h156l91 120h-247v40h277l90 119l33 -25l-71 -94h127v-40h-157l-91 -120h248v-40h-278l-87 -116z" />
    <glyph glyph-name="lessequal" unicode="&#x2264;" horiz-adv-x="600" 
d="M56 265v36l439 197v-48l-377 -166v-2l377 -166v-48zM56 -113h439v-40h-439v40z" />
    <glyph glyph-name="greaterequal" unicode="&#x2265;" horiz-adv-x="600" 
d="M100 68v48l377 166v2l-377 166v48l439 -197v-36zM99 -113h439v-40h-439v40z" />
    <glyph glyph-name="CR" horiz-adv-x="250" 
 />
    <glyph glyph-name="commaaccent" horiz-adv-x="335" 
d="M68 -66h46q2 -14 2 -21q0 -33 -18 -65.5t-51 -56.5l-23 23q47 44 47 93q0 12 -3 27z" />
    <glyph glyph-name="apple" horiz-adv-x="1130" 
d="M110 -5v152l-126 72v278l126 71v151l265 142l134 -71l132 71l265 -142v-151l124 -71v-278l-124 -72v-152l-265 -141l-132 71l-134 -71zM150 30l238 -126l121 66l118 -66l238 126v139l114 64v249l-114 66v136l-238 126l-118 -64l-121 64l-238 -126v-136l-114 -66v-249
l114 -64v-139zM184 64v121l-99 60v225l99 58v123l215 114l110 -59l107 59l214 -114v-123l100 -58v-225l-100 -60v-121l-214 -114l-107 58l-110 -58zM389 91h43v228h228v40h-228v192h199q17 0 23 -6.5t6 -22.5v-42h42v54q0 30 -13 43.5t-45 13.5h-320v-40h65v-460z" />
    <glyph glyph-name="zero.tnum" 
d="M37 209q0 58 9.5 122t33.5 133t58.5 123t90 89.5t123.5 35.5q188 0 188 -223q0 -58 -9.5 -121.5t-33.5 -132.5t-58.5 -123t-90 -89t-123.5 -35q-97 0 -142.5 58.5t-45.5 162.5zM81 207q0 -177 145 -177q58 0 106 32.5t77.5 82t49.5 113t28 121.5t8 111q0 180 -144 180
q-68 0 -122.5 -45t-85 -116.5t-46.5 -149t-16 -152.5z" />
    <glyph glyph-name="one.tnum" 
d="M59 0l7 40h159l109 558q1 4 3 13.5t4 14.5l3 14h-2l-10 -10q-15 -15 -26 -24l-107 -90l-26 32l181 152h43l-129 -660h155l-8 -40h-356z" />
    <glyph glyph-name="two.tnum" 
d="M447 0h-448q2 57 29 106t68.5 84.5t92 68l100.5 63t91.5 62.5t67 74t25.5 90q0 55 -35.5 89t-100.5 34q-68 0 -138 -50q-32 -24 -54 -50l-31 25q33 37 62 58q78 58 160 58q89 0 135.5 -45t46.5 -118q0 -71 -44 -129t-108.5 -99.5l-131 -80.5t-119.5 -90t-65 -110h363
l20 101h42z" />
    <glyph glyph-name="three.tnum" 
d="M8 85l34 29q17 -23 44 -42q59 -43 125 -43q86 0 152.5 59.5t66.5 143.5q0 68 -45 102.5t-115 34.5q-23 0 -34 -1l-16 -2l-8 32l252 242q2 2 17 14q5 4 9 6v2q-8 0 -11 -1q-7 -1 -19 -1h-265l-20 -101h-42l28 141h401l-6 -30l-275 -262q30 1 61 -6.5t62 -25.5t51 -54
t20 -85q0 -102 -78 -175.5t-185 -73.5q-81 0 -152 49q-29 20 -52 48z" />
    <glyph glyph-name="four.tnum" 
d="M3 200l6 30l451 470h43l-90 -460h104l-8 -40h-104l-39 -200h-43l39 200h-359zM75 240h295l69 353q1 5 2.5 14t3.5 13l4 12h-2l-8 -10q-5 -7 -20 -22l-344 -358v-2z" />
    <glyph glyph-name="five.tnum" 
d="M17 79l32 27q15 -21 38 -38q55 -39 118 -39q91 0 161.5 64.5t70.5 153.5q0 69 -45.5 110.5t-117.5 41.5q-51 0 -103 -21q-27 -12 -41 -22l-31 11l105 333h325l-28 -141h-42l20 101h-244l-65 -207q-10 -28 -11 -32q-1 -2 -4 -11h2l33 15q39 15 90 15q90 0 146 -53.5
t56 -138.5q0 -106 -84 -183t-195 -77q-81 0 -143 46q-27 21 -43 45z" />
    <glyph glyph-name="six.tnum" 
d="M48 236q0 50 14.5 111t46 125.5t75 118t107 87.5t135.5 34q46 0 92 -14q16 -5 34 -14l-26 -37q-10 7 -27 12q-33 12 -73 12q-113 0 -198 -97t-119 -226h2q37 45 92 70.5t114 25.5q85 0 136 -47.5t51 -130.5q0 -68 -30.5 -131t-90 -105t-134.5 -42q-97 0 -149 68t-52 180z
M93 221q0 -75 41 -133.5t114 -58.5q88 0 149.5 69t61.5 168q0 64 -38.5 100.5t-105.5 36.5q-45 0 -95.5 -22t-88.5 -65.5t-38 -94.5z" />
    <glyph glyph-name="seven.tnum" 
d="M77 0l433 632l16 21l7 7v2q-7 0 -10 -1q-7 -1 -23 -1h-329l-20 -101h-42l28 141h459l-6 -30l-463 -670h-50z" />
    <glyph glyph-name="eight.tnum" 
d="M25 168q0 46 20 88t54 73t51 43.5t38 24.5q2 2 3 2q-70 48 -70 119q0 76 65.5 135t168.5 59q91 0 138 -39.5t47 -109.5q0 -40 -18 -81.5t-46.5 -74t-43 -47t-27.5 -25.5q82 -54 82 -127q0 -94 -78 -157t-181 -63q-86 0 -144.5 47.5t-58.5 132.5zM366 356q14 10 29.5 24.5
t41 43t41.5 65.5t16 74q0 50 -38 79t-101 29q-80 0 -134 -45.5t-54 -106.5q0 -24 10.5 -44t35.5 -38t42.5 -28t57 -28t53.5 -25zM71 168q0 -64 45.5 -101.5t111.5 -37.5q82 0 147.5 50.5t65.5 127.5q0 25 -12 46t-36.5 38t-47 28.5t-59 28.5t-56.5 28q-19 -10 -38 -23
t-50.5 -40t-51 -65t-19.5 -80z" />
    <glyph glyph-name="nine.tnum" 
d="M28 16l23 37q12 -8 28 -12q33 -12 72 -12q113 0 198 97t119 226h-2q-37 -45 -92.5 -70.5t-114.5 -25.5q-85 0 -135.5 47.5t-50.5 130.5q0 68 30.5 131t90 105t134.5 42q97 0 149 -68t52 -180q0 -50 -14.5 -111t-46 -125.5t-75 -118t-107 -87.5t-135.5 -34q-49 0 -91 14
q-17 6 -32 14zM259 297q45 0 96 22t90 65.5t39 94.5q0 75 -40.5 133.5t-112.5 58.5q-89 0 -151 -69t-62 -168q0 -64 38 -100.5t103 -36.5z" />
    <glyph glyph-name="hyphen.case" horiz-adv-x="516" 
d="M123 329l7 40h276l-7 -40h-276z" />
    <glyph glyph-name="parenleft.case" horiz-adv-x="290" 
d="M167 -65h-42q-46 125 -46 263q0 306 201 557h46q-206 -262 -206 -558q0 -135 47 -262z" />
    <glyph glyph-name="parenright.case" horiz-adv-x="291" 
d="M31 -65h-46q206 262 206 558q0 135 -47 262h42q46 -125 46 -263q0 -306 -201 -557z" />
    <glyph glyph-name="bracketleft.case" horiz-adv-x="282" 
d="M39 -65l159 820h108l-8 -40h-65l-143 -740h65l-8 -40h-108z" />
    <glyph glyph-name="bracketright.case" horiz-adv-x="280" 
d="M4 -25h64l143 740h-65l8 40h108l-159 -820h-107z" />
    <glyph glyph-name="braceleft.case" horiz-adv-x="305" 
d="M84 59q0 20 7 60l18 94q3 18 3 32q0 48 -32 72q-14 11 -33 15l8 40q23 4 46 19q48 32 62 100l16 81q10 50 28.5 86.5t37 54.5t43 28t39 12t32.5 2l-7 -39q-14 0 -28 -3.5t-35.5 -16t-39.5 -44t-27 -79.5l-18 -93q-14 -66 -60 -104q-17 -15 -44 -23v-2q17 -9 29 -23
q28 -30 28 -76q0 -13 -3 -28l-21 -106q-6 -30 -6 -52q0 -91 81 -91l-8 -39q0 -1 -2 -1h-7q-13 0 -27.5 4t-34.5 15.5t-32.5 38.5t-12.5 66z" />
    <glyph glyph-name="braceright.case" horiz-adv-x="306" 
d="M-32 -65l7 39q102 0 130 143l20 105q13 69 60 107q20 17 44 23v2q-15 8 -28 23q-28 30 -28 73q0 13 3 28l18 94q6 30 6 52q0 91 -81 91l8 39q14 1 31 -2t37.5 -14t34 -38.5t13.5 -68.5q0 -20 -7 -60l-16 -82q-3 -18 -3 -32q0 -47 33 -72q13 -10 32 -15l-8 -40
q-23 -4 -46 -19q-48 -32 -62 -100l-18 -93q-37 -184 -172 -184h-5q-2 0 -3 1z" />
    <glyph glyph-name="at.case" horiz-adv-x="738" 
d="M57 285q0 84 36 163.5t95.5 137.5t139 93.5t162.5 35.5q95 0 143 -42t48 -107q0 -18 -3 -33l-66 -339h70l-8 -40h-257q-74 0 -120.5 46t-46.5 116q0 91 71.5 159.5t167.5 68.5h146q0 5 1 8q1 5 1 17q0 44 -38 75t-114 31q-100 0 -189 -54.5t-141.5 -144.5t-52.5 -191
q0 -115 69.5 -187t182.5 -72l-8 -41q-125 0 -207 84.5t-82 215.5zM295 319q0 -55 35 -90t92 -35h145l60 310h-143q-73 0 -131 -56.5t-58 -128.5z" />
    <glyph glyph-name="guillemotleft.case" horiz-adv-x="493" 
d="M346 137l-128 208l204 203h57l-211 -208l126 -203h-48zM191 137l-128 208l192 203h57l-199 -208l126 -203h-48z" />
    <glyph glyph-name="guillemotright.case" horiz-adv-x="494" 
d="M201 137l199 208l-126 203h48l128 -208l-192 -203h-57zM34 137l211 208l-126 203h48l128 -208l-204 -203h-57z" />
    <glyph glyph-name="guilsinglleft.case" horiz-adv-x="332" 
d="M191 137l-128 208l192 203h57l-199 -208l126 -203h-48z" />
    <glyph glyph-name="guilsinglright.case" horiz-adv-x="333" 
d="M40 137l199 208l-126 203h48l128 -208l-192 -203h-57z" />
    <glyph glyph-name="endash.case" horiz-adv-x="717" 
d="M123 323l7 40h476l-7 -40h-476z" />
    <glyph glyph-name="emdash.case" horiz-adv-x="917" 
d="M123 323l7 40h676l-7 -40h-676z" />
    <glyph glyph-name="periodcentered.case" horiz-adv-x="270" 
d="M106 315l12 63h61l-12 -63h-61z" />
    <glyph glyph-name="questiondown.case" horiz-adv-x="448" 
d="M300 639l13 61h59l-13 -61h-59zM32 133q0 49 22 89.5t55.5 69t68 55t63 61t37.5 73.5l9 44h43l-9 -44q-10 -47 -39 -86.5t-62.5 -66.5l-66 -54t-54 -62t-21.5 -77q0 -46 33 -75.5t89 -29.5q48 0 96 21q20 9 40 21l17 -37q-25 -15 -46 -23q-56 -24 -109 -24
q-77 0 -121.5 40t-44.5 105z" />
    <glyph glyph-name="exclamdown.case" horiz-adv-x="273" 
d="M174 639l13 61h59l-13 -61h-59zM58 0l103 525h43l-103 -525h-43z" />
    <glyph glyph-name="bullet.case" horiz-adv-x="394" 
d="M206 219q-54 0 -93 39t-39 93t39 93t93 39t93 -39t39 -93t-39 -93t-93 -39z" />
    <glyph glyph-name="zero.p_osf" horiz-adv-x="600" 
d="M58 201q0 82 34 161.5t101.5 134.5t151.5 55q92 0 139.5 -61.5t47.5 -154.5q0 -59 -20 -120t-55.5 -112t-91 -83.5t-119.5 -32.5q-93 0 -140.5 60t-47.5 153zM103 204q0 -76 37 -125.5t109 -49.5q69 0 125.5 48t85 117.5t28.5 139.5q0 76 -37 126.5t-109 50.5
q-104 0 -171.5 -97.5t-67.5 -209.5z" />
    <glyph glyph-name="one.p_osf" horiz-adv-x="428" 
d="M9 0l8 39h159l78 404q6 32 7 34l3 14h-2q-2 -2 -12 -8l-32 -18l-128 -70l-15 35l198 110h42l-97 -501h140l-8 -39h-341z" />
    <glyph glyph-name="two.p_osf" horiz-adv-x="534" 
d="M12 0l6 32q229 136 317.5 217t88.5 164q0 48 -36 73t-93 25q-62 0 -124 -41q-25 -16 -52 -41l-23 33q26 25 59 45q70 45 142 45q89 0 130.5 -40t41.5 -97q0 -94 -85.5 -177.5t-285.5 -198.5v-2q9 0 14 1q9 1 40 1h272l-7 -39h-405z" />
    <glyph glyph-name="three.p_osf" horiz-adv-x="507" 
d="M-34 -37l34 27q13 -21 37 -39q54 -38 121 -38q76 0 142 53.5t66 136.5q0 57 -44.5 90t-127.5 33q-20 0 -28 -1q-5 -1 -13 -1l-5 34l231 213q11 11 25 21l12 9v2q-9 0 -14 -1q-9 -1 -40 -1h-217l-18 -95h-41l26 134h380l-5 -28l-271 -245q29 0 59.5 -7t62.5 -23.5
t52.5 -50t20.5 -80.5q0 -101 -77.5 -167.5t-177.5 -66.5q-85 0 -146 45q-25 19 -44 46z" />
    <glyph glyph-name="four.p_osf" horiz-adv-x="563" 
d="M-18 41l6 29l439 470h38l-89 -460h113l-8 -39h-113l-30 -157h-42l30 157h-344zM53 80h281l63 325l9 42l6 21h-2l-14 -18q-22 -28 -32 -37l-311 -332v-1z" />
    <glyph glyph-name="five.p_osf" horiz-adv-x="512" 
d="M-26 -33l31 29q17 -20 39 -36q47 -36 110 -36q85 0 156 55.5t71 147.5q0 62 -45.5 97t-111.5 35q-53 0 -100 -19q-30 -12 -43 -19l-30 10l100 309h319l-26 -134h-41l18 95h-239l-60 -186q-8 -25 -10 -29l-5 -11h2q22 10 35 13q39 12 85 12q84 0 140.5 -44.5t56.5 -126.5
q0 -109 -82.5 -177.5t-189.5 -68.5q-74 0 -136 42q-27 19 -44 42z" />
    <glyph glyph-name="six.p_osf" horiz-adv-x="580" 
d="M56 218q0 49 14.5 107.5t46 119t74 110.5t105 81.5t133.5 31.5q49 0 92 -13q16 -5 34 -14l-26 -35q-8 6 -27 11q-38 10 -73 10q-78 0 -144.5 -46t-107.5 -113t-62 -147h2q79 93 208 93q86 0 137 -45t51 -123q0 -101 -75 -179.5t-183 -78.5q-96 0 -147.5 63.5t-51.5 166.5
zM100 206q0 -69 42 -123t115 -54q88 0 149.5 62t61.5 154q0 60 -39.5 94t-108.5 34q-79 0 -149.5 -51t-70.5 -116z" />
    <glyph glyph-name="seven.p_osf" horiz-adv-x="506" 
d="M30 -116l411 589l16 21l7 7v2q-7 0 -10 -1q-7 -1 -23 -1h-306l-18 -95h-41l26 134h433l-5 -28l-439 -628h-51z" />
    <glyph glyph-name="eight.p_osf" horiz-adv-x="577" 
d="M39 158q0 37 15.5 72t34.5 57.5t47 44.5t39 28.5l25 14.5q-70 48 -70 113q0 70 64 125.5t164 55.5q86 0 133.5 -38t47.5 -102q0 -103 -130 -213q81 -48 81 -121q0 -84 -77 -145.5t-176 -61.5q-82 0 -140 45.5t-58 124.5zM372 336q12 8 28 22.5t39.5 40t39 60t15.5 68.5
q0 47 -37 74t-100 27q-77 0 -129.5 -40.5t-52.5 -98.5q0 -23 10 -41.5t35 -35.5t42 -26t56.5 -26t53.5 -24zM84 158q0 -60 44.5 -94.5t109.5 -34.5q74 0 140.5 48t66.5 116q0 24 -11.5 43.5t-36.5 36.5t-45 27.5t-58 27.5l-55 25q-155 -86 -155 -195z" />
    <glyph glyph-name="nine.p_osf" horiz-adv-x="573" 
d="M12 -101l23 35q10 -6 28 -11q38 -10 72 -10q78 0 144.5 46t107.5 113t62 147h-2q-79 -93 -208 -93q-86 0 -137 45t-51 123q0 101 75 179.5t183 78.5q96 0 147.5 -63.5t51.5 -166.5q0 -49 -14.5 -107.5t-46 -119t-74 -110.5t-105 -81.5t-133.5 -31.5q-52 0 -91 13
q-17 6 -32 14zM241 167q79 0 151 51t72 116q0 69 -42 123t-115 54q-88 0 -149.5 -62t-61.5 -154q0 -60 39 -94t106 -34z" />
    <glyph glyph-name="zero.t_osf" 
d="M36 201q0 82 34 161.5t101.5 134.5t151.5 55q92 0 139.5 -61.5t47.5 -154.5q0 -59 -20 -120t-55.5 -112t-91 -83.5t-119.5 -32.5q-93 0 -140.5 60t-47.5 153zM81 204q0 -76 37 -125.5t109 -49.5q69 0 125.5 48t85 117.5t28.5 139.5q0 76 -37 126.5t-109 50.5
q-104 0 -171.5 -97.5t-67.5 -209.5z" />
    <glyph glyph-name="one.t_osf" 
d="M73 0l8 39h159l78 404q6 32 7 34l3 14h-2q-2 -2 -12 -8l-32 -18l-128 -70l-15 35l198 110h42l-97 -501h140l-8 -39h-341z" />
    <glyph glyph-name="two.t_osf" 
d="M23 0l6 32q229 136 317.5 217t88.5 164q0 48 -36 73t-93 25q-62 0 -124 -41q-25 -16 -52 -41l-23 33q26 25 59 45q70 45 142 45q89 0 130.5 -40t41.5 -97q0 -94 -85.5 -177.5t-285.5 -198.5v-2q9 0 14 1q9 1 40 1h272l-7 -39h-405z" />
    <glyph glyph-name="three.t_osf" 
d="M-10 -37l34 27q13 -21 37 -39q54 -38 121 -38q76 0 142 53.5t66 136.5q0 57 -44.5 90t-127.5 33q-20 0 -28 -1q-5 -1 -13 -1l-5 34l231 213q11 11 25 21l12 9v2q-9 0 -14 -1q-9 -1 -40 -1h-217l-18 -95h-41l26 134h380l-5 -28l-271 -245q29 0 59.5 -7t62.5 -23.5
t52.5 -50t20.5 -80.5q0 -101 -77.5 -167.5t-177.5 -66.5q-85 0 -146 45q-25 19 -44 46z" />
    <glyph glyph-name="four.t_osf" 
d="M-22 41l6 29l439 470h38l-89 -460h113l-8 -39h-113l-30 -157h-42l30 157h-344zM49 80h281l63 325l9 42l6 21h-2l-14 -18q-22 -28 -32 -37l-311 -332v-1z" />
    <glyph glyph-name="five.t_osf" 
d="M-4 -33l31 29q17 -20 39 -36q47 -36 110 -36q85 0 156 55.5t71 147.5q0 62 -45.5 97t-111.5 35q-53 0 -100 -19q-30 -12 -43 -19l-30 10l100 309h319l-26 -134h-41l18 95h-239l-60 -186q-8 -25 -10 -29l-5 -11h2q22 10 35 13q39 12 85 12q84 0 140.5 -44.5t56.5 -126.5
q0 -109 -82.5 -177.5t-189.5 -68.5q-74 0 -136 42q-27 19 -44 42z" />
    <glyph glyph-name="six.t_osf" 
d="M43 218q0 49 14.5 107.5t46 119t74 110.5t105 81.5t133.5 31.5q49 0 92 -13q16 -5 34 -14l-26 -35q-8 6 -27 11q-38 10 -73 10q-78 0 -144.5 -46t-107.5 -113t-62 -147h2q79 93 208 93q86 0 137 -45t51 -123q0 -101 -75 -179.5t-183 -78.5q-96 0 -147.5 63.5t-51.5 166.5
zM87 206q0 -69 42 -123t115 -54q88 0 149.5 62t61.5 154q0 60 -39.5 94t-108.5 34q-79 0 -149.5 -51t-70.5 -116z" />
    <glyph glyph-name="seven.t_osf" 
d="M55 -116l411 589l16 21l7 7v2q-7 0 -10 -1q-7 -1 -23 -1h-306l-18 -95h-41l26 134h433l-5 -28l-439 -628h-51z" />
    <glyph glyph-name="eight.t_osf" 
d="M28 158q0 37 15.5 72t34.5 57.5t47 44.5t39 28.5l25 14.5q-70 48 -70 113q0 70 64 125.5t164 55.5q86 0 133.5 -38t47.5 -102q0 -103 -130 -213q81 -48 81 -121q0 -84 -77 -145.5t-176 -61.5q-82 0 -140 45.5t-58 124.5zM361 336q12 8 28 22.5t39.5 40t39 60t15.5 68.5
q0 47 -37 74t-100 27q-77 0 -129.5 -40.5t-52.5 -98.5q0 -23 10 -41.5t35 -35.5t42 -26t56.5 -26t53.5 -24zM73 158q0 -60 44.5 -94.5t109.5 -34.5q74 0 140.5 48t66.5 116q0 24 -11.5 43.5t-36.5 36.5t-45 27.5t-58 27.5l-55 25q-155 -86 -155 -195z" />
    <glyph glyph-name="nine.t_osf" 
d="M3 -101l23 35q10 -6 28 -11q38 -10 72 -10q78 0 144.5 46t107.5 113t62 147h-2q-79 -93 -208 -93q-86 0 -137 45t-51 123q0 101 75 179.5t183 78.5q96 0 147.5 -63.5t51.5 -166.5q0 -49 -14.5 -107.5t-46 -119t-74 -110.5t-105 -81.5t-133.5 -31.5q-52 0 -91 13
q-17 6 -32 14zM232 167q79 0 151 51t72 116q0 69 -42 123t-115 54q-88 0 -149.5 -62t-61.5 -154q0 -60 39 -94t106 -34z" />
    <glyph glyph-name="dollar.osf" horiz-adv-x="468" 
d="M-4 89l27 26q19 -25 43 -42q56 -40 127 -34q62 0 111 31.5t49 84.5q0 35 -27.5 60t-66.5 42l-78 35.5t-66.5 50.5t-27.5 76q0 67 56 111t136 48l18 90h43l-18 -91q54 -5 97 -33q18 -11 33 -26l-31 -30q-15 17 -32 26q-44 25 -102 25q-60 0 -108 -30t-48 -87
q0 -37 27.5 -63t66.5 -42.5l78 -34t66.5 -49.5t27.5 -78q0 -61 -58 -108.5t-143 -47.5l-19 -103h-43l20 106q-67 10 -120 49q-23 18 -38 38z" />
    <glyph glyph-name="cent.osf" horiz-adv-x="520" 
d="M197 -25l17 84q-82 9 -130.5 61t-48.5 135q0 116 82 195t190 88l17 86h43l-18 -86q69 -5 118 -42q23 -16 36 -36l-27 -32q-13 18 -34 35q-44 35 -115 35q-95 0 -171 -69t-76 -173q0 -72 47 -115t122 -43q68 0 127 36q25 15 49 36l17 -37q-22 -19 -51 -36
q-61 -36 -134 -40l-17 -82h-43z" />
    <glyph glyph-name="sterling.osf" horiz-adv-x="568" 
d="M-10 0l6 39h90l41 209h-70l7 39h70l23 118q16 81 79.5 130.5t149.5 49.5q59 0 113 -26q21 -10 39 -26l-28 -31q-17 12 -34 21q-44 21 -92 21q-74 0 -123 -40.5t-62 -99.5l-23 -117h243l-7 -39h-243l-41 -209h351l-7 -39h-482z" />
    <glyph glyph-name="yen.osf" horiz-adv-x="550" 
d="M58 157l8 40h168l6 32l-21 48h-138l8 40h114l-109 258h47l96 -232q3 -7 9.5 -24.5t10.5 -25.5l9 -26h2q6 9 18 25l39 51l186 232h51l-208 -258h111l-8 -40h-136l-38 -48l-6 -32h165l-8 -40h-165l-30 -157h-43l30 157h-168z" />
    <glyph glyph-name="florin.osf" horiz-adv-x="553" 
d="M-97 -122l8 38l17 -3q22 -2 43 -2q19 0 37.5 5t42 18.5t45 45t34.5 76.5l78 275h-96l7 38h100l34 122q16 56 42.5 94.5t57 55t53.5 22.5t46 6q42 0 63 -4l26 -4l-7 -38l-25 4q-15 3 -56 3q-116 0 -159 -145l-33 -116h132l-7 -38h-136l-81 -284q-16 -55 -42.5 -93
t-56.5 -54t-52.5 -22t-45.5 -6q-32 0 -50 3z" />
    <glyph glyph-name="Euro.osf" horiz-adv-x="569" 
d="M27 198l8 40h67q5 52 16 93h-63l8 40h68q39 92 127 153t212 61q36 0 69 -7l28 -7l-19 -38l-24 5q-28 5 -55 5q-103 0 -178.5 -48.5t-111.5 -123.5h301l-17 -40h-300q-11 -33 -17 -93h285l-17 -40h-267q6 -74 63 -121t160 -47q27 0 64 7l26 6l4 -42q-11 -3 -28 -7
q-34 -6 -67 -6q-122 0 -191 60t-75 150h-76z" />
    <glyph glyph-name="zero.numerator" horiz-adv-x="399" 
d="M197 256q-119 0 -119 138q0 45 10 95.5t31.5 102t62 85t94.5 33.5q119 0 119 -141q0 -45 -10 -94.5t-31.5 -101t-62 -84.5t-94.5 -33zM199 292q42 0 74.5 29t49.5 73.5t25 89t8 84.5q0 106 -82 106q-42 0 -74.5 -29.5t-49.5 -74.5t-25 -89.5t-8 -85.5q0 -103 82 -103z
" />
    <glyph glyph-name="one.numerator" horiz-adv-x="304" 
d="M33 266l7 36h106l59 307l6 27l3 10h-2l-7 -8q-15 -16 -20 -19l-61 -51l-22 29l122 103h38l-78 -398h103l-7 -36h-247z" />
    <glyph glyph-name="two.numerator" horiz-adv-x="356" 
d="M305 266h-269q1 52 30.5 93.5t71.5 67.5l83 50.5t70 56t29 70.5q0 30 -20.5 50t-55.5 20q-36 0 -73 -25q-16 -11 -31 -25l-21 28q13 13 36 29q44 29 90 29q57 0 85.5 -28.5t28.5 -75.5q0 -45 -25 -80t-62.5 -58.5l-76 -45.5t-71 -52.5t-42.5 -67.5h192l11 57h38z" />
    <glyph glyph-name="three.numerator" horiz-adv-x="361" 
d="M177 256q-54 0 -104 33q-20 13 -36 32l30 24q12 -15 29 -26q39 -27 82 -27q45 0 81.5 35t36.5 84q0 36 -27 57t-64 21h-32l-7 24l139 133l17 14l7 5v2q-4 0 -7 -1q-14 -2 -20 -2h-136l-11 -57h-38l18 93h254l-5 -26l-157 -151q38 -3 73 -29.5t35 -82.5q0 -61 -47.5 -108
t-110.5 -47z" />
    <glyph glyph-name="four.numerator" horiz-adv-x="375" 
d="M234 266l24 121h-215l5 26l278 287h31l-54 -277h68l-7 -36h-68l-24 -121h-38zM103 423h162l34 175q1 4 3 13.5t4 13.5l4 14h-2q-1 -1 -2.5 -3t-3 -4.5t-2.5 -3.5q-5 -7 -21 -23l-176 -180v-2z" />
    <glyph glyph-name="five.numerator" horiz-adv-x="361" 
d="M174 256q-53 0 -99 32q-20 14 -34 31l29 24q15 -17 28 -25q38 -26 77 -26q52 0 89 36.5t37 86.5q0 42 -26 67.5t-68 25.5q-31 0 -61 -13q-14 -6 -25 -14l-24 10l67 209h209l-18 -93h-38l11 57h-139l-34 -112l-6 -15l-3 -7h2q7 4 17 7q22 6 46 6q57 0 93 -35.5t36 -90.5
q0 -66 -48.5 -113.5t-117.5 -47.5z" />
    <glyph glyph-name="six.numerator" horiz-adv-x="379" 
d="M199 256q-62 0 -94 41.5t-32 110.5q0 40 16 90t44.5 98.5t75 81t100.5 32.5q31 0 61 -10q14 -5 22 -11l-21 -30q-2 1 -18 8q-18 7 -46 7q-60 0 -108 -52t-72 -126h2q48 48 119 48q52 0 83 -30.5t31 -83.5q0 -81 -50.5 -127.5t-112.5 -46.5zM199 292q54 0 89 40.5t35 96.5
q0 37 -22.5 58t-60.5 21q-44 0 -86 -32t-42 -72q0 -44 23 -78t64 -34z" />
    <glyph glyph-name="seven.numerator" horiz-adv-x="339" 
d="M63 266l262 378q3 5 12 14l6 6v2q-4 0 -7 -1q-4 -1 -16 -1h-175l-11 -57h-38l18 93h282l-5 -26l-284 -408h-44z" />
    <glyph glyph-name="eight.numerator" horiz-adv-x="385" 
d="M193 255q-56 0 -93.5 29.5t-37.5 83.5q0 79 100 144q-39 32 -39 73q0 57 45.5 90.5t101.5 33.5q50 0 84 -25t34 -70q0 -31 -19 -64t-34.5 -48.5t-29.5 -27.5q50 -34 50 -82q0 -54 -48.5 -95.5t-113.5 -41.5zM274 492q13 10 28 24t31 42t16 54q0 29 -23.5 45t-56.5 16
q-40 0 -73.5 -23t-33.5 -63q0 -14 5 -25t20.5 -22l23 -16t33 -17t30.5 -15zM193 291q45 0 84 29t39 70q0 15 -6.5 27.5t-21.5 23t-27 17.5t-35 18l-33 16q-31 -15 -61.5 -47t-30.5 -76q0 -35 27 -56.5t65 -21.5z" />
    <glyph glyph-name="nine.numerator" horiz-adv-x="379" 
d="M146 256q-29 0 -62 11q-16 5 -24 10l23 30l17 -7q22 -8 46 -8q60 0 108 52t72 126h-2q-48 -48 -119 -48q-52 0 -83 30.5t-31 83.5q0 81 50.5 127.5t112.5 46.5t94 -41.5t32 -110.5q0 -40 -16 -90t-44 -98.5t-74.5 -81t-99.5 -32.5zM213 458q44 0 86 32t42 72q0 44 -23 78
t-64 34q-54 0 -89 -40.5t-35 -96.5q0 -37 22.5 -58t60.5 -21z" />
    <glyph glyph-name="zero.denominator" horiz-adv-x="399" 
d="M145 -10q-119 0 -119 138q0 45 10 95.5t31.5 102t62 85t94.5 33.5q119 0 119 -141q0 -45 -10 -94.5t-31.5 -101t-62 -84.5t-94.5 -33zM147 26q42 0 74.5 29t49.5 73.5t25 89t8 84.5q0 106 -82 106q-42 0 -74.5 -29.5t-49.5 -74.5t-25 -89.5t-8 -85.5q0 -103 82 -103z" />
    <glyph glyph-name="one.denominator" horiz-adv-x="306" 
d="M-18 0l7 36h106l59 307l6 27l3 10h-2l-7 -8q-15 -15 -20 -19l-61 -51l-22 29l122 103h38l-78 -398h103l-7 -36h-247z" />
    <glyph glyph-name="two.denominator" horiz-adv-x="355" 
d="M253 0h-269q1 52 30.5 93.5t71.5 67.5l83 50.5t70 56t29 70.5q0 30 -20.5 50t-55.5 20q-36 0 -73 -25q-16 -11 -31 -25l-21 28q13 13 36 29q44 29 90 29q57 0 85.5 -28.5t28.5 -75.5q0 -45 -25 -80t-62.5 -58.5l-76 -45.5t-71 -52.5t-42.5 -67.5h192l11 57h38z" />
    <glyph glyph-name="three.denominator" horiz-adv-x="362" 
d="M126 -10q-54 0 -104 33q-20 13 -36 32l30 24q12 -15 29 -26q39 -27 82 -27q45 0 81.5 35t36.5 84q0 36 -27 57t-64 21h-32l-7 24l139 133l17 14l7 5v2q-4 0 -7 -1q-14 -2 -20 -2h-136l-11 -57h-38l18 93h254l-5 -26l-157 -151q38 -3 73 -29.5t35 -82.5q0 -61 -47.5 -108
t-110.5 -47z" />
    <glyph glyph-name="four.denominator" horiz-adv-x="374" 
d="M182 0l24 121h-215l5 26l278 287h31l-54 -277h68l-7 -36h-68l-24 -121h-38zM51 157h162l34 175q1 4 3 13.5t4 13.5l4 14h-2q-1 -1 -2.5 -3t-3 -4.5t-2.5 -3.5q-5 -7 -21 -23l-176 -180v-2z" />
    <glyph glyph-name="five.denominator" horiz-adv-x="362" 
d="M123 -10q-53 0 -99 32q-20 14 -34 31l29 24q15 -17 28 -25q38 -26 77 -26q52 0 89 36.5t37 86.5q0 42 -26 67.5t-68 25.5q-31 0 -61 -13q-14 -6 -25 -14l-24 10l67 209h209l-18 -93h-38l11 57h-139l-34 -112l-6 -15l-3 -7h2q7 4 17 7q22 6 46 6q57 0 93 -35.5t36 -90.5
q0 -66 -48.5 -113.5t-117.5 -47.5z" />
    <glyph glyph-name="six.denominator" horiz-adv-x="379" 
d="M147 -10q-62 0 -94 41.5t-32 110.5q0 40 16 90t44.5 98.5t75 81t100.5 32.5q31 0 61 -10q14 -5 22 -11l-21 -30q-2 1 -18 8q-18 7 -46 7q-60 0 -108 -52t-72 -126h2q48 48 119 48q52 0 83 -30.5t31 -83.5q0 -81 -50.5 -127.5t-112.5 -46.5zM147 26q54 0 89 40.5t35 96.5
q0 37 -22.5 58t-60.5 21q-44 0 -86 -32t-42 -72q0 -44 23 -78t64 -34z" />
    <glyph glyph-name="seven.denominator" horiz-adv-x="339" 
d="M11 0l262 378q3 5 12 14l6 6v2q-4 0 -7 -1q-4 -1 -16 -1h-175l-11 -57h-38l18 93h282l-5 -26l-284 -408h-44z" />
    <glyph glyph-name="eight.denominator" horiz-adv-x="384" 
d="M141 -10q-56 0 -93.5 29.5t-37.5 83.5q0 79 100 144q-39 32 -39 73q0 57 45.5 90.5t101.5 33.5q50 0 84 -25t34 -70q0 -31 -19 -64t-34.5 -48.5t-29.5 -27.5q50 -34 50 -82q0 -54 -48.5 -95.5t-113.5 -41.5zM222 227q13 10 28 24t31 42t16 54q0 29 -23.5 45t-56.5 16
q-40 0 -73.5 -23t-33.5 -63q0 -14 5 -25t20.5 -22l23 -16t33 -17t30.5 -15zM141 26q45 0 84 29t39 70q0 15 -6.5 27.5t-21.5 23t-27 17.5t-35 18l-33 16q-31 -15 -61.5 -47t-30.5 -76q0 -35 27 -56.5t65 -21.5z" />
    <glyph glyph-name="nine.denominator" horiz-adv-x="379" 
d="M94 -10q-29 0 -62 11q-16 5 -24 10l23 30l17 -7q22 -8 46 -8q60 0 108 52t72 126h-2q-48 -48 -119 -48q-52 0 -83 30.5t-31 83.5q0 81 50.5 127.5t112.5 46.5t94 -41.5t32 -110.5q0 -40 -16 -90t-44 -98.5t-74.5 -81t-99.5 -32.5zM161 192q44 0 86 32t42 72q0 44 -23 78
t-64 34q-54 0 -89 -40.5t-35 -96.5q0 -37 22.5 -58t60.5 -21z" />
    </font>
</defs>
</svg>
